<svg width="28" height="28" viewBox="0 0 28 28" fill="none" xmlns="http://www.w3.org/2000/svg">
<path opacity="0.4" d="M18.8882 2.33331H9.12325C4.86492 2.33331 2.33325 4.86498 2.33325 9.11164V18.8766C2.33325 23.1233 4.86492 25.655 9.11159 25.655H18.8766C23.1233 25.655 25.6549 23.1233 25.6549 18.8766V9.11164C25.6666 4.86498 23.1349 2.33331 18.8882 2.33331Z" fill="white"/>
<path d="M20.2416 10.5583L17.5116 19.355C16.8583 21.4433 13.93 21.4783 13.2416 19.4017L12.425 16.9867C12.2033 16.3217 11.6783 15.785 11.0133 15.575L8.58664 14.7583C6.52164 14.07 6.55663 11.1183 8.64497 10.4883L17.4416 7.74667C19.1683 7.22167 20.79 8.84334 20.2416 10.5583Z" fill="white"/>
</svg>
