<svg xmlns="http://www.w3.org/2000/svg" width="20" height="20" viewBox="0 0 20 20" fill="none">
  <g clip-path="url(#clip0_3711_13219)">
    <path d="M14.715 2.11633C14.715 2.27229 14.7269 2.42755 14.7498 2.58097C13.2172 1.68724 11.5934 1.21888 9.99996 1.21888C7.65444 1.21888 5.44931 2.13229 3.79078 3.79078C2.13221 5.44935 1.21884 7.65448 1.21884 10C1.21884 11.2349 1.3288 12.0357 1.66596 12.9167C1.26 12.9749 0.869616 13.113 0.517453 13.3232C0.135503 12.3115 -9.9349e-07 11.3642 -8.74224e-07 9.99996C-6.40709e-07 7.32886 1.04019 4.81767 2.92893 2.92889C4.81767 1.04019 7.3289 -1.10774e-06 9.99996 -8.74231e-07C11.628 -7.31905e-07 13.2747 0.424979 14.8401 1.23938C14.7572 1.52432 14.715 1.81957 14.715 2.11633ZM3.75901 16.9556C3.73359 16.9978 3.75737 16.9587 3.69721 17.0551L2.22848 19.4199C2.13855 19.5647 1.92633 19.56 1.84277 19.4115L0.459872 16.9526L0.461201 16.9526C0.288416 16.6522 0.194727 16.3006 0.210141 15.9258C0.250668 14.9408 1.05509 14.1402 2.04024 14.1046C3.12299 14.0655 4.01309 14.9316 4.01309 16.0056C4.01346 16.3392 3.92567 16.667 3.75859 16.9557L3.75901 16.9557L3.75901 16.9556ZM2.11077 15.4132C1.78379 15.4132 1.51872 15.6783 1.51872 16.0053C1.51872 16.3322 1.78379 16.5973 2.11077 16.5973C2.43776 16.5973 2.70283 16.3322 2.70283 16.0053C2.70283 15.6783 2.43772 15.4132 2.11077 15.4132ZM16.1891 3.07774L16.1904 3.07774C16.015 2.77281 15.9199 2.41582 15.9355 2.03524C15.9767 1.03518 16.7934 0.222386 17.7937 0.186241C18.8929 0.146497 19.7966 1.02587 19.7966 2.11633C19.7966 2.46777 19.7023 2.79698 19.5382 3.0809L19.5387 3.0809C19.5129 3.12374 19.537 3.08399 19.4759 3.18195L17.9817 5.58775C17.8917 5.73252 17.6795 5.72791 17.596 5.57938L16.1891 3.07774ZM18.4663 2.11598C18.4663 1.78402 18.1972 1.51489 17.8652 1.51489C17.5333 1.51489 17.2642 1.78402 17.2642 2.11598C17.2642 2.44797 17.5333 2.71707 17.8652 2.71707C18.1972 2.71707 18.4663 2.44793 18.4663 2.11598ZM4.73227 17.6988C4.74472 17.6788 4.75723 17.6588 4.76979 17.6389C4.78129 17.6206 4.78133 17.6206 4.79662 17.5952L4.80269 17.5852C4.81324 17.5677 4.82335 17.5499 4.833 17.5319C4.89639 17.4189 4.95263 17.302 5.00141 17.182C6.492 18.2688 8.1041 18.781 9.99996 18.781C12.3455 18.781 14.5506 17.8676 16.2092 16.2091C17.8677 14.5506 18.7811 12.3454 18.7811 9.99992C18.7811 8.75604 18.6566 7.82257 18.3529 6.98571C18.5432 6.88494 18.7034 6.73552 18.8171 6.55268L19.2177 5.9077C19.8526 7.23224 20 8.52939 20 9.99996C20 12.6711 18.9598 15.1822 17.071 17.071C15.1822 18.9598 12.6711 20 9.99996 20C7.87428 20 6.06323 19.4381 4.39179 18.2469L4.73227 17.6988Z" fill="#171717"/>
    <path d="M14.9948 8.5954C14.7434 8.654 14.438 8.64551 14.061 8.56947C13.7687 8.51051 13.5294 8.38236 13.3871 8.2086C13.3129 8.11793 13.245 7.99142 13.1732 7.85748C13.0666 7.65868 12.9458 7.43336 12.7571 7.22873C12.4179 6.86094 11.987 6.69117 11.6069 6.54139C11.4877 6.49441 11.3752 6.45005 11.2718 6.40228C10.3208 5.96248 9.61523 4.73902 9.69891 3.67493C9.70154 3.63925 9.70103 3.60341 9.69738 3.56782C9.79816 3.56306 9.89903 3.56063 9.99992 3.56055C13.0854 3.56055 15.6634 5.73152 16.291 8.62916C15.8696 8.54087 15.408 8.49921 14.9948 8.5954ZM3.68712 11.1042C4.24877 11.0074 5.22802 10.9898 5.79015 11.0342C7.71331 11.1857 8.57868 10.9683 9.22734 10.7108C9.32087 10.6737 9.41241 10.6341 9.50085 10.5959C9.8057 10.4642 10.0935 10.34 10.2949 10.3878C10.4595 10.4271 10.622 10.6152 10.6992 10.8558C10.7935 11.1497 10.785 11.502 10.7654 11.8988L10.7588 12.0318C10.726 12.6782 10.6922 13.3466 10.83 14.0256C10.9734 14.7321 11.6012 15.5565 12.2086 16.0464C11.5198 16.298 10.7759 16.4354 10 16.4354C6.82314 16.4354 4.18407 14.1341 3.65817 11.1076C3.66779 11.1064 3.67742 11.1058 3.68712 11.1042Z" fill="#171717"/>
    <path opacity="0.4" d="M13.1717 15.2386C12.7006 14.957 12.1109 14.2089 12.0245 13.7832C11.9173 13.2548 11.9458 12.6906 11.9761 12.0934L11.9828 11.9589C12.0075 11.4601 12.0166 10.9718 11.8598 10.4833C11.6507 9.83192 11.1595 9.34103 10.5779 9.20223C9.98238 9.05996 9.44736 9.29127 9.01754 9.47696C8.93355 9.51326 8.85426 9.54749 8.77766 9.57793C7.86817 9.93895 6.8081 9.89177 5.88593 9.81905C5.27843 9.77125 4.24137 9.7858 3.564 9.8895C3.61329 6.9076 5.68976 4.4193 8.47528 3.74268C8.42752 5.27646 9.38701 6.87342 10.7603 7.50854C10.8956 7.57117 11.0301 7.62413 11.1602 7.67538C11.4436 7.78706 11.7113 7.89252 11.8611 8.05502C11.9449 8.14589 12.0199 8.28558 12.0992 8.43349C12.1909 8.60459 12.2949 8.79842 12.4441 8.98075C12.7641 9.37162 13.2528 9.64986 13.8201 9.76432C14.3717 9.87561 14.8464 9.88156 15.2714 9.78255C15.5844 9.70971 16.0536 9.81146 16.4366 9.92486C16.4368 9.94927 16.4375 9.97357 16.4375 9.99802C16.4375 12.308 15.2206 14.3334 13.3931 15.4691C13.3413 15.3738 13.2648 15.2942 13.1717 15.2386Z" fill="#171717"/>
  </g>
  <defs>
    <clipPath id="clip0_3711_13219">
      <rect width="20" height="20" fill="white" transform="matrix(-1 -8.74228e-08 -8.74228e-08 1 20 0)"/>
    </clipPath>
  </defs>
</svg>