<svg width="30" height="30" viewBox="0 0 30 30" fill="none" xmlns="http://www.w3.org/2000/svg">
<g id="vuesax/bulk/folder-open">
<g id="folder-open">
<path id="Vector" d="M26.3267 14.775L26.1267 14.5C25.7767 14.075 25.3642 13.7375 24.8892 13.4875C24.2517 13.125 23.5267 12.9375 22.7767 12.9375H7.21421C6.46421 12.9375 5.75171 13.125 5.10171 13.4875C4.61421 13.75 4.17671 14.1125 3.81421 14.5625C3.10171 15.475 2.76421 16.6 2.87671 17.725L3.33921 23.5625C3.50171 25.325 3.71421 27.5 7.67671 27.5H22.3267C26.2892 27.5 26.4892 25.325 26.6642 23.55L27.1267 17.7375C27.2392 16.6875 26.9642 15.6375 26.3267 14.775ZM17.9892 21.675H12.0017C11.5142 21.675 11.1267 21.275 11.1267 20.8C11.1267 20.325 11.5142 19.925 12.0017 19.925H17.9892C18.4767 19.925 18.8642 20.325 18.8642 20.8C18.8642 21.2875 18.4767 21.675 17.9892 21.675Z" fill="url(#paint0_linear_3462_23429)"/>
<path id="Vector_2" opacity="0.4" d="M4.22656 14.1375C4.50156 13.8875 4.77656 13.6625 5.10156 13.4875C5.73906 13.125 6.46406 12.9375 7.21406 12.9375H22.7891C23.5391 12.9375 24.2516 13.125 24.9016 13.4875C25.2266 13.6625 25.5141 13.8875 25.7766 14.15V13.4875V12.275C25.7766 7.8125 24.4141 6.45 19.9516 6.45H16.9766C16.4266 6.45 16.4141 6.4375 16.0891 6.0125L14.5891 4C13.8766 3.075 13.3141 2.5 11.5266 2.5H10.0516C5.58906 2.5 4.22656 3.8625 4.22656 8.325V13.5V14.1375Z" fill="url(#paint1_linear_3462_23429)"/>
</g>
</g>
<defs>
<linearGradient id="paint0_linear_3462_23429" x1="2.85547" y1="20.2187" x2="27.1513" y2="20.2187" gradientUnits="userSpaceOnUse">
<stop stop-color="#29B662"/>
<stop offset="0.0001" stop-color="#24BD63"/>
<stop offset="1" stop-color="#1A9B4F"/>
</linearGradient>
<linearGradient id="paint1_linear_3462_23429" x1="4.22656" y1="8.325" x2="25.7766" y2="8.325" gradientUnits="userSpaceOnUse">
<stop stop-color="#29B662"/>
<stop offset="0.0001" stop-color="#24BD63"/>
<stop offset="1" stop-color="#1A9B4F"/>
</linearGradient>
</defs>
</svg>
