<svg width="27" height="28" viewBox="0 0 27 28" fill="none" xmlns="http://www.w3.org/2000/svg">
<path d="M2.8125 23C2.34844 23 1.95117 22.8348 1.6207 22.5043C1.29023 22.1738 1.125 21.7766 1.125 21.3125V8.375H2.8125V21.3125H22.5V23H2.8125ZM6.1875 19.625C5.72344 19.625 5.32617 19.4598 4.9957 19.1293C4.66523 18.7988 4.5 18.4016 4.5 17.9375V6.6875C4.5 6.22344 4.66523 5.82617 4.9957 5.4957C5.32617 5.16523 5.72344 5 6.1875 5H24.1875C24.6516 5 25.0488 5.16523 25.3793 5.4957C25.7098 5.82617 25.875 6.22344 25.875 6.6875V17.9375C25.875 18.4016 25.7098 18.7988 25.3793 19.1293C25.0488 19.4598 24.6516 19.625 24.1875 19.625H6.1875ZM9 17.9375C9 17.15 8.72812 16.4844 8.18437 15.9406C7.64062 15.3969 6.975 15.125 6.1875 15.125V17.9375H9ZM21.375 17.9375H24.1875V15.125C23.4 15.125 22.7344 15.3969 22.1906 15.9406C21.6469 16.4844 21.375 17.15 21.375 17.9375ZM15.1875 15.6875C16.125 15.6875 16.9219 15.3594 17.5781 14.7031C18.2344 14.0469 18.5625 13.25 18.5625 12.3125C18.5625 11.375 18.2344 10.5781 17.5781 9.92188C16.9219 9.26562 16.125 8.9375 15.1875 8.9375C14.25 8.9375 13.4531 9.26562 12.7969 9.92188C12.1406 10.5781 11.8125 11.375 11.8125 12.3125C11.8125 13.25 12.1406 14.0469 12.7969 14.7031C13.4531 15.3594 14.25 15.6875 15.1875 15.6875ZM6.1875 9.5C6.975 9.5 7.64062 9.22813 8.18437 8.68437C8.72812 8.14062 9 7.475 9 6.6875H6.1875V9.5ZM24.1875 9.5V6.6875H21.375C21.375 7.475 21.6469 8.14062 22.1906 8.68437C22.7344 9.22813 23.4 9.5 24.1875 9.5Z" fill="url(#paint0_linear_667_1941)"/>
<defs>
<linearGradient id="paint0_linear_667_1941" x1="1.125" y1="14" x2="25.875" y2="14" gradientUnits="userSpaceOnUse">
<stop stop-color="#29B662"/>
<stop offset="0.0001" stop-color="#24BD63"/>
<stop offset="1" stop-color="#1A9B4F"/>
</linearGradient>
</defs>
</svg>
