<svg xmlns="http://www.w3.org/2000/svg" width="12" height="13" viewBox="0 0 12 13" fill="none">
<path d="M5.55957 7.72852C5.4179 7.72852 5.29915 7.6806 5.20332 7.58477C5.10749 7.48893 5.05957 7.37018 5.05957 7.22852C5.05957 7.08685 5.10749 6.9681 5.20332 6.87227C5.29915 6.77643 5.4179 6.72852 5.55957 6.72852C5.70124 6.72852 5.81999 6.77643 5.91582 6.87227C6.01165 6.9681 6.05957 7.08685 6.05957 7.22852C6.05957 7.37018 6.01165 7.48893 5.91582 7.58477C5.81999 7.6806 5.70124 7.72852 5.55957 7.72852ZM3.55957 7.72852C3.4179 7.72852 3.29915 7.6806 3.20332 7.58477C3.10749 7.48893 3.05957 7.37018 3.05957 7.22852C3.05957 7.08685 3.10749 6.9681 3.20332 6.87227C3.29915 6.77643 3.4179 6.72852 3.55957 6.72852C3.70124 6.72852 3.81999 6.77643 3.91582 6.87227C4.01165 6.9681 4.05957 7.08685 4.05957 7.22852C4.05957 7.37018 4.01165 7.48893 3.91582 7.58477C3.81999 7.6806 3.70124 7.72852 3.55957 7.72852ZM7.55957 7.72852C7.4179 7.72852 7.29915 7.6806 7.20332 7.58477C7.10749 7.48893 7.05957 7.37018 7.05957 7.22852C7.05957 7.08685 7.10749 6.9681 7.20332 6.87227C7.29915 6.77643 7.4179 6.72852 7.55957 6.72852C7.70124 6.72852 7.81999 6.77643 7.91582 6.87227C8.01165 6.9681 8.05957 7.08685 8.05957 7.22852C8.05957 7.37018 8.01165 7.48893 7.91582 7.58477C7.81999 7.6806 7.70124 7.72852 7.55957 7.72852ZM5.55957 9.72852C5.4179 9.72852 5.29915 9.6806 5.20332 9.58477C5.10749 9.48893 5.05957 9.37018 5.05957 9.22852C5.05957 9.08685 5.10749 8.9681 5.20332 8.87227C5.29915 8.77643 5.4179 8.72852 5.55957 8.72852C5.70124 8.72852 5.81999 8.77643 5.91582 8.87227C6.01165 8.9681 6.05957 9.08685 6.05957 9.22852C6.05957 9.37018 6.01165 9.48893 5.91582 9.58477C5.81999 9.6806 5.70124 9.72852 5.55957 9.72852ZM3.55957 9.72852C3.4179 9.72852 3.29915 9.6806 3.20332 9.58477C3.10749 9.48893 3.05957 9.37018 3.05957 9.22852C3.05957 9.08685 3.10749 8.9681 3.20332 8.87227C3.29915 8.77643 3.4179 8.72852 3.55957 8.72852C3.70124 8.72852 3.81999 8.77643 3.91582 8.87227C4.01165 8.9681 4.05957 9.08685 4.05957 9.22852C4.05957 9.37018 4.01165 9.48893 3.91582 9.58477C3.81999 9.6806 3.70124 9.72852 3.55957 9.72852ZM7.55957 9.72852C7.4179 9.72852 7.29915 9.6806 7.20332 9.58477C7.10749 9.48893 7.05957 9.37018 7.05957 9.22852C7.05957 9.08685 7.10749 8.9681 7.20332 8.87227C7.29915 8.77643 7.4179 8.72852 7.55957 8.72852C7.70124 8.72852 7.81999 8.77643 7.91582 8.87227C8.01165 8.9681 8.05957 9.08685 8.05957 9.22852C8.05957 9.37018 8.01165 9.48893 7.91582 9.58477C7.81999 9.6806 7.70124 9.72852 7.55957 9.72852ZM1.80957 11.7285C1.60957 11.7285 1.43457 11.6535 1.28457 11.5035C1.13457 11.3535 1.05957 11.1785 1.05957 10.9785V3.22852C1.05957 3.02852 1.13457 2.85352 1.28457 2.70352C1.43457 2.55352 1.60957 2.47852 1.80957 2.47852H2.62207V1.72852H3.43457V2.47852H7.68457V1.72852H8.49707V2.47852H9.30957C9.50957 2.47852 9.68457 2.55352 9.83457 2.70352C9.98457 2.85352 10.0596 3.02852 10.0596 3.22852V10.9785C10.0596 11.1785 9.98457 11.3535 9.83457 11.5035C9.68457 11.6535 9.50957 11.7285 9.30957 11.7285H1.80957ZM1.80957 10.9785H9.30957V5.60352H1.80957V10.9785Z" fill="#171717"/>
</svg>