<svg xmlns="http://www.w3.org/2000/svg" width="13" height="12" viewBox="0 0 13 12" fill="none">
  <path d="M8.64806 1.78V1C8.64806 0.795 8.47806 0.625 8.27306 0.625C8.06806 0.625 7.89806 0.795 7.89806 1V1.75H4.64806V1C4.64806 0.795 4.47806 0.625 4.27306 0.625C4.06806 0.625 3.89806 0.795 3.89806 1V1.78C2.54806 1.905 1.89306 2.71 1.79306 3.905C1.78306 4.05 1.90306 4.17 2.04306 4.17H10.5031C10.6481 4.17 10.7681 4.045 10.7531 3.905C10.6531 2.71 9.99806 1.905 8.64806 1.78Z" fill="#171717"/>
  <path opacity="0.4" d="M10.2729 4.91992C10.5479 4.91992 10.7729 5.14492 10.7729 5.41992V8.49992C10.7729 9.99992 10.0229 10.9999 8.27295 10.9999H4.27295C2.52295 10.9999 1.77295 9.99992 1.77295 8.49992V5.41992C1.77295 5.14492 1.99795 4.91992 2.27295 4.91992H10.2729Z" fill="#171717"/>
  <path d="M4.52295 7.49994C4.39295 7.49994 4.26295 7.44493 4.16795 7.35493C4.07795 7.25993 4.02295 7.12994 4.02295 6.99994C4.02295 6.86994 4.07795 6.73994 4.16795 6.64494C4.30795 6.50494 4.52795 6.45993 4.71295 6.53993C4.77795 6.56493 4.83295 6.59994 4.87795 6.64494C4.96795 6.73994 5.02295 6.86994 5.02295 6.99994C5.02295 7.12994 4.96795 7.25993 4.87795 7.35493C4.78295 7.44493 4.65295 7.49994 4.52295 7.49994Z" fill="#171717"/>
  <path d="M6.27295 7.49994C6.14295 7.49994 6.01295 7.44493 5.91795 7.35493C5.82795 7.25993 5.77295 7.12994 5.77295 6.99994C5.77295 6.86994 5.82795 6.73994 5.91795 6.64494C5.96295 6.59994 6.01795 6.56493 6.08295 6.53993C6.26795 6.45993 6.48795 6.50494 6.62795 6.64494C6.71795 6.73994 6.77295 6.86994 6.77295 6.99994C6.77295 7.12994 6.71795 7.25993 6.62795 7.35493C6.60295 7.37493 6.57795 7.39493 6.55295 7.41493C6.52295 7.43493 6.49295 7.44994 6.46295 7.45994C6.43295 7.47494 6.40295 7.48494 6.37295 7.48994C6.33795 7.49494 6.30795 7.49994 6.27295 7.49994Z" fill="#171717"/>
  <path d="M8.02295 7.50001C7.89295 7.50001 7.76295 7.445 7.66795 7.355C7.57795 7.26 7.52295 7.13001 7.52295 7.00001C7.52295 6.87001 7.57795 6.74001 7.66795 6.64501C7.71795 6.60001 7.76795 6.565 7.83295 6.54C7.92295 6.5 8.02295 6.49 8.12295 6.51C8.15295 6.515 8.18295 6.525 8.21295 6.54C8.24295 6.55 8.27295 6.56501 8.30295 6.58501C8.32795 6.60501 8.35295 6.62501 8.37795 6.64501C8.46795 6.74001 8.52295 6.87001 8.52295 7.00001C8.52295 7.13001 8.46795 7.26 8.37795 7.355C8.35295 7.375 8.32795 7.395 8.30295 7.415C8.27295 7.435 8.24295 7.45001 8.21295 7.46001C8.18295 7.47501 8.15295 7.48501 8.12295 7.49001C8.08795 7.49501 8.05295 7.50001 8.02295 7.50001Z" fill="#171717"/>
  <path d="M4.52295 9.25001C4.45795 9.25001 4.39295 9.23501 4.33295 9.21001C4.26795 9.18501 4.21795 9.15 4.16795 9.105C4.07795 9.01 4.02295 8.88001 4.02295 8.75001C4.02295 8.62001 4.07795 8.49001 4.16795 8.39501C4.21795 8.35001 4.26795 8.315 4.33295 8.29C4.42295 8.25 4.52295 8.24 4.62295 8.26C4.65295 8.265 4.68295 8.275 4.71295 8.29C4.74295 8.3 4.77295 8.31501 4.80295 8.33501C4.82795 8.35501 4.85295 8.37501 4.87795 8.39501C4.96795 8.49001 5.02295 8.62001 5.02295 8.75001C5.02295 8.88001 4.96795 9.01 4.87795 9.105C4.85295 9.125 4.82795 9.15 4.80295 9.165C4.77295 9.185 4.74295 9.20001 4.71295 9.21001C4.68295 9.22501 4.65295 9.23501 4.62295 9.24001C4.58795 9.24501 4.55795 9.25001 4.52295 9.25001Z" fill="#171717"/>
  <path d="M6.27295 9.25009C6.14295 9.25009 6.01295 9.19509 5.91795 9.10509C5.82795 9.01009 5.77295 8.88009 5.77295 8.75009C5.77295 8.62009 5.82795 8.4901 5.91795 8.3951C6.10295 8.2101 6.44295 8.2101 6.62795 8.3951C6.71795 8.4901 6.77295 8.62009 6.77295 8.75009C6.77295 8.88009 6.71795 9.01009 6.62795 9.10509C6.53295 9.19509 6.40295 9.25009 6.27295 9.25009Z" fill="#171717"/>
  <path d="M8.02295 9.25009C7.89295 9.25009 7.76295 9.19509 7.66795 9.10509C7.57795 9.01009 7.52295 8.88009 7.52295 8.75009C7.52295 8.62009 7.57795 8.4901 7.66795 8.3951C7.85295 8.2101 8.19295 8.2101 8.37795 8.3951C8.46795 8.4901 8.52295 8.62009 8.52295 8.75009C8.52295 8.88009 8.46795 9.01009 8.37795 9.10509C8.28295 9.19509 8.15295 9.25009 8.02295 9.25009Z" fill="#171717"/>
</svg>