<svg width="30" height="31" viewBox="0 0 30 31" fill="none" xmlns="http://www.w3.org/2000/svg">
<g id="vuesax/bulk/calendar">
<g id="calendar">
<path id="Vector" d="M20.9378 4.95V3C20.9378 2.4875 20.5128 2.0625 20.0003 2.0625C19.4878 2.0625 19.0628 2.4875 19.0628 3V4.875H10.9378V3C10.9378 2.4875 10.5128 2.0625 10.0003 2.0625C9.48779 2.0625 9.06279 2.4875 9.06279 3V4.95C5.68779 5.2625 4.05029 7.275 3.80029 10.2625C3.77529 10.625 4.07529 10.925 4.42529 10.925H25.5753C25.9378 10.925 26.2378 10.6125 26.2003 10.2625C25.9503 7.275 24.3128 5.2625 20.9378 4.95Z" fill="url(#paint0_linear_2881_405)"/>
<path id="Vector_2" opacity="0.4" d="M25 12.7998C25.6875 12.7998 26.25 13.3623 26.25 14.0498V21.7498C26.25 25.4998 24.375 27.9998 20 27.9998H10C5.625 27.9998 3.75 25.4998 3.75 21.7498V14.0498C3.75 13.3623 4.3125 12.7998 5 12.7998H25Z" fill="url(#paint1_linear_2881_405)"/>
<g id="Group">
<path id="Vector_3" d="M10.625 19.2501C10.3 19.2501 9.975 19.1126 9.7375 18.8876C9.5125 18.6501 9.375 18.3251 9.375 18.0001C9.375 17.6751 9.5125 17.3501 9.7375 17.1126C10.0875 16.7626 10.6375 16.6501 11.1 16.8501C11.2625 16.9126 11.4 17.0001 11.5125 17.1126C11.7375 17.3501 11.875 17.6751 11.875 18.0001C11.875 18.3251 11.7375 18.6501 11.5125 18.8876C11.275 19.1126 10.95 19.2501 10.625 19.2501Z" fill="url(#paint2_linear_2881_405)"/>
</g>
<g id="Group_2">
<path id="Vector_4" d="M15 19.2501C14.675 19.2501 14.35 19.1126 14.1125 18.8876C13.8875 18.6501 13.75 18.3251 13.75 18.0001C13.75 17.6751 13.8875 17.3501 14.1125 17.1126C14.225 17.0001 14.3625 16.9126 14.525 16.8501C14.9875 16.6501 15.5375 16.7626 15.8875 17.1126C16.1125 17.3501 16.25 17.6751 16.25 18.0001C16.25 18.3251 16.1125 18.6501 15.8875 18.8876C15.825 18.9376 15.7625 18.9876 15.7 19.0376C15.625 19.0876 15.55 19.1251 15.475 19.1501C15.4 19.1876 15.325 19.2126 15.25 19.2251C15.1625 19.2376 15.0875 19.2501 15 19.2501Z" fill="url(#paint3_linear_2881_405)"/>
</g>
<g id="Group_3">
<path id="Vector_5" d="M19.375 19.25C19.05 19.25 18.725 19.1125 18.4875 18.8875C18.2625 18.65 18.125 18.325 18.125 18C18.125 17.675 18.2625 17.35 18.4875 17.1125C18.6125 17 18.7375 16.9125 18.9 16.85C19.125 16.75 19.375 16.725 19.625 16.775C19.7 16.7875 19.775 16.8125 19.85 16.85C19.925 16.875 20 16.9125 20.075 16.9625C20.1375 17.0125 20.2 17.0625 20.2625 17.1125C20.4875 17.35 20.625 17.675 20.625 18C20.625 18.325 20.4875 18.65 20.2625 18.8875C20.2 18.9375 20.1375 18.9875 20.075 19.0375C20 19.0875 19.925 19.125 19.85 19.15C19.775 19.1875 19.7 19.2125 19.625 19.225C19.5375 19.2375 19.45 19.25 19.375 19.25Z" fill="url(#paint4_linear_2881_405)"/>
</g>
<g id="Group_4">
<path id="Vector_6" d="M10.625 23.625C10.4625 23.625 10.3 23.5875 10.15 23.525C9.9875 23.4625 9.8625 23.375 9.7375 23.2625C9.5125 23.025 9.375 22.7 9.375 22.375C9.375 22.05 9.5125 21.725 9.7375 21.4875C9.8625 21.375 9.9875 21.2875 10.15 21.225C10.375 21.125 10.625 21.1 10.875 21.15C10.95 21.1625 11.025 21.1875 11.1 21.225C11.175 21.25 11.25 21.2875 11.325 21.3375C11.3875 21.3875 11.45 21.4375 11.5125 21.4875C11.7375 21.725 11.875 22.05 11.875 22.375C11.875 22.7 11.7375 23.025 11.5125 23.2625C11.45 23.3125 11.3875 23.375 11.325 23.4125C11.25 23.4625 11.175 23.5 11.1 23.525C11.025 23.5625 10.95 23.5875 10.875 23.6C10.7875 23.6125 10.7125 23.625 10.625 23.625Z" fill="url(#paint5_linear_2881_405)"/>
</g>
<g id="Group_5">
<path id="Vector_7" d="M15 23.625C14.675 23.625 14.35 23.4875 14.1125 23.2625C13.8875 23.025 13.75 22.7 13.75 22.375C13.75 22.05 13.8875 21.725 14.1125 21.4875C14.575 21.025 15.425 21.025 15.8875 21.4875C16.1125 21.725 16.25 22.05 16.25 22.375C16.25 22.7 16.1125 23.025 15.8875 23.2625C15.65 23.4875 15.325 23.625 15 23.625Z" fill="url(#paint6_linear_2881_405)"/>
</g>
<g id="Group_6">
<path id="Vector_8" d="M19.375 23.625C19.05 23.625 18.725 23.4875 18.4875 23.2625C18.2625 23.025 18.125 22.7 18.125 22.375C18.125 22.05 18.2625 21.725 18.4875 21.4875C18.95 21.025 19.8 21.025 20.2625 21.4875C20.4875 21.725 20.625 22.05 20.625 22.375C20.625 22.7 20.4875 23.025 20.2625 23.2625C20.025 23.4875 19.7 23.625 19.375 23.625Z" fill="url(#paint7_linear_2881_405)"/>
</g>
</g>
</g>
<defs>
<linearGradient id="paint0_linear_2881_405" x1="3.79883" y1="6.49375" x2="26.2035" y2="6.49375" gradientUnits="userSpaceOnUse">
<stop stop-color="#29B662"/>
<stop offset="0.0001" stop-color="#24BD63"/>
<stop offset="1" stop-color="#1A9B4F"/>
</linearGradient>
<linearGradient id="paint1_linear_2881_405" x1="3.75" y1="20.3998" x2="26.25" y2="20.3998" gradientUnits="userSpaceOnUse">
<stop stop-color="#29B662"/>
<stop offset="0.0001" stop-color="#24BD63"/>
<stop offset="1" stop-color="#1A9B4F"/>
</linearGradient>
<linearGradient id="paint2_linear_2881_405" x1="9.375" y1="18.0008" x2="11.875" y2="18.0008" gradientUnits="userSpaceOnUse">
<stop stop-color="#29B662"/>
<stop offset="0.0001" stop-color="#24BD63"/>
<stop offset="1" stop-color="#1A9B4F"/>
</linearGradient>
<linearGradient id="paint3_linear_2881_405" x1="13.75" y1="18.0008" x2="16.25" y2="18.0008" gradientUnits="userSpaceOnUse">
<stop stop-color="#29B662"/>
<stop offset="0.0001" stop-color="#24BD63"/>
<stop offset="1" stop-color="#1A9B4F"/>
</linearGradient>
<linearGradient id="paint4_linear_2881_405" x1="18.125" y1="18" x2="20.625" y2="18" gradientUnits="userSpaceOnUse">
<stop stop-color="#29B662"/>
<stop offset="0.0001" stop-color="#24BD63"/>
<stop offset="1" stop-color="#1A9B4F"/>
</linearGradient>
<linearGradient id="paint5_linear_2881_405" x1="9.375" y1="22.375" x2="11.875" y2="22.375" gradientUnits="userSpaceOnUse">
<stop stop-color="#29B662"/>
<stop offset="0.0001" stop-color="#24BD63"/>
<stop offset="1" stop-color="#1A9B4F"/>
</linearGradient>
<linearGradient id="paint6_linear_2881_405" x1="13.75" y1="22.3828" x2="16.25" y2="22.3828" gradientUnits="userSpaceOnUse">
<stop stop-color="#29B662"/>
<stop offset="0.0001" stop-color="#24BD63"/>
<stop offset="1" stop-color="#1A9B4F"/>
</linearGradient>
<linearGradient id="paint7_linear_2881_405" x1="18.125" y1="22.3828" x2="20.625" y2="22.3828" gradientUnits="userSpaceOnUse">
<stop stop-color="#29B662"/>
<stop offset="0.0001" stop-color="#24BD63"/>
<stop offset="1" stop-color="#1A9B4F"/>
</linearGradient>
</defs>
</svg>
