<svg width="10" height="11" viewBox="0 0 10 11" fill="none" xmlns="http://www.w3.org/2000/svg">
<path id="Vector" d="M5 6.5C4.85833 6.5 4.73958 6.45208 4.64375 6.35625C4.54792 6.26042 4.5 6.14167 4.5 6C4.5 5.85833 4.54792 5.73958 4.64375 5.64375C4.73958 5.54792 4.85833 5.5 5 5.5C5.14167 5.5 5.26042 5.54792 5.35625 5.64375C5.45208 5.73958 5.5 5.85833 5.5 6C5.5 6.14167 5.45208 6.26042 5.35625 6.35625C5.26042 6.45208 5.14167 6.5 5 6.5ZM3 6.5C2.85833 6.5 2.73958 6.45208 2.64375 6.35625C2.54792 6.26042 2.5 6.14167 2.5 6C2.5 5.85833 2.54792 5.73958 2.64375 5.64375C2.73958 5.54792 2.85833 5.5 3 5.5C3.14167 5.5 3.26042 5.54792 3.35625 5.64375C3.45208 5.73958 3.5 5.85833 3.5 6C3.5 6.14167 3.45208 6.26042 3.35625 6.35625C3.26042 6.45208 3.14167 6.5 3 6.5ZM7 6.5C6.85833 6.5 6.73958 6.45208 6.64375 6.35625C6.54792 6.26042 6.5 6.14167 6.5 6C6.5 5.85833 6.54792 5.73958 6.64375 5.64375C6.73958 5.54792 6.85833 5.5 7 5.5C7.14167 5.5 7.26042 5.54792 7.35625 5.64375C7.45208 5.73958 7.5 5.85833 7.5 6C7.5 6.14167 7.45208 6.26042 7.35625 6.35625C7.26042 6.45208 7.14167 6.5 7 6.5ZM5 8.5C4.85833 8.5 4.73958 8.45208 4.64375 8.35625C4.54792 8.26042 4.5 8.14167 4.5 8C4.5 7.85833 4.54792 7.73958 4.64375 7.64375C4.73958 7.54792 4.85833 7.5 5 7.5C5.14167 7.5 5.26042 7.54792 5.35625 7.64375C5.45208 7.73958 5.5 7.85833 5.5 8C5.5 8.14167 5.45208 8.26042 5.35625 8.35625C5.26042 8.45208 5.14167 8.5 5 8.5ZM3 8.5C2.85833 8.5 2.73958 8.45208 2.64375 8.35625C2.54792 8.26042 2.5 8.14167 2.5 8C2.5 7.85833 2.54792 7.73958 2.64375 7.64375C2.73958 7.54792 2.85833 7.5 3 7.5C3.14167 7.5 3.26042 7.54792 3.35625 7.64375C3.45208 7.73958 3.5 7.85833 3.5 8C3.5 8.14167 3.45208 8.26042 3.35625 8.35625C3.26042 8.45208 3.14167 8.5 3 8.5ZM7 8.5C6.85833 8.5 6.73958 8.45208 6.64375 8.35625C6.54792 8.26042 6.5 8.14167 6.5 8C6.5 7.85833 6.54792 7.73958 6.64375 7.64375C6.73958 7.54792 6.85833 7.5 7 7.5C7.14167 7.5 7.26042 7.54792 7.35625 7.64375C7.45208 7.73958 7.5 7.85833 7.5 8C7.5 8.14167 7.45208 8.26042 7.35625 8.35625C7.26042 8.45208 7.14167 8.5 7 8.5ZM1.25 10.5C1.05 10.5 0.875 10.425 0.725 10.275C0.575 10.125 0.5 9.95 0.5 9.75V2C0.5 1.8 0.575 1.625 0.725 1.475C0.875 1.325 1.05 1.25 1.25 1.25H2.0625V0.5H2.875V1.25H7.125V0.5H7.9375V1.25H8.75C8.95 1.25 9.125 1.325 9.275 1.475C9.425 1.625 9.5 1.8 9.5 2V9.75C9.5 9.95 9.425 10.125 9.275 10.275C9.125 10.425 8.95 10.5 8.75 10.5H1.25ZM1.25 9.75H8.75V4.375H1.25V9.75Z" fill="#171717"/>
</svg>
