<svg xmlns="http://www.w3.org/2000/svg" width="20" height="20" viewBox="0 0 20 20" fill="none">
  <path d="M0.57785 19.0493C0.6417 19.1132 0.717523 19.1639 0.800984 19.1985C0.884445 19.2331 0.973908 19.2509 1.06426 19.2509C1.1546 19.2509 1.24407 19.2331 1.32753 19.1985C1.41099 19.1639 1.48681 19.1132 1.55066 19.0493L10 10.5999L18.4529 19.0493C18.5819 19.1783 18.7568 19.2508 18.9393 19.2508C19.1217 19.2508 19.2967 19.1783 19.4257 19.0493C19.5547 18.9203 19.6271 18.7453 19.6271 18.5629C19.6271 18.3804 19.5547 18.2055 19.4257 18.0765L10.9728 9.6271L19.4222 1.17429C19.5512 1.04529 19.6237 0.87032 19.6237 0.687882C19.6237 0.505445 19.5512 0.330479 19.4222 0.201476C19.2932 0.072473 19.1183 0 18.9358 0C18.7534 0 18.5784 0.072473 18.4494 0.201476L10 8.65429L1.54722 0.204914C1.4157 0.092283 1.24653 0.0334288 1.0735 0.0401121C0.900473 0.0467954 0.73634 0.118524 0.6139 0.240964C0.49146 0.363404 0.419731 0.527537 0.413048 0.700564C0.406365 0.873592 0.465219 1.04277 0.57785 1.17429L9.02722 9.6271L0.57785 18.0799C0.449802 18.2087 0.37793 18.383 0.37793 18.5646C0.37793 18.7462 0.449802 18.9205 0.57785 19.0493Z" fill="#171717"/>
</svg>