<svg width="51" height="53" viewBox="0 0 51 53" fill="none" xmlns="http://www.w3.org/2000/svg">
<g opacity="0.2">
<path fill-rule="evenodd" clip-rule="evenodd" d="M36.6656 21.4029C37.9576 19.5214 40.3988 17.4986 43.7206 15.8114C44.5859 15.3733 44.1966 14.0165 43.2429 14.1419C36.2593 15.0606 31.7322 18.2388 29.2604 22.9647C28.366 24.6941 27.7558 26.5666 27.455 28.5049C27.2527 29.7646 27.2 30.7097 27.2 31.8015C27.2 34.1443 28.0955 36.3911 29.6896 38.0476C31.2837 39.7042 33.4457 40.6349 35.7 40.6349C37.9543 40.6349 40.1164 39.7042 41.7104 38.0476C43.3045 36.3911 44.2 34.1443 44.2 31.8015C44.2 26.9238 40.3325 22.9647 35.8904 22.9647C36.125 22.2969 36.1794 22.1078 36.6656 21.4029ZM17.9656 21.4029C19.2576 19.5214 21.6988 17.4986 25.0206 15.8114C25.8859 15.3733 25.4966 14.0165 24.5429 14.1419C17.5593 15.0606 13.0322 18.2388 10.5604 22.9647C9.66602 24.6941 9.05583 26.5666 8.755 28.5049C8.5527 29.7646 8.5 30.7097 8.5 31.8015C8.5 32.9615 8.71986 34.1102 9.14702 35.1819C9.57419 36.2536 10.2003 37.2274 10.9896 38.0476C11.7789 38.8679 12.7159 39.5186 13.7472 39.9625C14.7785 40.4064 15.8838 40.6349 17 40.6349C18.1162 40.6349 19.2215 40.4064 20.2528 39.9625C21.2841 39.5186 22.2211 38.8679 23.0104 38.0476C23.7997 37.2274 24.4258 36.2536 24.853 35.1819C25.2801 34.1102 25.5 32.9615 25.5 31.8015C25.5 26.9238 21.6325 22.9647 17.1904 22.9647C17.425 22.2969 17.4794 22.1078 17.9656 21.4029Z" fill="#2E2E2E"/>
</g>
</svg>
