<svg width="81" height="80" viewBox="0 0 81 80" fill="none" xmlns="http://www.w3.org/2000/svg">
<g id="Group of people - Free ui icons-2 1">
<g id="Group">
<path id="Vector" d="M40.5 53.1406C46.7969 53.1406 51.9062 48.0156 51.9062 41.7344C51.9062 35.4531 46.7812 30.3281 40.5 30.3281C34.2188 30.3281 29.0938 35.4531 29.0938 41.7344C29.0938 48.0156 34.2031 53.1406 40.5 53.1406ZM40.5 32.3594C45.6719 32.3594 49.8594 36.5469 49.8594 41.7187C49.8594 46.8906 45.6719 51.0781 40.5 51.0781C35.3281 51.0781 31.1406 46.8906 31.1406 41.7187C31.1406 36.5469 35.3281 32.3594 40.5 32.3594ZM46.0781 55.2187H34.9375C27.9844 55.2187 22.3438 60.875 22.3438 67.8125V70.2188C22.3438 73.0938 24.6875 75.4375 27.5625 75.4375H53.4688C56.3438 75.4375 58.6875 73.0938 58.6875 70.2188V67.8125C58.6719 60.8594 53.0156 55.2187 46.0781 55.2187ZM56.625 70.2188C56.625 71.9688 55.2031 73.375 53.4688 73.375H27.5469C25.7969 73.375 24.3906 71.9531 24.3906 70.2188V67.8125C24.3906 61.9844 29.1094 57.2656 34.9375 57.2656H46.0781C51.9062 57.2656 56.625 61.9844 56.625 67.8125V70.2188ZM14.1875 40.1875C19.0469 40.1875 23 36.2344 23 31.375C23 26.5156 19.0469 22.5625 14.1875 22.5625C9.32812 22.5625 5.375 26.5156 5.375 31.375C5.375 36.2344 9.32812 40.1875 14.1875 40.1875ZM14.1875 24.6094C17.9219 24.6094 20.9531 27.6406 20.9531 31.375C20.9531 35.1094 17.9219 38.1406 14.1875 38.1406C10.4531 38.1406 7.42188 35.1094 7.42188 31.375C7.42188 27.6406 10.4688 24.6094 14.1875 24.6094ZM27.8906 53.0938V51.3594C27.8906 46.0312 23.5469 41.6875 18.2188 41.6875H10.1719C4.84375 41.6875 0.5 46.0312 0.5 51.3594V53.0938C0.5 55.4844 2.4375 57.4375 4.84375 57.4375H23.5625C25.9375 57.4375 27.8906 55.4844 27.8906 53.0938ZM2.54688 53.0938V51.3594C2.54688 47.1562 5.95312 43.7344 10.1719 43.7344H18.2188C22.4219 43.7344 25.8438 47.1406 25.8438 51.3594V53.0938C25.8438 54.3594 24.8125 55.375 23.5625 55.375H4.84375C3.57812 55.3906 2.54688 54.3594 2.54688 53.0938ZM66.8125 40.1875C71.6719 40.1875 75.625 36.2344 75.625 31.375C75.625 26.5156 71.6719 22.5625 66.8125 22.5625C61.9531 22.5625 58 26.5156 58 31.375C58 36.2344 61.9531 40.1875 66.8125 40.1875ZM66.8125 24.6094C70.5469 24.6094 73.5781 27.6406 73.5781 31.375C73.5781 35.1094 70.5469 38.1406 66.8125 38.1406C63.0781 38.1406 60.0469 35.1094 60.0469 31.375C60.0469 27.6406 63.0781 24.6094 66.8125 24.6094ZM70.8281 41.6875H62.7812C57.4531 41.6875 53.1094 46.0312 53.1094 51.3594V53.0938C53.1094 55.4844 55.0625 57.4375 57.4531 57.4375H76.1719C78.5625 57.4375 80.5156 55.4844 80.5156 53.0938V51.3594C80.5 46.0312 76.1562 41.6875 70.8281 41.6875ZM78.4531 53.0938C78.4531 54.3594 77.4375 55.375 76.1719 55.375H57.4531C56.1875 55.375 55.1719 54.3594 55.1719 53.0938V51.3594C55.1719 47.1562 58.5781 43.7344 62.7969 43.7344H70.8438C75.0469 43.7344 78.4688 47.1406 78.4688 51.3594L78.4531 53.0938Z" fill="black"/>
</g>
<circle id="Ellipse 1961" cx="40.5" cy="16" r="11" fill="#FFD220"/>
</g>
</svg>
