<svg width="24" height="26" viewBox="0 0 24 26" fill="none" xmlns="http://www.w3.org/2000/svg">
<path d="M12 15.5C11.6458 15.5 11.349 15.3802 11.1094 15.1406C10.8698 14.901 10.75 14.6042 10.75 14.25C10.75 13.8958 10.8698 13.599 11.1094 13.3594C11.349 13.1198 11.6458 13 12 13C12.3542 13 12.651 13.1198 12.8906 13.3594C13.1302 13.599 13.25 13.8958 13.25 14.25C13.25 14.6042 13.1302 14.901 12.8906 15.1406C12.651 15.3802 12.3542 15.5 12 15.5ZM7 15.5C6.64583 15.5 6.34896 15.3802 6.10938 15.1406C5.86979 14.901 5.75 14.6042 5.75 14.25C5.75 13.8958 5.86979 13.599 6.10938 13.3594C6.34896 13.1198 6.64583 13 7 13C7.35417 13 7.65104 13.1198 7.89062 13.3594C8.13021 13.599 8.25 13.8958 8.25 14.25C8.25 14.6042 8.13021 14.901 7.89062 15.1406C7.65104 15.3802 7.35417 15.5 7 15.5ZM17 15.5C16.6458 15.5 16.349 15.3802 16.1094 15.1406C15.8698 14.901 15.75 14.6042 15.75 14.25C15.75 13.8958 15.8698 13.599 16.1094 13.3594C16.349 13.1198 16.6458 13 17 13C17.3542 13 17.651 13.1198 17.8906 13.3594C18.1302 13.599 18.25 13.8958 18.25 14.25C18.25 14.6042 18.1302 14.901 17.8906 15.1406C17.651 15.3802 17.3542 15.5 17 15.5ZM12 20.5C11.6458 20.5 11.349 20.3802 11.1094 20.1406C10.8698 19.901 10.75 19.6042 10.75 19.25C10.75 18.8958 10.8698 18.599 11.1094 18.3594C11.349 18.1198 11.6458 18 12 18C12.3542 18 12.651 18.1198 12.8906 18.3594C13.1302 18.599 13.25 18.8958 13.25 19.25C13.25 19.6042 13.1302 19.901 12.8906 20.1406C12.651 20.3802 12.3542 20.5 12 20.5ZM7 20.5C6.64583 20.5 6.34896 20.3802 6.10938 20.1406C5.86979 19.901 5.75 19.6042 5.75 19.25C5.75 18.8958 5.86979 18.599 6.10938 18.3594C6.34896 18.1198 6.64583 18 7 18C7.35417 18 7.65104 18.1198 7.89062 18.3594C8.13021 18.599 8.25 18.8958 8.25 19.25C8.25 19.6042 8.13021 19.901 7.89062 20.1406C7.65104 20.3802 7.35417 20.5 7 20.5ZM17 20.5C16.6458 20.5 16.349 20.3802 16.1094 20.1406C15.8698 19.901 15.75 19.6042 15.75 19.25C15.75 18.8958 15.8698 18.599 16.1094 18.3594C16.349 18.1198 16.6458 18 17 18C17.3542 18 17.651 18.1198 17.8906 18.3594C18.1302 18.599 18.25 18.8958 18.25 19.25C18.25 19.6042 18.1302 19.901 17.8906 20.1406C17.651 20.3802 17.3542 20.5 17 20.5ZM2.625 25.5C2.125 25.5 1.6875 25.3125 1.3125 24.9375C0.9375 24.5625 0.75 24.125 0.75 23.625V4.25C0.75 3.75 0.9375 3.3125 1.3125 2.9375C1.6875 2.5625 2.125 2.375 2.625 2.375H4.65625V0.5H6.6875V2.375H17.3125V0.5H19.3438V2.375H21.375C21.875 2.375 22.3125 2.5625 22.6875 2.9375C23.0625 3.3125 23.25 3.75 23.25 4.25V23.625C23.25 24.125 23.0625 24.5625 22.6875 24.9375C22.3125 25.3125 21.875 25.5 21.375 25.5H2.625ZM2.625 23.625H21.375V10.1875H2.625V23.625Z" fill="url(#paint0_linear_667_1931)"/>
<defs>
<linearGradient id="paint0_linear_667_1931" x1="0.75" y1="13" x2="23.25" y2="13" gradientUnits="userSpaceOnUse">
<stop stop-color="#29B662"/>
<stop offset="0.0001" stop-color="#24BD63"/>
<stop offset="1" stop-color="#1A9B4F"/>
</linearGradient>
</defs>
</svg>
