<svg xmlns="http://www.w3.org/2000/svg" width="170" height="130" viewBox="0 0 170 130" fill="none">
  <path d="M87.4343 0H81.9121V128.246H87.4343V0Z" fill="url(#paint0_linear_3720_31166)"/>
  <path d="M140.29 22.0799L121.11 35.303L120.978 35.3934H39.4473V8.76514H120.978L131.626 16.1059L140.29 22.0799Z" fill="url(#paint1_linear_3720_31166)"/>
  <path d="M46.2692 68.1057H127.799V41.4771H46.2692L26.957 54.7914L46.2692 68.1057Z" fill="url(#paint2_linear_3720_31166)"/>
  <path d="M109.051 41.4541C109.051 41.4541 99.7309 66.3268 40.4922 64.1238L46.2671 68.1062H127.799V41.4775L109.051 41.4541Z" fill="url(#paint3_linear_3720_31166)"/>
  <path d="M127.8 44.312C127.8 44.312 121.113 67.0462 96.1738 67.957L127.8 68.1056V44.312Z" fill="#138140"/>
  <path d="M124.478 44.7987V64.7836H47.3019L32.8077 54.7907L47.3019 44.7987H124.478ZM125.57 43.707H46.9625L30.8848 54.7916L46.9625 65.8761H125.57V43.707V43.707Z" fill="#FCFCFC"/>
  <path d="M112.56 8.76514C112.56 8.76514 98.6864 33.7697 39.4473 31.5663V35.3938H120.978L140.29 22.0795L120.978 8.76514H112.56Z" fill="url(#paint4_linear_3720_31166)"/>
  <path d="M140.29 22.0795L121.11 35.303L101.896 35.2448C119.73 34.5935 128.23 22.7819 131.625 16.1055L140.29 22.0795Z" fill="#138140"/>
  <path d="M119.944 12.0869L134.438 22.0797L119.944 32.0726H42.7672V12.0869H119.944ZM120.284 10.9956H41.6758V33.1647H120.284L136.362 22.0801L120.284 10.9956Z" fill="#FCFCFC"/>
  <path d="M87.4343 35.394H81.9121V37.7842H87.4343V35.394Z" fill="#242950"/>
  <path d="M87.4343 68.082H81.9121V70.4721H87.4343V68.082Z" fill="#242950"/>
  <path d="M87.4357 68.082H85.2852V128.246H87.4357V68.082Z" fill="#242950"/>
  <path d="M79.3634 56.3665C79.1123 56.2535 78.7796 56.1961 78.3708 56.1961H78.1109V50.2434C78.1109 49.2945 77.6878 48.8131 76.8526 48.8131C76.6005 48.8092 76.3569 48.9047 76.1746 49.0789C75.9985 49.2463 75.7717 49.5138 75.5001 49.8792L71.3743 55.4004C71.2597 55.5511 71.1651 55.6783 71.0856 55.7821C71.0061 55.8859 70.9299 55.9977 70.8571 56.1095C70.7874 56.2141 70.73 56.3265 70.686 56.4443C70.6477 56.5485 70.6278 56.6586 70.627 56.7696C70.627 57.1739 70.7596 57.4992 71.0216 57.7361C71.2835 57.973 71.671 58.0906 72.1812 58.0906H76.0148V59.464C76.0148 59.8709 76.1115 60.1848 76.3027 60.3979C76.4939 60.6109 76.7513 60.7227 77.0631 60.7227C77.3748 60.7227 77.6364 60.6164 77.8268 60.4062C78.0172 60.1961 78.1109 59.8809 78.1109 59.464V58.0906H78.511C78.9194 58.0906 79.2324 58.0165 79.4417 57.8704C79.6593 57.7189 79.7693 57.477 79.7693 57.1509C79.7693 56.752 79.6329 56.4879 79.3634 56.3665ZM76.0156 51.9713V56.194H72.8913L76.0156 51.9713Z" fill="#FCFCFC"/>
  <path d="M87.3273 49.9237C86.9945 49.5847 86.5945 49.319 86.1531 49.1435C85.68 48.9613 85.1765 48.8709 84.6696 48.8773C83.8485 48.8773 83.1313 49.0794 82.5354 49.4779C81.9395 49.8764 81.4829 50.4633 81.172 51.2226C80.9941 51.6776 80.8615 52.2272 80.7782 52.8597C80.6902 53.5656 80.6483 54.2764 80.6527 54.9878C80.65 55.5579 80.6879 56.1275 80.7661 56.6922C80.834 57.1858 80.9543 57.6708 81.1251 58.1389C81.4452 58.9375 81.9298 59.5725 82.5642 60.0254C83.1561 60.4387 83.8536 60.6746 84.5747 60.7055C85.2959 60.7364 86.0109 60.561 86.636 60.2C87.2051 59.8651 87.6751 59.377 88.0333 58.755C88.3245 58.2293 88.5228 57.6572 88.6191 57.0639C88.7229 56.4503 88.7756 55.7069 88.7756 54.8555C88.7756 53.2841 88.5744 52.051 88.1772 51.187C87.9684 50.7203 87.6809 50.293 87.3273 49.9237V49.9237ZM83.1158 57.1472C83.0032 56.5315 82.9459 55.7291 82.9459 54.7613C82.9459 53.3381 83.079 52.2737 83.3418 51.5951C83.5991 50.9304 84.0435 50.6073 84.7005 50.6073C85.1533 50.6073 85.5116 50.7546 85.7651 51.0451C86.025 51.3423 86.2129 51.7919 86.3242 52.3804C86.4372 52.9781 86.4941 53.7584 86.4941 54.6989C86.4941 55.6918 86.4397 56.5051 86.3318 57.1158C86.2259 57.7178 86.0388 58.1858 85.7794 58.5064C85.5199 58.827 85.1743 58.9773 84.716 58.9773C84.2733 58.9773 83.9331 58.8295 83.6757 58.5248C83.4183 58.2201 83.2271 57.7513 83.1158 57.1456V57.1472Z" fill="#FCFCFC"/>
  <path d="M98.3142 56.3665C98.0631 56.2535 97.7304 56.1961 97.322 56.1961H97.0621V50.2434C97.0621 49.2945 96.6386 48.8131 95.8038 48.8131C95.5516 48.8091 95.3081 48.9046 95.1258 49.0789C94.9497 49.2463 94.7224 49.5138 94.4512 49.8792L90.3251 55.4004C90.211 55.5511 90.1149 55.6783 90.0368 55.7821C89.9581 55.8876 89.8811 55.9977 89.8083 56.1095C89.7384 56.2141 89.681 56.3264 89.6371 56.4443C89.5987 56.5485 89.5787 56.6586 89.5781 56.7696C89.5781 57.1739 89.7108 57.4992 89.9727 57.7361C90.2347 57.973 90.6222 58.0906 91.1323 58.0906H94.9664V59.464C94.9664 59.8709 95.0631 60.1848 95.2539 60.3979C95.4447 60.6109 95.7029 60.7227 96.0142 60.7227C96.3256 60.7227 96.588 60.6164 96.7784 60.4062C96.9688 60.1961 97.0625 59.8809 97.0625 59.464V58.0906H97.4626C97.8706 58.0906 98.1836 58.0165 98.3928 57.8704C98.6105 57.7189 98.7209 57.477 98.7209 57.1509C98.7197 56.752 98.5828 56.4879 98.3142 56.3665ZM94.9664 51.9713V56.194H91.8421L94.9664 51.9713Z" fill="#FCFCFC"/>
  <path d="M68.1494 19.4089H64.0902V21.5939H67.8284C68.1035 21.5939 68.3088 21.6556 68.4444 21.7789C68.5117 21.8408 68.5648 21.9165 68.5999 22.001C68.635 22.0854 68.6514 22.1764 68.6478 22.2678C68.651 22.3597 68.6348 22.4513 68.6003 22.5366C68.5657 22.6218 68.5136 22.6988 68.4473 22.7626C68.314 22.8898 68.1076 22.9536 67.8284 22.9539H64.0902V25.4851H68.2895C68.573 25.4851 68.7864 25.5508 68.9298 25.6822C69.0732 25.8136 69.145 25.9886 69.1453 26.2071C69.1487 26.3032 69.1311 26.3988 69.0939 26.4874C69.0567 26.576 69.0007 26.6555 68.9298 26.7203C68.7864 26.8517 68.573 26.9175 68.2895 26.9175H63.3934C63.0009 26.9175 62.7187 26.8305 62.5468 26.6567C62.375 26.4828 62.2891 26.2015 62.2891 25.8128V19.1247C62.2891 18.8654 62.3274 18.654 62.4041 18.4905C62.4767 18.331 62.6052 18.2035 62.7653 18.1322C62.9293 18.0574 63.1386 18.02 63.393 18.02H68.1506C68.438 18.02 68.6515 18.0836 68.7913 18.2109C68.8576 18.277 68.9102 18.3555 68.9461 18.442C68.982 18.5285 69.0005 18.6212 69.0005 18.7149C69.0005 18.8085 68.982 18.9012 68.9461 18.9877C68.9102 19.0742 68.8576 19.1527 68.7913 19.2188C68.6507 19.3455 68.4367 19.4089 68.1494 19.4089Z" fill="#FCFCFC"/>
  <path d="M72.9961 23.1128H72.365V25.9717C72.365 26.3482 72.2813 26.6254 72.1139 26.8035C71.9465 26.9815 71.7302 27.0705 71.4649 27.0705C71.1775 27.0705 70.955 26.9774 70.7974 26.7913C70.6398 26.6052 70.5608 26.332 70.5605 25.9717V19.1245C70.5605 18.7361 70.6476 18.4548 70.8217 18.2806C70.9958 18.1065 71.2768 18.0196 71.6649 18.0199H74.5942C74.9407 18.0169 75.2871 18.034 75.6316 18.0714C75.8999 18.1005 76.162 18.1711 76.4087 18.2806C76.6865 18.397 76.9382 18.5678 77.149 18.7829C77.3626 19.0005 77.5288 19.2598 77.6373 19.5448C77.7497 19.8387 77.8065 20.151 77.8047 20.4657C77.8047 21.1295 77.6177 21.6597 77.2436 22.0563C76.8694 22.4528 76.302 22.7341 75.5412 22.9001C75.8607 23.0701 76.1661 23.3212 76.4577 23.6536C76.7475 23.9837 77.0083 24.3381 77.2373 24.713C77.4398 25.0373 77.6183 25.376 77.7713 25.7264C77.899 26.0281 77.9628 26.2356 77.9625 26.3489C77.9602 26.4737 77.9212 26.5952 77.8504 26.698C77.7741 26.8145 77.6682 26.9087 77.5436 26.9709C77.4043 27.0402 77.2502 27.0747 77.0946 27.0713C76.914 27.0775 76.736 27.0276 76.5849 26.9286C76.4453 26.8312 76.3249 26.7087 76.23 26.5674C76.131 26.4217 75.9965 26.2072 75.8266 25.924L75.1043 24.7218C74.8454 24.2812 74.6139 23.9454 74.4097 23.7143C74.2054 23.4832 73.9993 23.3252 73.7912 23.24C73.5811 23.1552 73.3161 23.1128 72.9961 23.1128ZM74.0276 19.3736H72.365V21.8198H73.9791C74.412 21.8198 74.7762 21.7822 75.0717 21.7072C75.3671 21.6321 75.5927 21.5047 75.7484 21.325C75.904 21.145 75.9819 20.8971 75.9819 20.5812C75.9863 20.3498 75.9208 20.1226 75.794 19.929C75.6664 19.739 75.4843 19.5919 75.2717 19.5071C75.0622 19.4181 74.6478 19.3736 74.0284 19.3736H74.0276Z" fill="#FCFCFC"/>
  <path d="M81.9376 23.1128H81.3066V25.9717C81.3066 26.3482 81.2229 26.6254 81.0555 26.8035C80.8881 26.9815 80.6717 27.0705 80.4064 27.0705C80.1188 27.0705 79.8956 26.9774 79.7369 26.7913C79.5781 26.6052 79.4992 26.332 79.5 25.9717V19.1245C79.5 18.7361 79.5871 18.4548 79.7611 18.2806C79.9352 18.1065 80.2163 18.0196 80.6044 18.0199H83.5358C83.8823 18.0169 84.2287 18.034 84.5732 18.0714C84.8415 18.1005 85.1036 18.1711 85.3503 18.2806C85.6281 18.397 85.8798 18.5678 86.0906 18.7829C86.3041 19.0005 86.4704 19.2598 86.5789 19.5448C86.6913 19.8387 86.748 20.151 86.7463 20.4657C86.7463 21.1295 86.5592 21.6597 86.1851 22.0563C85.811 22.4528 85.2436 22.7341 84.4828 22.9001C84.8022 23.0701 85.1077 23.3212 85.3992 23.6536C85.6891 23.9837 85.9499 24.3381 86.1788 24.713C86.3813 25.0373 86.5598 25.376 86.7128 25.7264C86.8406 26.0281 86.9043 26.2356 86.9041 26.3489C86.9018 26.4737 86.8628 26.5952 86.7919 26.698C86.7156 26.8145 86.6098 26.9087 86.4852 26.9709C86.3458 27.0402 86.1917 27.0747 86.0361 27.0713C85.8556 27.0775 85.6776 27.0276 85.5264 26.9286C85.388 26.8307 85.269 26.7079 85.1753 26.5665C85.0763 26.4209 84.9417 26.2064 84.7715 25.9232L84.0497 24.721C83.7905 24.2804 83.5588 23.9445 83.3546 23.7135C83.1504 23.4824 82.9431 23.3246 82.7327 23.24C82.5224 23.1552 82.2573 23.1128 81.9376 23.1128ZM82.9692 19.3736H81.3066V21.8198H82.9206C83.3536 21.8198 83.7178 21.7822 84.0132 21.7072C84.3087 21.6321 84.5342 21.5047 84.6899 21.325C84.8461 21.145 84.9243 20.8969 84.9243 20.5808C84.9287 20.3494 84.8632 20.1221 84.7364 19.9286C84.6084 19.7385 84.4259 19.5916 84.2129 19.5071C84.0028 19.4181 83.5882 19.3736 82.9692 19.3736Z" fill="#FCFCFC"/>
  <path d="M92.3674 17.8682C93.2903 17.8682 94.0823 18.0554 94.7435 18.4299C95.3963 18.795 95.9207 19.3524 96.2454 20.0264C96.5852 20.7162 96.7551 21.5265 96.7551 22.4571C96.7551 23.1453 96.6621 23.7705 96.476 24.3328C96.3024 24.8736 96.0173 25.372 95.639 25.7957C95.2607 26.2128 94.7913 26.537 94.2673 26.743C93.7252 26.9615 93.1042 27.0707 92.4042 27.0707C91.7043 27.0707 91.0813 26.9591 90.5353 26.7359C90.0097 26.5283 89.5385 26.2033 89.1577 25.7857C88.7789 25.3582 88.4945 24.8556 88.3233 24.3106C88.131 23.7083 88.0358 23.0793 88.0412 22.4471C88.0412 21.7637 88.1389 21.1365 88.3342 20.5655C88.5127 20.0252 88.8033 19.5286 89.187 19.1084C89.5652 18.7032 90.0297 18.3885 90.5462 18.1875C91.0807 17.9749 91.6878 17.8684 92.3674 17.8682ZM94.9285 22.445C94.9285 21.7937 94.8233 21.2291 94.6129 20.7514C94.4026 20.2736 94.1017 19.9125 93.7103 19.6681C93.3197 19.4231 92.8715 19.3007 92.3657 19.301C92.0225 19.2976 91.6824 19.3668 91.3677 19.504C91.0632 19.6389 90.7935 19.8413 90.5789 20.0959C90.3585 20.3551 90.1845 20.6859 90.057 21.0883C89.9241 21.5281 89.8596 21.9856 89.8658 22.445C89.8598 22.9094 89.9243 23.372 90.057 23.8171C90.1842 24.2256 90.3642 24.5645 90.5969 24.8338C90.8155 25.0924 91.0891 25.2988 91.3978 25.4379C91.7605 25.5913 92.154 25.658 92.547 25.6327C92.94 25.6074 93.3217 25.4908 93.6618 25.2922C94.0481 25.0617 94.355 24.7055 94.5824 24.2235C94.8098 23.7416 94.9251 23.1488 94.9285 22.445V22.445Z" fill="#FCFCFC"/>
  <path d="M100.719 23.1128H100.088V25.9717C100.088 26.3482 100.004 26.6254 99.837 26.8035C99.6696 26.9815 99.4531 27.0705 99.1875 27.0705C98.9005 27.0705 98.678 26.9774 98.5201 26.7913C98.3622 26.6052 98.2832 26.332 98.2832 25.9717V19.1245C98.2832 18.7361 98.3702 18.4548 98.5443 18.2806C98.7184 18.1065 98.9996 18.0196 99.388 18.0199H102.317C102.664 18.0169 103.01 18.034 103.355 18.0714C103.623 18.1006 103.885 18.1712 104.132 18.2806C104.41 18.3969 104.661 18.5677 104.872 18.7829C105.086 19.0003 105.252 19.2597 105.361 19.5448C105.473 19.8388 105.53 20.151 105.528 20.4657C105.528 21.1295 105.341 21.6597 104.967 22.0563C104.593 22.4528 104.025 22.7341 103.265 22.9001C103.584 23.0701 103.89 23.3212 104.181 23.6536C104.471 23.9838 104.732 24.3382 104.961 24.713C105.164 25.0374 105.342 25.3761 105.495 25.7264C105.622 26.0281 105.686 26.2356 105.686 26.3489C105.684 26.4738 105.645 26.5952 105.574 26.698C105.498 26.8144 105.392 26.9086 105.268 26.9709C105.128 27.0401 104.974 27.0746 104.818 27.0713C104.638 27.0776 104.46 27.0277 104.309 26.9286C104.169 26.8313 104.048 26.7088 103.954 26.5674C103.854 26.4217 103.72 26.2072 103.55 25.924L102.828 24.7218C102.569 24.2812 102.337 23.9454 102.133 23.7143C101.929 23.4832 101.722 23.3254 101.511 23.2409C101.303 23.1555 101.039 23.1128 100.719 23.1128ZM101.751 19.3736H100.088V21.8198H101.704C102.137 21.8198 102.501 21.7822 102.796 21.7072C103.092 21.6321 103.317 21.5047 103.473 21.325C103.629 21.145 103.707 20.8971 103.707 20.5812C103.711 20.3498 103.646 20.1225 103.519 19.929C103.391 19.7391 103.209 19.592 102.997 19.5071C102.785 19.4181 102.37 19.3736 101.751 19.3736Z" fill="#FCFCFC"/>
  <path d="M131.789 127.081H36.4666C36.3319 127.081 36.2227 127.19 36.2227 127.325V129.169C36.2227 129.304 36.3319 129.413 36.4666 129.413H131.789C131.924 129.413 132.033 129.304 132.033 129.169V127.325C132.033 127.19 131.924 127.081 131.789 127.081Z" fill="#242950"/>
  <path d="M40.0507 127.081H23.0975C22.9627 127.081 22.8535 127.19 22.8535 127.325V129.169C22.8535 129.304 22.9627 129.413 23.0975 129.413H40.0507C40.1854 129.413 40.2946 129.304 40.2946 129.169V127.325C40.2946 127.19 40.1854 127.081 40.0507 127.081Z" fill="#242950"/>
  <path d="M17.9638 127.081H0.243968C0.109227 127.081 0 127.19 0 127.325V129.169C0 129.304 0.109227 129.413 0.243968 129.413H17.9638C18.0985 129.413 18.2078 129.304 18.2078 129.169V127.325C18.2078 127.19 18.0985 127.081 17.9638 127.081Z" fill="#242950"/>
  <path d="M151.978 127.081H137.107C136.973 127.081 136.863 127.19 136.863 127.325V129.169C136.863 129.304 136.973 129.413 137.107 129.413H151.978C152.112 129.413 152.222 129.304 152.222 129.169V127.325C152.222 127.19 152.112 127.081 151.978 127.081Z" fill="#242950"/>
  <path d="M169.048 127.081H157.305C157.17 127.081 157.061 127.19 157.061 127.325V129.169C157.061 129.304 157.17 129.413 157.305 129.413H169.048C169.183 129.413 169.292 129.304 169.292 129.169V127.325C169.292 127.19 169.183 127.081 169.048 127.081Z" fill="#242950"/>
  <path d="M125.172 116.771H121.807V127.069H125.172V116.771Z" fill="url(#paint5_linear_3720_31166)"/>
  <path d="M125.174 116.784H121.795V117.955H125.174V116.784Z" fill="#242950"/>
  <path d="M143.194 89.3758V105.519L131.782 116.933H115.644L104.232 105.519V89.3758L115.644 77.9614H131.782L143.194 89.3758Z" fill="#138140"/>
  <path d="M143.193 89.3756V105.518L131.781 116.933H115.643L108.008 109.295C136.704 113.526 137.001 83.1826 137.001 83.1826L143.193 89.3756Z" fill="url(#paint6_linear_3720_31166)"/>
  <path d="M143.192 97.4473C143.192 97.4473 137.707 117.823 115.643 116.933H131.781L143.192 105.518V97.4473Z" fill="#2C3870"/>
  <path d="M141.299 90.1606V104.734L130.997 115.039H116.427L106.125 104.734V90.1606L116.427 79.8555H130.997L141.299 90.1606Z" stroke="#FCFCFC" stroke-width="7" stroke-miterlimit="10"/>
  <path d="M125.172 116.771H123.82V127.069H125.172V116.771Z" fill="#242950"/>
  <path d="M119.406 98.744C119.203 98.6527 118.933 98.6063 118.601 98.6063H118.392V93.7766C118.392 93.0068 118.048 92.6163 117.371 92.6163C117.167 92.6131 116.969 92.6906 116.821 92.8319C116.678 92.9662 116.494 93.1847 116.274 93.4811L112.926 97.96C112.834 98.0822 112.756 98.1854 112.692 98.2697C112.628 98.3555 112.567 98.4447 112.507 98.5355C112.45 98.6204 112.404 98.7115 112.368 98.8072C112.337 98.8917 112.321 98.9809 112.32 99.0709C112.32 99.3991 112.428 99.6628 112.64 99.8553C112.853 100.048 113.167 100.142 113.581 100.142H116.691V101.257C116.691 101.587 116.77 101.843 116.925 102.015C117.002 102.101 117.098 102.169 117.204 102.215C117.311 102.26 117.426 102.282 117.542 102.278C117.799 102.278 118.007 102.192 118.161 102.021C118.316 101.85 118.392 101.595 118.392 101.257V100.142H118.717C119.048 100.142 119.303 100.083 119.47 99.9641C119.647 99.8411 119.736 99.6448 119.736 99.3802C119.734 99.0571 119.624 98.8428 119.406 98.744ZM116.69 95.1806V98.6054H114.155L116.69 95.1806Z" fill="#FCFCFC"/>
  <path d="M125.865 93.5151C125.595 93.2403 125.27 93.0247 124.912 92.8823C124.528 92.7345 124.12 92.6612 123.708 92.6663C123.042 92.6663 122.461 92.8303 121.978 93.1535C121.496 93.4766 121.125 93.953 120.872 94.5687C120.728 94.9383 120.621 95.385 120.553 95.8973C120.482 96.4699 120.448 97.0466 120.451 97.6236C120.449 98.0856 120.48 98.5472 120.544 99.0049C120.6 99.4049 120.698 99.7978 120.837 100.177C121.097 100.825 121.49 101.34 122.004 101.708C122.485 102.043 123.05 102.234 123.635 102.259C124.221 102.285 124.801 102.142 125.308 101.85C125.781 101.564 126.172 101.16 126.442 100.678C126.678 100.251 126.838 99.787 126.916 99.3059C127 98.8073 127.042 98.2046 127.042 97.5139C127.042 96.2389 126.878 95.2376 126.556 94.5378C126.386 94.1598 126.152 93.8139 125.865 93.5151V93.5151ZM122.448 99.3753C122.357 98.8764 122.31 98.2251 122.31 97.4406C122.31 96.2866 122.418 95.4222 122.631 94.8718C122.84 94.3327 123.201 94.0706 123.734 94.0706C124.101 94.0706 124.391 94.1899 124.598 94.4256C124.804 94.6612 124.961 95.0313 125.051 95.5089C125.143 95.994 125.189 96.6269 125.189 97.39C125.189 98.1953 125.145 98.855 125.057 99.3506C124.971 99.8391 124.82 100.219 124.609 100.481C124.397 100.743 124.118 100.863 123.746 100.863C123.387 100.863 123.111 100.742 122.902 100.495C122.693 100.249 122.538 99.868 122.448 99.3753Z" fill="#FCFCFC"/>
  <path d="M134.779 98.744C134.576 98.6527 134.306 98.6063 133.974 98.6063H133.765V93.7766C133.765 93.0068 133.421 92.6163 132.744 92.6163C132.54 92.6131 132.342 92.6906 132.194 92.8319C132.051 92.9662 131.867 93.1847 131.647 93.4811L128.299 97.96C128.207 98.0822 128.129 98.1854 128.065 98.2697C128.001 98.3555 127.94 98.4447 127.88 98.5355C127.823 98.6204 127.777 98.7115 127.741 98.8072C127.71 98.8917 127.694 98.9809 127.693 99.0709C127.693 99.3991 127.801 99.6628 128.013 99.8553C128.226 100.048 128.54 100.142 128.954 100.142H132.064V101.257C132.064 101.587 132.143 101.843 132.298 102.015C132.375 102.101 132.471 102.169 132.577 102.215C132.684 102.26 132.799 102.282 132.915 102.278C133.172 102.278 133.38 102.192 133.534 102.021C133.689 101.85 133.765 101.595 133.765 101.257V100.142H134.09C134.421 100.142 134.676 100.083 134.843 99.9641C135.02 99.8411 135.109 99.6448 135.109 99.3802C135.109 99.0571 134.998 98.8428 134.779 98.744ZM132.063 95.1806V98.6054H129.528L132.063 95.1806Z" fill="#FCFCFC"/>
  <path d="M58.7367 124.24H37.4824L37.8691 122.84L38.6244 120.105L39.0818 118.45L39.756 116.009L41.0558 111.303L41.7303 108.862L46.4704 91.6997H49.7491L51.4862 97.9894L54.4892 108.862L55.1633 111.303L56.4631 116.009L57.1377 118.45L58.35 122.84L58.7367 124.24Z" fill="#138140"/>
  <path d="M58.7367 124.24H37.4824L37.8691 122.84L38.6244 120.106C53.4355 119.23 51.4862 97.9893 51.4862 97.9893L58.35 122.841L58.7367 124.24Z" fill="url(#paint7_linear_3720_31166)"/>
  <path d="M63.0846 124.241H33.1328V127.089H63.0846V124.241Z" fill="url(#paint8_linear_3720_31166)"/>
  <path d="M58.7367 124.24H37.4824L37.8691 122.84H58.35L58.7367 124.24Z" fill="#242951"/>
  <path d="M55.1631 111.303C55.1631 111.303 54.7178 120.699 43.9258 122.848L58.3497 122.841L55.1631 111.303Z" fill="#138140"/>
  <path d="M55.1642 111.303H41.0566L41.7312 108.862H54.4901L55.1642 111.303Z" fill="#FCFCFC"/>
  <path d="M57.1379 118.45H39.082L39.7562 116.009H56.4633L57.1379 118.45Z" fill="#FCFCFC"/>
  <path d="M56.1576 124.241C56.1576 124.241 52.1876 127.239 37.4824 127.089H63.0855V124.241H56.1576Z" fill="#138140"/>
  <defs>
    <linearGradient id="paint0_linear_3720_31166" x1="81.9121" y1="64.1232" x2="87.4343" y2="64.1232" gradientUnits="userSpaceOnUse">
      <stop stop-color="#29B662"/>
      <stop offset="0.0001" stop-color="#24BD63"/>
      <stop offset="1" stop-color="#1A9B4F"/>
    </linearGradient>
    <linearGradient id="paint1_linear_3720_31166" x1="45.2881" y1="12.0842" x2="64.1224" y2="59.0163" gradientUnits="userSpaceOnUse">
      <stop stop-color="#29B662" stop-opacity="0.83"/>
      <stop offset="0.0001" stop-color="#24BD63" stop-opacity="0.29"/>
      <stop offset="0.164583" stop-color="#22AF5C" stop-opacity="0.6"/>
      <stop offset="0.326042" stop-color="#21A758" stop-opacity="0.7221"/>
      <stop offset="0.529167" stop-color="#1F9D52" stop-opacity="0.8083"/>
      <stop offset="0.944237" stop-color="#1D914C"/>
    </linearGradient>
    <linearGradient id="paint2_linear_3720_31166" x1="32.7979" y1="44.7962" x2="51.6327" y2="91.7288" gradientUnits="userSpaceOnUse">
      <stop stop-color="#29B662" stop-opacity="0.83"/>
      <stop offset="0.0001" stop-color="#24BD63" stop-opacity="0.29"/>
      <stop offset="0.164583" stop-color="#22AF5C" stop-opacity="0.6"/>
      <stop offset="0.326042" stop-color="#21A758" stop-opacity="0.7221"/>
      <stop offset="0.529167" stop-color="#1F9D52" stop-opacity="0.8083"/>
      <stop offset="0.944237" stop-color="#1D914C"/>
    </linearGradient>
    <linearGradient id="paint3_linear_3720_31166" x1="40.4922" y1="54.7802" x2="127.799" y2="54.7802" gradientUnits="userSpaceOnUse">
      <stop stop-color="#29B662"/>
      <stop offset="0.0001" stop-color="#24BD63"/>
      <stop offset="1" stop-color="#1A9B4F"/>
    </linearGradient>
    <linearGradient id="paint4_linear_3720_31166" x1="39.4473" y1="22.0795" x2="140.29" y2="22.0795" gradientUnits="userSpaceOnUse">
      <stop stop-color="#29B662"/>
      <stop offset="0.0001" stop-color="#24BD63"/>
      <stop offset="1" stop-color="#1A9B4F"/>
    </linearGradient>
    <linearGradient id="paint5_linear_3720_31166" x1="121.807" y1="121.92" x2="125.172" y2="121.92" gradientUnits="userSpaceOnUse">
      <stop stop-color="#29B662"/>
      <stop offset="0.0001" stop-color="#24BD63"/>
      <stop offset="1" stop-color="#1A9B4F"/>
    </linearGradient>
    <linearGradient id="paint6_linear_3720_31166" x1="108.008" y1="100.058" x2="143.193" y2="100.058" gradientUnits="userSpaceOnUse">
      <stop stop-color="#29B662"/>
      <stop offset="0.0001" stop-color="#24BD63"/>
      <stop offset="1" stop-color="#1A9B4F"/>
    </linearGradient>
    <linearGradient id="paint7_linear_3720_31166" x1="37.4824" y1="111.115" x2="58.7367" y2="111.115" gradientUnits="userSpaceOnUse">
      <stop stop-color="#29B662"/>
      <stop offset="0.0001" stop-color="#24BD63"/>
      <stop offset="1" stop-color="#1A9B4F"/>
    </linearGradient>
    <linearGradient id="paint8_linear_3720_31166" x1="33.1328" y1="125.665" x2="63.0846" y2="125.665" gradientUnits="userSpaceOnUse">
      <stop stop-color="#29B662"/>
      <stop offset="0.0001" stop-color="#24BD63"/>
      <stop offset="1" stop-color="#1A9B4F"/>
    </linearGradient>
  </defs>
</svg>