<svg width="38" height="35" viewBox="0 0 38 35" fill="none" xmlns="http://www.w3.org/2000/svg">
<path d="M33.0749 0.962634C31.617 0.630693 29.9874 1.74082 29.0335 2.72318C27.8479 3.94605 27.1471 5.58621 26.6654 7.21428C25.6838 6.31713 24.6186 5.51068 23.4593 4.88218C22.2612 4.23329 20.6234 3.58114 19.2958 4.2175C17.9545 4.86085 17.3696 6.74983 17.2343 8.12035C17.051 9.96783 17.6143 11.8507 18.3244 13.5418C19.2992 15.8616 20.6831 18.0105 22.2757 19.9534C23.9012 21.9386 25.8227 23.829 28.0917 25.0594C28.898 25.4965 29.9131 25.929 30.8902 25.9739C30.6565 26.1651 30.4206 26.366 30.1813 26.5899C29.7947 26.952 28.3948 27.9818 27.9762 28.3073C27.7747 28.4635 27.5668 28.6133 27.3592 28.7614C27.3167 28.793 27.2726 28.8226 27.2283 28.8539C27.2258 28.8527 26.9184 29.059 26.9024 29.0693C26.7976 29.1377 26.6913 29.2041 26.5847 29.2722C26.3679 29.4016 26.1491 29.5262 25.9286 29.6505C25.8901 29.6728 25.8676 29.6848 25.8498 29.6948C25.7627 29.7405 25.6756 29.7862 25.5878 29.8309C25.2968 29.979 25.0039 30.1222 24.7066 30.2576C24.0462 30.5581 23.069 30.9276 22.2516 31.1735C18.4174 32.3307 14.3254 32.4939 10.3852 31.7044C8.13038 31.2524 5.94912 30.4869 3.89693 29.4381C3.85387 29.4162 3.80676 29.4036 3.75636 29.395L0.548878 31.78C4.53648 33.7882 8.97811 34.7699 13.4237 34.528C18.4023 34.2563 23.1075 32.4895 27.2716 29.8154C28.4797 29.0394 29.6411 28.1901 30.742 27.2699C32.7824 25.5638 34.6478 23.6752 35.7862 21.2191C36.2253 20.2719 36.5582 19.2751 36.7755 18.2516C37.3083 15.7299 37.5101 13.1798 37.3551 10.5981C37.2214 8.38782 36.8497 6.11331 35.9573 4.06718C35.4117 2.81726 34.5195 1.29167 33.0776 0.962149L33.0749 0.962634ZM26.7829 21.7467C26.3097 21.3747 25.855 20.981 25.4208 20.5769C22.3289 17.7026 19.645 13.8774 18.4709 9.78983C18.2506 9.02186 18.0857 8.23329 18.0619 7.43349C18.0584 7.33773 18.0994 6.69287 18.0994 6.69287L18.1227 6.59937C18.999 5.80653 20.0735 5.82819 21.174 6.17027C22.7862 6.67163 24.2315 7.7081 25.5007 8.79942C25.7185 8.98665 25.9331 9.17792 26.1434 9.37397C25.7886 11.2489 25.6624 13.1731 25.7052 15.0794C25.7556 17.3087 26.0296 19.621 26.7829 21.7467ZM33.2669 23.1463C32.5022 24.5673 30.7405 24.2074 29.8143 23.1627C29.1346 22.3966 28.8116 21.4144 28.4945 20.4613C28.1751 19.5051 27.9651 18.512 27.806 17.5175C27.4589 15.3565 27.3612 13.0655 27.5676 10.8135C28.4647 11.7957 29.2868 12.8464 30.0328 13.9426C30.8002 15.0721 31.4894 16.2549 32.0746 17.4881C32.5852 18.5641 33.0873 19.6623 33.3224 20.8351C33.4705 21.5758 33.644 22.45 33.2697 23.1458L33.2669 23.1463ZM33.3515 3.65073C34.3161 5.04313 34.8168 6.7487 35.1468 8.38755C35.5975 10.6287 35.7015 12.9388 35.549 15.2126C35.4094 17.2943 35.0575 19.3973 34.3434 21.3601C34.3454 21.3014 34.3525 21.239 34.3527 21.1801C34.3754 19.2711 33.69 17.3489 32.8885 15.6384C31.7884 13.2896 30.3003 11.115 28.5844 9.17324C28.3638 8.92301 28.137 8.6773 27.9055 8.43358C28.1523 7.17701 28.5042 5.95182 28.9781 4.7914C29.2785 4.05532 29.6359 3.33878 30.1105 2.7017C30.3748 2.34644 30.6749 2.09002 30.6749 2.09002C31.8573 2.01561 32.6942 2.70127 33.3515 3.65073Z" fill="#FFD220"/>
</svg>
