<svg width="16" height="16" viewBox="0 0 16 16" fill="none" xmlns="http://www.w3.org/2000/svg">
<path d="M4.50778 0.873047C2.05173 0.873047 0.0546875 2.87009 0.0546875 5.32614V11.492C0.0546875 13.948 2.05173 15.945 4.50778 15.945H10.6736C13.1296 15.945 15.1267 13.948 15.1267 11.492V5.32614C15.1267 2.87009 13.1296 0.873047 10.6736 0.873047H4.50778ZM11.7012 3.61341C12.078 3.61341 12.3863 3.9217 12.3863 4.2985C12.3863 4.6753 12.078 4.98359 11.7012 4.98359C11.3244 4.98359 11.0161 4.6753 11.0161 4.2985C11.0161 3.9217 11.3244 3.61341 11.7012 3.61341ZM7.59069 4.64105C9.66994 4.64105 11.3587 6.3298 11.3587 8.40905C11.3587 10.4883 9.66994 12.177 7.59069 12.177C5.51144 12.177 3.82269 10.4883 3.82269 8.40905C3.82269 6.3298 5.51144 4.64105 7.59069 4.64105ZM7.59069 5.32614C5.89166 5.32614 4.50778 6.71002 4.50778 8.40905C4.50778 10.1081 5.89166 11.492 7.59069 11.492C9.28971 11.492 10.6736 10.1081 10.6736 8.40905C10.6736 6.71002 9.28971 5.32614 7.59069 5.32614Z" fill="#171717"/>
</svg>
