<svg width="24" height="24" viewBox="0 0 24 24" fill="none" xmlns="http://www.w3.org/2000/svg">
<g id="typcn:social-linkedin">
<path id="Vector" d="M8.57143 18.5H6V9.5H8.57143V18.5ZM18 18.5H15.4286V13.6922C15.4286 12.4394 15.0034 11.8157 14.1609 11.8157C13.4931 11.8157 13.0697 12.1649 12.8571 12.8642V18.5H10.2857C10.2857 18.5 10.32 10.4 10.2857 9.5H12.3154L12.4723 11.3H12.5254C13.0526 10.4 13.8951 9.7898 15.0506 9.7898C15.9291 9.7898 16.6397 10.0463 17.1823 10.6907C17.7283 11.336 18 12.2018 18 13.4177V18.5Z" fill="#171717"/>
<path id="Vector_2" d="M7.5 8.5C8.32843 8.5 9 7.82843 9 7C9 6.17157 8.32843 5.5 7.5 5.5C6.67157 5.5 6 6.17157 6 7C6 7.82843 6.67157 8.5 7.5 8.5Z" fill="#171717"/>
</g>
</svg>
