<svg width="15" height="16" viewBox="0 0 15 16" fill="none" xmlns="http://www.w3.org/2000/svg">
<g clip-path="url(#clip0_2004_210)">
<path d="M12.9545 0.5H2.04545C1.50297 0.5 0.982697 0.715503 0.5991 1.0991C0.215503 1.4827 0 2.00297 0 2.54545L0 13.4545C0 13.997 0.215503 14.5173 0.5991 14.9009C0.982697 15.2845 1.50297 15.5 2.04545 15.5H12.9545C13.497 15.5 14.0173 15.2845 14.4009 14.9009C14.7845 14.5173 15 13.997 15 13.4545V2.54545C15 2.00297 14.7845 1.4827 14.4009 1.0991C14.0173 0.715503 13.497 0.5 12.9545 0.5ZM5.11364 12.3705C5.11375 12.412 5.10565 12.4533 5.08981 12.4917C5.07397 12.5302 5.0507 12.5651 5.02133 12.5946C4.99195 12.624 4.95706 12.6474 4.91864 12.6634C4.88022 12.6793 4.83904 12.6875 4.79744 12.6875H3.45C3.40833 12.6876 3.36706 12.6795 3.32854 12.6636C3.29002 12.6477 3.25503 12.6244 3.22556 12.5949C3.1961 12.5654 3.17275 12.5304 3.15686 12.4919C3.14097 12.4534 3.13284 12.4121 3.13295 12.3705V6.72159C3.13295 6.63751 3.16636 6.55686 3.22582 6.49741C3.28527 6.43795 3.36591 6.40455 3.45 6.40455H4.79744C4.88138 6.40477 4.9618 6.43827 5.02108 6.49771C5.08035 6.55714 5.11364 6.63765 5.11364 6.72159V12.3705ZM4.1233 5.86932C3.87045 5.86932 3.62328 5.79434 3.41305 5.65387C3.20282 5.51339 3.03896 5.31373 2.9422 5.08013C2.84544 4.84654 2.82012 4.58949 2.86945 4.3415C2.91878 4.09352 3.04054 3.86573 3.21932 3.68694C3.39811 3.50815 3.6259 3.38639 3.87389 3.33706C4.12188 3.28774 4.37892 3.31305 4.61252 3.40981C4.84612 3.50657 5.04578 3.67043 5.18625 3.88066C5.32673 4.0909 5.4017 4.33806 5.4017 4.59091C5.4017 4.92996 5.26702 5.25513 5.02727 5.49488C4.78752 5.73463 4.46235 5.86932 4.1233 5.86932ZM12.1568 12.3926C12.1569 12.4309 12.1495 12.4689 12.1349 12.5043C12.1203 12.5397 12.0988 12.5719 12.0717 12.599C12.0446 12.6261 12.0124 12.6475 11.977 12.6621C11.9416 12.6767 11.9037 12.6842 11.8653 12.6841H10.4165C10.3782 12.6842 10.3402 12.6767 10.3048 12.6621C10.2694 12.6475 10.2372 12.6261 10.2101 12.599C10.183 12.5719 10.1616 12.5397 10.147 12.5043C10.1323 12.4689 10.1249 12.4309 10.125 12.3926V9.74631C10.125 9.35085 10.2409 8.01449 9.09119 8.01449C8.20057 8.01449 8.01903 8.92898 7.98324 9.33977V12.396C7.98325 12.4726 7.95312 12.5461 7.89938 12.6006C7.84563 12.6552 7.77259 12.6864 7.69602 12.6875H6.29659C6.25835 12.6875 6.22049 12.68 6.18518 12.6653C6.14986 12.6506 6.11778 12.6292 6.09079 12.6021C6.06379 12.575 6.0424 12.5429 6.02784 12.5075C6.01329 12.4721 6.00585 12.4343 6.00597 12.396V6.69688C6.00585 6.65864 6.01329 6.62075 6.02784 6.5854C6.0424 6.55004 6.06379 6.5179 6.09079 6.49082C6.11778 6.46374 6.14986 6.44226 6.18518 6.4276C6.22049 6.41294 6.25835 6.4054 6.29659 6.4054H7.69602C7.77333 6.4054 7.84747 6.43611 7.90213 6.49077C7.95679 6.54543 7.9875 6.61957 7.9875 6.69688V7.18949C8.31818 6.69261 8.80824 6.3108 9.85398 6.3108C12.1705 6.3108 12.1551 8.47386 12.1551 9.66193L12.1568 12.3926Z" fill="#171717"/>
</g>
<defs>
<clipPath id="clip0_2004_210">
<rect width="15" height="15" fill="white" transform="translate(0 0.5)"/>
</clipPath>
</defs>
</svg>
