<svg width="30" height="30" viewBox="0 0 30 30" fill="none" xmlns="http://www.w3.org/2000/svg">
<path d="M15.0028 14.6875C15.6051 14.6875 16.1198 14.473 16.5469 14.0441C16.974 13.6152 17.1875 13.0996 17.1875 12.4972C17.1875 11.8949 16.973 11.3802 16.5441 10.9531C16.1152 10.526 15.5996 10.3125 14.9972 10.3125C14.3949 10.3125 13.8802 10.527 13.4531 10.9559C13.026 11.3848 12.8125 11.9004 12.8125 12.5028C12.8125 13.1051 13.027 13.6198 13.4559 14.0469C13.8848 14.474 14.4004 14.6875 15.0028 14.6875ZM15 27.5C11.6458 24.6458 9.14062 21.9948 7.48438 19.5469C5.82812 17.099 5 14.8333 5 12.75C5 9.625 6.00521 7.13542 8.01562 5.28125C10.026 3.42708 12.3542 2.5 15 2.5C17.6458 2.5 19.974 3.42708 21.9844 5.28125C23.9948 7.13542 25 9.625 25 12.75C25 14.8333 24.1719 17.099 22.5156 19.5469C20.8594 21.9948 18.3542 24.6458 15 27.5Z" fill="url(#paint0_linear_667_1907)"/>
<circle cx="15" cy="12.5" r="3" fill="white"/>
<defs>
<linearGradient id="paint0_linear_667_1907" x1="5" y1="15" x2="25" y2="15" gradientUnits="userSpaceOnUse">
<stop stop-color="#29B662"/>
<stop offset="0.0001" stop-color="#24BD63"/>
<stop offset="1" stop-color="#1A9B4F"/>
</linearGradient>
</defs>
</svg>
