<svg width="16" height="17" viewBox="0 0 16 17" fill="none" xmlns="http://www.w3.org/2000/svg">
<path d="M8.00083 8.33398C8.32207 8.33398 8.59657 8.2196 8.82435 7.99083C9.05213 7.76208 9.16602 7.48708 9.16602 7.16583C9.16602 6.8446 9.05163 6.5701 8.82287 6.34232C8.59411 6.11454 8.31911 6.00065 7.99787 6.00065C7.67663 6.00065 7.40213 6.11503 7.17435 6.3438C6.94657 6.57256 6.83268 6.84756 6.83268 7.1688C6.83268 7.49003 6.94707 7.76454 7.17583 7.99232C7.40459 8.2201 7.67959 8.33398 8.00083 8.33398ZM7.99935 15.1673C6.21046 13.6451 4.87435 12.2312 3.99102 10.9257C3.10768 9.62009 2.66602 8.41176 2.66602 7.30065C2.66602 5.63398 3.20213 4.30621 4.27435 3.31732C5.34657 2.32843 6.58824 1.83398 7.99935 1.83398C9.41046 1.83398 10.6521 2.32843 11.7243 3.31732C12.7966 4.30621 13.3327 5.63398 13.3327 7.30065C13.3327 8.41176 12.891 9.62009 12.0077 10.9257C11.1243 12.2312 9.78824 13.6451 7.99935 15.1673Z" fill="#FFD220"/>
</svg>
