<svg xmlns="http://www.w3.org/2000/svg" width="12" height="12" viewBox="0 0 12 12" fill="none">
<path opacity="0.4" d="M8.095 1H3.91C2.085 1 1 2.085 1 3.905V8.09C1 9.91 2.085 10.995 3.905 10.995H8.09C9.91 10.995 10.995 9.91 10.995 8.09V3.905C11 2.085 9.915 1 8.095 1Z" fill="#171717"/>
<path d="M8.67499 4.52502L7.50499 8.29502C7.22499 9.19002 5.96999 9.20502 5.67499 8.31502L5.32499 7.28002C5.22999 6.99502 5.00499 6.76502 4.71999 6.67502L3.67999 6.32502C2.79499 6.03002 2.80999 4.76502 3.70499 4.49502L7.47499 3.32002C8.21499 3.09502 8.90999 3.79002 8.67499 4.52502Z" fill="#171717"/>
</svg>
