<svg xmlns="http://www.w3.org/2000/svg" width="39" height="31" viewBox="0 0 39 31" fill="none">
  <g clip-path="url(#clip0_3222_25139)">
    <path d="M26.2912 3.43237C25.7174 2.74278 24.5532 2.6924 23.7541 2.82675C22.7606 2.99258 21.8494 3.53838 21.0474 4.15659C20.8975 3.36414 20.6782 2.58534 20.3496 1.85902C20.0102 1.10855 19.4633 0.198548 18.6097 0.0274633C17.7471 -0.145721 16.8032 0.563809 16.2563 1.18202C15.5178 2.01541 15.1208 3.13743 14.8617 4.21852C14.5064 5.7016 14.4051 7.24976 14.4746 8.77273C14.5461 10.3293 14.7903 11.9457 15.4325 13.3668C15.6607 13.8717 15.9893 14.4511 16.4369 14.8258C16.2593 14.8342 16.0766 14.8468 15.8841 14.8688C15.5724 14.9055 14.5461 14.9003 14.2324 14.9066C14.0816 14.9097 13.9307 14.9076 13.7798 14.9045C13.7481 14.9045 13.7173 14.9024 13.6855 14.9024C13.6855 14.9013 13.4662 14.8908 13.4553 14.8898C13.3808 14.8846 13.3074 14.8793 13.2329 14.873C13.084 14.8573 12.9361 14.8384 12.7882 14.8195C12.7624 14.8163 12.7466 14.8142 12.7347 14.8132C12.6771 14.8037 12.6195 14.7943 12.5629 14.7838C12.3734 14.7502 12.1828 14.7145 11.9952 14.6725C11.5763 14.5791 10.9828 14.4059 10.5083 14.2296C8.28199 13.4046 6.28395 12.0023 4.69386 10.1897C3.78367 9.15269 3.01939 7.98973 2.4169 6.73546C2.404 6.70922 2.38613 6.68613 2.36529 6.66408H0C1.18215 9.08656 2.94297 11.1742 5.13654 12.6667C7.59315 14.3377 10.4478 15.1816 13.3649 15.3873C14.2116 15.4471 15.0612 15.4534 15.9079 15.4041C17.4771 15.3128 19.0275 15.0682 20.433 14.2831C20.975 13.9808 21.4851 13.6156 21.9487 13.1957C23.0901 12.1598 24.0857 10.9905 24.9224 9.67748C25.638 8.55231 26.2643 7.30959 26.5621 5.98919C26.7448 5.18205 26.8589 4.1167 26.2912 3.43342V3.43237ZM15.9605 11.3799C15.8672 11.0273 15.7908 10.6704 15.7272 10.3167C15.2746 7.7966 15.3501 4.96058 16.2354 2.5444C16.4012 2.09098 16.6017 1.647 16.8717 1.24815C16.9044 1.19987 17.1506 0.900731 17.1506 0.900731L17.1943 0.863994C17.8891 0.794721 18.3913 1.19462 18.7923 1.76035C19.3799 2.58849 19.6995 3.6171 19.9169 4.60897C19.9546 4.779 19.9883 4.95009 20.0191 5.12117C19.1893 5.90627 18.4509 6.79738 17.7997 7.74202C17.0374 8.8462 16.3516 10.0721 15.9595 11.381L15.9605 11.3799ZM18.5422 14.4112C17.6786 14.8268 16.9699 14.0134 16.8985 13.1685C16.8469 12.5492 17.0394 11.9541 17.225 11.3747C17.4106 10.7932 17.6618 10.2338 17.9367 9.69113C18.5342 8.51348 19.2955 7.36102 20.1878 6.33871C20.2663 7.14165 20.2871 7.95194 20.2534 8.75594C20.2196 9.58407 20.1293 10.4101 19.9715 11.2225C19.8335 11.931 19.6856 12.6489 19.3829 13.3049C19.1913 13.7195 18.966 14.2076 18.5432 14.4112H18.5422ZM25.4564 4.94484C25.4227 5.9724 25.0594 6.98526 24.6375 7.90261C24.0609 9.15688 23.2956 10.3209 22.4221 11.3726C21.6221 12.3361 20.7129 13.2325 19.6826 13.9305C19.7045 13.9021 19.7293 13.8748 19.7501 13.8465C20.434 12.9249 20.7874 11.7399 21.0097 10.6169C21.3164 9.07397 21.3769 7.47647 21.2479 5.90837C21.231 5.70685 21.2102 5.50428 21.1864 5.3017C21.7472 4.779 22.3457 4.30983 22.9789 3.91623C23.3809 3.66643 23.8028 3.44706 24.2534 3.30851C24.5035 3.23084 24.7368 3.2151 24.7368 3.2151C25.3234 3.60765 25.4792 4.24371 25.4554 4.94484H25.4564Z" fill="white"/>
    <path d="M4.87648 16.7266H6.49834C6.49834 16.7266 8.13012 26.7093 9.83436 26.7093C9.83436 26.7093 12.0408 26.1761 13.1485 16.7266H14.5749C14.5749 16.7266 13.9357 26.9759 9.8294 26.9759C9.8294 26.9759 6.0765 27.021 4.87549 16.7266H4.87648Z" fill="white"/>
    <path d="M19.5278 16.7266H21.1497C21.1497 16.7266 22.7815 26.7093 24.4857 26.7093C24.4857 26.7093 26.6922 26.1761 27.7999 16.7266H29.2262C29.2262 16.7266 28.587 26.9759 24.4808 26.9759C24.4808 26.9759 20.7279 27.021 19.5269 16.7266H19.5278Z" fill="white"/>
    <path d="M30.738 27.0264C30.738 26.9634 30.738 26.6149 30.738 26.5509C30.738 21.4624 32.4789 16.9932 34.3569 16.9932C36.2348 16.9932 37.5659 21.4635 37.5659 26.5509C37.5659 26.6149 37.5659 26.9623 37.5659 27.0264H39.0011C39.0011 26.9508 39.0021 26.5897 39.0021 26.5131C39.0021 21.4037 37.0944 16.7256 34.3579 16.7256C31.6214 16.7256 29.3037 21.4037 29.3037 26.5131C29.3037 26.5897 29.3037 26.9508 29.3047 27.0264H30.74H30.738Z" fill="white"/>
    <path d="M37.3106 20.569C37.0734 20.6205 36.9722 20.4085 36.8749 20.569C36.3925 21.3657 35.4744 22.2725 34.5672 22.6053C34.1146 22.7711 33.6252 22.874 33.0724 22.9149C32.3964 22.9653 31.4972 22.811 30.8202 22.6745C30.4808 22.6063 30.2475 22.8288 30.0103 23.0241C29.785 23.2098 29.8823 23.3883 30.18 23.4481C32.7895 23.9739 35.923 23.3736 37.5757 21.5756C37.4774 21.2397 37.3811 20.9091 37.3106 20.569Z" fill="white"/>
    <path d="M17.7978 16.7266H16.5154V27.02H17.7978V16.7266Z" fill="white"/>
    <path d="M23.2866 15.4153L24.2097 12.8721H24.6574L25.5834 15.4153H25.1318L24.9065 14.7425H23.9467L23.7214 15.4153H23.2866ZM24.4251 13.3108L24.0618 14.4045H24.7963L24.436 13.3108H24.4261H24.4251Z" fill="white"/>
    <path d="M27.2788 14.5672H27.6997C27.6997 14.7519 27.7562 14.8894 27.8684 14.9786C27.9806 15.0678 28.1275 15.1119 28.3101 15.1119C28.4927 15.1119 28.6108 15.0741 28.6942 14.9996C28.7776 14.9251 28.8193 14.8338 28.8193 14.7267C28.8193 14.5703 28.7528 14.4654 28.6208 14.4129C28.5691 14.3919 28.5116 14.3709 28.4471 14.352C28.3835 14.3331 28.2952 14.309 28.184 14.2785C28.0729 14.2491 27.9796 14.2229 27.9031 14.2019C27.5488 14.1043 27.3711 13.8902 27.3711 13.5574C27.3711 13.3181 27.4585 13.1334 27.6322 13.0033C27.8059 12.8742 28.0123 12.8091 28.2505 12.8091C28.5136 12.8091 28.7329 12.8805 28.9086 13.0242C29.0853 13.168 29.1726 13.3664 29.1726 13.6204H28.7518C28.729 13.3213 28.5562 13.1712 28.2327 13.1712C28.1155 13.1712 28.0133 13.1974 27.925 13.2499C27.8366 13.3024 27.792 13.3864 27.792 13.5029C27.792 13.6624 27.8873 13.7716 28.0778 13.8303C28.0798 13.8303 28.1324 13.845 28.2356 13.8734C28.3389 13.9017 28.4451 13.9311 28.5543 13.9626C28.6634 13.993 28.7359 14.0151 28.7716 14.0266C28.9215 14.077 29.0376 14.161 29.118 14.2817C29.1984 14.4013 29.2391 14.5325 29.2391 14.6753C29.2391 14.818 29.2123 14.9345 29.1587 15.0405C29.1051 15.1465 29.0317 15.2295 28.9384 15.2903C28.8451 15.3512 28.7438 15.3963 28.6337 15.4278C28.5235 15.4583 28.4064 15.474 28.2833 15.474C27.9915 15.474 27.7523 15.3984 27.5657 15.2463C27.3791 15.0941 27.2838 14.8673 27.2798 14.5661L27.2788 14.5672Z" fill="white"/>
    <path d="M30.9849 15.4153V12.8721H31.4057V15.4153H30.9849Z" fill="white"/>
    <path d="M33.2114 15.4153L34.1345 12.8721H34.5822L35.5082 15.4153H35.0566L34.8313 14.7425H33.8715L33.6462 15.4153H33.2114ZM34.3499 13.3108L33.9866 14.4045H34.7211L34.3608 13.3108H34.3509H34.3499Z" fill="white"/>
    <path d="M12.1819 28.671V28.2764H14.1819V28.671H13.3968V30.8888H12.964V28.671H12.1819Z" fill="white"/>
    <path d="M15.8225 30.8878V28.2754H17.0027C17.2707 28.2754 17.4732 28.3373 17.6121 28.4601C17.7501 28.5829 17.8196 28.7572 17.8196 28.9818C17.8196 29.0993 17.8037 29.2011 17.7709 29.2893C17.7382 29.3775 17.6955 29.4446 17.6429 29.4919C17.5903 29.5391 17.5466 29.5727 17.5129 29.5926C17.4791 29.6126 17.4454 29.6283 17.4106 29.6399V29.6472C17.5049 29.6598 17.5903 29.7091 17.6647 29.7952C17.7392 29.8813 17.7769 30.0167 17.7769 30.1993C17.7769 30.5551 17.8215 30.785 17.9119 30.8868H17.4483C17.4047 30.8112 17.3828 30.6832 17.3828 30.5026C17.3828 30.2518 17.3491 30.0734 17.2806 29.9684C17.2121 29.8634 17.0831 29.811 16.8915 29.811H16.2553V30.8868H15.8225V30.8878ZM16.2553 28.649V29.4646H16.965C17.2468 29.4646 17.3868 29.326 17.3868 29.0479C17.3868 28.8947 17.3481 28.7897 17.2707 28.733C17.1932 28.6774 17.089 28.649 16.958 28.649H16.2553Z" fill="white"/>
    <path d="M19.2778 30.8878L20.2258 28.2754H20.6863L21.6382 30.8878H21.1746L20.9424 30.1962H19.9558L19.7235 30.8878H19.2769H19.2778ZM20.4471 28.7257L20.0739 29.8487H20.8282L20.458 28.7257H20.4481H20.4471Z" fill="white"/>
    <path d="M23.4247 30.8878L22.6008 28.2754H23.0505L23.6698 30.3431H23.6768L24.31 28.2754H24.7497L23.9051 30.8878H23.4237H23.4247Z" fill="white"/>
    <path d="M26.3735 30.8878V28.2754H28.1522V28.67H26.8063V29.3544H28.052V29.728H26.8063V30.4932H28.176V30.8878H26.3735Z" fill="white"/>
    <path d="M30.0063 30.8878V28.2754H30.4391V30.4932H31.6947V30.8878H30.0063Z" fill="white"/>
  </g>
  <defs>
    <clipPath id="clip0_3222_25139">
      <rect width="39" height="30.8876" fill="white"/>
    </clipPath>
  </defs>
</svg>