<svg width="58" height="42" viewBox="0 0 58 42" fill="none" xmlns="http://www.w3.org/2000/svg">
<g id="Layer_1" clip-path="url(#clip0_2230_35278)">
<path id="Vector" d="M38.9255 4.66717C38.087 3.7295 36.3854 3.66099 35.2176 3.84367C33.7655 4.06917 32.4338 4.81132 31.2616 5.65195C31.0426 4.57441 30.722 3.51541 30.2418 2.52778C29.7456 1.50733 28.9463 0.269933 27.6987 0.0372976C26.4381 -0.198192 25.0585 0.766603 24.2592 1.60723C23.1799 2.74044 22.5996 4.26613 22.221 5.73616C21.7016 7.75281 21.5537 9.85794 21.6552 11.9288C21.7597 14.0454 22.1165 16.2433 23.0551 18.1757C23.3888 18.8622 23.869 19.65 24.5232 20.1596C24.2635 20.171 23.9966 20.1881 23.7152 20.2181C23.2597 20.268 21.7597 20.2609 21.3013 20.2695C21.0808 20.2737 20.8603 20.2709 20.6397 20.2666C20.5933 20.2666 20.5484 20.2637 20.5019 20.2637C20.5019 20.2623 20.1813 20.2481 20.1654 20.2466C20.0566 20.2395 19.9492 20.2324 19.8404 20.2238C19.6228 20.2024 19.4067 20.1767 19.1905 20.151C19.1528 20.1467 19.1296 20.1439 19.1122 20.1424C19.028 20.1296 18.9439 20.1167 18.8612 20.1025C18.5841 20.0568 18.3056 20.0083 18.0314 19.9512C17.4192 19.8242 16.5517 19.5887 15.8583 19.3489C12.6044 18.2271 9.68424 16.3204 7.36025 13.8556C6.02998 12.4455 4.91296 10.8641 4.0324 9.15861C4.01354 9.12293 3.98743 9.09153 3.95696 9.06156H0.5C2.22776 12.3556 4.80126 15.1943 8.00725 17.2238C11.5977 19.4959 15.7698 20.6434 20.0334 20.9231C21.2708 21.0045 22.5126 21.013 23.75 20.946C26.0435 20.8218 28.3095 20.4893 30.3636 19.4217C31.1557 19.0107 31.9014 18.514 32.5788 17.9431C34.2471 16.5344 35.7021 14.9445 36.925 13.1591C37.971 11.6291 38.8864 9.9393 39.3216 8.14386C39.5885 7.04634 39.7553 5.59772 38.9255 4.6686V4.66717ZM23.8269 15.474C23.6905 14.9945 23.5788 14.5092 23.486 14.0283C22.8245 10.6015 22.9347 6.74519 24.2287 3.45975C24.471 2.8432 24.764 2.23949 25.1586 1.69715C25.2065 1.63149 25.5662 1.22474 25.5662 1.22474L25.6301 1.17479C26.6455 1.08059 27.3796 1.62436 27.9657 2.39363C28.8245 3.5197 29.2916 4.91836 29.6093 6.26708C29.6644 6.49829 29.7137 6.73092 29.7587 6.96356C28.5459 8.03111 27.4666 9.24282 26.515 10.5273C25.4009 12.0287 24.3985 13.6957 23.8254 15.4755L23.8269 15.474ZM27.6001 19.5958C26.338 20.161 25.3022 19.0549 25.1978 17.906C25.1223 17.0639 25.4038 16.2547 25.675 15.4669C25.9463 14.6762 26.3133 13.9155 26.7152 13.1776C27.5885 11.5763 28.7012 10.0092 30.0053 8.61912C30.1199 9.71094 30.1504 10.8127 30.1011 11.906C30.0517 13.0321 29.9197 14.1553 29.6891 15.2599C29.4874 16.2233 29.2713 17.1995 28.8288 18.0915C28.5488 18.6553 28.2195 19.3189 27.6015 19.5958H27.6001ZM37.7055 6.72379C37.6562 8.12103 37.1252 9.49829 36.5087 10.7457C35.6659 12.4512 34.5474 14.034 33.2708 15.464C32.1015 16.7742 30.7727 17.9931 29.2669 18.9422C29.2988 18.9036 29.3351 18.8665 29.3656 18.828C30.3651 17.5749 30.8815 15.9636 31.2065 14.4364C31.6547 12.3384 31.7432 10.1662 31.5546 8.03397C31.53 7.75994 31.4995 7.48449 31.4647 7.20904C32.2843 6.49829 33.1591 5.86032 34.0846 5.32512C34.6721 4.98544 35.2887 4.68716 35.9473 4.49876C36.3129 4.39315 36.6538 4.37174 36.6538 4.37174C37.5111 4.90552 37.7389 5.77041 37.7041 6.72379H37.7055Z" fill="#FFD220"/>
<g id="Group">
<path id="Vector_2" d="M7.62645 22.744H9.99686C9.99686 22.744 12.3818 36.3182 14.8726 36.3182C14.8726 36.3182 18.0974 35.5932 19.7164 22.744H21.801C21.801 22.744 20.8668 36.6807 14.8653 36.6807C14.8653 36.6807 9.38032 36.7421 7.625 22.744H7.62645Z" fill="#FFD220"/>
<path id="Vector_3" d="M29.0405 22.744H31.4109C31.4109 22.744 33.7958 36.3182 36.2866 36.3182C36.2866 36.3182 39.5115 35.5932 41.1305 22.744H43.2151C43.2151 22.744 42.2808 36.6807 36.2794 36.6807C36.2794 36.6807 30.7944 36.7421 29.0391 22.744H29.0405Z" fill="#FFD220"/>
<path id="Vector_4" d="M45.4244 36.7493C45.4244 36.6636 45.4244 36.1898 45.4244 36.1027C45.4244 29.1836 47.9688 23.1066 50.7135 23.1066C53.4582 23.1066 55.4036 29.1851 55.4036 36.1027C55.4036 36.1898 55.4036 36.6622 55.4036 36.7493H57.5012C57.5012 36.6465 57.5027 36.1556 57.5027 36.0514C57.5027 29.1037 54.7145 22.7426 50.715 22.7426C46.7155 22.7426 43.3281 29.1037 43.3281 36.0514C43.3281 36.1556 43.3281 36.6465 43.3296 36.7493H45.4273H45.4244Z" fill="#FFD220"/>
<path id="Vector_5" d="M55.0304 27.9691C54.6837 28.039 54.5357 27.7507 54.3935 27.9691C53.6885 29.0523 52.3466 30.2854 51.0207 30.7379C50.3592 30.9634 49.644 31.1032 48.836 31.1589C47.8481 31.2274 46.5338 31.0176 45.5444 30.8321C45.0483 30.7393 44.7074 31.0419 44.3607 31.3073C44.0314 31.5599 44.1735 31.8026 44.6087 31.8839C48.4226 32.5989 53.0023 31.7826 55.4177 29.3378C55.2741 28.8811 55.1334 28.4315 55.0304 27.9691Z" fill="#FFD220"/>
<path id="Vector_6" d="M26.511 22.744H24.6367V36.7407H26.511V22.744Z" fill="#FFD220"/>
</g>
<g id="Group_2">
<path id="Vector_7" d="M34.5352 20.9615L35.8843 17.5034H36.5385L37.892 20.9615H37.232L36.9027 20.0467H35.4999L35.1706 20.9615H34.5352ZM36.1991 18.0999L35.6681 19.5871H36.7416L36.215 18.0999H36.2005H36.1991Z" fill="#FFD220"/>
<path id="Vector_8" d="M40.3691 19.8083H40.9842C40.9842 20.0595 41.0669 20.2465 41.2308 20.3678C41.3948 20.4891 41.6095 20.549 41.8764 20.549C42.1433 20.549 42.316 20.4976 42.4378 20.3963C42.5597 20.295 42.6206 20.1708 42.6206 20.0252C42.6206 19.8126 42.5234 19.6699 42.3305 19.5985C42.255 19.57 42.1709 19.5414 42.0766 19.5157C41.9837 19.49 41.8546 19.4572 41.6922 19.4158C41.5297 19.3759 41.3933 19.3402 41.2816 19.3116C40.7637 19.1789 40.5041 18.8878 40.5041 18.4353C40.5041 18.1099 40.6317 17.8587 40.8856 17.6818C41.1395 17.5062 41.4412 17.4177 41.7894 17.4177C42.1738 17.4177 42.4944 17.5148 42.7512 17.7103C43.0094 17.9058 43.137 18.1756 43.137 18.521H42.5219C42.4886 18.1142 42.2362 17.9101 41.7632 17.9101C41.5921 17.9101 41.4426 17.9458 41.3135 18.0172C41.1844 18.0885 41.1191 18.2027 41.1191 18.3611C41.1191 18.578 41.2584 18.7265 41.5369 18.8064C41.5398 18.8064 41.6167 18.8264 41.7676 18.8649C41.9185 18.9035 42.0737 18.9434 42.2333 18.9862C42.3928 19.0276 42.4987 19.0576 42.551 19.0733C42.77 19.1418 42.9397 19.256 43.0572 19.4201C43.1747 19.5828 43.2342 19.7612 43.2342 19.9553C43.2342 20.1494 43.1951 20.3078 43.1167 20.452C43.0384 20.5961 42.931 20.7089 42.7947 20.7917C42.6583 20.8744 42.5103 20.9358 42.3493 20.9786C42.1883 21.02 42.0171 21.0414 41.8372 21.0414C41.4107 21.0414 41.0611 20.9387 40.7884 20.7317C40.5157 20.5248 40.3764 20.2165 40.3706 19.8069L40.3691 19.8083Z" fill="#FFD220"/>
<path id="Vector_9" d="M45.7871 20.9615V17.5034H46.4022V20.9615H45.7871Z" fill="#FFD220"/>
<path id="Vector_10" d="M49.041 20.9615L50.3901 17.5034H51.0444L52.3979 20.9615H51.7378L51.4085 20.0467H50.0057L49.6764 20.9615H49.041ZM50.7049 18.0999L50.174 19.5871H51.2475L50.7209 18.0999H50.7064H50.7049Z" fill="#FFD220"/>
</g>
<g id="Group_3">
<path id="Vector_11" d="M18.3047 38.9857V38.4491H21.2278V38.9857H20.0803V42.0014H19.4478V38.9857H18.3047Z" fill="#FFD220"/>
<path id="Vector_12" d="M23.625 42V38.4477H25.3499C25.7415 38.4477 26.0375 38.5319 26.2406 38.6989C26.4422 38.8659 26.5438 39.1028 26.5438 39.4082C26.5438 39.5681 26.5205 39.7065 26.4727 39.8264C26.4248 39.9463 26.3624 40.0376 26.2855 40.1018C26.2087 40.1661 26.1448 40.2117 26.0955 40.2388C26.0462 40.266 25.9969 40.2874 25.9461 40.3031V40.3131C26.0839 40.3302 26.2087 40.3973 26.3175 40.5143C26.4263 40.6313 26.4814 40.8154 26.4814 41.0638C26.4814 41.5476 26.5467 41.8602 26.6787 41.9986H26.0012C25.9374 41.8958 25.9055 41.7217 25.9055 41.4762C25.9055 41.1351 25.8561 40.8925 25.756 40.7498C25.6559 40.6071 25.4674 40.5357 25.1874 40.5357H24.2575V41.9986H23.625V42ZM24.2575 38.9558V40.0647H25.2947C25.7067 40.0647 25.9113 39.8763 25.9113 39.4981C25.9113 39.2897 25.8547 39.147 25.7415 39.07C25.6284 38.9943 25.4761 38.9558 25.2846 38.9558H24.2575Z" fill="#FFD220"/>
<path id="Vector_13" d="M28.6753 42L30.0607 38.4477H30.7338L32.125 42H31.4475L31.1081 41.0595H29.6661L29.3266 42H28.6738H28.6753ZM30.3842 39.06L29.8387 40.5871H30.9412L30.4001 39.06H30.3856H30.3842Z" fill="#FFD220"/>
<path id="Vector_14" d="M34.7373 42L33.5332 38.4477H34.1904L35.0956 41.2593H35.1057L36.0313 38.4477H36.6739L35.4394 42H34.7358H34.7373Z" fill="#FFD220"/>
<path id="Vector_15" d="M39.0469 42V38.4477H41.6465V38.9843H39.6794V39.9149H41.5V40.423H39.6794V41.4634H41.6813V42H39.0469Z" fill="#FFD220"/>
<path id="Vector_16" d="M44.3555 42V38.4477H44.988V41.4634H46.8231V42H44.3555Z" fill="#FFD220"/>
</g>
</g>
<defs>
<clipPath id="clip0_2230_35278">
<rect width="57" height="42" fill="white" transform="translate(0.5)"/>
</clipPath>
</defs>
</svg>
