<svg width="57" height="45" viewBox="0 0 57 45" fill="none" xmlns="http://www.w3.org/2000/svg">
<g clip-path="url(#clip0_901_550)">
<path d="M35.339 4.45464C34.5671 3.5593 33.0022 3.49506 31.9285 3.66771C30.5932 3.88351 29.3692 4.59115 28.2905 5.39415C28.09 4.36531 27.7932 3.35454 27.3521 2.41202C26.896 1.43839 26.1612 0.255984 25.0133 0.0341569C23.8534 -0.189678 22.5853 0.729751 21.8494 1.53275C20.857 2.61478 20.3236 4.07021 19.9748 5.47344C19.4966 7.39862 19.3602 9.40812 19.4545 11.3855C19.5497 13.405 19.8785 15.5038 20.7417 17.3487C21.0484 18.0042 21.4905 18.755 22.092 19.2428C21.8524 19.2538 21.6068 19.2699 21.3482 19.299C20.9301 19.3462 19.5497 19.3391 19.1287 19.3482C18.9261 19.3522 18.7226 19.3492 18.5201 19.3452C18.478 19.3452 18.4359 19.3432 18.3928 19.3422C18.3918 19.3402 18.0981 19.3261 18.083 19.3251C17.9838 19.3191 17.8846 19.311 17.7843 19.304C17.5848 19.2839 17.3863 19.2599 17.1868 19.2348C17.1517 19.2307 17.1317 19.2277 17.1156 19.2257C17.0384 19.2137 16.9613 19.2016 16.8841 19.1886C16.6284 19.1454 16.3738 19.0983 16.1202 19.0441C15.5568 18.9236 14.7588 18.6978 14.1212 18.4689C11.1287 17.3979 8.44303 15.5771 6.30571 13.2253C5.08266 11.8793 4.0551 10.3697 3.24408 8.74163C3.22704 8.7075 3.20298 8.67739 3.17491 8.64828H0C1.58996 11.793 3.95585 14.5021 6.9042 16.4393C10.2064 18.6084 14.043 19.7035 17.9648 19.9705C19.1026 20.0478 20.2454 20.0568 21.3833 19.9926C23.4925 19.8731 25.5767 19.556 27.4664 18.5382C28.1952 18.1457 28.8799 17.6719 29.5035 17.1269C31.0383 15.7829 32.3757 14.2652 33.5005 12.5599C34.4629 11.0994 35.3039 9.48641 35.7049 7.77302C35.9496 6.72611 36.1039 5.34195 35.341 4.45565L35.339 4.45464ZM21.4775 14.6386C21.3522 14.1809 21.2489 13.7182 21.1637 13.2585C20.5552 9.98727 20.6575 6.30655 21.8464 3.16985C22.07 2.58065 22.3386 2.0045 22.7026 1.48758C22.7457 1.42534 23.0775 1.0369 23.0775 1.0369L23.1366 0.988717C24.071 0.899384 24.7456 1.41832 25.285 2.15206C26.075 3.22706 26.505 4.56204 26.7968 5.84884C26.8469 6.06966 26.893 6.29149 26.9341 6.51432C25.8193 7.53312 24.8268 8.69044 23.9507 9.91601C22.9261 11.3494 22.0048 12.9403 21.4775 14.6386ZM24.9471 18.5723C23.7863 19.1113 22.8339 18.0554 22.7386 16.9593C22.6685 16.1553 22.9281 15.3824 23.1777 14.6306C23.4274 13.8758 23.7642 13.1491 24.1341 12.4454C24.9371 10.9157 25.9607 9.42116 27.1597 8.09422C27.2659 9.1371 27.292 10.188 27.2479 11.2319C27.2018 12.3069 27.0805 13.3789 26.8689 14.4339C26.6845 15.3543 26.484 16.2848 26.078 17.1369C25.8213 17.6749 25.5176 18.3093 24.9492 18.5733L24.9471 18.5723ZM34.2413 6.28447C34.1962 7.61844 33.707 8.93234 33.1406 10.1238C32.3656 11.7529 31.3371 13.2625 30.1621 14.6286C29.0865 15.8792 27.8654 17.0436 26.48 17.949C26.509 17.9128 26.5431 17.8767 26.5712 17.8396C27.4905 16.6431 27.9647 15.1054 28.2644 13.6469C28.6764 11.6445 28.7586 9.56972 28.5852 7.53513C28.5632 7.27315 28.5351 7.01118 28.503 6.7482C29.2559 6.06967 30.0609 5.46039 30.913 4.94949C31.4534 4.62528 32.0208 4.34022 32.6253 4.16055C32.9621 4.06017 33.2749 4.03909 33.2749 4.03909C34.0639 4.54799 34.2724 5.37507 34.2413 6.28447Z" fill="url(#paint0_radial_901_550)"/>
<path d="M17.8148 19.3067C17.8148 19.3067 17.8058 19.3057 17.8008 19.3047C17.8639 19.3107 17.9752 19.3228 17.8148 19.3067Z" fill="url(#paint1_radial_901_550)"/>
<path d="M34.083 19.5345L35.5537 15.6992H36.2674L37.7431 19.5345H37.0243L36.6654 18.5187H35.1366L34.7767 19.5345H34.085H34.083ZM35.8965 16.3597L35.3171 18.0088H36.487L35.9126 16.3597H35.8965Z" fill="#138140"/>
<path d="M40.0225 18.2554H40.6931C40.6931 18.5354 40.7824 18.7422 40.9618 18.8757C41.1402 19.0102 41.3748 19.0774 41.6645 19.0774C41.9543 19.0774 42.1437 19.0212 42.2761 18.9078C42.4084 18.7944 42.4746 18.6579 42.4746 18.4962C42.4746 18.2604 42.3693 18.1028 42.1578 18.0235C42.0756 17.9914 41.9833 17.9613 41.8811 17.9321C41.7788 17.904 41.6395 17.8669 41.463 17.8217C41.2856 17.7776 41.1362 17.7384 41.0149 17.7063C40.4495 17.5598 40.1668 17.2355 40.1668 16.7337C40.1668 16.3723 40.3052 16.0933 40.5829 15.8986C40.8595 15.7028 41.1884 15.6055 41.5673 15.6055C41.9854 15.6055 42.3352 15.7139 42.6169 15.9307C42.8986 16.1475 43.038 16.4476 43.038 16.83H42.3673C42.3312 16.3794 42.0555 16.1535 41.5412 16.1535C41.3548 16.1535 41.1914 16.1927 41.051 16.272C40.9097 16.3502 40.8385 16.4777 40.8385 16.6534C40.8385 16.8933 40.9909 17.0579 41.2946 17.1472C41.2986 17.1472 41.3828 17.1683 41.5473 17.2115C41.7117 17.2546 41.8801 17.2998 42.0545 17.346C42.228 17.3921 42.3432 17.4243 42.4004 17.4423C42.64 17.5176 42.8244 17.6461 42.9528 17.8257C43.0821 18.0064 43.1462 18.2052 43.1462 18.419C43.1462 18.6328 43.1031 18.8104 43.0179 18.97C42.9317 19.1296 42.8144 19.2551 42.667 19.3464C42.5187 19.4378 42.3563 19.507 42.1808 19.5532C42.0054 19.5994 41.8199 19.6235 41.6234 19.6235C41.1583 19.6235 40.7773 19.509 40.4806 19.2792C40.1839 19.0493 40.0315 18.708 40.0245 18.2533L40.0225 18.2554Z" fill="#138140"/>
<path d="M45.877 19.5345V15.6992H46.5476V19.5345H45.877Z" fill="#138140"/>
<path d="M49.0684 19.5345L50.539 15.6992H51.2528L52.7285 19.5345H52.0097L51.6508 18.5187H50.122L49.7621 19.5345H49.0704H49.0684ZM50.8819 16.3597L50.3024 18.0088H51.4723L50.8979 16.3597H50.8819Z" fill="#138140"/>
<path d="M21.1484 40.9751L21.2417 40.5254L23.6477 41.0283L23.5534 41.4779L22.6091 41.2802L22.0818 43.8056L21.5615 43.6972L22.0888 41.1718L21.1484 40.9751Z" fill="#138140"/>
<path d="M25.2139 44.3493L25.5608 41.3301L27.0013 41.4967C27.3282 41.5338 27.5678 41.6342 27.7201 41.7958C27.8725 41.9574 27.9337 42.1682 27.9036 42.4272C27.8886 42.5627 27.8545 42.6791 27.8033 42.7755C27.7522 42.8728 27.6911 42.9451 27.6199 42.9923C27.5487 43.0395 27.4916 43.0726 27.4485 43.0896C27.4054 43.1077 27.3612 43.1208 27.3171 43.1298V43.1388C27.4304 43.1659 27.5267 43.2352 27.6069 43.3456C27.6871 43.456 27.7141 43.6176 27.6901 43.8284C27.6429 44.2399 27.667 44.5109 27.7632 44.6424L27.1978 44.5772C27.1547 44.4838 27.1447 44.3323 27.1688 44.1245C27.2028 43.8344 27.1838 43.6236 27.1156 43.4931C27.0475 43.3627 26.8951 43.2834 26.6615 43.2563L25.8846 43.1669L25.7412 44.4106L25.2129 44.3493H25.2139ZM26.04 41.8229L25.9317 42.7654L26.7978 42.8648C27.1417 42.9049 27.3312 42.7634 27.3683 42.4422C27.3893 42.2646 27.3552 42.1381 27.269 42.0618C27.1818 41.9865 27.0585 41.9394 26.8981 41.9203L26.041 41.8219L26.04 41.8229Z" fill="#138140"/>
<path d="M29.6865 44.7815L30.9447 41.7793L31.5101 41.7974L32.5847 44.8708L32.0153 44.8538L31.7557 44.0407L30.5447 44.0036L30.2349 44.7986L29.6865 44.7815ZM31.2003 42.3113L30.7011 43.6031L31.6274 43.6322L31.2133 42.3123H31.2013L31.2003 42.3113Z" fill="#138140"/>
<path d="M35.0781 44.8184L33.9453 41.8222L34.4977 41.8002L35.3548 44.172H35.3628L36.0435 41.7369L36.5829 41.7148L35.6686 44.7933L35.0781 44.8174V44.8184Z" fill="#138140"/>
<path d="M38.8453 44.5731L38.4834 41.5559L40.6528 41.2949L40.7079 41.7516L39.0658 41.9494L39.1601 42.7393L40.6799 42.5566L40.732 42.9882L39.2122 43.1709L39.3185 44.0542L40.9896 43.8535L41.0448 44.3102L38.8453 44.5752V44.5731Z" fill="#138140"/>
<path d="M43.3296 43.9214L42.7051 40.9473L43.2254 40.8379L43.7557 43.3623L45.2665 43.0441L45.3607 43.4938L43.3306 43.9214H43.3296Z" fill="#138140"/>
<path d="M6.25686 22.998H8.49243C8.49243 22.998 10.9054 35.8791 13.4257 35.8791C13.4257 35.8791 16.0082 36.1381 18.1635 22.998H20.2728C20.2728 22.998 19.0146 36.2505 13.4187 36.2505C13.4187 36.2505 8.36812 37.0966 6.25586 22.998H6.25686Z" fill="#FFD220"/>
<path d="M28.167 22.998H30.4026C30.4026 22.998 32.8156 35.8791 35.3359 35.8791C35.3359 35.8791 37.9183 36.1381 40.0737 22.998H42.1829C42.1829 22.998 40.9248 36.2505 35.3289 36.2505C35.3289 36.2505 30.2783 37.0966 28.166 22.998H28.167Z" fill="#FFD220"/>
<path d="M45.388 35.9239C45.388 35.8356 45.387 35.7462 45.387 35.6569C45.387 28.5323 47.3549 23.0248 50.1318 23.0248C52.9087 23.0248 54.8766 28.5323 54.8766 35.6569C54.8766 35.7462 54.8766 35.8346 54.8756 35.9239H56.9979C56.9989 35.8175 56.9999 35.7111 56.9999 35.6037C56.9999 28.45 54.1779 22.6504 50.1318 22.6504C46.0857 22.6504 43.2637 28.45 43.2637 35.6037C43.2637 35.7111 43.2637 35.8175 43.2657 35.9239H45.388Z" fill="#FFD220"/>
<path d="M54.805 27.2812C54.4551 27.3535 54.1032 27.495 53.9589 27.7199C53.2461 28.835 52.0892 29.6661 50.7479 30.1319C50.0782 30.3637 49.3554 30.5083 48.5374 30.5665C47.5379 30.6368 46.5234 30.5494 45.5229 30.3587C45.0216 30.2634 44.36 30.4471 44.0101 30.7201C43.6773 30.98 43.8206 31.229 44.2617 31.3133C48.1213 32.049 52.7539 31.2079 55.198 28.6915C55.0516 28.2218 54.9103 27.759 54.806 27.2823L54.805 27.2812Z" fill="#FFD220"/>
<path d="M25.1819 22.998H23.2861V35.8711H25.1819V22.998Z" fill="#FFD220"/>
</g>
<defs>
<radialGradient id="paint0_radial_901_550" cx="0" cy="0" r="1" gradientUnits="userSpaceOnUse" gradientTransform="translate(22.1732 21.2784) scale(25.5617 25.5934)">
<stop offset="0.34" stop-color="#FCDA00"/>
<stop offset="0.37" stop-color="#F2D602"/>
<stop offset="0.42" stop-color="#D7CC09"/>
<stop offset="0.49" stop-color="#ACBB15"/>
<stop offset="0.56" stop-color="#70A425"/>
<stop offset="0.65" stop-color="#24883A"/>
<stop offset="0.67" stop-color="#0F8040"/>
</radialGradient>
<radialGradient id="paint1_radial_901_550" cx="0" cy="0" r="1" gradientUnits="userSpaceOnUse" gradientTransform="translate(22.1737 21.2761) scale(25.5617 25.5942)">
<stop offset="0.34" stop-color="#F6B818"/>
<stop offset="0.37" stop-color="#ECB519"/>
<stop offset="0.42" stop-color="#D1AF1E"/>
<stop offset="0.49" stop-color="#A6A425"/>
<stop offset="0.57" stop-color="#6A9630"/>
<stop offset="0.65" stop-color="#1E833D"/>
<stop offset="0.67" stop-color="#0F8040"/>
</radialGradient>
<clipPath id="clip0_901_550">
<rect width="57" height="44.8723" fill="white"/>
</clipPath>
</defs>
</svg>
