<svg width="39" height="31" viewBox="0 0 39 31" fill="none" xmlns="http://www.w3.org/2000/svg">
<g clip-path="url(#clip0_1766_153082)">
<path d="M26.2912 3.43243C25.7174 2.74284 24.5532 2.69246 23.7541 2.82681C22.7606 2.99264 21.8494 3.53844 21.0474 4.15665C20.8975 3.3642 20.6782 2.5854 20.3496 1.85908C20.0102 1.10861 19.4633 0.198609 18.6097 0.0275244C17.7471 -0.14566 16.8032 0.56387 16.2563 1.18208C15.5178 2.01547 15.1208 3.13749 14.8617 4.21858C14.5064 5.70166 14.4051 7.24982 14.4746 8.77279C14.5461 10.3293 14.7903 11.9457 15.4325 13.3669C15.6607 13.8717 15.9893 14.4511 16.4369 14.8258C16.2593 14.8342 16.0766 14.8468 15.8841 14.8689C15.5724 14.9056 14.5461 14.9004 14.2324 14.9067C14.0816 14.9098 13.9307 14.9077 13.7798 14.9046C13.7481 14.9046 13.7173 14.9025 13.6855 14.9025C13.6855 14.9014 13.4662 14.8909 13.4553 14.8899C13.3808 14.8846 13.3074 14.8794 13.2329 14.8731C13.084 14.8573 12.9361 14.8384 12.7882 14.8195C12.7624 14.8164 12.7466 14.8143 12.7347 14.8132C12.6771 14.8038 12.6195 14.7943 12.5629 14.7839C12.3734 14.7503 12.1828 14.7146 11.9952 14.6726C11.5763 14.5792 10.9828 14.406 10.5083 14.2297C8.28199 13.4047 6.28395 12.0024 4.69386 10.1898C3.78367 9.15275 3.01939 7.98979 2.4169 6.73552C2.404 6.70928 2.38613 6.68619 2.36529 6.66414H0C1.18215 9.08662 2.94297 11.1743 5.13654 12.6668C7.59315 14.3378 10.4478 15.1816 13.3649 15.3874C14.2116 15.4472 15.0612 15.4535 15.9079 15.4042C17.4771 15.3128 19.0275 15.0683 20.433 14.2832C20.975 13.9809 21.4851 13.6156 21.9487 13.1958C23.0901 12.1599 24.0857 10.9906 24.9224 9.67755C25.638 8.55237 26.2643 7.30965 26.5621 5.98925C26.7448 5.18211 26.8589 4.11677 26.2912 3.43348V3.43243ZM15.9605 11.38C15.8672 11.0273 15.7908 10.6705 15.7272 10.3168C15.2746 7.79666 15.3501 4.96064 16.2354 2.54447C16.4012 2.09104 16.6017 1.64706 16.8717 1.24821C16.9044 1.19993 17.1506 0.900792 17.1506 0.900792L17.1943 0.864056C17.8891 0.794782 18.3913 1.19468 18.7923 1.76041C19.3799 2.58855 19.6995 3.61716 19.9169 4.60903C19.9546 4.77906 19.9883 4.95015 20.0191 5.12123C19.1893 5.90633 18.4509 6.79744 17.7997 7.74208C17.0374 8.84626 16.3516 10.0722 15.9595 11.381L15.9605 11.38ZM18.5422 14.4112C17.6786 14.8269 16.9699 14.0134 16.8985 13.1685C16.8469 12.5493 17.0394 11.9541 17.225 11.3747C17.4106 10.7933 17.6618 10.2338 17.9367 9.69119C18.5342 8.51354 19.2955 7.36108 20.1878 6.33877C20.2663 7.14171 20.2871 7.952 20.2534 8.756C20.2196 9.58413 20.1293 10.4102 19.9715 11.2226C19.8335 11.931 19.6856 12.649 19.3829 13.305C19.1913 13.7196 18.966 14.2076 18.5432 14.4112H18.5422ZM25.4564 4.9449C25.4227 5.97246 25.0594 6.98532 24.6375 7.90267C24.0609 9.15694 23.2956 10.321 22.4221 11.3726C21.6221 12.3362 20.7129 13.2325 19.6826 13.9305C19.7045 13.9022 19.7293 13.8749 19.7501 13.8466C20.434 12.925 20.7874 11.74 21.0097 10.6169C21.3164 9.07403 21.3769 7.47654 21.2479 5.90843C21.231 5.70691 21.2102 5.50434 21.1864 5.30176C21.7472 4.77906 22.3457 4.30989 22.9789 3.91629C23.3809 3.66649 23.8028 3.44712 24.2534 3.30857C24.5035 3.2309 24.7368 3.21516 24.7368 3.21516C25.3234 3.60771 25.4792 4.24377 25.4554 4.9449H25.4564Z" fill="white"/>
<path d="M4.87648 16.7263H6.49834C6.49834 16.7263 8.13012 26.7091 9.83436 26.7091C9.83436 26.7091 12.0408 26.1759 13.1485 16.7263H14.5749C14.5749 16.7263 13.9357 26.9757 9.8294 26.9757C9.8294 26.9757 6.0765 27.0208 4.87549 16.7263H4.87648Z" fill="white"/>
<path d="M19.5278 16.7264H21.1497C21.1497 16.7264 22.7815 26.7091 24.4857 26.7091C24.4857 26.7091 26.6922 26.1759 27.7999 16.7264H29.2262C29.2262 16.7264 28.587 26.9757 24.4808 26.9757C24.4808 26.9757 20.7279 27.0209 19.5269 16.7264H19.5278Z" fill="white"/>
<path d="M30.738 27.0262C30.738 26.9632 30.738 26.6147 30.738 26.5507C30.738 21.4622 32.4789 16.993 34.3569 16.993C36.2348 16.993 37.5659 21.4633 37.5659 26.5507C37.5659 26.6147 37.5659 26.9622 37.5659 27.0262H39.0011C39.0011 26.9506 39.0021 26.5895 39.0021 26.5129C39.0021 21.4035 37.0944 16.7254 34.3579 16.7254C31.6214 16.7254 29.3037 21.4035 29.3037 26.5129C29.3037 26.5895 29.3037 26.9506 29.3047 27.0262H30.74H30.738Z" fill="white"/>
<path d="M37.3106 20.569C37.0734 20.6205 36.9722 20.4085 36.8749 20.569C36.3925 21.3657 35.4744 22.2725 34.5672 22.6053C34.1146 22.7711 33.6252 22.874 33.0724 22.9149C32.3964 22.9653 31.4972 22.811 30.8202 22.6745C30.4808 22.6063 30.2475 22.8288 30.0103 23.0241C29.785 23.2098 29.8823 23.3883 30.18 23.4481C32.7895 23.9739 35.923 23.3736 37.5757 21.5756C37.4774 21.2397 37.3811 20.9091 37.3106 20.569Z" fill="white"/>
<path d="M17.7978 16.7264H16.5154V27.0198H17.7978V16.7264Z" fill="white"/>
<path d="M23.2866 15.4155L24.2097 12.8723H24.6574L25.5834 15.4155H25.1318L24.9065 14.7427H23.9467L23.7214 15.4155H23.2866ZM24.4251 13.311L24.0618 14.4047H24.7963L24.436 13.311H24.4261H24.4251Z" fill="white"/>
<path d="M27.2788 14.5674H27.6997C27.6997 14.7521 27.7562 14.8896 27.8684 14.9788C27.9806 15.0681 28.1275 15.1121 28.3101 15.1121C28.4927 15.1121 28.6108 15.0744 28.6942 14.9998C28.7776 14.9253 28.8193 14.834 28.8193 14.7269C28.8193 14.5706 28.7528 14.4656 28.6208 14.4131C28.5691 14.3921 28.5116 14.3711 28.4471 14.3522C28.3835 14.3333 28.2952 14.3092 28.184 14.2788C28.0729 14.2494 27.9796 14.2231 27.9031 14.2021C27.5488 14.1045 27.3711 13.8904 27.3711 13.5577C27.3711 13.3184 27.4585 13.1337 27.6322 13.0035C27.8059 12.8744 28.0123 12.8093 28.2505 12.8093C28.5136 12.8093 28.7329 12.8807 28.9086 13.0245C29.0853 13.1683 29.1726 13.3667 29.1726 13.6207H28.7518C28.729 13.3215 28.5562 13.1714 28.2327 13.1714C28.1155 13.1714 28.0133 13.1977 27.925 13.2502C27.8366 13.3026 27.792 13.3866 27.792 13.5031C27.792 13.6627 27.8873 13.7718 28.0778 13.8306C28.0798 13.8306 28.1324 13.8453 28.2356 13.8736C28.3389 13.902 28.4451 13.9313 28.5543 13.9628C28.6634 13.9933 28.7359 14.0153 28.7716 14.0269C28.9215 14.0772 29.0376 14.1612 29.118 14.2819C29.1984 14.4016 29.2391 14.5328 29.2391 14.6755C29.2391 14.8183 29.2123 14.9348 29.1587 15.0408C29.1051 15.1468 29.0317 15.2297 28.9384 15.2906C28.8451 15.3515 28.7438 15.3966 28.6337 15.4281C28.5235 15.4585 28.4064 15.4743 28.2833 15.4743C27.9915 15.4743 27.7523 15.3987 27.5657 15.2465C27.3791 15.0943 27.2838 14.8676 27.2798 14.5664L27.2788 14.5674Z" fill="white"/>
<path d="M30.9849 15.4155V12.8723H31.4057V15.4155H30.9849Z" fill="white"/>
<path d="M33.2114 15.4155L34.1345 12.8723H34.5822L35.5082 15.4155H35.0566L34.8313 14.7427H33.8715L33.6462 15.4155H33.2114ZM34.3499 13.311L33.9866 14.4047H34.7211L34.3608 13.311H34.3509H34.3499Z" fill="white"/>
<path d="M12.1819 28.6707V28.2761H14.1819V28.6707H13.3968V30.8885H12.964V28.6707H12.1819Z" fill="white"/>
<path d="M15.8225 30.8876V28.2751H17.0027C17.2707 28.2751 17.4732 28.3371 17.6121 28.4599C17.7501 28.5827 17.8196 28.7569 17.8196 28.9815C17.8196 29.0991 17.8037 29.2009 17.7709 29.2891C17.7382 29.3772 17.6955 29.4444 17.6429 29.4916C17.5903 29.5389 17.5466 29.5725 17.5129 29.5924C17.4791 29.6123 17.4454 29.6281 17.4106 29.6396V29.647C17.5049 29.6596 17.5903 29.7089 17.6647 29.795C17.7392 29.881 17.7769 30.0164 17.7769 30.1991C17.7769 30.5549 17.8215 30.7847 17.9119 30.8865H17.4483C17.4047 30.811 17.3828 30.6829 17.3828 30.5024C17.3828 30.2515 17.3491 30.0731 17.2806 29.9681C17.2121 29.8632 17.0831 29.8107 16.8915 29.8107H16.2553V30.8865H15.8225V30.8876ZM16.2553 28.6488V29.4643H16.965C17.2468 29.4643 17.3868 29.3258 17.3868 29.0477C17.3868 28.8944 17.3481 28.7894 17.2707 28.7328C17.1932 28.6771 17.089 28.6488 16.958 28.6488H16.2553Z" fill="white"/>
<path d="M19.2778 30.8876L20.2258 28.2751H20.6863L21.6382 30.8876H21.1746L20.9424 30.1959H19.9558L19.7235 30.8876H19.2769H19.2778ZM20.4471 28.7254L20.0739 29.8485H20.8282L20.458 28.7254H20.4481H20.4471Z" fill="white"/>
<path d="M23.4247 30.8876L22.6008 28.2751H23.0505L23.6698 30.3429H23.6768L24.31 28.2751H24.7497L23.9051 30.8876H23.4237H23.4247Z" fill="white"/>
<path d="M26.3735 30.8876V28.2751H28.1522V28.6698H26.8063V29.3541H28.052V29.7278H26.8063V30.4929H28.176V30.8876H26.3735Z" fill="white"/>
<path d="M30.0063 30.8876V28.2751H30.4391V30.4929H31.6947V30.8876H30.0063Z" fill="white"/>
</g>
<defs>
<clipPath id="clip0_1766_153082">
<rect width="39" height="30.8876" fill="white"/>
</clipPath>
</defs>
</svg>
