<svg xmlns="http://www.w3.org/2000/svg" width="147" height="79" viewBox="0 0 147 79" fill="none">
  <path opacity="0.08" d="M144.688 17.5614C141.531 14.0322 135.124 13.7743 130.726 14.4619C125.259 15.3106 120.244 18.1039 115.83 21.2679C115.006 17.2122 113.798 13.2264 111.99 9.50919C110.122 5.66842 107.112 1.01114 102.415 0.135556C97.6679 -0.750777 92.4732 2.8805 89.4634 6.04444C85.3993 10.3096 83.2144 16.0519 81.7887 21.5848C79.8331 29.175 79.276 37.0983 79.6583 44.8927C80.0516 52.8589 81.3954 61.1313 84.9296 68.4046C86.1859 70.9884 87.994 73.9536 90.4575 75.8713C89.4798 75.9143 88.4747 75.9788 87.415 76.0916C85.6998 76.2796 80.0516 76.2527 78.3255 76.2849C77.4952 76.3011 76.6649 76.2903 75.8347 76.2742C75.6599 76.2742 75.4905 76.2635 75.3157 76.2635C75.3157 76.2581 74.1085 76.2044 74.0485 76.199C73.6388 76.1721 73.2346 76.1453 72.8249 76.113C72.0055 76.0325 71.1916 75.9358 70.3777 75.8391C70.2357 75.823 70.1483 75.8122 70.0827 75.8069C69.7659 75.7585 69.4491 75.7102 69.1377 75.6565C68.0944 75.4846 67.0456 75.3019 66.0132 75.087C63.7081 74.609 60.4416 73.7226 57.8306 72.8202C45.5784 68.598 34.5825 61.4214 25.8317 52.1445C20.8227 46.8372 16.6167 40.8854 13.301 34.4662C13.23 34.3319 13.1316 34.2137 13.0169 34.1009H0C6.50573 46.4988 16.1961 57.1831 28.268 64.8217C41.7874 73.3735 57.4973 77.6923 73.5514 78.7452C78.2108 79.0514 82.8866 79.0836 87.5461 78.8311C96.1821 78.3638 104.714 77.1122 112.449 73.0941C115.432 71.5471 118.239 69.6777 120.79 67.5291C127.072 62.2272 132.551 56.2431 137.156 49.5231C141.094 43.7646 144.541 37.4045 146.18 30.6469C147.185 26.516 147.813 21.0637 144.688 17.5668V17.5614ZM87.8356 58.236C87.3221 56.4311 86.9015 54.6047 86.5519 52.7944C84.0611 39.897 84.4762 25.3826 89.3487 13.0169C90.2609 10.6963 91.3643 8.42411 92.8501 6.38286C93.0303 6.13576 94.385 4.60482 94.385 4.60482L94.6254 4.41681C98.449 4.06228 101.213 6.1089 103.42 9.00425C106.654 13.2425 108.412 18.5068 109.609 23.5831C109.816 24.4533 110.002 25.3289 110.171 26.2045C105.605 30.2225 101.541 34.7831 97.9574 39.6176C93.7623 45.2687 89.9878 51.5428 87.8301 58.2414L87.8356 58.236ZM102.043 73.7495C97.291 75.8767 93.3909 71.7136 92.9976 67.3894C92.7135 64.2201 93.7732 61.1743 94.7947 58.2091C95.8162 55.2332 97.1982 52.3701 98.7112 49.5929C102 43.5658 106.189 37.6677 111.1 32.4357C111.532 36.545 111.646 40.692 111.461 44.8067C111.275 49.045 110.778 53.2725 109.909 57.4302C109.15 61.0561 108.336 64.7304 106.67 68.0877C105.616 70.2095 104.376 72.7074 102.049 73.7495H102.043ZM140.094 25.302C139.909 30.5609 137.91 35.7446 135.588 40.4395C132.414 46.8587 128.203 52.8159 123.396 58.1984C118.993 63.1296 113.99 67.7171 108.32 71.2893C108.44 71.1442 108.576 71.0046 108.691 70.8595C112.455 66.1432 114.399 60.0785 115.623 54.3308C117.311 46.4343 117.644 38.2586 116.934 30.2333C116.841 29.2019 116.726 28.1651 116.595 27.1284C119.681 24.4533 122.975 22.0521 126.46 20.0377C128.673 18.7593 130.994 17.6366 133.474 16.9275C134.851 16.53 136.134 16.4494 136.134 16.4494C139.363 18.4585 140.22 21.7137 140.089 25.302H140.094Z" fill="url(#paint0_radial_3720_30798)"/>
  <defs>
    <radialGradient id="paint0_radial_3720_30798" cx="0" cy="0" r="1" gradientUnits="userSpaceOnUse" gradientTransform="translate(90.7903 83.8913) scale(104.669 100.913)">
      <stop offset="0.34" stop-color="#F9D904"/>
      <stop offset="0.37" stop-color="#EFD406"/>
      <stop offset="0.42" stop-color="#D4C90C"/>
      <stop offset="0.49" stop-color="#A9B716"/>
      <stop offset="0.56" stop-color="#6D9D24"/>
      <stop offset="0.65" stop-color="#217D35"/>
      <stop offset="0.67" stop-color="#0C743B"/>
    </radialGradient>
  </defs>
</svg>