<svg width="81" height="80" viewBox="0 0 81 80" fill="none" xmlns="http://www.w3.org/2000/svg">
<g id="Search results for Weather - Flaticon-12 1" clip-path="url(#clip0_1564_17352)">
<g id="Group">
<path id="Vector" d="M32.6478 12.1056C33.0622 12.1056 33.4596 11.941 33.7527 11.6479C34.0457 11.3549 34.2103 10.9575 34.2103 10.5431V4.66309C34.2103 4.24869 34.0457 3.85126 33.7527 3.55823C33.4596 3.26521 33.0622 3.10059 32.6478 3.10059C32.2334 3.10059 31.836 3.26521 31.543 3.55823C31.2499 3.85126 31.0853 4.24869 31.0853 4.66309V10.5431C31.0853 10.9575 31.2499 11.3549 31.543 11.6479C31.836 11.941 32.2334 12.1056 32.6478 12.1056ZM18.942 14.6342C19.1492 14.9931 19.4905 15.255 19.8908 15.3622C20.2911 15.4695 20.7176 15.4133 21.0765 15.2061C21.4354 14.9989 21.6973 14.6576 21.8045 14.2574C21.9118 13.8571 21.8556 13.4306 21.6484 13.0717L18.7083 7.97949C18.4996 7.62354 18.1586 7.36458 17.7597 7.25912C17.3608 7.15366 16.9364 7.21026 16.5791 7.41656C16.2217 7.62287 15.9605 7.96214 15.8524 8.36033C15.7443 8.75852 15.7981 9.18331 16.002 9.54199L18.942 14.6342ZM5.37906 21.3089L10.4711 24.2496C10.6489 24.3539 10.8455 24.4219 11.0496 24.4498C11.2538 24.4777 11.4615 24.465 11.6607 24.4123C11.8599 24.3596 12.0467 24.2681 12.2104 24.1429C12.3741 24.0177 12.5114 23.8614 12.6145 23.683C12.7175 23.5045 12.7842 23.3074 12.8108 23.1031C12.8373 22.8988 12.8232 22.6912 12.7692 22.4923C12.7152 22.2935 12.6225 22.1072 12.4962 21.9444C12.3699 21.7815 12.2127 21.6452 12.0336 21.5434L6.94156 18.6026C6.7638 18.4984 6.56717 18.4304 6.36301 18.4025C6.15885 18.3745 5.95118 18.3873 5.75196 18.44C5.55274 18.4926 5.36591 18.5842 5.20222 18.7094C5.03853 18.8345 4.90122 18.9908 4.79818 19.1693C4.69515 19.3477 4.62843 19.5448 4.60187 19.7492C4.57531 19.9535 4.58943 20.1611 4.64342 20.3599C4.69741 20.5588 4.79021 20.745 4.91646 20.9079C5.04271 21.0707 5.19993 21.207 5.37906 21.3089ZM9.505 35.2484C9.505 34.834 9.34038 34.4366 9.04735 34.1435C8.75433 33.8505 8.3569 33.6859 7.9425 33.6859H2.0625C1.6481 33.6859 1.25067 33.8505 0.957646 34.1435C0.66462 34.4366 0.5 34.834 0.5 35.2484C0.5 35.6628 0.66462 36.0602 0.957646 36.3533C1.25067 36.6463 1.6481 36.8109 2.0625 36.8109H7.9425C8.3569 36.8109 8.75433 36.6463 9.04735 36.3533C9.34038 36.0602 9.505 35.6628 9.505 35.2484ZM12.6056 46.8198C12.503 46.6421 12.3664 46.4863 12.2036 46.3614C12.0408 46.2365 11.855 46.1449 11.6568 46.0918C11.4586 46.0387 11.2519 46.0251 11.0484 46.0519C10.845 46.0787 10.6488 46.1453 10.4711 46.2479L5.37906 49.1879C5.19993 49.2898 5.04271 49.426 4.91646 49.5889C4.79021 49.7518 4.69741 49.938 4.64342 50.1368C4.58943 50.3357 4.57531 50.5433 4.60187 50.7476C4.62843 50.952 4.69515 51.1491 4.79818 51.3275C4.90122 51.506 5.03853 51.6623 5.20222 51.7874C5.36591 51.9126 5.55274 52.0042 5.75196 52.0568C5.95118 52.1095 6.15885 52.1222 6.36301 52.0943C6.56717 52.0664 6.7638 51.9984 6.94156 51.8942L12.0336 48.9543C12.2113 48.8517 12.3671 48.7152 12.492 48.5524C12.617 48.3896 12.7086 48.2038 12.7617 48.0056C12.8148 47.8073 12.8284 47.6006 12.8016 47.3972C12.7748 47.1937 12.7082 46.9975 12.6056 46.8198ZM54.045 24.4584C54.3188 24.4584 54.5878 24.3861 54.8247 24.2489L59.9169 21.3089C60.096 21.207 60.2532 21.0707 60.3795 20.9079C60.5057 20.745 60.5985 20.5588 60.6525 20.3599C60.7065 20.1611 60.7206 19.9535 60.6941 19.7492C60.6675 19.5448 60.6008 19.3477 60.4978 19.1693C60.3947 18.9908 60.2574 18.8345 60.0937 18.7094C59.93 18.5842 59.7432 18.4926 59.544 18.44C59.3448 18.3873 59.1371 18.3745 58.9329 18.4025C58.7288 18.4304 58.5321 18.4984 58.3544 18.6026L53.2622 21.5426C52.9641 21.7146 52.7312 21.9802 52.5996 22.2982C52.4679 22.6162 52.445 22.9687 52.5342 23.301C52.6234 23.6334 52.8199 23.927 53.0931 24.1363C53.3662 24.3456 53.7009 24.4588 54.045 24.4584ZM44.2188 15.2061C44.5776 15.4132 45.0041 15.4694 45.4044 15.3621C45.8046 15.2549 46.1459 14.993 46.3531 14.6342L49.293 9.54199C49.4969 9.18331 49.5507 8.75852 49.4426 8.36033C49.3345 7.96214 49.0733 7.62287 48.7159 7.41656C48.3586 7.21026 47.9342 7.15366 47.5353 7.25912C47.1364 7.36458 46.7954 7.62354 46.5867 7.97949L43.6469 13.0717C43.4397 13.4306 43.3835 13.857 43.4908 14.2573C43.598 14.6576 43.8599 14.9988 44.2188 15.2061ZM71.0297 51.697C71.7536 48.2579 71.2417 44.6737 69.5838 41.5748C67.926 38.4759 65.2285 36.0609 61.9659 34.7545C58.7033 33.4481 55.0845 33.334 51.746 34.4324C48.4076 35.5307 45.5634 37.7711 43.7138 40.7595C40.8426 39.6119 37.6361 39.6354 34.7821 40.825C31.9281 42.0146 29.6542 44.2755 28.4481 47.1226C26.4011 46.7691 24.3029 46.8447 22.2865 47.3447C20.2702 47.8447 18.3798 48.7581 16.735 50.027C15.0902 51.296 13.7271 52.8928 12.7318 54.7163C11.7366 56.5398 11.1311 58.5501 10.9536 60.6199C10.7762 62.6897 11.0306 64.7738 11.7009 66.74C12.3712 68.7063 13.4427 70.5119 14.8474 72.0423C16.2522 73.5727 17.9595 74.7946 19.8613 75.6305C21.7631 76.4664 23.8178 76.8981 25.8952 76.8982H67.6764C70.7841 76.8976 73.7859 75.7685 76.1236 73.7208C78.4613 71.6731 79.976 68.8462 80.3859 65.7656C80.7958 62.6851 80.0731 59.5605 78.3521 56.9727C76.6312 54.385 74.0291 52.5102 71.0297 51.697ZM67.6758 73.7737H25.8945C24.202 73.7724 22.5294 73.4093 20.9887 72.7086C19.4481 72.0079 18.0751 70.9858 16.9618 69.711C15.8485 68.4362 15.0206 66.9381 14.5338 65.3172C14.0469 63.6962 13.9123 61.9899 14.1389 60.3126C14.3655 58.6353 14.9481 57.0259 15.8477 55.5923C16.7473 54.1587 17.943 52.9339 19.3547 52.0003C20.7664 51.0666 22.3614 50.4456 24.0327 50.1789C25.7041 49.9122 27.4132 50.006 29.0453 50.4539C29.4432 50.5632 29.8681 50.5107 30.2274 50.3078C30.5867 50.1049 30.8512 49.7682 30.9631 49.3711C31.3207 48.1042 31.9614 46.9351 32.8368 45.952C33.7123 44.9689 34.7996 44.1975 36.0167 43.696C37.2338 43.1946 38.549 42.9762 39.8629 43.0573C41.1767 43.1384 42.455 43.5169 43.6013 44.1642C43.7872 44.2694 43.9927 44.3353 44.2052 44.358C44.4176 44.3806 44.6324 44.3594 44.8364 44.2957C45.0403 44.2321 45.229 44.1273 45.3908 43.9878C45.5526 43.8483 45.6841 43.6771 45.7772 43.4848C47.0865 40.7811 49.3766 38.6778 52.1817 37.6029C54.9868 36.5279 58.096 36.562 60.8768 37.6983C63.6576 38.8346 65.9011 40.9876 67.1507 43.7194C68.4003 46.4511 68.5622 49.5563 67.6034 52.4032C67.5293 52.6228 67.5048 52.8561 67.532 53.0862C67.5591 53.3164 67.637 53.5376 67.7602 53.7339C67.8834 53.9302 68.0487 54.0966 68.2441 54.2211C68.4395 54.3457 68.6602 54.4252 68.8902 54.4539C71.3379 54.7623 73.576 55.992 75.1489 57.8926C76.7219 59.7933 77.5113 62.2219 77.3566 64.6841C77.2018 67.1463 76.1144 69.457 74.3159 71.1457C72.5174 72.8344 70.1429 73.7742 67.6758 73.7737Z" fill="#171717" stroke="white" stroke-width="0.6"/>
</g>
<circle id="Ellipse 1961" cx="30" cy="29" r="12" fill="#FFD220"/>
</g>
<defs>
<clipPath id="clip0_1564_17352">
<rect width="80" height="80" fill="white" transform="translate(0.5)"/>
</clipPath>
</defs>
</svg>
