<svg width="80" height="80" viewBox="0 0 80 80" fill="none" xmlns="http://www.w3.org/2000/svg">
<g id="Search results for Language - Flaticon-12 1">
<g id="Group">
<path id="Vector" d="M64.7274 31.2728H48.7274V15.2727C48.7274 11.2626 45.4648 8 41.4546 8H15.2727C11.2626 8 8 11.2626 8 15.2727V41.4546C8 45.4648 11.2626 48.7274 15.2727 48.7274H31.2728V64.7274C31.2728 68.7376 34.5353 72.0002 38.5455 72.0002H64.7274C68.7376 72.0002 72.0002 68.7376 72.0002 64.7274V38.5455C72.0002 34.5353 68.7376 31.2728 64.7274 31.2728ZM15.2727 45.8183C12.8669 45.8183 10.9091 43.8605 10.9091 41.4546V15.2727C10.9091 12.8669 12.8669 10.9091 15.2727 10.9091H41.4546C43.8605 10.9091 45.8183 12.8669 45.8183 15.2727V31.2728H38.5455C37.571 31.2728 36.643 31.4721 35.7921 31.8226L29.7004 17.6102C29.5894 17.3476 29.4034 17.1234 29.1658 16.9658C28.9281 16.8082 28.6493 16.724 28.3642 16.7239C28.079 16.7237 27.8001 16.8076 27.5623 16.9649C27.3245 17.1223 27.1383 17.3462 27.027 17.6088L18.2997 37.9724C17.5622 39.7092 20.2051 40.8743 20.9731 39.1172L23.088 34.1819H32.7637C31.8022 35.4339 31.2784 36.9669 31.2728 38.5455V45.8183H15.2727ZM32.3928 31.2728H24.336L28.3637 21.8735L32.3928 31.2728ZM69.0911 64.7274C69.0911 67.1332 67.1332 69.0911 64.7274 69.0911H38.5455C36.1397 69.0911 34.1819 67.1332 34.1819 64.7274V38.5455C34.1819 36.1397 36.1397 34.1819 38.5455 34.1819H64.7274C67.1332 34.1819 69.0911 36.1397 69.0911 38.5455V64.7274Z" fill="#171717" stroke="white" stroke-width="0.7"/>
<path id="Vector_2" d="M60.3639 44.3638H53.0912V41.4547C53.0854 39.5594 50.1894 39.5463 50.1821 41.4547V44.3638H42.9093C41.0111 44.374 41.0024 47.2627 42.9093 47.2729H55.9014C55.5902 50.0799 54.3976 52.7161 52.4948 54.8031L46.8453 49.1536C46.7103 49.0186 46.55 48.9114 46.3735 48.8384C46.1971 48.7653 46.008 48.7277 45.817 48.7277C45.626 48.7277 45.4369 48.7653 45.2604 48.8384C45.084 48.9114 44.9237 49.0186 44.7886 49.1536C44.6536 49.2887 44.5464 49.449 44.4734 49.6254C44.4003 49.8019 44.3627 49.991 44.3627 50.182C44.3627 50.373 44.4003 50.5621 44.4734 50.7385C44.5464 50.915 44.6536 51.0753 44.7886 51.2104L50.3159 56.7376C49.9312 57.0175 49.5316 57.2763 49.1188 57.5129L43.657 60.5471C42.3479 61.2118 42.9239 63.942 45.0693 63.0897C46.5152 62.2097 51.1697 59.8606 52.4105 58.8307L56.4265 62.8467C58.3465 64.3013 59.6876 61.6831 58.4832 60.79L54.5515 56.8584C56.9912 54.2219 58.4893 50.8519 58.8119 47.2743H60.3639C62.2694 47.2467 62.281 44.3943 60.3639 44.3638Z" fill="#171717" stroke="white" stroke-width="0.7"/>
</g>
<circle id="Ellipse 1961" cx="64" cy="16" r="11" fill="#FFD220"/>
</g>
</svg>
