<svg width="81" height="80" viewBox="0 0 81 80" fill="none" xmlns="http://www.w3.org/2000/svg">
<g id="Layer_1">
<path id="Vector" d="M40.5 39.0112C39.9475 39.0112 39.5 39.4587 39.5 40.0112C39.5 40.5637 39.9475 41.0112 40.5 41.0112C41.0525 41.0112 41.5 40.5637 41.5 40.0112C41.5 39.4587 41.0525 39.0112 40.5 39.0112Z" stroke="white" stroke-width="0.5"/>
<path id="Vector_2" d="M61.1359 39.377L58.6359 36.877C58.1484 36.3895 57.3562 36.3895 56.8687 36.877C56.3812 37.3645 56.3812 38.1567 56.8687 38.6442L57.2344 39.0098H43.7875C43.4078 37.9442 42.5687 37.1051 41.5031 36.7254V28.2785L41.8687 28.6441C42.3562 29.1316 43.1484 29.1316 43.6359 28.6441C44.1234 28.1566 44.1234 27.3644 43.6359 26.8769L41.1359 24.3769C40.6484 23.8894 39.8562 23.8894 39.3687 24.3769L36.8687 26.8769C36.3812 27.3644 36.3812 28.1566 36.8687 28.6441C37.3562 29.1316 38.1484 29.1316 38.6359 28.6441L39.0015 28.2785V36.7254C37.0484 37.416 36.025 39.5583 36.7156 41.5098C37.4062 43.4614 39.5484 44.4864 41.5 43.7958C42.5687 43.4177 43.4094 42.577 43.7859 41.5098H57.2328L56.8672 41.8755C56.3797 42.363 56.3797 43.1552 56.8672 43.6427C57.3547 44.1302 58.1469 44.1302 58.6344 43.6427L61.1344 41.1426C61.6219 40.6551 61.6219 39.8629 61.1344 39.3754L61.1359 39.377ZM40.2515 41.5114C39.5609 41.5114 39.0015 40.952 39.0015 40.2614C39.0015 39.5708 39.5609 39.0114 40.2515 39.0114C40.9422 39.0114 41.5015 39.5708 41.5015 40.2614C41.5015 40.952 40.9422 41.5114 40.2515 41.5114Z" fill="#171717" stroke="white" stroke-width="0.5"/>
<path id="Vector_3" d="M40.4992 12.0128C25.0601 12.0128 12.5 24.5728 12.5 40.012C12.5 55.4511 25.0601 68.0112 40.4992 68.0112C43.4224 68.0158 46.3273 67.5593 49.109 66.6615C48.9477 65.4167 48.9294 64.4306 48.9279 64.1522C46.6043 64.9632 44.1757 65.435 41.7181 65.5476V64.3591C41.7181 63.6865 41.1733 63.1418 40.5008 63.1418C39.8282 63.1418 39.2834 63.6865 39.2834 64.3591V65.546C33.3503 65.2676 27.7018 62.9242 23.3132 58.9206L24.1455 58.0882C24.6234 57.615 24.6279 56.845 24.1562 56.3672C23.683 55.8894 22.913 55.8848 22.4352 56.3565C22.4321 56.3596 22.4276 56.3641 22.4245 56.3672L21.5921 57.1995C17.5886 52.8125 15.2451 47.1624 14.9667 41.2293H16.1536C16.8262 41.2293 17.371 40.6846 17.371 40.012C17.371 39.3394 16.8262 38.7946 16.1536 38.7946H14.9667C15.2451 32.8615 17.5886 27.213 21.5921 22.8244L22.5965 23.8287C23.0667 24.3096 23.8366 24.3187 24.3175 23.8485C24.7984 23.3783 24.8075 22.6083 24.3373 22.1275C24.3312 22.1214 24.3251 22.1153 24.3175 22.1077L23.3132 21.1034C27.7002 17.0998 33.3503 14.7564 39.2834 14.4779V15.6648C39.2834 16.3374 39.8282 16.8822 40.5008 16.8822C41.1733 16.8822 41.7181 16.3374 41.7181 15.6648V14.4779C47.6512 14.7564 53.2997 17.0998 57.6883 21.1034L56.856 21.9357C56.3827 22.4136 56.3888 23.1851 56.8666 23.6568C57.3414 24.1255 58.1037 24.1255 58.577 23.6568L59.4094 22.8244C63.4129 27.2115 65.7564 32.8615 66.0348 38.7946H64.8479C64.1753 38.7946 63.6306 39.3394 63.6306 40.012C63.6306 40.6846 64.1753 41.2293 64.8479 41.2293H66.0364C65.9238 43.6899 65.4505 46.1201 64.6379 48.4452C65.5494 48.4604 66.3863 48.532 67.1426 48.6385C68.045 45.8522 68.503 42.9412 68.5 40.0105C68.5 24.5713 55.9399 12.0112 40.5008 12.0112L40.4992 12.0128Z" fill="#171717" stroke="white" stroke-width="0.5"/>
<path id="Vector_4" d="M40.4744 70.5651C23.6171 70.5651 9.90269 56.8489 9.90269 39.9897C9.90269 23.1304 23.6171 9.41421 40.4744 9.41421C57.3316 9.41421 71.0461 23.1304 71.0461 39.9897C71.0491 43.1007 70.5768 46.1934 69.6459 49.1608C70.7938 49.4848 71.5719 49.838 71.9372 50.0215C77.4447 32.7203 67.9354 14.2054 50.6425 8.61772C33.3038 3.0163 14.707 12.5314 9.10629 29.8722C3.50556 47.2131 13.0195 65.8106 30.3582 71.4136C36.896 73.5263 43.9274 73.5431 50.4728 71.4671C50.0922 70.7654 49.8064 69.9765 49.5924 69.1815C46.6407 70.1019 43.5667 70.5697 40.4744 70.5666V70.5651Z" fill="#171717" stroke="white" stroke-width="0.5"/>
<circle id="Ellipse 1961" cx="62.5" cy="62.0112" r="11" fill="#FFD220"/>
</g>
</svg>
