<svg width="67" height="63" viewBox="0 0 67 63" fill="none" xmlns="http://www.w3.org/2000/svg">
<g id="Layer_1">
<path id="Vector" d="M4.82355 23.8066C4.28988 23.8066 3.85547 24.2355 3.85547 24.7624C3.85547 25.2893 4.28988 25.7144 4.82355 25.7144H57.6468C58.1843 25.7144 58.6148 25.2893 58.6148 24.7624C58.6148 24.2355 58.183 23.8066 57.6468 23.8066H40.9302H21.5414H4.82355Z" fill="#171717"/>
<path id="Vector_2" d="M51.2852 41.1953C50.3055 41.1953 49.4212 41.5886 48.7818 42.2198C48.1425 42.8511 47.7441 43.7241 47.7441 44.6914C47.7441 45.6586 48.1425 46.5278 48.7818 47.1591C49.4212 47.7942 50.3055 48.1836 51.2852 48.1836C52.2236 48.1849 53.1234 47.8171 53.7847 47.1591C54.4241 46.5278 54.8224 45.6548 54.8224 44.6914C54.8224 43.7279 54.4241 42.8511 53.7847 42.2198C53.1453 41.5886 52.261 41.1953 51.2852 41.1953ZM52.4183 45.81C52.1295 46.0989 51.7273 46.2758 51.2852 46.2758C50.843 46.2758 50.437 46.0989 50.1482 45.81C49.8466 45.5135 49.6777 45.1113 49.6764 44.6914C49.6764 44.251 49.8595 43.8578 50.1482 43.5689C50.4499 43.2711 50.8585 43.1031 51.2852 43.1031C51.7106 43.1031 52.1179 43.2711 52.4183 43.5689C52.7109 43.8578 52.8901 44.251 52.8901 44.6914C52.8901 45.1113 52.7212 45.5148 52.4183 45.81Z" fill="#171717"/>
<path id="Vector_3" d="M32.0209 62.0466C32.0209 61.5197 32.4553 61.0908 32.9889 61.0908H28.6074C29.1411 61.0908 29.5755 61.5197 29.5755 62.0466C29.5755 62.5735 29.1411 62.9986 28.6074 62.9986H32.9889C32.4553 62.9986 32.0209 62.5722 32.0209 62.0466Z" fill="#171717"/>
<path id="Vector_4" d="M29.5758 62.0466C29.5758 61.5197 29.1414 61.0908 28.6077 61.0908H27.9722L27.2812 62.9986H28.6077C29.1414 62.9986 29.5758 62.5735 29.5758 62.0466Z" fill="#171717"/>
<path id="Vector_5" d="M32.9876 61.0908C32.4539 61.0908 32.0195 61.5197 32.0195 62.0466C32.0195 62.5735 32.4539 62.9986 32.9876 62.9986H34.2793L34.18 61.0908H32.9863H32.9876Z" fill="#171717"/>
<path id="Vector_6" d="M65.0364 43.482C64.5028 43.482 64.0684 43.0531 64.0684 42.5262V41.2803V46.8521C64.0684 46.3252 64.5028 45.8963 65.0364 45.8963C65.5701 45.8963 66.0007 46.3252 66.0007 46.8521V47.2593V42.5262C66.0007 43.0531 65.5688 43.482 65.0364 43.482Z" fill="#171717"/>
<path id="Vector_7" d="M64.0677 42.5262C64.0677 43.0531 64.5021 43.482 65.0358 43.482C65.5695 43.482 66 43.0531 66 42.5262V42.1139L64.0664 41.2803V42.5262H64.0677Z" fill="#171717"/>
<path id="Vector_8" d="M65.0364 45.8945C64.5028 45.8945 64.0684 46.3234 64.0684 46.8503V47.2576H66.002V46.8503C66.002 46.3234 65.5714 45.8945 65.0377 45.8945H65.0364Z" fill="#171717"/>
<path id="Vector_9" d="M66 42.1144V40.6151C66 39.6734 65.6094 38.8181 64.9804 38.1945C64.2971 37.52 63.4309 37.1878 62.4705 37.1878V20.9561C62.4705 20.4292 62.0387 20.0003 61.5063 20.0003H46.0002L44.9677 21.908H60.537V27.6122H4.82367C4.0309 27.6122 3.30773 27.2915 2.78437 26.7748C2.25844 26.2555 1.93359 25.5441 1.93359 24.7614C1.93359 23.9787 2.25844 23.2647 2.78437 22.748C3.30645 22.2288 4.0309 21.9068 4.82367 21.9068H17.5248C17.5248 21.9068 16.9989 20.9192 16.5116 19.999H4.82367C3.49723 19.999 2.29066 20.5335 1.41797 21.399C0.541406 22.2618 0 23.4531 0 24.7627V58.2418C0 59.5513 0.541406 60.7413 1.41797 61.6042C2.29066 62.467 3.49723 63.0003 4.82367 63.0003H27.2817L27.9727 61.0926H4.82367C4.0309 61.0926 3.30773 60.7718 2.78437 60.2551C2.25844 59.7359 1.93359 59.0244 1.93359 58.2418V28.5692C2.76633 29.1878 3.78082 29.5225 4.82367 29.5212H60.537V37.1878H46.5313C45.5774 37.1878 44.7111 37.5734 44.0834 38.1945C43.4517 38.8194 43.0598 39.6734 43.0598 40.6151V48.7679C43.0598 49.7059 43.4504 50.5649 44.0834 51.1847C44.7124 51.8058 45.5774 52.1914 46.5313 52.1914H60.537V57.3751C60.537 58.6337 60.3023 59.587 59.7442 60.1851C59.1847 60.7769 58.2321 61.09 56.7729 61.09H34.1821L34.2813 62.9978H56.7742C58.8096 62.9978 60.2237 62.4747 61.1557 61.4794C62.0877 60.4906 62.4705 59.1097 62.4705 57.3738V52.1902C63.4322 52.1902 64.2971 51.858 64.9804 51.1835C65.6094 50.5624 66 49.7046 66 48.7667V47.2585H64.0664V48.7667C64.0664 49.1815 63.895 49.5608 63.6165 49.8344C63.3394 50.1081 62.9552 50.2824 62.5311 50.2824H46.53C46.1059 50.2824 45.7192 50.1093 45.4407 49.8344C45.1636 49.5595 44.9909 49.1815 44.9909 48.7667V40.6139C44.9909 40.2117 45.152 39.8261 45.4407 39.5423C45.7179 39.2674 46.1059 39.0943 46.53 39.0943H62.5311C62.9552 39.0943 63.3381 39.2674 63.6165 39.5423C63.8937 39.8159 64.0664 40.1952 64.0664 40.6139V41.2795L66 42.1131V42.1144Z" fill="#171717"/>
<circle id="Ellipse 1961" cx="32" cy="11" r="11" fill="#FFD220"/>
</g>
</svg>
