<svg width="81" height="80" viewBox="0 0 81 80" fill="none" xmlns="http://www.w3.org/2000/svg">
<g id="Search results for Travel - Flaticon-2 (1) 1">
<g id="Group">
<path id="Vector" d="M10.0584 70.4826C10.1733 70.566 10.3063 70.6211 10.4466 70.6434C10.5869 70.6656 10.7304 70.6545 10.8655 70.6107L25.5438 65.848L40.2337 72.2554C40.2658 72.2693 40.2988 72.2812 40.3323 72.2912C40.3408 72.2938 40.3495 72.2957 40.3582 72.298C40.3871 72.3058 40.4163 72.3123 40.4457 72.3172C40.4573 72.3191 40.4687 72.3211 40.4802 72.3224C40.515 72.3271 40.5501 72.3296 40.5852 72.3301H40.5942C40.6335 72.3298 40.6726 72.3269 40.7114 72.3214C40.72 72.3203 40.7284 72.3188 40.7368 72.3175C40.7698 72.3122 40.8024 72.3051 40.8346 72.2962C40.8412 72.2942 40.8479 72.2929 40.8547 72.2909C40.8884 72.2807 40.9214 72.2687 40.9537 72.2548L55.6438 65.8474L70.3221 70.6101C70.4571 70.654 70.6006 70.6652 70.7409 70.643C70.8811 70.6207 71.0141 70.5657 71.129 70.4822C71.2439 70.3987 71.3374 70.2893 71.4019 70.1628C71.4664 70.0363 71.5 69.8963 71.5001 69.7543V31.2892C71.5001 31.0957 71.4378 30.9074 71.3223 30.7521C71.2069 30.5968 71.0445 30.4829 70.8592 30.4271L60.2142 27.2261C60.6797 25.4783 60.9124 23.6766 60.9061 21.8679C60.8896 17.8577 59.6863 13.9421 57.448 10.6146C55.2097 7.28712 52.0365 4.69667 48.3283 3.16971C44.6202 1.64275 40.543 1.24763 36.6106 2.03413C32.6782 2.82064 29.0667 4.75357 26.2311 7.58933C23.0895 10.7133 21.0647 14.7853 20.4699 19.1756C20.1163 21.7713 20.264 24.4107 20.905 26.9508L10.3065 30.4339C10.1264 30.4931 9.96965 30.6076 9.85849 30.7612C9.74734 30.9148 9.68749 31.0995 9.6875 31.2891V69.7543C9.68748 69.8964 9.72107 70.0364 9.78553 70.163C9.84999 70.2896 9.94349 70.3991 10.0584 70.4826ZM54.6967 64.297L41.494 70.0556V49.7775L54.6967 36.5748V64.297ZM39.6936 70.0556L26.4909 64.297V36.5748L39.6936 49.7775V70.0556ZM69.6997 31.9591V68.516L56.497 64.232V34.5894C57.8531 32.8911 58.9253 30.9845 59.6721 28.9435L69.6997 31.9591ZM22.2529 19.4216C22.7242 16.0081 24.1389 12.7938 26.3377 10.1406C28.5366 7.48731 31.4323 5.50039 34.6989 4.40341C37.9656 3.30642 41.4736 3.14291 44.8282 3.93127C48.1828 4.71964 51.2507 6.42858 53.6868 8.86579C55.4081 10.5658 56.7738 12.5915 57.7042 14.8248C58.6345 17.058 59.111 19.4541 59.1058 21.8734C59.1318 26.118 57.6909 30.2413 55.0267 33.5458C54.9355 33.6208 54.8598 33.7128 54.8039 33.8168C54.4506 34.2388 54.0773 34.6471 53.6841 35.0418L40.7638 47.9621C40.6519 47.9403 40.5369 47.9403 40.425 47.9621L27.5047 35.0418C26.2432 33.7789 25.1667 32.3439 24.3074 30.7794C23.7164 29.689 23.2384 28.541 22.8809 27.3533C22.8742 27.3209 22.8656 27.2888 22.8554 27.2573C22.8534 27.2513 22.8507 27.2457 22.8486 27.2399C22.0995 24.7052 21.8965 22.0405 22.2529 19.4216ZM11.4879 31.9408L21.4181 28.6772C21.7731 29.6998 22.2109 30.6917 22.7271 31.6431C23.2968 32.6785 23.9537 33.6635 24.6906 34.5875V64.2322L11.4879 68.516V31.9408Z" fill="#171717" stroke="#171717" stroke-width="0.4"/>
</g>
<circle id="Ellipse 1961" cx="40.5" cy="22" r="11" fill="#FFD220"/>
</g>
</svg>
