<svg width="17" height="17" viewBox="0 0 17 17" fill="none" xmlns="http://www.w3.org/2000/svg">
<g clip-path="url(#clip0_2425_20128)">
<path opacity="0.4" d="M14.6127 2.54083C13.8409 1.7462 12.8856 1.14914 11.8657 0.80542C11.5573 1.07173 11.3778 1.45611 11.3778 1.8692C11.3778 2.49073 11.7773 3.03223 12.3718 3.21667C12.4403 3.23787 12.503 3.27448 12.5551 3.32371C12.6072 3.37293 12.6474 3.43345 12.6724 3.50061C12.6974 3.56769 12.7066 3.63962 12.6993 3.71084C12.6921 3.78205 12.6685 3.85064 12.6305 3.91129C12.4182 4.25024 12.3057 4.64217 12.3059 5.04214C12.3059 6.2217 13.2685 7.18136 14.4516 7.18136H16.4993C16.4995 7.1597 16.5 7.13808 16.5 7.11639L16.5 7.10139C16.4966 5.40992 15.8263 3.79026 14.6127 2.54083ZM5.90816 8.53439L6.60172 7.84045C6.62928 7.81289 6.65756 7.78542 6.68572 7.75895C7.09525 7.37354 7.57716 7.08795 8.09863 6.91464C7.94269 6.13301 7.27838 5.56189 6.45903 5.56189H3.36147C3.228 6.09345 3.15978 6.64123 3.15881 7.19579L3.15888 7.21573L5.90816 8.53439Z" fill="#171717"/>
<path d="M7.42144 11.113C7.39738 11.0631 7.38943 11.0069 7.3987 10.9522C7.40798 10.8976 7.43401 10.8471 7.47319 10.8079L8.47891 9.80168C9.00918 9.27105 9.31169 8.55459 9.32219 7.8045C9.32329 7.72697 9.25828 7.66375 9.18085 7.66712C8.51332 7.69622 7.82588 7.97737 7.33285 8.44731L6.23682 9.542C6.19772 9.58113 6.14744 9.60715 6.09291 9.61647C6.03839 9.62579 5.98232 9.61795 5.93244 9.59403L2.13766 7.77387C2.08779 7.74995 2.03171 7.7421 1.97719 7.75142C1.92266 7.76074 1.87238 7.78677 1.83328 7.8259L1.0886 8.571C0.970003 8.68965 0.988753 8.88703 1.12753 8.98122L4.23847 11.0922C4.37728 11.1864 4.396 11.3838 4.27741 11.5025L3.12322 12.6573C3.08492 12.6956 3.03588 12.7214 2.98259 12.7312C2.92931 12.741 2.8743 12.7343 2.82488 12.7121L1.56319 12.1453C1.51452 12.1234 1.46041 12.1166 1.40785 12.1258C1.35528 12.135 1.30667 12.1597 1.26828 12.1967L0.581722 12.8594C0.448878 12.9876 0.48291 13.2087 0.648128 13.291L2.30582 14.1166L2.30647 14.1154C2.34742 14.2609 2.4251 14.3934 2.53207 14.5002C2.62226 14.5907 2.73105 14.6605 2.85091 14.7047C2.91555 14.7284 2.96865 14.7759 2.99922 14.8376L3.74441 16.3508C3.82528 16.5151 4.04353 16.5512 4.17294 16.4217L4.81482 15.7795C4.85284 15.7415 4.8785 15.6928 4.88845 15.64C4.8984 15.5871 4.89218 15.5325 4.8706 15.4832L4.3131 14.2101C4.29152 14.1608 4.28531 14.1062 4.29526 14.0533C4.30521 14.0005 4.33087 13.9519 4.36888 13.9138L5.53285 12.7492C5.64972 12.6323 5.84366 12.6485 5.93944 12.7833L8.0915 15.811C8.18732 15.9458 8.38122 15.9621 8.4981 15.8451L9.17569 15.1672C9.21488 15.1279 9.24091 15.0775 9.25018 15.0229C9.25945 14.9682 9.2515 14.912 9.22744 14.8621L7.42144 11.113Z" fill="#171717"/>
<path opacity="0.4" d="M14.4877 8.22162C12.7764 8.22162 11.3842 6.82862 11.3842 5.11634C11.384 4.71734 11.4608 4.32206 11.6104 3.95215C10.8998 3.5334 10.4503 2.7679 10.4503 1.91212C10.4503 1.42794 10.5959 0.967122 10.8588 0.580935C10.6736 0.550437 10.4871 0.528498 10.2999 0.515185C8.57322 0.394029 7.18206 1.02112 6.31909 1.5685C5.22137 2.26475 4.30134 3.26837 3.79484 4.322C3.7483 4.41891 3.70472 4.51723 3.66418 4.61681H6.45903C7.16693 4.61681 7.82815 4.8939 8.32087 5.39703C8.68275 5.76656 8.92312 6.22768 9.02359 6.73006C9.11722 6.72322 9.2114 6.71965 9.30606 6.71965H9.32078C9.82975 6.71965 10.2472 7.12315 10.2647 7.63209C10.3011 8.68825 9.89365 9.72256 9.14681 10.4698L8.48106 11.1359L9.81415 13.9032C9.81897 13.903 9.82368 13.9025 9.82853 13.9025C9.83131 13.9026 9.83368 13.9025 9.83612 13.9025C11.1235 13.9025 12.4081 13.4963 13.5521 12.7274C14.5891 12.0305 15.4275 11.0905 15.9129 10.0807C16.0401 9.81564 16.1453 9.5406 16.2273 9.25831L16.2309 9.24637C16.3378 8.91161 16.4181 8.56895 16.4711 8.22156H14.4877V8.22162Z" fill="#171717"/>
</g>
<defs>
<clipPath id="clip0_2425_20128">
<rect width="16" height="16" fill="white" transform="translate(0.5 0.5)"/>
</clipPath>
</defs>
</svg>
