<svg width="24" height="24" viewBox="0 0 24 24" fill="none" xmlns="http://www.w3.org/2000/svg">
<path opacity="0.4" d="M16.19 2H7.82C4.17 2 2 4.17 2 7.81V16.18C2 19.82 4.17 21.99 7.81 21.99H16.18C19.82 21.99 21.99 19.82 21.99 16.18V7.81C22 4.17 19.83 2 16.19 2Z" fill="#FFD220"/>
<path d="M18.5898 14.3496H5.41016C5.18364 14.3496 5 14.5332 5 14.7598C5 15.7414 5.79573 16.5371 6.77734 16.5371H17.2227C18.2042 16.5371 19 15.7414 19 14.7598C19 14.5332 18.8164 14.3496 18.5898 14.3496ZM13.0938 6.77506V6.55664C13.0938 5.95259 12.6041 5.46289 12 5.46289C11.3959 5.46289 10.9062 5.95259 10.9062 6.55664V6.77506C11.2651 6.72106 11.6304 6.69336 12 6.69336C12.3696 6.69336 12.7349 6.72106 13.0938 6.77506ZM16.5437 9.39574C15.33 8.18206 13.7164 7.51367 12 7.51367C10.2836 7.51367 8.66997 8.18206 7.45629 9.39574C6.33982 10.5122 5.68523 11.9673 5.58748 13.5293H18.4125C18.3147 11.9673 17.6602 10.5122 16.5437 9.39574Z" fill="#FFD220"/>
</svg>
