<svg width="15" height="16" viewBox="0 0 15 16" fill="none" xmlns="http://www.w3.org/2000/svg">
<path opacity="0.2" d="M10.1187 1.75H4.8875C2.60625 1.75 1.25 3.10625 1.25 5.38125V10.6125C1.25 12.8875 2.60625 14.2437 4.88125 14.2437H10.1125C12.3875 14.2437 13.7437 12.8875 13.7437 10.6125V5.38125C13.75 3.10625 12.3937 1.75 10.1187 1.75Z" fill="#171717"/>
<path d="M10.8439 6.15624L9.38135 10.8687C9.03135 11.9875 7.4626 12.0062 7.09385 10.8937L6.65636 9.59999C6.53761 9.24374 6.25635 8.95624 5.9001 8.84374L4.60011 8.40624C3.49386 8.03749 3.51261 6.45624 4.63135 6.11874L9.34386 4.64999C10.2689 4.36874 11.1376 5.23749 10.8439 6.15624Z" fill="#171717"/>
</svg>
