<svg width="16" height="17" viewBox="0 0 16 17" fill="none" xmlns="http://www.w3.org/2000/svg">
<path opacity="0.4" d="M10.794 1.83325H5.21398C2.78065 1.83325 1.33398 3.27992 1.33398 5.70658V11.2866C1.33398 13.7133 2.78065 15.1599 5.20732 15.1599H10.7873C13.214 15.1599 14.6607 13.7133 14.6607 11.2866V5.70658C14.6673 3.27992 13.2207 1.83325 10.794 1.83325Z" fill="#FFD220"/>
<path d="M11.5666 6.53344L10.0066 11.5601C9.63331 12.7534 7.95998 12.7734 7.56665 11.5868L7.09998 10.2068C6.97332 9.82677 6.67331 9.5201 6.29331 9.4001L4.90665 8.93344C3.72665 8.54011 3.74665 6.85344 4.93998 6.49344L9.96665 4.92677C10.9533 4.62677 11.88 5.55344 11.5666 6.53344Z" fill="#FFD220"/>
</svg>
