<svg width="30" height="30" viewBox="0 0 30 30" fill="none" xmlns="http://www.w3.org/2000/svg">
<path opacity="0.4" d="M20.2375 2.5H9.775C5.2125 2.5 2.5 5.2125 2.5 9.7625V20.225C2.5 24.775 5.2125 27.4875 9.7625 27.4875H20.225C24.775 27.4875 27.4875 24.775 27.4875 20.225V9.7625C27.5 5.2125 24.7875 2.5 20.2375 2.5Z" fill="url(#paint0_linear_1564_15394)"/>
<path d="M21.6877 11.3125L18.7627 20.7375C18.0627 22.975 14.9252 23.0125 14.1877 20.7875L13.3127 18.2C13.0752 17.4875 12.5127 16.9125 11.8002 16.6875L9.20021 15.8125C6.98771 15.075 7.02521 11.9125 9.26271 11.2375L18.6877 8.29998C20.5377 7.73748 22.2752 9.47499 21.6877 11.3125Z" fill="url(#paint1_linear_1564_15394)"/>
<defs>
<linearGradient id="paint0_linear_1564_15394" x1="2.5" y1="14.9937" x2="27.4875" y2="14.9937" gradientUnits="userSpaceOnUse">
<stop stop-color="#29B662"/>
<stop offset="0.0001" stop-color="#24BD63"/>
<stop offset="1" stop-color="#1A9B4F"/>
</linearGradient>
<linearGradient id="paint1_linear_1564_15394" x1="7.5625" y1="15.3142" x2="21.804" y2="15.3142" gradientUnits="userSpaceOnUse">
<stop stop-color="#29B662"/>
<stop offset="0.0001" stop-color="#24BD63"/>
<stop offset="1" stop-color="#1A9B4F"/>
</linearGradient>
</defs>
</svg>
