<svg width="16" height="17" viewBox="0 0 16 17" fill="none" xmlns="http://www.w3.org/2000/svg">
<path opacity="0.4" d="M3.82665 11.1667C3.89999 10.84 3.76665 10.3734 3.53332 10.14L1.91332 8.52004C1.40665 8.01337 1.20665 7.47337 1.35332 7.00671C1.50665 6.54004 1.97999 6.22004 2.68665 6.10004L4.76665 5.75337C5.06665 5.70004 5.43332 5.43337 5.57332 5.16004L6.71999 2.86004C7.05332 2.20004 7.50665 1.83337 7.99999 1.83337C8.49332 1.83337 8.94665 2.20004 9.27999 2.86004L10.4267 5.16004C10.5133 5.33337 10.6933 5.50004 10.8867 5.61337L3.70665 12.7934C3.61332 12.8867 3.45332 12.8 3.47999 12.6667L3.82665 11.1667Z" fill="#171717"/>
<path d="M12.4667 10.14C12.2267 10.38 12.0934 10.84 12.1734 11.1667L12.6334 13.1733C12.8267 14.0067 12.7067 14.6333 12.2934 14.9333C12.1267 15.0533 11.9267 15.1133 11.6934 15.1133C11.3534 15.1133 10.9534 14.9867 10.5134 14.7267L8.56003 13.5667C8.25337 13.3867 7.7467 13.3867 7.44003 13.5667L5.4867 14.7267C4.7467 15.16 4.11337 15.2333 3.7067 14.9333C3.55337 14.82 3.44003 14.6667 3.3667 14.4667L11.4734 6.36001C11.78 6.05335 12.2134 5.91335 12.6334 5.98668L13.3067 6.10001C14.0134 6.22001 14.4867 6.54001 14.64 7.00668C14.7867 7.47335 14.5867 8.01335 14.08 8.52001L12.4667 10.14Z" fill="#171717"/>
</svg>
