<svg width="20" height="20" viewBox="0 0 20 20" fill="none" xmlns="http://www.w3.org/2000/svg">
<path opacity="0.4" d="M4.78313 13.3332C4.8748 12.9248 4.70813 12.3415 4.41647 12.0498L2.39147 10.0248C1.75813 9.3915 1.50813 8.7165 1.69147 8.13317C1.88313 7.54984 2.4748 7.14984 3.35813 6.99984L5.95813 6.5665C6.33313 6.49984 6.79147 6.1665 6.96647 5.82484L8.3998 2.94984C8.81647 2.12484 9.38313 1.6665 9.9998 1.6665C10.6165 1.6665 11.1831 2.12484 11.5998 2.94984L13.0331 5.82484C13.1415 6.0415 13.3665 6.24984 13.6081 6.3915L4.63313 15.3665C4.51647 15.4832 4.31647 15.3748 4.3498 15.2082L4.78313 13.3332Z" fill="#171717"/>
<path d="M15.584 12.0501C15.284 12.3501 15.1173 12.9251 15.2173 13.3334L15.7923 15.8417C16.034 16.8834 15.884 17.6667 15.3673 18.0417C15.159 18.1917 14.909 18.2667 14.6173 18.2667C14.1923 18.2667 13.6923 18.1084 13.1423 17.7834L10.7007 16.3334C10.3173 16.1084 9.68398 16.1084 9.30065 16.3334L6.85898 17.7834C5.93398 18.3251 5.14232 18.4167 4.63398 18.0417C4.44232 17.9001 4.30065 17.7084 4.20898 17.4584L14.3423 7.32508C14.7256 6.94174 15.2673 6.76674 15.7923 6.85841L16.634 7.00008C17.5173 7.15008 18.109 7.55008 18.3007 8.13341C18.484 8.71674 18.234 9.39174 17.6007 10.0251L15.584 12.0501Z" fill="#171717"/>
</svg>
