<svg width="25" height="24" viewBox="0 0 25 24" fill="none" xmlns="http://www.w3.org/2000/svg">
<path d="M23.2723 15.7908C21.5371 20.2411 17.0952 23.3231 11.985 22.9729C6.42378 22.5919 1.91172 18.047 1.52775 12.4435C1.17438 7.28785 4.23169 2.80116 8.65678 1.05352C9.29169 0.802721 9.89841 1.48168 9.57219 2.08582C8.73206 3.64085 8.31475 5.46158 8.47391 7.38935C8.84963 11.9325 12.5126 15.6103 17.0223 15.9744C18.9225 16.1275 20.7148 15.7077 22.2476 14.868C22.8475 14.5396 23.5219 15.1506 23.2723 15.7908ZM21.1047 3.65817C21.0981 3.63947 21.0981 3.62665 21.0858 3.6076C20.3756 2.12531 18.6596 1.71378 17.4778 2.594C17.0489 2.90728 16.675 3.29061 16.3716 3.72815C16.0636 3.29221 15.6879 2.90924 15.2588 2.594C14.077 1.71378 12.361 2.12531 11.6508 3.6076C11.6447 3.62665 11.6381 3.63947 11.6319 3.65817C11.2487 4.46288 11.3428 5.38745 11.657 6.22368C12.8577 9.40995 15.6421 10.5438 16.3716 10.5438C16.4719 10.5438 16.6039 10.5247 16.7676 10.4741C16.5072 10.0951 16.2959 9.6842 16.1388 9.2513C15.837 8.4407 15.8308 7.66128 16.1261 7.00934L16.1327 6.97747L16.1705 6.90784C16.5661 6.07784 17.3836 5.5461 18.2821 5.5461C18.7661 5.5461 19.2316 5.69783 19.621 5.98951C19.7596 6.09066 19.8916 6.20463 20.017 6.32518C20.1428 6.20463 20.2748 6.09066 20.4192 5.98916C20.6728 5.80151 20.9617 5.66796 21.2683 5.59668C21.4127 4.94404 21.3938 4.26647 21.1047 3.65817ZM23.3239 7.23866C23.3194 7.22723 23.317 7.21545 23.3126 7.20644C22.8158 6.17068 21.6162 5.88455 20.7922 6.49804C20.4941 6.71781 20.2329 6.98421 20.0184 7.28716C19.8039 6.98421 19.5427 6.7178 19.2446 6.49804C18.4207 5.88455 17.221 6.17068 16.7243 7.20644C16.7198 7.21545 16.7174 7.22723 16.7129 7.23866C16.4448 7.80157 16.5091 8.4452 16.7287 9.0289C17.5688 11.2549 19.5124 12.0461 20.0184 12.0461C20.5244 12.0461 22.4676 11.2549 23.3081 9.0289C23.5278 8.4452 23.5917 7.80157 23.3239 7.23866Z" fill="#FFD220"/>
</svg>
