<svg width="30" height="30" viewBox="0 0 30 30" fill="none" xmlns="http://www.w3.org/2000/svg">
<path opacity="0.4" d="M27.5 10.65V4.975C27.5 3.2125 26.7 2.5 24.7125 2.5H19.6625C17.675 2.5 16.875 3.2125 16.875 4.975V10.6375C16.875 12.4125 17.675 13.1125 19.6625 13.1125H24.7125C26.7 13.125 27.5 12.4125 27.5 10.65Z" fill="url(#paint0_linear_1564_15402)"/>
<path d="M27.5 24.7125V19.6625C27.5 17.675 26.7 16.875 24.7125 16.875H19.6625C17.675 16.875 16.875 17.675 16.875 19.6625V24.7125C16.875 26.7 17.675 27.5 19.6625 27.5H24.7125C26.7 27.5 27.5 26.7 27.5 24.7125Z" fill="url(#paint1_linear_1564_15402)"/>
<path d="M13.125 10.65V4.975C13.125 3.2125 12.325 2.5 10.3375 2.5H5.2875C3.3 2.5 2.5 3.2125 2.5 4.975V10.6375C2.5 12.4125 3.3 13.1125 5.2875 13.1125H10.3375C12.325 13.125 13.125 12.4125 13.125 10.65Z" fill="url(#paint2_linear_1564_15402)"/>
<path opacity="0.4" d="M13.125 24.7125V19.6625C13.125 17.675 12.325 16.875 10.3375 16.875H5.2875C3.3 16.875 2.5 17.675 2.5 19.6625V24.7125C2.5 26.7 3.3 27.5 5.2875 27.5H10.3375C12.325 27.5 13.125 26.7 13.125 24.7125Z" fill="url(#paint3_linear_1564_15402)"/>
<defs>
<linearGradient id="paint0_linear_1564_15402" x1="16.875" y1="7.80633" x2="27.5" y2="7.80633" gradientUnits="userSpaceOnUse">
<stop stop-color="#29B662"/>
<stop offset="0.0001" stop-color="#24BD63"/>
<stop offset="1" stop-color="#1A9B4F"/>
</linearGradient>
<linearGradient id="paint1_linear_1564_15402" x1="16.875" y1="22.1875" x2="27.5" y2="22.1875" gradientUnits="userSpaceOnUse">
<stop stop-color="#29B662"/>
<stop offset="0.0001" stop-color="#24BD63"/>
<stop offset="1" stop-color="#1A9B4F"/>
</linearGradient>
<linearGradient id="paint2_linear_1564_15402" x1="2.5" y1="7.80633" x2="13.125" y2="7.80633" gradientUnits="userSpaceOnUse">
<stop stop-color="#29B662"/>
<stop offset="0.0001" stop-color="#24BD63"/>
<stop offset="1" stop-color="#1A9B4F"/>
</linearGradient>
<linearGradient id="paint3_linear_1564_15402" x1="2.5" y1="22.1875" x2="13.125" y2="22.1875" gradientUnits="userSpaceOnUse">
<stop stop-color="#29B662"/>
<stop offset="0.0001" stop-color="#24BD63"/>
<stop offset="1" stop-color="#1A9B4F"/>
</linearGradient>
</defs>
</svg>
