<svg xmlns="http://www.w3.org/2000/svg" width="132" height="132" viewBox="0 0 132 132" fill="none">
  <path d="M66 125.125C50.3191 125.125 35.2804 118.896 24.1923 107.808C13.1042 96.7194 6.875 81.6808 6.875 65.9998C6.875 50.3189 13.1042 35.2802 24.1923 24.1921C35.2804 13.1041 50.3191 6.87483 66 6.87483C75.214 6.84433 84.3023 9.0127 92.51 13.1998C92.9939 13.4454 93.4247 13.7839 93.7778 14.196C94.1309 14.608 94.3994 15.0856 94.568 15.6014C94.7365 16.1173 94.8018 16.6612 94.7601 17.2023C94.7184 17.7434 94.5706 18.2709 94.325 18.7548C94.0794 19.2387 93.7409 19.6696 93.3289 20.0227C92.9168 20.3758 92.4392 20.6443 91.9234 20.8128C91.4076 20.9813 90.8636 21.0466 90.3225 21.0049C89.7815 20.9633 89.2539 20.8154 88.77 20.5698C81.7293 16.9411 73.9207 15.055 66 15.0698C55.9402 15.0698 46.1062 18.0522 37.7411 23.64C29.3759 29.2278 22.8551 37.1701 19.0029 46.4631C15.1507 55.7561 14.14 65.9826 16.0986 75.8498C18.0571 85.7171 22.897 94.7823 30.0065 101.899C37.116 109.017 46.1759 113.866 56.0411 115.836C65.9063 117.805 76.1338 116.805 85.4309 112.963C94.7281 109.121 102.677 102.609 108.274 94.2495C113.871 85.8903 116.864 76.0596 116.875 65.9998C116.904 65.5419 116.904 65.0827 116.875 64.6248C116.773 63.5308 117.11 62.441 117.811 61.5952C118.512 60.7495 119.521 60.2169 120.615 60.1148C121.709 60.0127 122.799 60.3494 123.645 61.0508C124.49 61.7522 125.023 62.7608 125.125 63.8548V65.9998C125.11 81.6763 118.877 96.7065 107.792 107.791C96.7067 118.876 81.6764 125.11 66 125.125Z" fill="url(#paint0_linear_3720_30989)"/>
  <path d="M65.0103 84.7546C64.4757 84.7625 63.9453 84.6591 63.4529 84.4507C62.9605 84.2424 62.5168 83.9338 62.1503 83.5446L35.5853 57.4746C34.8128 56.7011 34.3789 55.6527 34.3789 54.5596C34.3789 53.4665 34.8128 52.418 35.5853 51.6446C36.3749 50.8818 37.4299 50.4554 38.5278 50.4554C39.6257 50.4554 40.6807 50.8818 41.4703 51.6446L65.0653 74.9096L118.14 22.7146C118.93 21.9518 119.985 21.5254 121.083 21.5254C122.181 21.5254 123.236 21.9518 124.025 22.7146C124.798 23.488 125.232 24.5365 125.232 25.6296C125.232 26.7227 124.798 27.7711 124.025 28.5446L68.0353 83.5446C67.6416 83.9437 67.1697 84.2573 66.6491 84.4655C66.1286 84.6737 65.5706 84.7721 65.0103 84.7546Z" fill="url(#paint1_linear_3720_30989)"/>
  <defs>
    <linearGradient id="paint0_linear_3720_30989" x1="6.875" y1="65.9996" x2="125.125" y2="65.9996" gradientUnits="userSpaceOnUse">
      <stop stop-color="#29B662"/>
      <stop offset="0.0001" stop-color="#24BD63"/>
      <stop offset="1" stop-color="#1A9B4F"/>
    </linearGradient>
    <linearGradient id="paint1_linear_3720_30989" x1="34.3789" y1="53.141" x2="125.232" y2="53.141" gradientUnits="userSpaceOnUse">
      <stop stop-color="#29B662"/>
      <stop offset="0.0001" stop-color="#24BD63"/>
      <stop offset="1" stop-color="#1A9B4F"/>
    </linearGradient>
  </defs>
</svg>