<svg width="12" height="12" viewBox="0 0 12 12" fill="none" xmlns="http://www.w3.org/2000/svg">
<g id="Motorcycle - Free transport icons-2 1" clip-path="url(#clip0_2181_20244)">
<g id="Group">
<path id="Vector" d="M2.33839 10.9176C3.29606 10.9059 4.06292 10.1201 4.05122 9.1626C4.03952 8.20506 3.25369 7.4383 2.29602 7.45001C1.33835 7.46171 0.571496 8.24743 0.583195 9.20497C0.594894 10.1625 1.38072 10.9293 2.33839 10.9176Z" fill="#FFD220"/>
<path id="Vector_2" d="M10.2517 10.918C11.2094 10.9063 11.9762 10.1206 11.9645 9.16308C11.9528 8.20555 11.167 7.43879 10.2094 7.45049C9.25169 7.46219 8.48483 8.24792 8.49652 9.20546C8.50822 10.163 9.29405 10.9297 10.2517 10.918Z" fill="#FFD220"/>
<path id="Vector_3" d="M6.73299 2.47637C6.83572 2.57832 6.97428 2.63603 7.11901 2.63715L8.05956 6.02363C8.22924 6.63418 8.07737 7.29488 7.64166 7.7552C7.64166 7.7552 7.08198 8.35824 6.24409 8.35918C5.97974 8.35732 5.72686 8.25098 5.54064 8.06335C5.35441 7.87572 5.24997 7.62205 5.2501 7.3577C5.25005 6.99179 5.29093 6.62702 5.37198 6.2702C5.47651 5.86074 5.54471 5.72715 5.6701 5.47027C6.07932 5.41426 6.23729 4.81215 5.93471 4.32184C5.61737 3.80621 4.92174 3.74715 4.08315 4.04059C3.24456 4.33402 2.46104 4.17582 1.37823 3.99067C0.289555 3.80457 0.119164 5.47496 0.905493 5.47496H1.38081C0.81884 5.80957 0.362316 6.2955 0.0633832 6.87723C0.0291539 6.94312 0.0082457 7.01511 0.00185369 7.08908C-0.00453831 7.16306 0.00371121 7.23757 0.0261307 7.30835C0.0485502 7.37914 0.0847002 7.44481 0.132514 7.50161C0.180328 7.55842 0.238869 7.60525 0.304789 7.63941C0.367709 7.67103 0.438916 7.68227 0.508515 7.67156C0.578113 7.66085 0.642647 7.62872 0.693149 7.57965C0.954674 7.31375 1.27784 7.11658 1.63393 7.00567C1.85587 6.93927 2.08596 6.90408 2.3176 6.90113C2.92275 6.90182 3.50291 7.14253 3.93079 7.57045C4.35867 7.99838 4.59933 8.57857 4.59995 9.18371C4.59995 9.23059 4.59854 9.27785 4.59573 9.32551C4.5947 9.34152 4.59697 9.35756 4.6024 9.37266C4.60783 9.38776 4.6163 9.40158 4.62728 9.41327C4.63827 9.42495 4.65154 9.43426 4.66627 9.44062C4.681 9.44697 4.69687 9.45023 4.71291 9.4502H7.36135C7.51182 9.44594 7.65573 9.38769 7.76679 9.28609C7.87786 9.18449 7.94867 9.04633 7.96627 8.89684C8.02128 8.46341 8.19949 8.05487 8.47974 7.71969C8.76 7.38452 9.13053 7.13679 9.54737 7.0059C9.7693 6.9395 9.9994 6.90432 10.231 6.90137C10.7582 6.9009 11.2691 7.08377 11.6762 7.41863C11.8421 7.55481 12.0777 7.36332 11.9757 7.17442L11.9729 7.16949C11.6343 6.56895 11.12 6.08641 10.4992 5.78668C10.4103 5.74356 10.3203 5.70488 10.2299 5.66949C10.1994 4.10199 8.37995 2.63785 8.37995 2.63785C8.86862 2.66645 8.88573 2.17988 8.88573 2.17988C8.91573 1.58996 8.51635 1.11723 7.96534 1.08488C7.82655 1.07769 7.68895 1.11381 7.57159 1.18824L7.25284 1.3884C7.14613 1.45714 7.03349 1.5162 6.91627 1.56488C6.8356 1.59752 6.7637 1.64861 6.70635 1.71406C6.649 1.77951 6.60779 1.8575 6.58604 1.94176C6.58604 1.94176 6.43909 1.98535 6.38518 2.03551C6.34705 2.06809 6.31917 2.111 6.30488 2.15907C6.2906 2.20714 6.29052 2.25832 6.30467 2.30643C6.31881 2.35455 6.34658 2.39754 6.38461 2.43023C6.42264 2.46292 6.46932 2.48391 6.51901 2.49067C6.51901 2.49067 6.59401 2.50332 6.73299 2.47637Z" fill="url(#paint0_linear_2181_20244)"/>
</g>
</g>
<defs>
<linearGradient id="paint0_linear_2181_20244" x1="-0.00024412" y1="5.26709" x2="12.0005" y2="5.26709" gradientUnits="userSpaceOnUse">
<stop stop-color="#29B662"/>
<stop offset="0.0001" stop-color="#24BD63"/>
<stop offset="1" stop-color="#1A9B4F"/>
</linearGradient>
<clipPath id="clip0_2181_20244">
<rect width="12" height="12" fill="white"/>
</clipPath>
</defs>
</svg>
