<svg width="71" height="70" viewBox="0 0 71 70" fill="none" xmlns="http://www.w3.org/2000/svg">
<g id="Global research - Free miscellaneous icons-2 2" clip-path="url(#clip0_1564_17127)">
<g id="Group">
<path id="Vector" d="M33.0558 67.8124C25.8251 67.8093 18.7982 65.417 13.0678 61.0074C7.33742 56.5978 3.22478 50.4182 1.36952 43.4297C-0.485739 36.4411 0.0203727 29.0354 2.80914 22.3642C5.59792 15.693 10.513 10.1304 16.79 6.5414C23.0671 2.95242 30.3541 1.53827 37.5179 2.5189C44.6818 3.49953 51.3207 6.81997 56.4023 11.9638C61.484 17.1076 64.7234 23.7865 65.6167 30.9617C66.5101 38.1369 65.0074 45.4063 61.3423 51.6392C61.1901 51.8781 60.9511 52.0487 60.6756 52.1149C60.4002 52.1812 60.1097 52.138 59.8655 51.9944C59.6213 51.8508 59.4423 51.618 59.3662 51.3451C59.2902 51.0722 59.323 50.7804 59.4578 50.5312C63.364 43.8975 64.6307 36.0366 63.0059 28.5116C61.3811 20.9867 56.9839 14.3488 50.6886 9.91776C44.3932 5.48675 36.6609 3.5872 29.029 4.5968C21.3971 5.60639 14.4247 9.45119 9.49806 15.3667C4.57143 21.2822 2.05147 28.8352 2.43924 36.5238C2.827 44.2124 6.09408 51.4735 11.5909 56.8633C17.0877 62.2532 24.4116 65.3769 32.1063 65.6136C39.801 65.8502 47.303 63.1823 53.1206 58.1404C53.2282 58.0411 53.3547 57.9643 53.4926 57.9148C53.6304 57.8653 53.7768 57.8439 53.923 57.852C54.0693 57.8601 54.2124 57.8975 54.3439 57.962C54.4754 58.0265 54.5927 58.1167 54.6886 58.2273C54.7846 58.338 54.8574 58.4668 54.9027 58.6061C54.9479 58.7454 54.9648 58.8923 54.9522 59.0383C54.9395 59.1842 54.8978 59.3261 54.8293 59.4556C54.7608 59.585 54.667 59.6994 54.5534 59.792C48.5873 64.9672 40.9537 67.8151 33.0558 67.8124Z" fill="#171717" stroke="white" stroke-width="0.5"/>
<g id="Vector_2">
<path d="M14.4624 48.125C14.187 48.1249 13.9218 48.021 13.7197 47.834C9.56349 43.995 8.46208 42.7328 8.12958 42.245C6.73967 41.715 5.31658 41.2766 3.86943 40.9325C3.21306 40.7892 2.56846 40.5965 1.94115 40.356C1.68007 40.2296 1.47994 40.0046 1.38476 39.7305C1.28959 39.4565 1.30717 39.1559 1.43365 38.8948C1.56012 38.6337 1.78513 38.4336 2.05917 38.3384C2.3332 38.2432 2.63382 38.2608 2.8949 38.3873C3.07318 38.4551 3.79505 38.6476 4.43271 38.8171C8.75193 39.9667 9.69036 40.3604 10.0108 41.16C10.2449 41.5012 12.2432 43.4568 14.2447 45.3359C14.804 44.5038 15.2453 43.5984 15.5561 42.6453C14.7746 41.3386 13.805 40.1542 12.6785 39.13C11.6826 38.1189 11.0608 36.7988 10.9154 35.3871C10.9282 35.1136 11.0098 34.8478 11.1526 34.6142C11.2954 34.3806 11.4948 34.1867 11.7324 34.0506C12.5735 33.5704 14.2032 33.6076 16.919 33.8428C17.2471 33.8723 17.5161 33.8975 17.6736 33.904C18.7087 33.3598 19.5234 32.474 19.9793 31.3971C21.1737 28.6705 23.3342 26.4819 26.0452 25.2525C27.4411 24.4643 29.0185 24.0541 30.6215 24.0625C31.5161 23.1601 32.8647 19.1154 32.1669 18.1365C31.7174 17.5087 30.0604 16.8678 28.7293 16.3526C26.6708 15.5564 24.8935 14.8684 24.3772 13.5154C23.861 12.1625 24.3958 9.2498 25.0947 5.88105C25.2402 5.17558 25.378 4.51058 25.4065 4.25574C25.4223 4.11297 25.466 3.97471 25.5353 3.84885C25.6045 3.72299 25.6978 3.612 25.81 3.52222C25.9221 3.43244 26.0508 3.36562 26.1887 3.32558C26.3267 3.28554 26.4712 3.27306 26.614 3.28886C26.7567 3.30466 26.895 3.34843 27.0208 3.41766C27.1467 3.4869 27.2577 3.58024 27.3475 3.69237C27.4373 3.80449 27.5041 3.93321 27.5441 4.07116C27.5842 4.20911 27.5966 4.35359 27.5808 4.49636C27.5415 4.85511 27.4135 5.47089 27.2363 6.32402C26.9224 7.83886 26.089 11.8639 26.4226 12.7367C26.6216 13.1917 28.5061 13.9212 29.519 14.3128C31.3696 15.0281 33.1174 15.704 33.9454 16.8656C35.2961 18.7545 34.0066 22.4525 33.136 24.1445C32.3999 25.5806 31.6758 26.25 30.8686 26.25H30.6565C29.3522 26.2489 28.071 26.5934 26.9432 27.2485C24.8033 28.2197 23.0769 29.9179 22.0705 32.0414C21.4515 34.0517 19.031 36.0937 17.7436 36.0937C17.573 36.0937 17.2044 36.0653 16.7286 36.0237C15.548 35.8962 14.3599 35.8501 13.1729 35.8859C13.4024 36.4569 13.7149 36.9909 14.1004 37.4707C14.1004 37.4707 17.7436 40.8056 17.7436 42.6562C17.7436 43.9425 16.0855 46.5685 15.3724 47.6382C15.2846 47.7698 15.1693 47.8808 15.0345 47.9635C14.8997 48.0462 14.7485 48.0987 14.5915 48.1173C14.5486 48.1226 14.5055 48.1251 14.4624 48.125ZM48.128 28.5009C47.5644 28.469 47.0143 28.3153 46.5158 28.0503C45.9241 27.7692 43.9936 26.729 43.9936 25.1562C43.9936 24.7756 44.0046 24.2812 44.0166 23.7551C44.0374 22.8364 44.0658 21.6026 44.0166 21.0437L43.9641 21.0054C43.5691 20.7347 43.2593 20.3572 43.0708 19.917C42.8824 19.4768 42.8231 18.992 42.8999 18.5193C42.9109 18.3623 42.9557 18.2094 43.0312 18.0712C43.1067 17.933 43.2111 17.8128 43.3374 17.7187C43.5375 17.5678 48.3118 14.0612 53.2325 16.521C53.2701 16.5398 53.3066 16.5606 53.3419 16.5834C54.0458 17.2096 54.6123 17.9749 55.0055 18.831C55.2899 19.3178 55.5841 19.822 55.8138 20.1315C55.9379 20.3 56.0221 20.4944 56.06 20.7002C56.0979 20.906 56.0885 21.1177 56.0325 21.3193C55.7536 22.3518 54.4007 23.0814 51.2725 24.4267C50.8022 24.6301 50.216 24.8806 50.0793 24.9648L50.0125 25.0064C49.8513 25.4262 49.7597 25.8695 49.7413 26.3189C49.7589 26.6606 49.7075 27.0024 49.5903 27.3239C49.473 27.6454 49.2923 27.9401 49.0588 28.1903C48.7952 28.401 48.4653 28.5111 48.128 28.5009ZM45.1497 19.1406C45.1941 19.1864 45.2428 19.2278 45.2952 19.2642C45.5279 19.4182 45.7259 19.619 45.8766 19.8538C46.0272 20.0887 46.1272 20.3524 46.1702 20.6281C46.2438 21.6838 46.2547 22.7429 46.203 23.8C46.191 24.3075 46.18 24.7843 46.18 25.1507C46.5563 25.5807 47.03 25.9144 47.5615 26.1242V26.0826C47.6708 25.0982 47.8097 23.7485 48.8816 23.1295C49.3717 22.857 49.8801 22.6188 50.403 22.4164C51.5193 21.9634 52.6051 21.4388 53.6536 20.8457C53.4775 20.5635 53.296 20.254 53.1068 19.9346C52.821 19.4096 52.4983 18.9056 52.141 18.4264C49.2436 17.045 46.2971 18.4614 45.1497 19.1406ZM33.0561 63.4375C32.8962 63.438 32.7381 63.4029 32.5935 63.3346C31.0961 62.6368 29.2171 61.5945 28.7752 60.6003C28.5796 60.306 28.3574 60.0303 28.1113 59.7767C27.2863 59.0334 26.7196 58.0464 26.4936 56.9592C26.2452 55.559 25.8953 54.1787 25.4469 52.8292C25.4354 52.7906 25.4256 52.7516 25.4174 52.7121C25.332 52.1931 25.1398 51.6974 24.853 51.2564C24.7874 51.2312 24.6157 51.1557 24.4155 51.065C22.5561 50.2392 21.0249 49.4462 21.0249 48.125V47.8635C21.0041 44.544 21.3016 42.2143 22.8241 41.6292C22.9718 41.5734 23.1282 41.5045 23.2955 41.4323C24.2219 40.9128 25.2764 40.6661 26.3371 40.7209C27.3978 40.7757 28.4213 41.1296 29.2893 41.7418C29.5659 41.9344 29.8617 42.0978 30.1719 42.2296C30.4372 42.3383 30.6492 42.5467 30.7623 42.81C30.8755 43.0734 30.8807 43.3706 30.777 43.6378C30.6732 43.905 30.4687 44.1208 30.2074 44.2387C29.9462 44.3566 29.6491 44.3673 29.3801 44.2684C28.921 44.0804 28.4835 43.8435 28.0752 43.5618C27.5102 43.1549 26.8366 42.9258 26.1406 42.9038C25.4447 42.8818 24.758 43.0679 24.1683 43.4382C23.9988 43.5115 23.8402 43.5826 23.6827 43.6428C23.5154 43.8681 23.1927 44.7114 23.2124 47.846V47.9292C23.8656 48.3859 24.5691 48.7661 25.3091 49.0623C25.5465 49.1717 25.7466 49.2592 25.8899 49.3292C26.9574 49.864 27.4047 51.485 27.5557 52.2232C28.0472 53.7151 28.4235 55.2424 28.6811 56.7918C28.7096 57.1626 29.3319 57.8571 29.7443 58.3231C30.1555 58.7341 30.5038 59.2037 30.7779 59.7165C31.4149 60.2431 32.1175 60.685 32.868 61.0312C33.2825 60.6418 33.7977 60.1442 34.1499 59.7537V56.875C34.1499 56.5849 34.2651 56.3067 34.4702 56.1016C34.6754 55.8964 34.9536 55.7812 35.2436 55.7812C35.5337 55.7812 35.8119 55.8964 36.017 56.1016C36.2222 56.3067 36.3374 56.5849 36.3374 56.875V60.1562C36.3374 60.4009 36.2554 60.6385 36.1044 60.831C35.3825 61.6568 34.6076 62.4346 33.7846 63.1596C33.5841 63.3386 33.3248 63.4375 33.0561 63.4375Z" fill="#171717"/>
<path d="M49.9907 25.0151H49.9841M14.4624 48.125C14.187 48.1249 13.9218 48.021 13.7197 47.834C9.56349 43.995 8.46208 42.7328 8.12958 42.245C6.73967 41.715 5.31658 41.2766 3.86943 40.9325C3.21305 40.7892 2.56846 40.5965 1.94115 40.356C1.68007 40.2296 1.47994 40.0046 1.38476 39.7305C1.28959 39.4565 1.30717 39.1559 1.43365 38.8948C1.56012 38.6337 1.78513 38.4336 2.05917 38.3384C2.3332 38.2432 2.63382 38.2608 2.8949 38.3873C3.07318 38.4551 3.79505 38.6476 4.43271 38.8171C8.75193 39.9667 9.69037 40.3604 10.0108 41.16C10.2449 41.5012 12.2432 43.4568 14.2447 45.3359C14.804 44.5038 15.2453 43.5984 15.5561 42.6453C14.7746 41.3386 13.805 40.1542 12.6785 39.13C11.6826 38.1189 11.0608 36.7988 10.9154 35.3871C10.9282 35.1136 11.0098 34.8478 11.1526 34.6142C11.2954 34.3806 11.4948 34.1867 11.7324 34.0506C12.5735 33.5704 14.2032 33.6076 16.919 33.8428C17.2471 33.8723 17.5161 33.8975 17.6736 33.904C18.7087 33.3598 19.5234 32.474 19.9793 31.3971C21.1737 28.6705 23.3342 26.4819 26.0452 25.2525C27.4411 24.4643 29.0185 24.0541 30.6215 24.0625C31.5161 23.1601 32.8647 19.1154 32.1669 18.1365C31.7174 17.5087 30.0604 16.8678 28.7293 16.3526C26.6708 15.5564 24.8935 14.8684 24.3772 13.5154C23.861 12.1625 24.3958 9.2498 25.0947 5.88105C25.2402 5.17558 25.378 4.51058 25.4065 4.25574C25.4223 4.11297 25.466 3.97471 25.5353 3.84885C25.6045 3.72299 25.6978 3.612 25.81 3.52222C25.9221 3.43244 26.0508 3.36562 26.1887 3.32558C26.3267 3.28554 26.4712 3.27306 26.614 3.28886C26.7567 3.30466 26.895 3.34843 27.0208 3.41766C27.1467 3.4869 27.2577 3.58024 27.3475 3.69237C27.4373 3.80449 27.5041 3.93321 27.5441 4.07116C27.5842 4.20911 27.5966 4.35359 27.5808 4.49636C27.5415 4.85511 27.4135 5.47089 27.2363 6.32402C26.9224 7.83886 26.089 11.8639 26.4225 12.7367C26.6216 13.1917 28.5061 13.9212 29.519 14.3128C31.3696 15.0281 33.1174 15.704 33.9454 16.8656C35.2961 18.7545 34.0066 22.4525 33.136 24.1445C32.3999 25.5806 31.6758 26.25 30.8686 26.25H30.6565C29.3522 26.2489 28.071 26.5934 26.9432 27.2485C24.8033 28.2197 23.0769 29.9179 22.0705 32.0414C21.4515 34.0517 19.031 36.0937 17.7436 36.0937C17.573 36.0937 17.2044 36.0653 16.7286 36.0237C15.548 35.8962 14.3599 35.8501 13.1729 35.8859C13.4024 36.4569 13.7149 36.9909 14.1004 37.4707C14.1004 37.4707 17.7436 40.8056 17.7436 42.6562C17.7436 43.9425 16.0855 46.5685 15.3724 47.6382C15.2846 47.7698 15.1693 47.8808 15.0345 47.9635C14.8997 48.0462 14.7485 48.0987 14.5915 48.1173C14.5486 48.1226 14.5055 48.1251 14.4624 48.125ZM48.128 28.5009C47.5644 28.469 47.0143 28.3153 46.5158 28.0503C45.9241 27.7692 43.9936 26.729 43.9936 25.1562C43.9936 24.7756 44.0046 24.2812 44.0166 23.7551C44.0374 22.8364 44.0658 21.6026 44.0166 21.0437L43.9641 21.0054C43.5691 20.7347 43.2593 20.3572 43.0708 19.917C42.8824 19.4768 42.8231 18.992 42.8999 18.5193C42.9109 18.3623 42.9557 18.2094 43.0312 18.0712C43.1067 17.933 43.2111 17.8128 43.3374 17.7187C43.5375 17.5678 48.3118 14.0612 53.2325 16.521C53.2701 16.5398 53.3066 16.5606 53.3419 16.5834C54.0459 17.2096 54.6123 17.9749 55.0055 18.831C55.2899 19.3178 55.5841 19.822 55.8138 20.1315C55.9379 20.3 56.0221 20.4944 56.06 20.7002C56.0979 20.906 56.0885 21.1177 56.0325 21.3193C55.7536 22.3518 54.4007 23.0814 51.2725 24.4267C50.8022 24.6301 50.216 24.8806 50.0793 24.9648L50.0125 25.0064C49.8513 25.4262 49.7597 25.8695 49.7413 26.3189C49.7589 26.6606 49.7075 27.0024 49.5903 27.3239C49.473 27.6454 49.2923 27.9401 49.0588 28.1903C48.7952 28.401 48.4653 28.5111 48.128 28.5009ZM45.1497 19.1406C45.1941 19.1864 45.2428 19.2278 45.2952 19.2642C45.5279 19.4182 45.7259 19.619 45.8766 19.8538C46.0272 20.0887 46.1272 20.3524 46.1702 20.6281C46.2438 21.6838 46.2547 22.7429 46.203 23.8C46.191 24.3075 46.18 24.7843 46.18 25.1507C46.5563 25.5807 47.03 25.9144 47.5615 26.1242V26.0826C47.6708 25.0982 47.8097 23.7485 48.8816 23.1295C49.3717 22.8571 49.8801 22.6188 50.403 22.4164C51.5193 21.9634 52.6051 21.4388 53.6536 20.8457C53.4775 20.5635 53.296 20.254 53.1068 19.9346C52.821 19.4096 52.4983 18.9056 52.141 18.4264C49.2436 17.045 46.2971 18.4614 45.1497 19.1406ZM33.0561 63.4375C32.8962 63.438 32.7381 63.4029 32.5935 63.3346C31.0961 62.6368 29.2171 61.5945 28.7752 60.6003C28.5796 60.306 28.3574 60.0303 28.1113 59.7767C27.2863 59.0334 26.7196 58.0464 26.4936 56.9592C26.2452 55.559 25.8953 54.1787 25.4469 52.8292C25.4354 52.7906 25.4256 52.7516 25.4174 52.7121C25.332 52.1931 25.1398 51.6974 24.853 51.2564C24.7874 51.2312 24.6157 51.1557 24.4155 51.065C22.5561 50.2392 21.0249 49.4462 21.0249 48.125V47.8635C21.0041 44.544 21.3016 42.2143 22.8241 41.6292C22.9718 41.5734 23.1282 41.5045 23.2955 41.4323C24.2219 40.9128 25.2764 40.6661 26.3371 40.7209C27.3978 40.7757 28.4213 41.1296 29.2893 41.7418C29.5659 41.9344 29.8617 42.0978 30.1719 42.2296C30.4372 42.3383 30.6492 42.5467 30.7623 42.81C30.8755 43.0734 30.8807 43.3706 30.777 43.6378C30.6732 43.905 30.4687 44.1208 30.2074 44.2387C29.9462 44.3566 29.6491 44.3673 29.3801 44.2684C28.921 44.0804 28.4835 43.8435 28.0752 43.5618C27.5102 43.1549 26.8366 42.9258 26.1406 42.9038C25.4447 42.8818 24.758 43.0679 24.1683 43.4382C23.9988 43.5115 23.8402 43.5826 23.6827 43.6428C23.5154 43.8681 23.1927 44.7114 23.2124 47.846V47.9292C23.8656 48.3859 24.5691 48.7661 25.3091 49.0623C25.5465 49.1717 25.7466 49.2592 25.8899 49.3292C26.9574 49.864 27.4047 51.485 27.5557 52.2232C28.0472 53.7151 28.4235 55.2424 28.6811 56.7918C28.7096 57.1626 29.3319 57.8571 29.7443 58.3231C30.1555 58.7341 30.5038 59.2037 30.7779 59.7165C31.4149 60.2431 32.1175 60.685 32.868 61.0312C33.2825 60.6418 33.7977 60.1442 34.1499 59.7537V56.875C34.1499 56.5849 34.2651 56.3067 34.4702 56.1016C34.6754 55.8964 34.9536 55.7812 35.2436 55.7812C35.5337 55.7812 35.8119 55.8964 36.017 56.1016C36.2222 56.3067 36.3374 56.5849 36.3374 56.875V60.1562C36.3374 60.4009 36.2554 60.6385 36.1044 60.831C35.3825 61.6568 34.6076 62.4346 33.7846 63.1596C33.5841 63.3386 33.3248 63.4375 33.0561 63.4375Z" stroke="white" stroke-width="0.5"/>
</g>
<path id="Vector_3" d="M54.1582 53.2731L55.7048 51.7266L58.986 55.0078L57.4395 56.5544L54.1582 53.2731Z" fill="#171717" stroke="white" stroke-width="0.5"/>
<path id="Vector_4" d="M66.9607 67.8123C66.6706 67.8122 66.3925 67.6969 66.1874 67.4918L56.3437 57.648C56.1386 57.4429 56.0234 57.1648 56.0234 56.8748C56.0234 56.5847 56.1386 56.3066 56.3437 56.1015L58.5312 53.914C58.7363 53.7089 59.0144 53.5938 59.3045 53.5938C59.5945 53.5938 59.8726 53.7089 60.0777 53.914L69.9215 63.7577C70.1265 63.9628 70.2417 64.241 70.2417 64.531C70.2417 64.821 70.1265 65.0992 69.9215 65.3043L67.734 67.4918C67.5289 67.6969 67.2508 67.8122 66.9607 67.8123ZM58.6635 56.8748L66.9607 65.1719L67.6016 64.531L59.3045 56.2338L58.6635 56.8748Z" fill="#171717" stroke="white" stroke-width="0.5"/>
</g>
<circle id="Ellipse 1961" cx="46.2441" cy="43.75" r="11" fill="#FFD220"/>
</g>
<defs>
<clipPath id="clip0_1564_17127">
<rect width="70" height="70" fill="white" transform="translate(0.244141)"/>
</clipPath>
</defs>
</svg>
