<svg width="71" height="70" viewBox="0 0 71 70" fill="none" xmlns="http://www.w3.org/2000/svg">
<g id="Search results for Money - Flaticon-12 1">
<path id="Vector" d="M56.5326 36.8486C56.2827 36.8486 56.043 36.9479 55.8663 37.1246C55.6896 37.3014 55.5903 37.5411 55.5903 37.791C55.5903 38.4508 55.0536 38.9875 54.3937 38.9875C53.7341 38.9875 53.1972 38.4508 53.1972 37.791C53.1972 37.5411 53.0979 37.3014 52.9212 37.1246C52.7445 36.9479 52.5048 36.8486 52.2548 36.8486C52.0049 36.8486 51.7652 36.9479 51.5885 37.1246C51.4118 37.3014 51.3125 37.5411 51.3125 37.791C51.3125 39.49 52.6948 40.8722 54.3937 40.8722C56.0927 40.8722 57.475 39.4899 57.475 37.791C57.475 37.6672 57.4506 37.5447 57.4033 37.4303C57.3559 37.316 57.2865 37.2121 57.199 37.1246C57.1115 37.0371 57.0076 36.9677 56.8933 36.9203C56.779 36.873 56.6564 36.8486 56.5326 36.8486Z" fill="#171717" stroke="white" stroke-width="0.5"/>
<g id="Subtract">
<path fill-rule="evenodd" clip-rule="evenodd" d="M43.3568 23.2808C43.4995 23.3099 43.6413 23.3397 43.7819 23.3702C44.1204 23.4437 44.4573 23.5226 44.7912 23.6055L44.7876 23.6194C44.7783 23.6557 44.769 23.692 44.7612 23.7289C44.3016 25.9099 44.3315 27.8389 44.8499 29.4619C45.3158 30.9208 46.1567 32.1027 47.349 32.9749C48.7542 34.0029 50.4507 34.4469 51.9875 34.4469C53.1441 34.4469 54.2104 34.1953 54.9935 33.7517C55.8793 33.25 56.6214 32.1928 57.2089 30.6056C57.4786 30.9201 57.736 31.245 57.9804 31.5796C58.964 32.927 59.7148 34.412 60.2121 35.9932C60.5041 36.9219 61.2291 37.6526 62.1512 37.9482L64.8036 38.7978C65.1418 38.9053 65.4371 39.1178 65.6463 39.4046C65.8555 39.6913 65.9679 40.0372 65.9671 40.3922V44.7902C65.9679 45.1452 65.8555 45.4911 65.6463 45.7779C65.4371 46.0646 65.1418 46.2771 64.8036 46.3846L60.5302 47.7534C59.8465 47.9725 59.2679 48.4424 58.901 49.0765C57.222 51.9781 54.5824 54.3791 51.055 56.2131C50.8551 56.3162 50.6814 56.4635 50.5471 56.6439C50.4129 56.8243 50.3216 57.0329 50.2802 57.254L48.9115 64.5012C48.8931 64.5981 48.8415 64.6855 48.7656 64.7484C48.6896 64.8112 48.5942 64.8457 48.4956 64.8457H44.0454C43.9468 64.8457 43.8513 64.8112 43.7754 64.7484C43.6995 64.6855 43.6478 64.5981 43.6294 64.5012L42.8713 60.496C42.8006 60.1175 42.5852 59.7814 42.2709 59.5591C41.9565 59.3368 41.5679 59.2456 41.1875 59.305C39.2705 59.5949 37.2953 59.7417 35.3169 59.7417C33.845 59.7417 32.392 59.6596 30.9979 59.4976C30.227 59.4089 29.5089 59.9344 29.3648 60.6955L28.6445 64.5012C28.626 64.5981 28.5744 64.6855 28.4985 64.7484C28.4226 64.8112 28.3271 64.8457 28.2285 64.8457H23.7783C23.6792 64.8455 23.5834 64.8107 23.5073 64.7472C23.4312 64.6837 23.3798 64.5956 23.3618 64.4982L22.044 57.6532C22.0023 57.4358 21.9124 57.2304 21.7808 57.0524C21.6492 56.8743 21.4793 56.7281 21.2836 56.6244C15.2706 53.4144 12.0924 48.0515 12.0924 41.1157C12.0924 37.6114 12.8591 34.5127 14.371 31.9054C15.782 29.4721 17.8427 27.4604 20.496 25.9256C20.7123 25.8004 20.8701 25.5944 20.9346 25.3529C20.999 25.1115 20.965 24.8542 20.8398 24.6379C20.7146 24.4216 20.5087 24.2639 20.2672 24.1994C20.0258 24.1349 19.7686 24.1689 19.5522 24.294C14.4075 27.2701 11.3045 31.8616 10.4501 37.6932C10.436 37.692 10.4218 37.6907 10.4077 37.6894C10.3311 37.6825 10.2545 37.6756 10.1782 37.6677C10.1947 37.0385 10.0808 36.4036 9.83295 35.7874C9.28621 34.4284 8.16313 33.4474 6.97163 33.2885C6.0327 33.1627 5.13917 33.5614 4.51908 34.3807C3.61999 35.5688 3.76657 36.509 4.04772 37.0884C4.52237 38.0665 5.74245 38.7583 7.76715 39.1932C7.7094 39.2795 7.64805 39.3633 7.58325 39.4444C6.38695 40.9447 4.97754 41.2765 4.06239 41.3077C3.52665 41.3258 3.09766 41.7559 3.09766 42.292V42.2966C3.09766 42.8254 3.51489 43.2566 4.04316 43.2808C4.11083 43.284 4.18153 43.2856 4.25513 43.2856C5.41311 43.2856 7.27163 42.8585 9.05716 40.6196C9.33907 40.2662 9.56875 39.8934 9.7453 39.5081C9.92312 39.5282 10.094 39.5454 10.2576 39.5606L10.2578 39.5596C10.2248 40.0776 10.2081 40.5966 10.2078 41.1157C10.2078 45.0399 11.1433 48.5388 12.9882 51.5155C14.6892 54.26 17.1247 56.5072 20.2294 58.1971L21.5105 64.8516C21.7166 65.9402 22.6703 66.7304 23.7783 66.7304H28.2285C29.3365 66.7304 30.2902 65.9402 30.4963 64.8516L31.1476 61.4105C32.5004 61.5538 33.9009 61.6264 35.3168 61.6264C37.2594 61.6264 39.1997 61.4911 41.0907 61.2239L41.7774 64.8518C41.9835 65.9405 42.9372 66.7306 44.0451 66.7306H48.4953C49.6033 66.7306 50.5571 65.9404 50.7632 64.8513L52.0959 57.7953C55.8607 55.8045 58.6985 53.1893 60.5321 50.0204C60.6642 49.792 60.8677 49.6244 61.105 49.5484L65.3783 48.1796C66.0974 47.951 66.7249 47.4991 67.1696 46.8896C67.6144 46.28 67.8533 45.5446 67.8515 44.79V40.3919C67.8533 39.6374 67.6144 38.902 67.1696 38.2925C66.7249 37.683 66.0974 37.2312 65.3783 37.0027L62.7259 36.1531C62.3862 36.0442 62.1184 35.773 62.0098 35.4276C61.4508 33.6503 60.6072 31.9817 59.5025 30.4681C58.999 29.7782 58.4391 29.1194 57.8275 28.4922C58.2188 26.7756 58.4315 24.8329 58.4039 23.1545C58.3645 20.7534 57.8846 19.3451 56.9371 18.8488C56.4268 18.5812 54.8737 17.7683 46.4675 21.6163C46.2705 21.7068 46.0838 21.818 45.9104 21.9481C45.4024 21.8116 44.8916 21.6861 44.3783 21.5717L43.3568 23.2808ZM54.0644 32.1116C55.042 31.5579 56.015 28.9045 56.3777 25.8027C56.7439 22.6722 56.3457 20.8332 56.0422 20.5097C55.9666 20.4801 55.853 20.464 55.7005 20.464C54.6899 20.464 51.9699 21.1704 47.252 23.33C46.9187 23.4825 46.6769 23.7771 46.6052 24.1174C45.8913 27.5061 46.5331 30.0429 48.4616 31.4536C50.3877 32.8626 52.9532 32.7411 54.0644 32.1116ZM6.02221 35.5179C5.87626 35.7109 5.64608 36.0644 5.74359 36.2655C5.96352 36.7194 6.97707 37.1091 8.28164 37.3793C8.26376 37.0745 8.19719 36.7744 8.08447 36.4906C7.76285 35.6912 7.15578 35.2144 6.72248 35.1566C6.69339 35.1527 6.66165 35.1499 6.62763 35.1499C6.46663 35.1499 6.25352 35.2124 6.02221 35.5179Z" fill="#171717"/>
<path d="M43.3568 23.2808L43.2281 23.2038L43.1195 23.3854L43.3268 23.4277L43.3568 23.2808ZM43.7819 23.3702L43.8138 23.2236L43.8138 23.2236L43.7819 23.3702ZM44.7912 23.6055L44.9365 23.6428L44.9741 23.4963L44.8273 23.4599L44.7912 23.6055ZM44.7876 23.6194L44.9329 23.6568L44.9329 23.6567L44.7876 23.6194ZM44.7612 23.7289L44.908 23.7598L44.908 23.7597L44.7612 23.7289ZM44.8499 29.4619L44.9928 29.4163L44.9928 29.4163L44.8499 29.4619ZM47.349 32.9749L47.2604 33.096L47.2604 33.096L47.349 32.9749ZM54.9935 33.7517L55.0674 33.8822V33.8822L54.9935 33.7517ZM57.2089 30.6056L57.3228 30.5079L57.1567 30.3144L57.0682 30.5535L57.2089 30.6056ZM57.9804 31.5796L58.1015 31.4911L58.1015 31.4911L57.9804 31.5796ZM60.2121 35.9932L60.3552 35.9482L60.3552 35.9482L60.2121 35.9932ZM62.1512 37.9482L62.1054 38.0911L62.1054 38.0911L62.1512 37.9482ZM64.8036 38.7978L64.7578 38.9407L64.7581 38.9408L64.8036 38.7978ZM65.6463 39.4046L65.7675 39.3161L65.6463 39.4046ZM65.9671 40.3922L65.8171 40.3918V40.3922H65.9671ZM65.9671 44.7902H65.8171L65.8171 44.7906L65.9671 44.7902ZM65.6463 45.7779L65.7675 45.8663V45.8663L65.6463 45.7779ZM64.8036 46.3846L64.7581 46.2416L64.7578 46.2417L64.8036 46.3846ZM60.5302 47.7534L60.4844 47.6105L60.4844 47.6105L60.5302 47.7534ZM58.901 49.0765L59.0308 49.1516V49.1516L58.901 49.0765ZM51.055 56.2131L51.1237 56.3464L51.1242 56.3462L51.055 56.2131ZM50.5471 56.6439L50.4268 56.5543L50.4268 56.5543L50.5471 56.6439ZM50.2802 57.254L50.4276 57.2818L50.4277 57.2816L50.2802 57.254ZM48.9115 64.5012L49.0589 64.5293L49.0589 64.5291L48.9115 64.5012ZM48.4956 64.8457V64.9957H48.4957L48.4956 64.8457ZM44.0454 64.8457L44.0453 64.9957H44.0454V64.8457ZM43.6294 64.5012L43.482 64.5291L43.4821 64.5293L43.6294 64.5012ZM42.8713 60.496L42.7239 60.5235L42.724 60.5239L42.8713 60.496ZM42.2709 59.5591L42.1842 59.6816H42.1842L42.2709 59.5591ZM41.1875 59.305L41.2099 59.4533L41.2106 59.4532L41.1875 59.305ZM30.9979 59.4976L31.0152 59.3486L31.015 59.3486L30.9979 59.4976ZM29.3648 60.6955L29.5122 60.7234V60.7234L29.3648 60.6955ZM28.6445 64.5012L28.7918 64.5293L28.7918 64.5291L28.6445 64.5012ZM28.4985 64.7484L28.5942 64.8639L28.4985 64.7484ZM28.2285 64.8457V64.9957H28.2286L28.2285 64.8457ZM23.7783 64.8457L23.778 64.9957H23.7783V64.8457ZM23.5073 64.7472L23.6034 64.632L23.6034 64.632L23.5073 64.7472ZM23.3618 64.4982L23.5094 64.471L23.5091 64.4698L23.3618 64.4982ZM22.044 57.6532L21.8967 57.6815L21.8967 57.6816L22.044 57.6532ZM21.7808 57.0524L21.9014 56.9632L21.7808 57.0524ZM21.2836 56.6244L21.213 56.7567L21.2134 56.7569L21.2836 56.6244ZM14.371 31.9054L14.5008 31.9806L14.5008 31.9806L14.371 31.9054ZM20.496 25.9256L20.5711 26.0555L20.5711 26.0554L20.496 25.9256ZM20.9346 25.3529L21.0795 25.3916L20.9346 25.3529ZM20.8398 24.6379L20.9697 24.5628L20.9697 24.5627L20.8398 24.6379ZM20.2672 24.1994L20.3059 24.0545L20.2672 24.1994ZM19.5522 24.294L19.4772 24.1641L19.4771 24.1641L19.5522 24.294ZM10.4501 37.6932L10.4366 37.8426L10.578 37.8554L10.5985 37.715L10.4501 37.6932ZM10.4077 37.6894L10.4212 37.54H10.4212L10.4077 37.6894ZM10.1782 37.6677L10.0283 37.6638L10.0246 37.8026L10.1628 37.8169L10.1782 37.6677ZM9.83295 35.7874L9.69379 35.8434L9.69379 35.8434L9.83295 35.7874ZM6.97163 33.2885L6.95173 33.4371L6.9518 33.4371L6.97163 33.2885ZM4.51908 34.3807L4.39948 34.2901L4.39947 34.2902L4.51908 34.3807ZM4.04772 37.0884L3.91276 37.1539L3.91277 37.1539L4.04772 37.0884ZM7.76715 39.1932L7.8918 39.2766L8.01474 39.093L7.79865 39.0466L7.76715 39.1932ZM7.58325 39.4444L7.46606 39.3507L7.46597 39.3509L7.58325 39.4444ZM4.06239 41.3077L4.06745 41.4576L4.06751 41.4576L4.06239 41.3077ZM4.04316 43.2808L4.05017 43.131L4.05002 43.131L4.04316 43.2808ZM9.05716 40.6196L8.93991 40.526L8.93989 40.526L9.05716 40.6196ZM9.7453 39.5081L9.76216 39.3591L9.6542 39.3469L9.60894 39.4456L9.7453 39.5081ZM10.2576 39.5606L10.2438 39.71L10.3885 39.7234L10.4065 39.5792L10.2576 39.5606ZM10.2578 39.5596L10.4075 39.5691L10.1089 39.541L10.2578 39.5596ZM10.2078 41.1157L10.0578 41.1156V41.1157H10.2078ZM12.9882 51.5155L12.8607 51.5946L12.8607 51.5946L12.9882 51.5155ZM20.2294 58.1971L20.3767 58.1687L20.3633 58.0992L20.3011 58.0653L20.2294 58.1971ZM21.5105 64.8516L21.6579 64.8237L21.6578 64.8232L21.5105 64.8516ZM30.4963 64.8516L30.3489 64.8237L30.3489 64.8237L30.4963 64.8516ZM31.1476 61.4105L31.1634 61.2613L31.0259 61.2468L31.0002 61.3826L31.1476 61.4105ZM41.0907 61.2239L41.2381 61.1961L41.2115 61.0554L41.0698 61.0754L41.0907 61.2239ZM41.7774 64.8518L41.63 64.8797L41.63 64.8797L41.7774 64.8518ZM50.7632 64.8513L50.9106 64.8792L50.9106 64.8791L50.7632 64.8513ZM52.0959 57.7953L52.0257 57.6627L51.9619 57.6964L51.9485 57.7674L52.0959 57.7953ZM60.5321 50.0204L60.4023 49.9453L60.5321 50.0204ZM61.105 49.5484L61.0592 49.4055L61.0592 49.4055L61.105 49.5484ZM65.3783 48.1796L65.3328 48.0366L65.3325 48.0367L65.3783 48.1796ZM67.1696 46.8896L67.0485 46.8011H67.0485L67.1696 46.8896ZM67.8515 44.79H67.7015V44.7903L67.8515 44.79ZM67.8515 40.3919L67.7015 40.3916V40.3919H67.8515ZM67.1696 38.2925L67.0485 38.3809L67.1696 38.2925ZM65.3783 37.0027L65.3325 37.1455L65.3328 37.1457L65.3783 37.0027ZM62.7259 36.1531L62.6801 36.2959L62.6801 36.2959L62.7259 36.1531ZM62.0098 35.4276L61.8667 35.4726V35.4726L62.0098 35.4276ZM59.5025 30.4681L59.3813 30.5565L59.3813 30.5566L59.5025 30.4681ZM57.8275 28.4922L57.6812 28.4589L57.6631 28.5385L57.7201 28.597L57.8275 28.4922ZM58.4039 23.1545L58.5539 23.152V23.152L58.4039 23.1545ZM56.9371 18.8488L56.8674 18.9817L56.8675 18.9817L56.9371 18.8488ZM46.4675 21.6163L46.405 21.4799L46.4048 21.48L46.4675 21.6163ZM45.9104 21.9481L45.8714 22.0929L45.9419 22.1119L46.0003 22.0681L45.9104 21.9481ZM44.3783 21.5717L44.411 21.4253L44.3052 21.4017L44.2496 21.4947L44.3783 21.5717ZM56.3777 25.8027L56.2287 25.7853V25.7853L56.3777 25.8027ZM54.0644 32.1116L53.9905 31.9811L53.9905 31.9811L54.0644 32.1116ZM56.0422 20.5097L56.1516 20.407L56.1284 20.3823L56.0968 20.37L56.0422 20.5097ZM47.252 23.33L47.3144 23.4664L47.3144 23.4664L47.252 23.33ZM46.6052 24.1174L46.4584 24.0865V24.0865L46.6052 24.1174ZM48.4616 31.4536L48.5501 31.3325V31.3325L48.4616 31.4536ZM5.74359 36.2655L5.87858 36.2001L5.87856 36.2L5.74359 36.2655ZM6.02221 35.5179L5.90261 35.4274L5.90256 35.4274L6.02221 35.5179ZM8.28164 37.3793L8.25121 37.5262L8.44283 37.5659L8.43138 37.3706L8.28164 37.3793ZM8.08447 36.4906L8.22387 36.4352L8.22363 36.4346L8.08447 36.4906ZM6.72248 35.1566L6.70245 35.3052L6.70265 35.3053L6.72248 35.1566ZM43.3268 23.4277C43.4689 23.4567 43.6101 23.4864 43.7501 23.5168L43.8138 23.2236C43.6725 23.193 43.5301 23.163 43.3868 23.1338L43.3268 23.4277ZM43.7501 23.5168C44.087 23.59 44.4225 23.6685 44.7551 23.7511L44.8273 23.4599C44.4922 23.3767 44.1538 23.2975 43.8138 23.2236L43.7501 23.5168ZM44.6459 23.5682L44.6423 23.5821L44.9329 23.6567L44.9365 23.6428L44.6459 23.5682ZM44.6423 23.5821C44.6331 23.6179 44.623 23.6574 44.6144 23.6981L44.908 23.7597C44.915 23.7266 44.9234 23.6936 44.9329 23.6568L44.6423 23.5821ZM44.6144 23.698C44.1511 25.8968 44.1786 27.8533 44.707 29.5075L44.9928 29.4163C44.4843 27.8245 44.4522 25.923 44.908 23.7598L44.6144 23.698ZM44.707 29.5075C45.1822 30.9955 46.0415 32.2042 47.2604 33.096L47.4375 32.8539C46.2719 32.0011 45.4494 30.846 44.9928 29.4163L44.707 29.5075ZM47.2604 33.096C48.695 34.1454 50.4237 34.5969 51.9875 34.5969V34.2969C50.4778 34.2969 48.8134 33.8604 47.4375 32.8539L47.2604 33.096ZM51.9875 34.5969C53.1636 34.5969 54.2568 34.3414 55.0674 33.8822L54.9196 33.6212C54.1639 34.0492 53.1245 34.2969 51.9875 34.2969V34.5969ZM55.0674 33.8822C55.9989 33.3547 56.7574 32.2575 57.3496 30.6577L57.0682 30.5535C56.4854 32.1282 55.7597 33.1454 54.9196 33.6212L55.0674 33.8822ZM57.095 30.7032C57.3622 31.0148 57.6171 31.3366 57.8593 31.668L58.1015 31.4911C57.8548 31.1534 57.595 30.8254 57.3228 30.5079L57.095 30.7032ZM57.8592 31.668C58.8332 33.0023 59.5767 34.4727 60.069 36.0382L60.3552 35.9482C59.853 34.3514 59.0947 32.8517 58.1015 31.4911L57.8592 31.668ZM60.069 36.0382C60.3756 37.0131 61.1366 37.7805 62.1054 38.0911L62.197 37.8054C61.3215 37.5248 60.6327 36.8307 60.3552 35.9482L60.069 36.0382ZM62.1054 38.0911L64.7578 38.9407L64.8493 38.655L62.1969 37.8054L62.1054 38.0911ZM64.7581 38.9408C65.066 39.0386 65.3347 39.232 65.5251 39.493L65.7675 39.3161C65.5394 39.0036 65.2177 38.772 64.849 38.6549L64.7581 38.9408ZM65.5251 39.493C65.7156 39.7539 65.8179 40.0688 65.8171 40.3918L66.1171 40.3925C66.118 40.0057 65.9955 39.6286 65.7675 39.3161L65.5251 39.493ZM65.8171 40.3922V44.7902H66.1171V40.3922H65.8171ZM65.8171 44.7906C65.8179 45.1136 65.7156 45.4285 65.5251 45.6894L65.7675 45.8663C65.9955 45.5538 66.118 45.1767 66.1171 44.7899L65.8171 44.7906ZM65.5251 45.6894C65.3347 45.9504 65.066 46.1438 64.7581 46.2416L64.849 46.5275C65.2177 46.4104 65.5394 46.1788 65.7675 45.8663L65.5251 45.6894ZM64.7578 46.2417L60.4844 47.6105L60.5759 47.8962L64.8493 46.5274L64.7578 46.2417ZM60.4844 47.6105C59.7645 47.8413 59.1563 48.3358 58.7711 49.0014L59.0308 49.1516C59.3795 48.549 59.9285 48.1038 60.576 47.8962L60.4844 47.6105ZM58.7711 49.0014C57.109 51.874 54.4927 54.2567 50.9858 56.08L51.1242 56.3462C54.6722 54.5015 57.3351 52.0821 59.0308 49.1516L58.7711 49.0014ZM50.9863 56.0798C50.7661 56.1933 50.5747 56.3556 50.4268 56.5543L50.6675 56.7334C50.7881 56.5714 50.9442 56.439 51.1237 56.3464L50.9863 56.0798ZM50.4268 56.5543C50.2789 56.753 50.1783 56.9829 50.1328 57.2264L50.4277 57.2816C50.4648 57.083 50.5468 56.8955 50.6675 56.7334L50.4268 56.5543ZM50.1328 57.2261L48.7641 64.4734L49.0589 64.5291L50.4276 57.2818L50.1328 57.2261ZM48.7642 64.4732C48.7523 64.5358 48.7189 64.5922 48.6699 64.6328L48.8612 64.8639C48.9641 64.7787 49.034 64.6604 49.0589 64.5293L48.7642 64.4732ZM48.6699 64.6328C48.6208 64.6735 48.5592 64.6957 48.4955 64.6957L48.4957 64.9957C48.6292 64.9957 48.7584 64.949 48.8612 64.8639L48.6699 64.6328ZM48.4956 64.6957H44.0454V64.9957H48.4956V64.6957ZM44.0455 64.6957C43.9818 64.6957 43.9201 64.6735 43.8711 64.6328L43.6797 64.8639C43.7825 64.949 43.9118 64.9957 44.0453 64.9957L44.0455 64.6957ZM43.8711 64.6328C43.822 64.5922 43.7887 64.5358 43.7768 64.4732L43.4821 64.5293C43.507 64.6604 43.5769 64.7787 43.6797 64.8639L43.8711 64.6328ZM43.7768 64.4733L43.0187 60.4681L42.724 60.5239L43.482 64.5291L43.7768 64.4733ZM43.0188 60.4684C42.9409 60.0516 42.7037 59.6815 42.3575 59.4366L42.1842 59.6816C42.4668 59.8814 42.6603 60.1834 42.7239 60.5235L43.0188 60.4684ZM42.3575 59.4366C42.0113 59.1918 41.5833 59.0914 41.1644 59.1568L41.2106 59.4532C41.5525 59.3998 41.9017 59.4817 42.1842 59.6816L42.3575 59.4366ZM41.1651 59.1567C39.2557 59.4454 37.288 59.5917 35.3169 59.5917V59.8917C37.3027 59.8917 39.2854 59.7443 41.2099 59.4533L41.1651 59.1567ZM35.3169 59.5917C33.8505 59.5917 32.4033 59.5099 31.0152 59.3486L30.9805 59.6466C32.3807 59.8093 33.8395 59.8917 35.3169 59.8917V59.5917ZM31.015 59.3486C30.1666 59.251 29.3762 59.8287 29.2175 60.6676L29.5122 60.7234C29.6416 60.0401 30.2874 59.5669 30.9807 59.6466L31.015 59.3486ZM29.2175 60.6676L28.4971 64.4733L28.7918 64.5291L29.5122 60.7234L29.2175 60.6676ZM28.4971 64.4732C28.4852 64.5358 28.4519 64.5922 28.4028 64.6328L28.5942 64.8639C28.697 64.7787 28.7669 64.6604 28.7918 64.5293L28.4971 64.4732ZM28.4028 64.6328C28.3538 64.6735 28.2921 64.6957 28.2284 64.6957L28.2286 64.9957C28.3621 64.9957 28.4914 64.949 28.5942 64.8639L28.4028 64.6328ZM28.2285 64.6957H23.7783V64.9957H28.2285V64.6957ZM23.7786 64.6957C23.7146 64.6956 23.6526 64.673 23.6034 64.632L23.4112 64.8623C23.5141 64.9483 23.6439 64.9954 23.778 64.9957L23.7786 64.6957ZM23.6034 64.632C23.5542 64.591 23.521 64.534 23.5093 64.471L23.2143 64.5254C23.2386 64.6572 23.3083 64.7764 23.4112 64.8623L23.6034 64.632ZM23.5091 64.4698L22.1913 57.6249L21.8967 57.6816L23.2145 64.5266L23.5091 64.4698ZM22.1913 57.625C22.1454 57.3855 22.0464 57.1594 21.9014 56.9632L21.6601 57.1415C21.7784 57.3015 21.8592 57.4861 21.8967 57.6815L22.1913 57.625ZM21.9014 56.9632C21.7565 56.7671 21.5694 56.606 21.3539 56.4919L21.2134 56.7569C21.3892 56.8501 21.5419 56.9815 21.6601 57.1415L21.9014 56.9632ZM21.3543 56.4921C15.3912 53.3087 12.2424 47.9973 12.2424 41.1157H11.9424C11.9424 48.1056 15.1501 53.5201 21.213 56.7567L21.3543 56.4921ZM12.2424 41.1157C12.2424 37.6335 13.0041 34.5616 14.5008 31.9806L14.2413 31.8301C12.714 34.4638 11.9424 37.5893 11.9424 41.1157H12.2424ZM14.5008 31.9806C15.8974 29.5721 17.9384 27.5783 20.5711 26.0555L20.4209 25.7958C17.747 27.3424 15.6665 29.3722 14.2413 31.8301L14.5008 31.9806ZM20.5711 26.0554C20.8219 25.9103 21.0047 25.6716 21.0795 25.3916L20.7896 25.3142C20.7354 25.5173 20.6028 25.6905 20.4208 25.7958L20.5711 26.0554ZM21.0795 25.3916C21.1542 25.1117 21.1147 24.8136 20.9697 24.5628L20.71 24.713C20.8152 24.8949 20.8439 25.1112 20.7896 25.3142L21.0795 25.3916ZM20.9697 24.5627C20.8245 24.312 20.5858 24.1292 20.3059 24.0545L20.2285 24.3443C20.4315 24.3985 20.6047 24.5312 20.71 24.713L20.9697 24.5627ZM20.3059 24.0545C20.0261 23.9797 19.728 24.0192 19.4772 24.1641L19.6273 24.4239C19.8092 24.3187 20.0255 24.2901 20.2285 24.3443L20.3059 24.0545ZM19.4771 24.1641C14.2927 27.1632 11.1627 31.7945 10.3017 37.6715L10.5985 37.715C11.4462 31.9287 14.5222 27.3771 19.6273 24.4238L19.4771 24.1641ZM10.4637 37.5439C10.4495 37.5426 10.4353 37.5413 10.4212 37.54L10.3942 37.8388C10.4084 37.8401 10.4225 37.8414 10.4366 37.8426L10.4637 37.5439ZM10.4212 37.54C10.3444 37.5331 10.2688 37.5263 10.1937 37.5185L10.1628 37.8169C10.2402 37.8249 10.3178 37.8319 10.3942 37.8388L10.4212 37.54ZM10.3282 37.6716C10.3452 37.0214 10.2275 36.3662 9.97211 35.7314L9.69379 35.8434C9.9342 36.441 10.0442 37.0556 10.0283 37.6638L10.3282 37.6716ZM9.97211 35.7314C9.4104 34.3352 8.24906 33.3076 6.99147 33.1398L6.9518 33.4371C8.0772 33.5873 9.16201 34.5215 9.69379 35.8434L9.97211 35.7314ZM6.99154 33.1398C5.99358 33.0062 5.04874 33.4323 4.39948 34.2901L4.63868 34.4712C5.22961 33.6904 6.07183 33.3193 6.95173 33.4371L6.99154 33.1398ZM4.39947 34.2902C3.93563 34.9031 3.73486 35.4613 3.6914 35.9495C3.64797 36.4373 3.76259 36.8444 3.91276 37.1539L4.18267 37.023C4.05169 36.753 3.95245 36.4002 3.99022 35.9761C4.02795 35.5522 4.20344 35.0463 4.63869 34.4712L4.39947 34.2902ZM3.91277 37.1539C4.41987 38.1988 5.70336 38.9033 7.73564 39.3399L7.79865 39.0466C5.78153 38.6132 4.62487 37.9341 4.18266 37.023L3.91277 37.1539ZM7.64249 39.1098C7.58709 39.1925 7.52823 39.2729 7.46606 39.3507L7.70045 39.538C7.76787 39.4536 7.83171 39.3664 7.8918 39.2766L7.64249 39.1098ZM7.46597 39.3509C6.30314 40.8092 4.93946 41.1277 4.05727 41.1578L4.06751 41.4576C5.01562 41.4252 6.47076 41.0802 7.70054 39.5379L7.46597 39.3509ZM4.05733 41.1578C3.44341 41.1785 2.94766 41.6724 2.94766 42.292H3.24766C3.24766 41.8394 3.60989 41.4731 4.06745 41.4576L4.05733 41.1578ZM2.94766 42.292V42.2966H3.24766V42.292H2.94766ZM2.94766 42.2966C2.94766 42.9066 3.42901 43.4029 4.03631 43.4306L4.05002 43.131C3.60077 43.1104 3.24766 42.7441 3.24766 42.2966H2.94766ZM4.03616 43.4306C4.10627 43.4339 4.1793 43.4356 4.25513 43.4356V43.1356C4.18375 43.1356 4.11539 43.134 4.05017 43.131L4.03616 43.4306ZM4.25513 43.4356C5.4556 43.4356 7.35852 42.9901 9.17444 40.7131L8.93989 40.526C7.18473 42.7269 5.37063 43.1356 4.25513 43.1356V43.4356ZM9.17442 40.7131C9.46365 40.3506 9.69984 39.9673 9.88166 39.5706L9.60894 39.4456C9.43765 39.8194 9.21449 40.1818 8.93991 40.526L9.17442 40.7131ZM9.72845 39.6572C9.90744 39.6774 10.0793 39.6947 10.2438 39.71L10.2715 39.4112C10.1087 39.3961 9.93881 39.379 9.76216 39.3591L9.72845 39.6572ZM10.4065 39.5792L10.4066 39.5782L10.1089 39.541L10.1088 39.542L10.4065 39.5792ZM10.1081 39.5501C10.0749 40.0713 10.0581 40.5934 10.0578 41.1156L10.3578 41.1158C10.3581 40.5999 10.3747 40.084 10.4075 39.5691L10.1081 39.5501ZM10.0578 41.1157C10.0578 45.0644 10.9994 48.5913 12.8607 51.5946L13.1157 51.4365C11.2873 48.4862 10.3578 45.0154 10.3578 41.1157H10.0578ZM12.8607 51.5946C14.5767 54.3632 17.0324 56.6277 20.1576 58.3288L20.3011 58.0653C17.2171 56.3866 14.8017 54.1568 13.1157 51.4365L12.8607 51.5946ZM20.0821 58.2254L21.3632 64.8799L21.6578 64.8232L20.3767 58.1687L20.0821 58.2254ZM21.3631 64.8794C21.5826 66.0389 22.5982 66.8804 23.7783 66.8804V66.5804C22.7424 66.5804 21.8505 65.8415 21.6579 64.8237L21.3631 64.8794ZM23.7783 66.8804H28.2285V66.5804H23.7783V66.8804ZM28.2285 66.8804C29.4086 66.8804 30.4242 66.0389 30.6437 64.8794L30.3489 64.8237C30.1563 65.8415 29.2644 66.5804 28.2285 66.5804V66.8804ZM30.6437 64.8794L31.295 61.4384L31.0002 61.3826L30.3489 64.8237L30.6437 64.8794ZM31.1318 61.5597C32.49 61.7035 33.8958 61.7764 35.3168 61.7764V61.4764C33.906 61.4764 32.5107 61.404 31.1634 61.2613L31.1318 61.5597ZM35.3168 61.7764C37.2663 61.7764 39.2136 61.6406 41.1117 61.3725L41.0698 61.0754C39.1858 61.3415 37.2525 61.4764 35.3168 61.4764V61.7764ZM40.9434 61.2518L41.63 64.8797L41.9247 64.8239L41.2381 61.1961L40.9434 61.2518ZM41.63 64.8797C41.8495 66.0392 42.8651 66.8806 44.0451 66.8806V66.5806C43.0093 66.5806 42.1175 65.8418 41.9247 64.8239L41.63 64.8797ZM44.0451 66.8806H48.4953V66.5806H44.0451V66.8806ZM48.4953 66.8806C49.6755 66.8806 50.6911 66.0391 50.9106 64.8792L50.6158 64.8234C50.4231 65.8416 49.5312 66.5806 48.4953 66.5806V66.8806ZM50.9106 64.8791L52.2433 57.8231L51.9485 57.7674L50.6158 64.8235L50.9106 64.8791ZM52.166 57.9279C55.9516 55.9261 58.812 53.2925 60.6619 50.0955L60.4023 49.9453C58.5849 53.086 55.7698 55.6829 52.0257 57.6627L52.166 57.9279ZM60.6619 50.0955C60.7766 49.8973 60.9512 49.7552 61.1508 49.6912L61.0592 49.4055C60.7843 49.4936 60.5519 49.6867 60.4023 49.9453L60.6619 50.0955ZM61.1508 49.6912L65.424 48.3224L65.3325 48.0367L61.0592 49.4055L61.1508 49.6912ZM65.4237 48.3225C66.1732 48.0843 66.8272 47.6133 67.2908 46.978L67.0485 46.8011C66.6225 47.3849 66.0215 47.8177 65.3328 48.0366L65.4237 48.3225ZM67.2908 46.978C67.7544 46.3427 68.0033 45.5761 68.0015 44.7896L67.7015 44.7903C67.7032 45.513 67.4744 46.2174 67.0485 46.8011L67.2908 46.978ZM68.0015 44.79V40.3919H67.7015V44.79H68.0015ZM68.0015 40.3923C68.0034 39.6058 67.7544 38.8393 67.2908 38.2041L67.0485 38.3809C67.4744 38.9646 67.7032 39.6689 67.7015 40.3916L68.0015 40.3923ZM67.2908 38.2041C66.8272 37.5688 66.1732 37.0979 65.4237 36.8597L65.3328 37.1457C66.0215 37.3645 66.6225 37.7972 67.0485 38.3809L67.2908 38.2041ZM65.424 36.8598L62.7716 36.0102L62.6801 36.2959L65.3325 37.1455L65.424 36.8598ZM62.7717 36.0102C62.4792 35.9165 62.2472 35.6823 62.1529 35.3826L61.8667 35.4726C61.9897 35.8637 62.2932 36.1719 62.6801 36.2959L62.7717 36.0102ZM62.1529 35.3826C61.5889 33.5896 60.7379 31.9064 59.6236 30.3797L59.3813 30.5566C60.4765 32.0571 61.3126 33.711 61.8667 35.4726L62.1529 35.3826ZM59.6236 30.3797C59.1157 29.6837 58.5512 29.0195 57.9349 28.3875L57.7201 28.597C58.327 29.2193 58.8822 29.8727 59.3813 30.5565L59.6236 30.3797ZM57.9737 28.5256C58.3675 26.7981 58.5817 24.8433 58.5539 23.152L58.254 23.1569C58.2813 24.8225 58.07 26.7532 57.6812 28.4589L57.9737 28.5256ZM58.5539 23.152C58.5341 21.9441 58.4035 20.9742 58.153 20.239C57.9023 19.503 57.5262 18.988 57.0067 18.716L56.8675 18.9817C57.2956 19.2059 57.6331 19.6432 57.8691 20.3357C58.1053 21.029 58.2343 21.9638 58.254 23.1569L58.5539 23.152ZM57.0068 18.716C56.8726 18.6457 56.6631 18.5363 56.2909 18.479C55.9225 18.4222 55.4014 18.4172 54.6392 18.5411C53.1167 18.7886 50.6127 19.5538 46.405 21.4799L46.5299 21.7527C50.7285 19.8307 53.2041 19.0784 54.6873 18.8373C55.428 18.7169 55.9162 18.7248 56.2452 18.7755C56.5705 18.8256 56.7464 18.9182 56.8674 18.9817L57.0068 18.716ZM46.4048 21.48C46.1982 21.575 46.0023 21.6916 45.8204 21.828L46.0003 22.0681C46.1652 21.9444 46.3428 21.8387 46.5301 21.7526L46.4048 21.48ZM45.9493 21.8032C45.4393 21.6662 44.9264 21.5402 44.411 21.4253L44.3457 21.7181C44.8569 21.832 45.3656 21.957 45.8714 22.0929L45.9493 21.8032ZM43.4856 23.3577L44.5071 21.6487L44.2496 21.4947L43.2281 23.2038L43.4856 23.3577ZM56.2287 25.7853C56.0485 27.3267 55.7169 28.7538 55.3108 29.8611C55.1078 30.4149 54.8873 30.8853 54.6601 31.249C54.4311 31.6155 54.2031 31.8607 53.9905 31.9811L54.1383 32.2422C54.4145 32.0857 54.6748 31.7916 54.9145 31.4079C55.156 31.0215 55.3848 30.5308 55.5925 29.9644C56.008 28.8311 56.3442 27.3805 56.5267 25.8201L56.2287 25.7853ZM55.9328 20.6123C55.9817 20.6645 56.0559 20.8085 56.1297 21.0732C56.2011 21.3298 56.2666 21.6792 56.3119 22.1189C56.4023 22.9979 56.4107 24.2292 56.2287 25.7853L56.5267 25.8201C56.7108 24.2457 56.7033 22.9922 56.6103 22.0882C56.5638 21.6365 56.4958 21.2697 56.4187 20.9927C56.3438 20.7238 56.2544 20.5167 56.1516 20.407L55.9328 20.6123ZM55.7005 20.614C55.8463 20.614 55.9378 20.6299 55.9875 20.6494L56.0968 20.37C55.9953 20.3303 55.8597 20.314 55.7005 20.314V20.614ZM47.3144 23.4664C49.6694 22.3884 51.5232 21.6743 52.9122 21.23C54.3058 20.7843 55.2198 20.614 55.7005 20.614V20.314C55.1706 20.314 54.2193 20.497 52.8208 20.9443C51.4177 21.3931 49.5525 22.112 47.1895 23.1936L47.3144 23.4664ZM46.752 24.1484C46.8133 23.8574 47.0217 23.6004 47.3144 23.4664L47.1895 23.1936C46.8157 23.3647 46.5405 23.6968 46.4584 24.0865L46.752 24.1484ZM48.5501 31.3325C46.6898 29.9717 46.0439 27.5093 46.752 24.1484L46.4584 24.0865C45.7386 27.503 46.3764 30.1141 48.373 31.5747L48.5501 31.3325ZM53.9905 31.9811C53.4678 32.2772 52.5802 32.4632 51.5784 32.3974C50.5802 32.3318 49.4861 32.0172 48.5501 31.3325L48.373 31.5747C49.3632 32.299 50.5149 32.6282 51.5588 32.6967C52.5991 32.765 53.5498 32.5755 54.1383 32.2421L53.9905 31.9811ZM5.87856 36.2C5.87204 36.1866 5.86634 36.1606 5.87363 36.1143C5.88086 36.0684 5.89929 36.0132 5.92776 35.9516C5.98474 35.8283 6.07135 35.7016 6.14185 35.6084L5.90256 35.4274C5.82711 35.5272 5.72566 35.6738 5.65543 35.8257C5.62031 35.9018 5.59035 35.9847 5.57729 36.0677C5.56428 36.1502 5.56637 36.2438 5.60862 36.3309L5.87856 36.2ZM8.31207 37.2325C7.66494 37.0984 7.09586 36.9358 6.66435 36.7531C6.44857 36.6618 6.27116 36.5671 6.13671 36.471C6.00088 36.3739 5.91832 36.2821 5.87858 36.2001L5.6086 36.3309C5.67882 36.4758 5.80543 36.603 5.96227 36.7151C6.12048 36.8281 6.31923 36.9328 6.5474 37.0294C7.00379 37.2226 7.59377 37.39 8.25121 37.5262L8.31207 37.2325ZM7.94506 36.546C8.05188 36.8149 8.11495 37.0992 8.13189 37.3881L8.43138 37.3706C8.41257 37.0497 8.34251 36.7339 8.22387 36.4352L7.94506 36.546ZM6.70265 35.3053C6.87912 35.3288 7.11192 35.4426 7.34381 35.6559C7.5733 35.8669 7.79272 36.1673 7.9453 36.5466L8.22363 36.4346C8.05459 36.0145 7.80967 35.6767 7.54689 35.4351C7.28652 35.1956 6.99914 35.0422 6.74232 35.0079L6.70265 35.3053ZM6.62763 35.2999C6.65347 35.2999 6.67835 35.302 6.70245 35.3052L6.74251 35.0079C6.70844 35.0033 6.66983 34.9999 6.62763 34.9999V35.2999ZM6.1418 35.6085C6.34791 35.3362 6.51858 35.2999 6.62763 35.2999V34.9999C6.41468 34.9999 6.15914 35.0885 5.90261 35.4274L6.1418 35.6085Z" fill="white"/>
</g>
<circle id="Ellipse 1961" cx="32.4648" cy="17.425" r="11" fill="#FFD220"/>
</g>
</svg>
