<svg width="22" height="23" viewBox="0 0 22 23" fill="none" xmlns="http://www.w3.org/2000/svg">
<g id="Location - Free transport icons-2 2" clip-path="url(#clip0_2181_20232)">
<path id="Vector" d="M17.875 22.5H4.125C3.03098 22.5 1.98177 22.0654 1.20818 21.2918C0.434597 20.5182 0 19.469 0 18.375L0 4.625C0 3.53098 0.434597 2.48177 1.20818 1.70818C1.98177 0.934597 3.03098 0.5 4.125 0.5L17.875 0.5C18.969 0.5 20.0182 0.934597 20.7918 1.70818C21.5654 2.48177 22 3.53098 22 4.625V18.375C22 19.469 21.5654 20.5182 20.7918 21.2918C20.0182 22.0654 18.969 22.5 17.875 22.5Z" fill="#FFF8DE"/>
<path id="Vector_2" d="M8.40592 17.5C8.28173 17.5002 8.15927 17.471 8.0485 17.4148C7.93774 17.3587 7.84182 17.2771 7.76857 17.1769L6.80945 15.8623C6.78629 15.831 6.75873 15.8032 6.72763 15.7798L5.32093 14.743C5.22954 14.6754 5.15377 14.5889 5.09879 14.4894C5.0438 14.3899 5.01088 14.2797 5.00227 14.1663C4.99366 14.053 5.00956 13.9391 5.04889 13.8324C5.08821 13.7257 5.15004 13.6288 5.23017 13.5481C5.34715 13.4299 5.49732 13.3499 5.66075 13.319C5.82419 13.2881 5.99318 13.3075 6.14529 13.3749L7.21097 13.8403L9.37879 11.5048C9.41729 11.4629 9.41729 11.4154 9.41385 11.3914C9.41041 11.3673 9.39735 11.3212 9.34785 11.2917L5.61863 9.31847C5.50718 9.25449 5.41214 9.16547 5.34102 9.05844C5.2699 8.9514 5.22465 8.82929 5.20886 8.70176C5.17792 8.44738 5.26386 8.1978 5.44469 8.01699C5.62138 7.83892 5.87234 7.76466 6.11848 7.81967L11.5686 8.97402C11.5924 8.97942 11.6172 8.97859 11.6405 8.9716C11.6639 8.96461 11.6851 8.95171 11.702 8.93414L13.6567 6.85782C13.8657 6.63644 14.2177 6.5065 14.6233 6.50031C15.0379 6.49275 15.4284 6.62475 15.6519 6.84888C15.876 7.07302 16.006 7.45803 15.9998 7.87811C15.9943 8.28374 15.8637 8.63576 15.643 8.84408H15.6423L13.5604 10.8063C13.5424 10.8232 13.5291 10.8445 13.5218 10.8682C13.5146 10.8918 13.5137 10.9169 13.5191 10.941L14.7732 16.4543C14.8317 16.7011 14.7588 16.9582 14.5773 17.139C14.4892 17.2276 14.3822 17.295 14.2643 17.3361C14.1464 17.3772 14.0206 17.391 13.8966 17.3764C13.7726 17.3619 13.6535 17.3193 13.5483 17.252C13.4432 17.1847 13.3547 17.0943 13.2895 16.9878L11.2042 13.1335C11.1836 13.1012 11.1389 13.0888 11.1141 13.0854C11.094 13.0827 11.0735 13.0845 11.0541 13.0907C11.0347 13.0969 11.0169 13.1073 11.0021 13.1212L8.67131 15.2875L9.13677 16.3539C9.27359 16.6674 9.20621 17.027 8.9642 17.269C8.81603 17.4169 8.61526 17.4999 8.40592 17.5Z" fill="url(#paint0_linear_2181_20232)"/>
</g>
<defs>
<linearGradient id="paint0_linear_2181_20232" x1="5" y1="12" x2="16" y2="12" gradientUnits="userSpaceOnUse">
<stop stop-color="#29B662"/>
<stop offset="0.0001" stop-color="#24BD63"/>
<stop offset="1" stop-color="#1A9B4F"/>
</linearGradient>
<clipPath id="clip0_2181_20232">
<rect width="22" height="22" fill="white" transform="translate(0 0.5)"/>
</clipPath>
</defs>
</svg>
