<svg width="22" height="23" viewBox="0 0 22 23" fill="none" xmlns="http://www.w3.org/2000/svg">
<g id="Location - Free transport icons-2 1" clip-path="url(#clip0_2181_20225)">
<path id="Vector" d="M17.875 22.5H4.125C3.03098 22.5 1.98177 22.0654 1.20818 21.2918C0.434597 20.5182 0 19.469 0 18.375L0 4.625C0 3.53098 0.434597 2.48177 1.20818 1.70818C1.98177 0.934597 3.03098 0.5 4.125 0.5L17.875 0.5C18.969 0.5 20.0182 0.934597 20.7918 1.70818C21.5654 2.48177 22 3.53098 22 4.625V18.375C22 19.469 21.5654 20.5182 20.7918 21.2918C20.0182 22.0654 18.969 22.5 17.875 22.5Z" fill="#FFF8DE"/>
<g id="Group 1000003937">
<path id="Vector_2" d="M7.5 5.5C6.12136 5.5 5 6.72266 5 8.22555C5 10.2994 7.16397 12.3167 7.25623 12.4023C7.32395 12.4653 7.41048 12.5 7.5 12.5C7.58952 12.5 7.67605 12.4653 7.74377 12.4023C7.83603 12.3175 10 10.3002 10 8.22555C10.0007 6.72266 8.87864 5.5 7.5 5.5ZM7.5 9.26892C7.24293 9.25579 7.00043 9.1366 6.82281 8.93608C6.64519 8.73556 6.5461 8.46912 6.5461 8.19203C6.5461 7.91495 6.64519 7.6485 6.82281 7.44798C7.00043 7.24746 7.24293 7.12827 7.5 7.11514C7.75707 7.12827 7.99957 7.24746 8.17719 7.44798C8.35481 7.6485 8.45389 7.91495 8.45389 8.19203C8.45389 8.46912 8.35481 8.73556 8.17719 8.93608C7.99957 9.1366 7.75707 9.25579 7.5 9.26892Z" fill="#FFD220"/>
<g id="Group">
<path id="Vector_3" d="M8.7502 15.0008C8.58246 14.9949 8.41526 15.023 8.25858 15.0831C8.10189 15.1433 7.95893 15.2344 7.83821 15.351C7.71749 15.4677 7.62148 15.6074 7.55591 15.7619C7.49034 15.9164 7.45654 16.0825 7.45654 16.2504C7.45654 16.4182 7.49034 16.5843 7.55591 16.7388C7.62148 16.8933 7.71749 17.0331 7.83821 17.1497C7.95893 17.2663 8.10189 17.3574 8.25858 17.4176C8.41526 17.4778 8.58246 17.5058 8.7502 17.5C9.07413 17.4887 9.38103 17.3522 9.60621 17.119C9.8314 16.8859 9.95726 16.5745 9.95726 16.2504C9.95726 15.9262 9.8314 15.6148 9.60621 15.3817C9.38103 15.1485 9.07413 15.012 8.7502 15.0008ZM14.7507 15.0008C14.583 14.9949 14.4158 15.023 14.2591 15.0831C14.1024 15.1433 13.9594 15.2344 13.8387 15.351C13.718 15.4677 13.622 15.6074 13.5564 15.7619C13.4908 15.9164 13.4571 16.0825 13.4571 16.2504C13.4571 16.4182 13.4908 16.5843 13.5564 16.7388C13.622 16.8933 13.718 17.0331 13.8387 17.1497C13.9594 17.2663 14.1024 17.3574 14.2591 17.4176C14.4158 17.4778 14.583 17.5058 14.7507 17.5C15.0746 17.4887 15.3815 17.3522 15.6067 17.119C15.8319 16.8859 15.9578 16.5745 15.9578 16.2504C15.9578 15.9262 15.8319 15.6148 15.6067 15.3817C15.3815 15.1485 15.0746 15.012 14.7507 15.0008Z" fill="url(#paint0_linear_2181_20225)"/>
<path id="Vector_4" d="M12.5003 10.8753V16.1257C12.5003 16.3305 12.33 16.5008 12.1253 16.5008H10.4751C10.4849 16.4205 10.4999 16.3358 10.4999 16.251C10.4999 15.2857 9.71533 14.5004 8.75 14.5004C7.78466 14.5004 7.0001 15.2857 7.0001 16.2503C7.0001 16.335 7.0151 16.4205 7.02485 16.5H6.37454C6.27532 16.4992 6.18039 16.4595 6.11022 16.3893C6.04006 16.3191 6.0003 16.2242 5.99951 16.125V11.3448C6.4398 11.8601 6.83433 12.2052 6.92959 12.2899C7.08883 12.425 7.29084 12.4991 7.49964 12.4991C7.70843 12.4991 7.91045 12.425 8.06969 12.2899C8.20995 12.1647 8.99977 11.4701 9.63957 10.4995H12.1253C12.33 10.5003 12.5003 10.6698 12.5003 10.8753ZM14.6252 12.2749H13.3749C13.2754 12.2749 13.18 12.3144 13.1097 12.3848C13.0394 12.4551 12.9999 12.5505 12.9999 12.6499V16.125C12.9999 16.14 13.0066 16.152 13.0081 16.167C13.0293 15.7187 13.2219 15.2957 13.5463 14.9855C13.8706 14.6753 14.3017 14.5016 14.7505 14.5004C15.2144 14.5009 15.6592 14.6855 15.9872 15.0135C16.3153 15.3416 16.4998 15.7863 16.5004 16.2503C16.5004 16.3358 16.4869 16.4183 16.4749 16.5H16.6249C16.7244 16.5 16.8198 16.4605 16.8901 16.3902C16.9604 16.3198 16.9999 16.2245 16.9999 16.125V14.6504C16.9994 14.0207 16.749 13.4169 16.3038 12.9716C15.8586 12.5263 15.2549 12.2757 14.6252 12.2749Z" fill="url(#paint1_linear_2181_20225)"/>
</g>
</g>
</g>
<defs>
<linearGradient id="paint0_linear_2181_20225" x1="7.45654" y1="16.2504" x2="15.9578" y2="16.2504" gradientUnits="userSpaceOnUse">
<stop stop-color="#29B662"/>
<stop offset="0.0001" stop-color="#24BD63"/>
<stop offset="1" stop-color="#1A9B4F"/>
</linearGradient>
<linearGradient id="paint1_linear_2181_20225" x1="5.99951" y1="13.5001" x2="16.9999" y2="13.5001" gradientUnits="userSpaceOnUse">
<stop stop-color="#29B662"/>
<stop offset="0.0001" stop-color="#24BD63"/>
<stop offset="1" stop-color="#1A9B4F"/>
</linearGradient>
<clipPath id="clip0_2181_20225">
<rect width="22" height="22" fill="white" transform="translate(0 0.5)"/>
</clipPath>
</defs>
</svg>
