<svg width="71" height="70" viewBox="0 0 71 70" fill="none" xmlns="http://www.w3.org/2000/svg">
<g id="Search results for Customers - Flaticon-12 (1) 1">
<g id="Subtract">
<path fill-rule="evenodd" clip-rule="evenodd" d="M27.5342 12.3858L23.805 9.38848C23.3209 8.99937 23.1322 8.36637 23.3242 7.77588C23.5162 7.18512 24.0409 6.78398 24.6612 6.75377L29.4399 6.5208L31.1381 2.04805C31.3582 1.46836 31.9021 1.09375 32.5235 1.09375C33.1448 1.09375 33.6884 1.46822 33.9084 2.04791L35.6067 6.52053L40.3855 6.7535C41.0058 6.78371 41.5306 7.18498 41.7224 7.77561C41.9143 8.36623 41.7256 8.99924 41.2415 9.38834L37.5123 12.3856L38.7675 17.0023C38.9304 17.6016 38.7111 18.2247 38.2086 18.5898C37.7062 18.9548 37.0457 18.971 36.5262 18.6308L32.5232 16.0104L28.5202 18.6308C28.2711 18.794 27.9893 18.8753 27.7082 18.8753C27.3952 18.8747 27.0905 18.7748 26.8379 18.5899C26.3354 18.2249 26.1161 17.6017 26.2791 17.0025L27.5342 12.3858ZM30.8064 8.40205C30.5731 8.57155 30.2954 8.66924 30.0073 8.68314L26.6245 8.84844L29.2648 10.9706C29.4895 11.1512 29.6567 11.3934 29.7458 11.6676C29.8348 11.9418 29.842 12.2361 29.7663 12.5143L28.8776 15.7829L31.7118 13.9277C31.9529 13.7696 32.235 13.6854 32.5233 13.6854C32.8117 13.6854 33.0937 13.7696 33.3349 13.9277L36.1689 15.7828L35.2803 12.514C35.2046 12.2358 35.2118 11.9415 35.3009 11.6673C35.39 11.393 35.5572 11.1508 35.782 10.9702L38.4221 8.84789L35.0385 8.68301C34.7505 8.66905 34.4728 8.57131 34.2396 8.40179C34.0063 8.23227 33.8276 7.99834 33.7254 7.72871L32.5232 4.56217L31.3209 7.72898C31.2186 7.99863 31.0398 8.23256 30.8064 8.40205ZM18.4752 25.5735L14.4723 22.9532L10.4692 25.5737C10.2201 25.7369 9.93834 25.8181 9.65725 25.8181C9.34423 25.8176 9.03947 25.7177 8.7869 25.5328C8.28446 25.1676 8.06516 24.5446 8.22813 23.9453L9.48321 19.3286L5.7542 16.3313C5.27008 15.9424 5.08127 15.3094 5.27323 14.7186C5.46518 14.1278 5.98991 13.7267 6.6102 13.6965L11.3889 13.4635L13.0872 8.99063C13.3074 8.41094 13.8512 8.03633 14.4726 8.03633C15.094 8.03633 15.6376 8.41094 15.8576 8.99049L17.5556 13.4634L22.3344 13.6963C22.9545 13.7266 23.4794 14.1277 23.6713 14.7183C23.8631 15.3089 23.6745 15.942 23.1905 16.3311L19.4614 19.3283L20.7166 23.9452C20.8795 24.5446 20.6601 25.1676 20.1577 25.5326C19.6552 25.8978 18.9949 25.9137 18.4752 25.5735ZM11.957 15.6257L8.57348 15.7907L11.2141 17.9128C11.4388 18.0933 11.606 18.3356 11.695 18.6098C11.7841 18.884 11.7913 19.1782 11.7155 19.4564L10.8269 22.7251L13.6611 20.8698C13.9022 20.7118 14.1842 20.6277 14.4725 20.6276C14.7607 20.6276 15.0428 20.7117 15.2839 20.8697L18.1182 22.7251L17.2296 19.4564C17.0749 18.8878 17.2718 18.2819 17.7312 17.9128L20.3714 15.7907L16.9878 15.6257C16.6999 15.6117 16.4223 15.514 16.1891 15.3446C15.9558 15.1752 15.7771 14.9414 15.6748 14.6718L14.4723 11.5049L13.27 14.6717C13.1678 14.9413 12.9891 15.1751 12.7558 15.3446C12.5226 15.5141 12.245 15.6118 11.957 15.6257ZM41.8559 16.3312C41.3719 15.9421 41.1831 15.3089 41.375 14.7183C41.567 14.1277 42.0919 13.7266 42.712 13.6963L47.4906 13.4634L49.1889 8.99049C49.4089 8.41094 49.9526 8.03633 50.5742 8.03633C51.1957 8.03633 51.7394 8.41094 51.9594 8.99076L53.6576 13.4634L58.4363 13.6963C59.0565 13.7266 59.5812 14.1277 59.7731 14.7183C59.965 15.3089 59.7764 15.942 59.2923 16.3311L55.5632 19.3283L56.8184 23.9451C56.9812 24.5446 56.7616 25.1677 56.2592 25.5326C55.7568 25.8975 55.0964 25.9135 54.5769 25.5734L50.574 22.953L46.5712 25.5735C46.3219 25.7368 46.0402 25.818 45.7591 25.818C45.446 25.8175 45.1413 25.7175 44.8887 25.5326C44.3863 25.1675 44.167 24.5444 44.3299 23.9452L45.585 19.3285L41.8559 16.3312ZM48.8575 15.3448C48.6243 15.5142 48.3467 15.6119 48.0587 15.6259L44.6753 15.7906L47.3156 17.9128C47.5403 18.0934 47.7075 18.3356 47.7965 18.6098C47.8856 18.884 47.8928 19.1782 47.8171 19.4564L46.9284 22.7251L49.7625 20.8698C50.0036 20.7119 50.2857 20.6278 50.5739 20.6278C50.8622 20.6277 51.1443 20.7118 51.3855 20.8697L54.2198 22.7251L53.3311 19.4564C53.2554 19.1783 53.2626 18.8841 53.3516 18.6099C53.4407 18.3357 53.6079 18.0935 53.8326 17.9129L56.4729 15.7907L53.0895 15.6257C52.8015 15.6118 52.5238 15.514 52.2905 15.3445C52.0573 15.175 51.8786 14.9411 51.7763 14.6714L50.574 11.5049L49.3717 14.6718C49.2695 14.9414 49.0908 15.1753 48.8575 15.3448ZM47.5111 47.2099C44.8461 44.7898 41.6392 43.0582 38.1881 42.1479C41.846 40.1393 44.3315 36.2502 44.3315 31.7907C44.3315 25.2797 39.0343 19.9827 32.5233 19.9827C26.0124 19.9827 20.7152 25.2797 20.7152 31.7907C20.7152 36.2469 23.1971 40.1334 26.8506 42.1433C23.4033 43.049 20.2243 44.7705 17.5819 47.1625C13.5107 50.8442 10.9483 55.8649 10.3668 61.2995C10.3505 61.4521 10.3664 61.6064 10.4136 61.7524C10.4608 61.8984 10.5382 62.0329 10.6407 62.147C10.7433 62.2611 10.8688 62.3524 11.0089 62.4149C11.1491 62.4774 11.3008 62.5096 11.4543 62.5096L45.9705 62.5095C45.5615 61.7621 45.2286 61.0328 44.9635 60.3222H12.7081C14.3233 50.7068 22.6355 43.5996 32.5217 43.5988H32.5251C37.6099 43.5992 42.5096 45.5455 46.2113 48.9865C46.6207 48.3425 47.0627 47.7495 47.5111 47.2099ZM32.5235 22.1702C27.2186 22.1702 22.9028 26.4858 22.9028 31.7907C22.9028 37.0948 27.2177 41.4102 32.5217 41.4112H32.5252C37.8292 41.4103 42.1441 37.0949 42.1441 31.7907C42.1441 26.4858 37.8283 22.1702 32.5235 22.1702Z" fill="#171717"/>
<path d="M23.805 9.38848L23.9617 9.19362L23.9617 9.19361L23.805 9.38848ZM27.5342 12.3858L27.7754 12.4513L27.8184 12.2934L27.6908 12.1909L27.5342 12.3858ZM23.3242 7.77588L23.562 7.85317L23.562 7.85313L23.3242 7.77588ZM24.6612 6.75377L24.6733 7.00347L24.6733 7.00347L24.6612 6.75377ZM29.4399 6.5208L29.4521 6.7705L29.6155 6.76254L29.6736 6.60954L29.4399 6.5208ZM31.1381 2.04805L30.9044 1.9593L30.9044 1.95931L31.1381 2.04805ZM33.9084 2.04791L33.6747 2.13661L33.6747 2.13666L33.9084 2.04791ZM35.6067 6.52053L35.373 6.60927L35.4311 6.76226L35.5946 6.77023L35.6067 6.52053ZM40.3855 6.7535L40.3733 7.0032L40.3733 7.0032L40.3855 6.7535ZM41.2415 9.38834L41.0849 9.19348L41.0849 9.19348L41.2415 9.38834ZM37.5123 12.3856L37.3557 12.1908L37.2281 12.2933L37.2711 12.4512L37.5123 12.3856ZM38.7675 17.0023L39.0088 16.9368L39.0088 16.9368L38.7675 17.0023ZM36.5262 18.6308L36.6631 18.4216L36.6631 18.4216L36.5262 18.6308ZM32.5232 16.0104L32.6601 15.8013L32.5232 15.7116L32.3863 15.8013L32.5232 16.0104ZM28.5202 18.6308L28.3833 18.4216L28.3832 18.4217L28.5202 18.6308ZM27.7082 18.8753L27.7078 19.1253H27.7082V18.8753ZM26.8379 18.5899L26.9855 18.3882L26.9848 18.3877L26.8379 18.5899ZM26.2791 17.0025L26.5203 17.0681L26.5203 17.0681L26.2791 17.0025ZM30.0073 8.68314L29.9952 8.43344L29.9951 8.43344L30.0073 8.68314ZM26.6245 8.84844L26.6123 8.59874L25.9547 8.63087L26.4678 9.0433L26.6245 8.84844ZM29.2648 10.9706L29.1082 11.1654L29.1082 11.1655L29.2648 10.9706ZM29.7663 12.5143L29.525 12.4486L29.525 12.4487L29.7663 12.5143ZM28.8776 15.7829L28.6363 15.7174L28.4636 16.3528L29.0145 15.9921L28.8776 15.7829ZM31.7118 13.9277L31.8487 14.1368L31.8488 14.1368L31.7118 13.9277ZM33.3349 13.9277L33.1978 14.1368L33.198 14.1368L33.3349 13.9277ZM36.1689 15.7828L36.032 15.992L36.5829 16.3526L36.4102 15.7172L36.1689 15.7828ZM35.2803 12.514L35.5215 12.4484V12.4484L35.2803 12.514ZM35.782 10.9702L35.9386 11.1651L35.9386 11.165L35.782 10.9702ZM38.4221 8.84789L38.5787 9.04274L39.0918 8.63023L38.4342 8.59819L38.4221 8.84789ZM35.0385 8.68301L35.0507 8.4333L35.0506 8.4333L35.0385 8.68301ZM33.7254 7.72871L33.9591 7.64009L33.9591 7.63998L33.7254 7.72871ZM32.5232 4.56217L32.7569 4.47344L32.5232 3.85781L32.2895 4.47343L32.5232 4.56217ZM31.3209 7.72898L31.0872 7.64025L31.0871 7.6403L31.3209 7.72898ZM14.4723 22.9532L14.6093 22.744L14.4723 22.6544L14.3354 22.744L14.4723 22.9532ZM18.4752 25.5735L18.3383 25.7827L18.3383 25.7827L18.4752 25.5735ZM10.4692 25.5737L10.3323 25.3645L10.3322 25.3646L10.4692 25.5737ZM9.65725 25.8181L9.65684 26.0681H9.65725V25.8181ZM8.7869 25.5328L8.93458 25.3311L8.93388 25.3305L8.7869 25.5328ZM8.22813 23.9453L8.46937 24.0109L8.46937 24.0109L8.22813 23.9453ZM9.48321 19.3286L9.72445 19.3942L9.76738 19.2363L9.63983 19.1338L9.48321 19.3286ZM5.7542 16.3313L5.91082 16.1365L5.91079 16.1364L5.7542 16.3313ZM6.6102 13.6965L6.62236 13.9462L6.62237 13.9462L6.6102 13.6965ZM11.3889 13.4635L11.4011 13.7132L11.5646 13.7052L11.6226 13.5523L11.3889 13.4635ZM13.0872 8.99063L12.8535 8.90188L12.8535 8.90188L13.0872 8.99063ZM15.8576 8.99049L15.6239 9.07921L15.6239 9.07922L15.8576 8.99049ZM17.5556 13.4634L17.3219 13.5521L17.38 13.7051L17.5435 13.7131L17.5556 13.4634ZM22.3344 13.6963L22.3222 13.9461H22.3222L22.3344 13.6963ZM23.6713 14.7183L23.9091 14.6411L23.9091 14.641L23.6713 14.7183ZM23.1905 16.3311L23.3471 16.5259L23.3471 16.5259L23.1905 16.3311ZM19.4614 19.3283L19.3047 19.1335L19.1772 19.236L19.2201 19.3939L19.4614 19.3283ZM20.7166 23.9452L20.4753 24.0108L20.4753 24.0108L20.7166 23.9452ZM20.1577 25.5326L20.0107 25.3304L20.0107 25.3304L20.1577 25.5326ZM8.57348 15.7907L8.5613 15.541L7.90357 15.5731L8.41688 15.9856L8.57348 15.7907ZM11.957 15.6257L11.9449 15.376L11.9448 15.376L11.957 15.6257ZM11.2141 17.9128L11.0575 18.1076L11.0575 18.1076L11.2141 17.9128ZM11.7155 19.4564L11.4743 19.3908L11.4743 19.3909L11.7155 19.4564ZM10.8269 22.7251L10.5856 22.6595L10.4129 23.2949L10.9638 22.9343L10.8269 22.7251ZM13.6611 20.8698L13.798 21.079L13.7981 21.0789L13.6611 20.8698ZM15.2839 20.8697L15.1469 21.0788L15.147 21.0789L15.2839 20.8697ZM18.1182 22.7251L17.9813 22.9343L18.5322 23.2949L18.3595 22.6595L18.1182 22.7251ZM17.2296 19.4564L17.4708 19.3909L17.4708 19.3908L17.2296 19.4564ZM17.7312 17.9128L17.8878 18.1076L17.8878 18.1076L17.7312 17.9128ZM20.3714 15.7907L20.528 15.9856L21.0412 15.5731L20.3835 15.541L20.3714 15.7907ZM16.9878 15.6257L17 15.376L17 15.376L16.9878 15.6257ZM16.1891 15.3446L16.336 15.1423V15.1423L16.1891 15.3446ZM15.6748 14.6718L15.9085 14.5831L15.9085 14.5831L15.6748 14.6718ZM14.4723 11.5049L14.7061 11.4161L14.4723 10.8006L14.2386 11.4161L14.4723 11.5049ZM13.27 14.6717L13.0363 14.583L13.0363 14.583L13.27 14.6717ZM41.8559 16.3312L41.6992 16.526L41.6993 16.5261L41.8559 16.3312ZM42.712 13.6963L42.7242 13.9461H42.7242L42.712 13.6963ZM47.4906 13.4634L47.5028 13.7131L47.6662 13.7051L47.7243 13.5521L47.4906 13.4634ZM49.1889 8.99049L49.4226 9.07923L49.4227 9.07921L49.1889 8.99049ZM51.9594 8.99076L51.7257 9.07944L51.7257 9.0795L51.9594 8.99076ZM53.6576 13.4634L53.4239 13.5521L53.482 13.7051L53.6454 13.7131L53.6576 13.4634ZM58.4363 13.6963L58.4241 13.9461H58.4241L58.4363 13.6963ZM59.7731 14.7183L60.0109 14.6411L60.0109 14.641L59.7731 14.7183ZM59.2923 16.3311L59.1357 16.1362L59.1357 16.1362L59.2923 16.3311ZM55.5632 19.3283L55.4065 19.1335L55.279 19.236L55.3219 19.3939L55.5632 19.3283ZM56.8184 23.9451L57.0596 23.8795L57.0596 23.8795L56.8184 23.9451ZM54.5769 25.5734L54.7138 25.3642L54.7138 25.3642L54.5769 25.5734ZM50.574 22.953L50.711 22.7439L50.574 22.6542L50.4371 22.7439L50.574 22.953ZM46.5712 25.5735L46.4342 25.3643L46.4342 25.3644L46.5712 25.5735ZM45.7591 25.818L45.7587 26.068H45.7591V25.818ZM44.8887 25.5326L45.0364 25.3309L45.0357 25.3304L44.8887 25.5326ZM44.3299 23.9452L44.5712 24.0108L44.5712 24.0108L44.3299 23.9452ZM45.585 19.3285L45.8263 19.3941L45.8692 19.2361L45.7416 19.1336L45.585 19.3285ZM48.0587 15.6259L48.0466 15.3762L48.0465 15.3762L48.0587 15.6259ZM44.6753 15.7906L44.6631 15.5409L44.0054 15.5729L44.5187 15.9855L44.6753 15.7906ZM47.3156 17.9128L47.159 18.1076L47.3156 17.9128ZM47.8171 19.4564L47.5759 19.3908L47.5759 19.3909L47.8171 19.4564ZM46.9284 22.7251L46.6872 22.6595L46.5144 23.2949L47.0654 22.9343L46.9284 22.7251ZM49.7625 20.8698L49.8994 21.079L49.8994 21.079L49.7625 20.8698ZM51.3855 20.8697L51.5224 20.6605L51.5224 20.6605L51.3855 20.8697ZM54.2198 22.7251L54.0828 22.9343L54.6338 23.2949L54.461 22.6595L54.2198 22.7251ZM53.3311 19.4564L53.5723 19.3909L53.5723 19.3908L53.3311 19.4564ZM53.8326 17.9129L53.9892 18.1078L53.9892 18.1077L53.8326 17.9129ZM56.4729 15.7907L56.6295 15.9856L57.1427 15.5731L56.4851 15.541L56.4729 15.7907ZM53.0895 15.6257L53.1017 15.376L53.1016 15.376L53.0895 15.6257ZM51.7763 14.6714L52.0101 14.5828L52.0101 14.5827L51.7763 14.6714ZM50.574 11.5049L50.8077 11.4161L50.574 10.8005L50.3403 11.4162L50.574 11.5049ZM49.3717 14.6718L49.138 14.5831L49.138 14.5832L49.3717 14.6718ZM47.5111 47.2099L47.7034 47.3697L47.8563 47.1857L47.6792 47.0248L47.5111 47.2099ZM38.1881 42.1479L38.0678 41.9288L37.5192 42.23L38.1244 42.3897L38.1881 42.1479ZM26.8506 42.1433L26.9141 42.3851L27.5196 42.226L26.9711 41.9242L26.8506 42.1433ZM17.5819 47.1625L17.7496 47.3479L17.7497 47.3478L17.5819 47.1625ZM10.3668 61.2995L10.6154 61.3262L10.6154 61.3261L10.3668 61.2995ZM11.4543 62.5096L11.4543 62.2596H11.4542L11.4543 62.5096ZM45.9705 62.5095V62.7595H46.3923L46.1898 62.3894L45.9705 62.5095ZM44.9635 60.3222L45.1978 60.2349L45.1371 60.0722H44.9635V60.3222ZM12.7081 60.3222L12.4616 60.2808L12.4126 60.5722H12.7081V60.3222ZM32.5217 43.5988V43.3488H32.5217L32.5217 43.5988ZM32.5251 43.5988L32.5251 43.3488H32.5251V43.5988ZM46.2113 48.9865L46.0411 49.1696L46.2612 49.3741L46.4223 49.1206L46.2113 48.9865ZM32.5217 41.4112L32.5216 41.6612H32.5217V41.4112ZM32.5252 41.4112V41.6612H32.5253L32.5252 41.4112ZM23.6484 9.58334L27.3776 12.5806L27.6908 12.1909L23.9617 9.19362L23.6484 9.58334ZM23.0864 7.69859C22.8624 8.38785 23.0834 9.12918 23.6484 9.58334L23.9617 9.19361C23.5585 8.86957 23.4021 8.34489 23.562 7.85317L23.0864 7.69859ZM24.649 6.50407C23.925 6.53933 23.3105 7.00913 23.0864 7.69862L23.562 7.85313C23.7218 7.36111 24.1568 7.02864 24.6733 7.00347L24.649 6.50407ZM29.4277 6.2711L24.649 6.50407L24.6733 7.00347L29.4521 6.7705L29.4277 6.2711ZM30.9044 1.95931L29.2062 6.43206L29.6736 6.60954L31.3718 2.13678L30.9044 1.95931ZM32.5235 0.84375C31.7985 0.84375 31.1615 1.28225 30.9044 1.9593L31.3718 2.13679C31.555 1.65447 32.0056 1.34375 32.5235 1.34375V0.84375ZM34.1422 1.95921C33.8852 1.28213 33.2484 0.84375 32.5235 0.84375V1.34375C33.0413 1.34375 33.4917 1.65432 33.6747 2.13661L34.1422 1.95921ZM35.8405 6.43178L34.1421 1.95916L33.6747 2.13666L35.373 6.60927L35.8405 6.43178ZM40.3976 6.50379L35.6189 6.27082L35.5946 6.77023L40.3733 7.0032L40.3976 6.50379ZM41.9602 7.69838C41.7363 7.00898 41.1217 6.53906 40.3976 6.50379L40.3733 7.0032C40.8899 7.02836 41.3249 7.36098 41.4847 7.85283L41.9602 7.69838ZM41.3981 9.5832C41.9632 9.12903 42.1841 8.38772 41.9602 7.69838L41.4847 7.85283C41.6444 8.34474 41.488 8.86944 41.0849 9.19348L41.3981 9.5832ZM37.6689 12.5805L41.3981 9.5832L41.0849 9.19348L37.3557 12.1908L37.6689 12.5805ZM39.0088 16.9368L37.7536 12.32L37.2711 12.4512L38.5263 17.0679L39.0088 16.9368ZM38.3556 18.792C38.9421 18.3659 39.1988 17.6362 39.0088 16.9368L38.5263 17.0679C38.6619 17.567 38.4801 18.0835 38.0617 18.3875L38.3556 18.792ZM36.3892 18.84C36.9957 19.237 37.7692 19.2181 38.3556 18.792L38.0617 18.3875C37.6432 18.6916 37.0957 18.7049 36.6631 18.4216L36.3892 18.84ZM32.3863 16.2196L36.3893 18.84L36.6631 18.4216L32.6601 15.8013L32.3863 16.2196ZM28.6571 18.84L32.6601 16.2196L32.3863 15.8013L28.3833 18.4216L28.6571 18.84ZM27.7082 19.1253C28.0378 19.1253 28.3672 19.03 28.6572 18.8399L28.3832 18.4217C28.175 18.5581 27.9409 18.6253 27.7082 18.6253V19.1253ZM26.6902 18.7917C26.9855 19.0078 27.3418 19.1246 27.7078 19.1253L27.7087 18.6253C27.4486 18.6248 27.1954 18.5418 26.9855 18.3882L26.6902 18.7917ZM26.0379 16.9369C25.8477 17.6363 26.1045 18.3661 26.6909 18.7922L26.9848 18.3877C26.5664 18.0837 26.3846 17.5671 26.5203 17.0681L26.0379 16.9369ZM27.2929 12.3202L26.0379 16.9369L26.5203 17.0681L27.7754 12.4513L27.2929 12.3202ZM30.0193 8.93285C30.356 8.9166 30.6806 8.80242 30.9534 8.60432L30.6595 8.19978C30.4656 8.34067 30.2347 8.42188 29.9952 8.43344L30.0193 8.93285ZM26.6367 9.09814L30.0195 8.93285L29.9951 8.43344L26.6123 8.59874L26.6367 9.09814ZM29.4214 10.7757L26.7811 8.65358L26.4678 9.0433L29.1082 11.1654L29.4214 10.7757ZM29.9835 11.5904C29.8794 11.2699 29.684 10.9868 29.4214 10.7757L29.1082 11.1655C29.295 11.3156 29.4339 11.5169 29.508 11.7449L29.9835 11.5904ZM30.0075 12.5799C30.096 12.2548 30.0876 11.9109 29.9835 11.5904L29.508 11.7449C29.582 11.9728 29.5879 12.2174 29.525 12.4486L30.0075 12.5799ZM29.1188 15.8485L30.0075 12.5799L29.525 12.4487L28.6363 15.7174L29.1188 15.8485ZM31.5748 13.7185L28.7407 15.5738L29.0145 15.9921L31.8487 14.1368L31.5748 13.7185ZM32.5233 13.4354C32.1863 13.4354 31.8566 13.5338 31.5747 13.7186L31.8488 14.1368C32.0492 14.0054 32.2837 13.9354 32.5233 13.9354V13.4354ZM33.472 13.7186C33.1901 13.5338 32.8604 13.4354 32.5233 13.4354V13.9354C32.763 13.9354 32.9974 14.0054 33.1978 14.1368L33.472 13.7186ZM36.3058 15.5736L33.4718 13.7185L33.198 14.1368L36.032 15.992L36.3058 15.5736ZM35.039 12.5796L35.9277 15.8484L36.4102 15.7172L35.5215 12.4484L35.039 12.5796ZM35.0632 11.59C34.959 11.9105 34.9506 12.2544 35.039 12.5796L35.5215 12.4484C35.4586 12.2171 35.4646 11.9725 35.5387 11.7445L35.0632 11.59ZM35.6254 10.7753C35.3627 10.9864 35.1673 11.2695 35.0632 11.59L35.5387 11.7445C35.6128 11.5166 35.7517 11.3152 35.9386 11.1651L35.6254 10.7753ZM38.2654 8.65304L35.6254 10.7753L35.9386 11.165L38.5787 9.04274L38.2654 8.65304ZM35.0264 8.93271L38.4099 9.09759L38.4342 8.59819L35.0507 8.4333L35.0264 8.93271ZM34.0926 8.60403C34.3652 8.80216 34.6898 8.9164 35.0264 8.93271L35.0506 8.4333C34.8112 8.4217 34.5804 8.34046 34.3865 8.19955L34.0926 8.60403ZM33.4916 7.81734C33.6111 8.13248 33.8199 8.4059 34.0926 8.60403L34.3865 8.19955C34.1926 8.05865 34.0441 7.86421 33.9591 7.64009L33.4916 7.81734ZM32.2895 4.6509L33.4916 7.81744L33.9591 7.63998L32.7569 4.47344L32.2895 4.6509ZM31.5546 7.81772L32.7569 4.6509L32.2895 4.47343L31.0872 7.64025L31.5546 7.81772ZM30.9534 8.60432C31.2261 8.40622 31.4351 8.13282 31.5546 7.81766L31.0871 7.6403C31.0021 7.86445 30.8535 8.05889 30.6595 8.19978L30.9534 8.60432ZM14.3354 23.1623L18.3383 25.7827L18.6121 25.3643L14.6093 22.744L14.3354 23.1623ZM10.6061 25.7828L14.6093 23.1623L14.3354 22.744L10.3323 25.3645L10.6061 25.7828ZM9.65725 26.0681C9.98679 26.0681 10.3162 25.9728 10.6063 25.7828L10.3322 25.3646C10.124 25.501 9.88989 25.5681 9.65725 25.5681V26.0681ZM8.63922 25.7345C8.93452 25.9507 9.29086 26.0675 9.65684 26.0681L9.65766 25.5681C9.39761 25.5677 9.14441 25.4847 8.93458 25.3311L8.63922 25.7345ZM7.98689 23.8797C7.79667 24.5792 8.05351 25.3088 8.63992 25.735L8.93388 25.3305C8.51541 25.0264 8.33365 24.51 8.46937 24.0109L7.98689 23.8797ZM9.24196 19.263L7.98688 23.8797L8.46937 24.0109L9.72445 19.3942L9.24196 19.263ZM5.59758 16.5262L9.32658 19.5235L9.63983 19.1338L5.91082 16.1365L5.59758 16.5262ZM5.03546 14.6413C4.81142 15.3309 5.03252 16.0722 5.59762 16.5262L5.91079 16.1364C5.50764 15.8125 5.35112 15.2879 5.51099 14.7958L5.03546 14.6413ZM6.59804 13.4468C5.874 13.482 5.2595 13.9518 5.03546 14.6413L5.51099 14.7958C5.67086 14.3038 6.10581 13.9714 6.62236 13.9462L6.59804 13.4468ZM11.3768 13.2138L6.59803 13.4468L6.62237 13.9462L11.4011 13.7132L11.3768 13.2138ZM12.8535 8.90188L11.1552 13.3748L11.6226 13.5523L13.321 9.07937L12.8535 8.90188ZM14.4726 7.78633C13.7477 7.78633 13.1106 8.22483 12.8535 8.90188L13.321 9.07937C13.5041 8.59704 13.9548 8.28633 14.4726 8.28633V7.78633ZM16.0913 8.90177C15.8344 8.22487 15.1976 7.78633 14.4726 7.78633V8.28633C14.9904 8.28633 15.4408 8.59701 15.6239 9.07921L16.0913 8.90177ZM17.7894 13.3747L16.0913 8.90176L15.6239 9.07922L17.3219 13.5521L17.7894 13.3747ZM22.3465 13.4466L17.5678 13.2137L17.5435 13.7131L22.3222 13.9461L22.3465 13.4466ZM23.9091 14.641C23.685 13.9517 23.0704 13.4819 22.3465 13.4466L22.3222 13.9461C22.8386 13.9712 23.2737 14.3037 23.4336 14.7956L23.9091 14.641ZM23.3471 16.5259C23.9121 16.0717 24.133 15.3304 23.9091 14.6411L23.4336 14.7955C23.5933 15.2875 23.4369 15.8122 23.0338 16.1362L23.3471 16.5259ZM19.618 19.5232L23.3471 16.5259L23.0339 16.1362L19.3047 19.1335L19.618 19.5232ZM20.9578 23.8796L19.7026 19.2628L19.2201 19.3939L20.4753 24.0108L20.9578 23.8796ZM20.3046 25.7349C20.891 25.3088 21.148 24.5792 20.9578 23.8796L20.4753 24.0108C20.611 24.5099 20.4292 25.0264 20.0107 25.3304L20.3046 25.7349ZM18.3383 25.7827C18.9448 26.1797 19.7181 26.1612 20.3046 25.7349L20.0107 25.3304C19.5923 25.6345 19.045 25.6477 18.6121 25.3643L18.3383 25.7827ZM8.58566 16.0404L11.9692 15.8754L11.9448 15.376L8.5613 15.541L8.58566 16.0404ZM11.3707 17.7179L8.73008 15.5959L8.41688 15.9856L11.0575 18.1076L11.3707 17.7179ZM11.9328 18.5326C11.8287 18.2121 11.6333 17.9289 11.3707 17.7179L11.0575 18.1076C11.2443 18.2577 11.3832 18.4591 11.4573 18.687L11.9328 18.5326ZM11.9568 19.5221C12.0453 19.1969 12.0369 18.853 11.9328 18.5326L11.4573 18.687C11.5313 18.915 11.5372 19.1596 11.4743 19.3908L11.9568 19.5221ZM11.0681 22.7907L11.9568 19.522L11.4743 19.3909L10.5856 22.6595L11.0681 22.7907ZM13.5241 20.6607L10.69 22.5159L10.9638 22.9343L13.798 21.079L13.5241 20.6607ZM14.4724 20.3776C14.1355 20.3777 13.8059 20.4761 13.524 20.6607L13.7981 21.0789C13.9985 20.9476 14.2329 20.8777 14.4725 20.8776L14.4724 20.3776ZM15.4209 20.6606C15.139 20.4759 14.8094 20.3776 14.4724 20.3776L14.4725 20.8776C14.7121 20.8776 14.9465 20.9475 15.1469 21.0788L15.4209 20.6606ZM18.2552 22.5159L15.4208 20.6605L15.147 21.0789L17.9813 22.9343L18.2552 22.5159ZM16.9883 19.522L17.877 22.7907L18.3595 22.6595L17.4708 19.3909L16.9883 19.522ZM17.5746 17.7179C17.0377 18.1493 16.8076 18.8575 16.9883 19.522L17.4708 19.3908C17.3423 18.9182 17.5059 18.4145 17.8878 18.1076L17.5746 17.7179ZM20.2147 15.5959L17.5746 17.7179L17.8878 18.1076L20.528 15.9856L20.2147 15.5959ZM16.9757 15.8754L20.3592 16.0404L20.3835 15.541L17 15.376L16.9757 15.8754ZM16.0421 15.5469C16.3147 15.7449 16.6392 15.8591 16.9757 15.8754L17 15.376C16.7606 15.3644 16.5299 15.2832 16.336 15.1423L16.0421 15.5469ZM15.4411 14.7606C15.5606 15.0756 15.7695 15.3488 16.0421 15.5469L16.336 15.1423C16.1421 15.0015 15.9936 14.8071 15.9085 14.5831L15.4411 14.7606ZM14.2386 11.5936L15.4411 14.7606L15.9085 14.5831L14.7061 11.4161L14.2386 11.5936ZM13.5038 14.7604L14.7061 11.5936L14.2386 11.4161L13.0363 14.583L13.5038 14.7604ZM12.9028 15.5468C13.1754 15.3488 13.3843 15.0754 13.5038 14.7604L13.0363 14.583C12.9513 14.8071 12.8028 15.0015 12.6089 15.1423L12.9028 15.5468ZM11.9691 15.8754C12.3057 15.8591 12.6302 15.7449 12.9028 15.5468L12.6089 15.1423C12.415 15.2832 12.1842 15.3644 11.9449 15.376L11.9691 15.8754ZM41.1373 14.641C40.9132 15.3304 41.1343 16.0719 41.6992 16.526L42.0125 16.1364C41.6094 15.8123 41.4529 15.2874 41.6128 14.7956L41.1373 14.641ZM42.6999 13.4466C41.976 13.4819 41.3613 13.9517 41.1373 14.641L41.6128 14.7956C41.7727 14.3037 42.2077 13.9712 42.7242 13.9461L42.6999 13.4466ZM47.4784 13.2137L42.6998 13.4466L42.7242 13.9461L47.5028 13.7131L47.4784 13.2137ZM48.9552 8.90175L47.2569 13.3746L47.7243 13.5521L49.4226 9.07923L48.9552 8.90175ZM50.5742 7.78633C49.8491 7.78633 49.2122 8.22483 48.9552 8.90177L49.4227 9.07921C49.6057 8.59705 50.0562 8.28633 50.5742 8.28633V7.78633ZM52.1931 8.90208C51.9362 8.22485 51.2992 7.78633 50.5742 7.78633V8.28633C51.0922 8.28633 51.5426 8.59702 51.7257 9.07944L52.1931 8.90208ZM53.8913 13.3746L52.1931 8.90202L51.7257 9.0795L53.4239 13.5521L53.8913 13.3746ZM58.4485 13.4466L53.6698 13.2137L53.6454 13.7131L58.4241 13.9461L58.4485 13.4466ZM60.0109 14.641C59.7869 13.9517 59.1724 13.4819 58.4485 13.4466L58.4241 13.9461C58.9406 13.9712 59.3755 14.3037 59.5354 14.7956L60.0109 14.641ZM59.4489 16.5259C60.014 16.0717 60.2348 15.3304 60.0109 14.6411L59.5354 14.7955C59.6951 15.2875 59.5388 15.8122 59.1357 16.1362L59.4489 16.5259ZM55.7198 19.5232L59.4489 16.5259L59.1357 16.1362L55.4065 19.1335L55.7198 19.5232ZM57.0596 23.8795L55.8044 19.2627L55.3219 19.3939L56.5771 24.0106L57.0596 23.8795ZM56.4061 25.7349C56.9926 25.309 57.2497 24.5792 57.0596 23.8795L56.5771 24.0106C56.7127 24.5099 56.5307 25.0265 56.1123 25.3304L56.4061 25.7349ZM54.4399 25.7825C55.0463 26.1796 55.8197 26.1608 56.4061 25.7349L56.1123 25.3304C55.6939 25.6342 55.1465 25.6475 54.7138 25.3642L54.4399 25.7825ZM50.4371 23.1622L54.44 25.7825L54.7138 25.3642L50.711 22.7439L50.4371 23.1622ZM46.7081 25.7827L50.711 23.1622L50.4371 22.7439L46.4342 25.3643L46.7081 25.7827ZM45.7591 26.068C46.0886 26.068 46.418 25.9727 46.7082 25.7826L46.4342 25.3644C46.2258 25.5008 45.9917 25.568 45.7591 25.568V26.068ZM44.741 25.7344C45.0363 25.9505 45.3927 26.0674 45.7587 26.068L45.7595 25.568C45.4994 25.5675 45.2462 25.4845 45.0364 25.3309L44.741 25.7344ZM44.0887 23.8796C43.8985 24.579 44.1553 25.3087 44.7417 25.7349L45.0357 25.3304C44.6172 25.0263 44.4355 24.5098 44.5712 24.0108L44.0887 23.8796ZM45.3438 19.2629L44.0887 23.8796L44.5712 24.0108L45.8263 19.3941L45.3438 19.2629ZM41.6993 16.5261L45.4284 19.5233L45.7416 19.1336L42.0125 16.1363L41.6993 16.5261ZM48.0708 15.8756C48.4073 15.8593 48.7319 15.7451 49.0045 15.547L48.7106 15.1425C48.5167 15.2834 48.286 15.3646 48.0466 15.3762L48.0708 15.8756ZM44.6875 16.0403L48.0708 15.8756L48.0465 15.3762L44.6631 15.5409L44.6875 16.0403ZM47.4722 17.7179L44.8319 15.5957L44.5187 15.9855L47.159 18.1076L47.4722 17.7179ZM48.0343 18.5326C47.9302 18.2121 47.7349 17.929 47.4722 17.7179L47.159 18.1076C47.3458 18.2578 47.4847 18.4591 47.5588 18.6871L48.0343 18.5326ZM48.0583 19.5221C48.1468 19.1969 48.1384 18.853 48.0343 18.5326L47.5588 18.6871C47.6328 18.915 47.6388 19.1596 47.5759 19.3908L48.0583 19.5221ZM47.1697 22.7907L48.0583 19.522L47.5759 19.3909L46.6872 22.6595L47.1697 22.7907ZM49.6255 20.6607L46.7915 22.5159L47.0654 22.9343L49.8994 21.079L49.6255 20.6607ZM50.5739 20.3778C50.237 20.3778 49.9074 20.4761 49.6255 20.6607L49.8994 21.079C50.0999 20.9477 50.3343 20.8778 50.574 20.8778L50.5739 20.3778ZM51.5224 20.6605C51.2405 20.476 50.9109 20.3777 50.5739 20.3778L50.574 20.8778C50.8136 20.8777 51.048 20.9476 51.2485 21.0789L51.5224 20.6605ZM54.3567 22.5159L51.5224 20.6605L51.2485 21.0789L54.0828 22.9343L54.3567 22.5159ZM53.0899 19.522L53.9785 22.7907L54.461 22.6595L53.5723 19.3909L53.0899 19.522ZM53.1139 18.5326C53.0098 18.8531 53.0014 19.1969 53.0899 19.5221L53.5723 19.3908C53.5094 19.1596 53.5154 18.915 53.5894 18.6871L53.1139 18.5326ZM53.676 17.718C53.4133 17.9291 53.218 18.2122 53.1139 18.5326L53.5894 18.6871C53.6635 18.4592 53.8024 18.2579 53.9892 18.1078L53.676 17.718ZM56.3163 15.5959L53.676 17.718L53.9892 18.1077L56.6295 15.9856L56.3163 15.5959ZM53.0773 15.8754L56.4607 16.0404L56.4851 15.541L53.1017 15.376L53.0773 15.8754ZM52.1436 15.5467C52.4162 15.7449 52.7408 15.8591 53.0774 15.8754L53.1016 15.376C52.8622 15.3644 52.6314 15.2832 52.4375 15.1423L52.1436 15.5467ZM51.5426 14.76C51.662 15.0752 51.8709 15.3486 52.1436 15.5467L52.4375 15.1423C52.2436 15.0014 52.0951 14.8069 52.0101 14.5828L51.5426 14.76ZM50.3403 11.5936L51.5426 14.7602L52.0101 14.5827L50.8077 11.4161L50.3403 11.5936ZM49.6054 14.7606L50.8078 11.5936L50.3403 11.4162L49.138 14.5831L49.6054 14.7606ZM49.0045 15.547C49.2771 15.3489 49.486 15.0756 49.6055 14.7605L49.138 14.5832C49.053 14.8073 48.9045 15.0017 48.7106 15.1425L49.0045 15.547ZM47.6792 47.0248C44.9843 44.5776 41.7415 42.8267 38.2519 41.9062L38.1244 42.3897C41.5368 43.2898 44.708 45.0021 47.3431 47.395L47.6792 47.0248ZM38.3085 42.3671C42.0428 40.3164 44.5815 36.3453 44.5815 31.7907H44.0815C44.0815 36.155 41.6493 39.9621 38.0678 41.9288L38.3085 42.3671ZM44.5815 31.7907C44.5815 25.1416 39.1723 19.7327 32.5233 19.7327V20.2327C38.8962 20.2327 44.0815 25.4178 44.0815 31.7907H44.5815ZM32.5233 19.7327C25.8743 19.7327 20.4652 25.1416 20.4652 31.7907H20.9652C20.9652 25.4178 26.1504 20.2327 32.5233 20.2327V19.7327ZM20.4652 31.7907C20.4652 36.342 23.0002 40.3104 26.7301 42.3623L26.9711 41.9242C23.3939 39.9563 20.9652 36.1518 20.9652 31.7907H20.4652ZM26.7871 41.9015C23.301 42.8174 20.0863 44.5583 17.4141 46.9772L17.7497 47.3478C20.3624 44.9828 23.5056 43.2806 26.9141 42.3851L26.7871 41.9015ZM17.4142 46.9771C13.2976 50.6998 10.7063 55.777 10.1182 61.2729L10.6154 61.3261C11.1903 55.9529 13.7237 50.9886 17.7496 47.3479L17.4142 46.9771ZM10.1182 61.2728C10.0981 61.4603 10.1177 61.6499 10.1757 61.8293L10.6515 61.6755C10.6151 61.5629 10.6028 61.4439 10.6154 61.3262L10.1182 61.2728ZM10.1757 61.8293C10.2337 62.0087 10.3288 62.1739 10.4548 62.3141L10.8267 61.9799C10.7476 61.8919 10.6879 61.7881 10.6515 61.6755L10.1757 61.8293ZM10.4548 62.3141C10.5808 62.4543 10.7349 62.5665 10.9071 62.6432L11.1107 62.1865C11.0026 62.1383 10.9058 62.0679 10.8267 61.9799L10.4548 62.3141ZM10.9071 62.6432C11.0794 62.72 11.2658 62.7596 11.4543 62.7596L11.4542 62.2596C11.3359 62.2596 11.2188 62.2347 11.1107 62.1865L10.9071 62.6432ZM11.4543 62.7596L45.9705 62.7595V62.2595L11.4543 62.2596L11.4543 62.7596ZM46.1898 62.3894C45.7863 61.6521 45.4584 60.9337 45.1978 60.2349L44.7293 60.4096C44.9987 61.132 45.3368 61.8722 45.7512 62.6295L46.1898 62.3894ZM44.9635 60.0722H12.7081V60.5722H44.9635V60.0722ZM12.9547 60.3636C14.5497 50.8683 22.758 43.8496 32.5217 43.8488L32.5217 43.3488C22.5131 43.3496 14.097 50.5453 12.4616 60.2808L12.9547 60.3636ZM32.5217 43.8488H32.5251V43.3488H32.5217V43.8488ZM32.5251 43.8488C37.5462 43.8492 42.3853 45.7713 46.0411 49.1696L46.3816 48.8033C42.6339 45.3197 37.6735 43.3492 32.5251 43.3488L32.5251 43.8488ZM46.4223 49.1206C46.8252 48.4866 47.2608 47.9023 47.7034 47.3697L47.3189 47.0501C46.8645 47.5968 46.4161 48.1983 46.0004 48.8523L46.4223 49.1206ZM23.1528 31.7907C23.1528 26.6239 27.3567 22.4202 32.5235 22.4202V21.9202C27.0806 21.9202 22.6528 26.3478 22.6528 31.7907H23.1528ZM32.5217 41.1612C27.3558 41.1602 23.1528 36.9567 23.1528 31.7907H22.6528C22.6528 37.2329 27.0796 41.6602 32.5216 41.6612L32.5217 41.1612ZM32.5252 41.1612H32.5217V41.6612H32.5252V41.1612ZM41.8941 31.7907C41.8941 36.9569 37.6911 41.1604 32.5252 41.1612L32.5253 41.6612C37.9673 41.6603 42.3941 37.233 42.3941 31.7907H41.8941ZM32.5235 22.4202C37.6902 22.4202 41.8941 26.6239 41.8941 31.7907H42.3941C42.3941 26.3478 37.9663 21.9202 32.5235 21.9202V22.4202Z" fill="white"/>
</g>
<circle id="Ellipse 1961" cx="56.2031" cy="55.8633" r="11" fill="#FFD220"/>
</g>
</svg>
