<svg width="71" height="70" viewBox="0 0 71 70" fill="none" xmlns="http://www.w3.org/2000/svg">
<g id="Travel Icon Pack _ Outline _ 100 .SVG Icons-2 1">
<g id="Group">
<path id="Vector" d="M55.0322 17.7512V27.0455C55.0322 27.2624 55.1214 27.4704 55.2801 27.6238C55.4389 27.7772 55.6542 27.8633 55.8787 27.8633C56.1032 27.8633 56.3186 27.7772 56.4773 27.6238C56.6361 27.4704 56.7253 27.2624 56.7253 27.0455V17.7512C61.036 17.2995 64.1515 13.5573 63.684 9.39264C63.2165 5.22812 59.3429 2.21815 55.0322 2.66987C50.7214 3.1216 47.606 6.86383 48.0736 11.0285C48.4711 14.5701 51.3663 17.3671 55.0322 17.7512ZM55.8787 4.26169C59.2797 4.26196 62.0365 6.92585 62.0362 10.2116C62.036 13.4973 59.2786 16.1607 55.8776 16.1604C52.4769 16.1601 49.7201 13.4965 49.7201 10.211C49.7243 6.92681 52.4793 4.26551 55.8787 4.26169ZM55.8787 35.5488C56.595 35.5488 57.1756 34.9879 57.1756 34.2959C57.1756 33.6038 56.595 33.0429 55.8787 33.0429C55.1624 33.0429 54.5818 33.6038 54.5818 34.2959V34.296C54.5822 34.6282 54.7189 34.9467 54.9621 35.1816C55.2052 35.4165 55.5349 35.5486 55.8787 35.5488ZM55.8787 33.9131C55.9314 33.9122 55.9838 33.9214 56.0327 33.9402C56.0817 33.959 56.1263 33.9871 56.1639 34.0227C56.2015 34.0584 56.2314 34.1009 56.2518 34.1479C56.2722 34.1948 56.2827 34.2452 56.2827 34.2961C56.2827 34.347 56.2722 34.3974 56.2518 34.4443C56.2314 34.4913 56.2015 34.5338 56.1639 34.5695C56.1263 34.6051 56.0817 34.6332 56.0327 34.652C55.9838 34.6708 55.9314 34.68 55.8787 34.6791C55.7749 34.6772 55.676 34.636 55.6032 34.5644C55.5305 34.4928 55.4897 34.3964 55.4897 34.2961C55.4897 34.1958 55.5305 34.0994 55.6032 34.0278C55.676 33.9562 55.7749 33.915 55.8787 33.9131ZM16.9024 63.9941C16.1861 63.9941 15.6055 64.555 15.6055 65.247C15.6055 65.9391 16.1861 66.5 16.9024 66.5C17.6187 66.5 18.1993 65.9391 18.1993 65.247C18.199 64.9149 18.0622 64.5962 17.8191 64.3613C17.5759 64.1265 17.2462 63.9944 16.9024 63.9941ZM16.9024 65.6298C16.8497 65.6308 16.7973 65.6216 16.7484 65.6028C16.6994 65.5839 16.6548 65.5559 16.6172 65.5202C16.5796 65.4846 16.5497 65.442 16.5293 65.3951C16.5089 65.3481 16.4984 65.2978 16.4984 65.2468C16.4984 65.1959 16.5089 65.1455 16.5293 65.0986C16.5497 65.0517 16.5796 65.0091 16.6172 64.9735C16.6548 64.9378 16.6994 64.9097 16.7484 64.8909C16.7973 64.8721 16.8497 64.8629 16.9024 64.8639C17.0062 64.8658 17.1051 64.907 17.1779 64.9786C17.2506 65.0502 17.2914 65.1465 17.2914 65.2468C17.2914 65.3472 17.2506 65.4435 17.1779 65.5151C17.1051 65.5867 17.0062 65.6279 16.9024 65.6298Z" fill="#171717"/>
<path id="Vector_2" d="M36.8961 50.1327H47.3462C51.4584 50.1152 54.8064 53.3583 54.8244 57.3763C54.8423 61.3943 51.5232 64.6657 47.4112 64.6833H21.3507C21.3067 64.6836 21.2628 64.6873 21.2194 64.6943C20.7585 62.256 18.362 60.6444 15.8666 61.0948C13.3711 61.5451 11.7218 63.8867 12.1827 66.325C12.6436 68.7633 15.0401 70.3749 17.5355 69.9245C18.4503 69.7595 19.2922 69.327 19.95 68.6842C20.6078 68.0415 21.0504 67.2188 21.2194 66.325C21.2628 66.3319 21.3068 66.3356 21.3507 66.3359H47.3462C52.3924 66.3553 56.4994 62.3739 56.5193 57.4432C56.5392 52.5125 52.4645 48.4995 47.4182 48.4801C47.3942 48.48 47.3702 48.48 47.3462 48.4801H36.8961C32.9807 48.4801 29.8066 45.3787 29.8066 41.5529C29.8066 37.7271 32.9807 34.6257 36.8961 34.6257H51.0611C51.2801 37.0951 53.5063 38.9235 56.0336 38.7094C58.5609 38.4954 60.4321 36.3202 60.213 33.8508C59.994 31.3814 57.7678 29.553 55.2405 29.767C54.3195 29.845 53.444 30.1927 52.7285 30.7647C52.013 31.3367 51.4908 32.1064 51.2302 32.9731H36.8961C32.0466 32.9731 28.1152 36.8145 28.1152 41.5529C28.1152 46.2915 32.0466 50.1327 36.8961 50.1327ZM16.7025 68.346C15.099 68.346 13.7991 67.0759 13.7991 65.509C13.7991 63.9422 15.099 62.6721 16.7025 62.6721C18.306 62.6721 19.606 63.9422 19.606 65.509C19.6044 67.0753 18.3055 68.3445 16.7025 68.346ZM55.6384 31.4024C57.2419 31.4024 58.5419 32.6726 58.5419 34.2394C58.5419 35.8062 57.2419 37.0764 55.6384 37.0764C54.0349 37.0764 52.7349 35.8062 52.7349 34.2394C52.7365 32.6733 54.0356 31.4039 55.6384 31.4024ZM16.6091 50.7143C18.8075 50.7144 20.5896 48.9731 20.5898 46.825C20.5899 44.6769 18.8078 42.9356 16.6094 42.9355C14.4109 42.9353 12.6288 44.6766 12.6286 46.8247V46.8249C12.6312 48.9719 14.4117 50.7118 16.6091 50.7143ZM16.6091 44.5882C17.8598 44.575 18.8848 45.555 18.8983 46.7771V46.8249C18.9082 48.0602 17.8914 49.0695 16.6271 49.0792C15.3628 49.0888 14.3299 48.0953 14.32 46.86C14.3198 46.8483 14.3198 46.8366 14.32 46.8249C14.3065 45.6028 15.3094 44.6014 16.56 44.5882H16.6091Z" fill="#171717"/>
<path id="Vector_3" d="M15.4667 59.2708C15.5462 59.3771 15.6494 59.4634 15.768 59.5228C15.8867 59.5823 16.0176 59.6132 16.1503 59.6132C16.283 59.6132 16.4139 59.5823 16.5326 59.5228C16.6513 59.4634 16.7544 59.3771 16.8339 59.2708L22.7874 51.3133C24.0478 49.6637 24.6747 47.6168 24.5543 45.5443C24.419 43.4246 23.5202 41.4258 22.0244 39.9178C18.7964 36.674 13.55 36.6612 10.3062 39.8892L10.2776 39.9178C8.78207 41.4254 7.88332 43.4237 7.74777 45.5429C7.61589 47.5205 8.24103 49.5668 9.51407 51.3124L15.4667 59.2708ZM9.45062 45.6555C9.5592 43.9477 10.2829 42.3372 11.4877 41.122C14.0508 38.5469 18.2161 38.5372 20.7912 41.1002L20.813 41.122C22.0181 42.3379 22.7419 43.9493 22.8501 45.6579C22.9432 47.3234 22.4358 48.967 21.4202 50.2902L16.1503 57.3354L10.8863 50.2986C9.85495 48.8839 9.34534 47.2354 9.45062 45.6555Z" fill="#171717"/>
</g>
<circle id="Ellipse 1961" cx="32.2305" cy="18" r="11" fill="#FFD220"/>
</g>
</svg>
