<svg width="22" height="23" viewBox="0 0 22 23" fill="none" xmlns="http://www.w3.org/2000/svg">
<g id="Containers - Free transport icons-2 1" clip-path="url(#clip0_2181_20219)">
<path id="Vector" d="M17.875 22.5H4.125C3.03098 22.5 1.98177 22.0654 1.20818 21.2918C0.434597 20.5182 0 19.469 0 18.375L0 4.625C0 3.53098 0.434597 2.48177 1.20818 1.70818C1.98177 0.934597 3.03098 0.5 4.125 0.5L17.875 0.5C18.969 0.5 20.0182 0.934597 20.7918 1.70818C21.5654 2.48177 22 3.53098 22 4.625V18.375C22 19.469 21.5654 20.5182 20.7918 21.2918C20.0182 22.0654 18.969 22.5 17.875 22.5Z" fill="#FFF8DE"/>
<g id="Group 1000003936">
<g id="Group">
<path id="Vector_2" d="M11.375 5.875V6.49975H10.625V5.875C10.625 5.67025 10.7953 5.5 11 5.5C11.2048 5.5 11.375 5.67025 11.375 5.875ZM12.6253 7H9.3755C9.27605 7 9.18067 7.03951 9.11034 7.10983C9.04001 7.18016 9.0005 7.27554 9.0005 7.375V9.00025H13.0003V7.375C13.0003 7.27554 12.9607 7.18016 12.8904 7.10983C12.8201 7.03951 12.7247 7 12.6253 7ZM7.87475 9.49975C7.67 9.49975 7.49975 9.67 7.49975 9.87475V11.7197L10.625 10.5895V9.49975H7.87475ZM14.1253 9.49975H11.375V10.585L14.5003 11.7197V9.87475C14.5003 9.67 14.33 9.49975 14.1253 9.49975ZM15.2353 12.5148L11.1253 11.0298C11.0447 10.9997 10.9561 10.9997 10.8755 11.0298L6.7655 12.5148C6.67842 12.5459 6.60582 12.6079 6.56155 12.6891C6.51729 12.7703 6.50446 12.865 6.5255 12.955L7.06025 15.2898C7.07 15.2845 7.0805 15.2845 7.09025 15.2845C7.16 15.2695 7.2155 15.2695 7.25 15.2695C7.67525 15.2695 8.06 15.4645 8.27525 15.7998C8.465 16.0848 8.7755 16.2498 9.125 16.2498C9.47525 16.2498 9.785 16.0848 9.98 15.7945C10.19 15.4645 10.5748 15.2695 11 15.2695C11.4253 15.2695 11.81 15.4645 12.0253 15.7998C12.215 16.0848 12.5255 16.2498 12.875 16.2498C13.2253 16.2498 13.535 16.0848 13.73 15.7945C13.94 15.4645 14.3248 15.2695 14.75 15.2695C14.7853 15.2695 14.84 15.2695 14.9098 15.2845C14.9195 15.2845 14.93 15.2845 14.9398 15.2898L15.4745 12.955C15.4959 12.865 15.4834 12.7703 15.4392 12.6891C15.395 12.6078 15.3224 12.5457 15.2353 12.5148Z" fill="url(#paint0_linear_2181_20219)"/>
</g>
<path id="Vector_3" d="M17 17.0665C17 17.3032 16.8298 17.5 16.625 17.5H5.375C5.17025 17.5 5 17.3032 5 17.0665C5 16.8299 5.17025 16.6331 5.375 16.6331C5.89475 16.6331 6.365 16.3383 6.64475 15.8468C6.70335 15.7458 6.78213 15.6625 6.87442 15.6041C6.96671 15.5458 7.06981 15.5139 7.175 15.5113C7.19975 15.5 7.22525 15.5 7.25 15.5C7.49 15.5 7.72475 15.6153 7.85525 15.8468C8.135 16.3383 8.60525 16.6331 9.125 16.6331C9.64475 16.6331 10.115 16.3383 10.3947 15.8468C10.5245 15.6153 10.76 15.5 11 15.5C11.24 15.5 11.4747 15.6153 11.6052 15.8468C11.885 16.3383 12.3552 16.6331 12.875 16.6331C13.3947 16.6331 13.865 16.3383 14.1448 15.8468C14.2745 15.6153 14.51 15.5 14.75 15.5C14.7747 15.5 14.8003 15.5 14.825 15.5113C14.9302 15.5138 15.0333 15.5457 15.1256 15.6041C15.2179 15.6625 15.2967 15.7457 15.3552 15.8468C15.635 16.3383 16.1053 16.6331 16.625 16.6331C16.8298 16.6331 17 16.8299 17 17.0665Z" fill="#FFD220"/>
</g>
</g>
<defs>
<linearGradient id="paint0_linear_2181_20219" x1="6.51563" y1="10.8749" x2="15.4847" y2="10.8749" gradientUnits="userSpaceOnUse">
<stop stop-color="#29B662"/>
<stop offset="0.0001" stop-color="#24BD63"/>
<stop offset="1" stop-color="#1A9B4F"/>
</linearGradient>
<clipPath id="clip0_2181_20219">
<rect width="22" height="22" fill="white" transform="translate(0 0.5)"/>
</clipPath>
</defs>
</svg>
