<svg width="24" height="24" viewBox="0 0 24 24" fill="none" xmlns="http://www.w3.org/2000/svg">
<g id="foundation:social-twitter">
<path id="Vector" d="M20 7.03899C19.4009 7.30434 18.7655 7.47843 18.1148 7.55545C18.8001 7.14544 19.313 6.50026 19.5578 5.74016C18.9136 6.12253 18.2087 6.39178 17.4736 6.53625C17.1664 6.20872 16.7953 5.94774 16.3831 5.76949C15.971 5.59124 15.5266 5.49952 15.0776 5.5C13.2649 5.5 11.795 6.96919 11.795 8.78199C11.795 9.03898 11.8241 9.28973 11.8802 9.53009C9.15201 9.39319 6.7334 8.08646 5.11435 6.1006C4.82242 6.60149 4.66903 7.17101 4.6699 7.75074C4.66947 8.29109 4.80254 8.82318 5.0573 9.29973C5.31206 9.77629 5.68061 10.1825 6.1302 10.4824C5.60902 10.4659 5.09932 10.3251 4.64351 10.0719C4.64309 10.0856 4.64309 10.0991 4.64309 10.1132C4.64309 11.7029 5.77448 13.0294 7.27592 13.3312C6.79246 13.4621 6.28556 13.4813 5.79359 13.3873C6.21124 14.6909 7.42345 15.6401 8.85986 15.6667C7.69709 16.5791 6.26121 17.0739 4.78314 17.0717C4.51821 17.0717 4.25703 17.0564 4 17.0258C5.50089 17.99 7.2477 18.5018 9.0317 18.5C15.0695 18.5 18.3712 13.4993 18.3712 9.16279C18.3712 9.02069 18.3679 8.8788 18.3616 8.73774C19.0046 8.27361 19.5595 7.69832 20 7.03899Z" fill="#171717"/>
</g>
</svg>
