<svg width="30" height="31" viewBox="0 0 30 31" fill="none" xmlns="http://www.w3.org/2000/svg">
<g id="vuesax/bulk/empty-wallet">
<g id="empty-wallet">
<path id="Vector" opacity="0.4" d="M22.55 17.4375C22.025 17.95 21.725 18.6875 21.8 19.475C21.9125 20.825 23.15 21.8125 24.5 21.8125H26.875V23.3C26.875 25.8875 24.7625 28 22.175 28H7.825C5.2375 28 3.125 25.8875 3.125 23.3V14.8875C3.125 12.3 5.2375 10.1875 7.825 10.1875H22.175C24.7625 10.1875 26.875 12.3 26.875 14.8875V16.6875H24.35C23.65 16.6875 23.0125 16.9625 22.55 17.4375Z" fill="url(#paint0_linear_2881_1926)"/>
<path id="Vector_2" d="M18.5625 5.43753V10.1875H7.825C5.2375 10.1875 3.125 12.3 3.125 14.8875V10.3001C3.125 8.81255 4.0375 7.4875 5.425 6.9625L15.35 3.2125C16.9 2.6375 18.5625 3.77503 18.5625 5.43753Z" fill="url(#paint1_linear_2881_1926)"/>
<path id="Vector_3" d="M28.2005 17.9624V20.5375C28.2005 21.225 27.6505 21.7875 26.9505 21.8125H24.5005C23.1505 21.8125 21.913 20.825 21.8005 19.475C21.7255 18.6875 22.0255 17.95 22.5505 17.4375C23.013 16.9625 23.6505 16.6875 24.3505 16.6875H26.9505C27.6505 16.7125 28.2005 17.2749 28.2005 17.9624Z" fill="url(#paint2_linear_2881_1926)"/>
<g id="Group">
<path id="Vector_4" d="M17.5 16.4375H8.75C8.2375 16.4375 7.8125 16.0125 7.8125 15.5C7.8125 14.9875 8.2375 14.5625 8.75 14.5625H17.5C18.0125 14.5625 18.4375 14.9875 18.4375 15.5C18.4375 16.0125 18.0125 16.4375 17.5 16.4375Z" fill="url(#paint3_linear_2881_1926)"/>
</g>
</g>
</g>
<defs>
<linearGradient id="paint0_linear_2881_1926" x1="3.125" y1="19.0937" x2="26.875" y2="19.0937" gradientUnits="userSpaceOnUse">
<stop stop-color="#29B662"/>
<stop offset="0.0001" stop-color="#24BD63"/>
<stop offset="1" stop-color="#1A9B4F"/>
</linearGradient>
<linearGradient id="paint1_linear_2881_1926" x1="3.125" y1="8.97452" x2="18.5625" y2="8.97452" gradientUnits="userSpaceOnUse">
<stop stop-color="#29B662"/>
<stop offset="0.0001" stop-color="#24BD63"/>
<stop offset="1" stop-color="#1A9B4F"/>
</linearGradient>
<linearGradient id="paint2_linear_2881_1926" x1="21.7891" y1="19.25" x2="28.2005" y2="19.25" gradientUnits="userSpaceOnUse">
<stop stop-color="#29B662"/>
<stop offset="0.0001" stop-color="#24BD63"/>
<stop offset="1" stop-color="#1A9B4F"/>
</linearGradient>
<linearGradient id="paint3_linear_2881_1926" x1="7.8125" y1="15.5" x2="18.4375" y2="15.5" gradientUnits="userSpaceOnUse">
<stop stop-color="#29B662"/>
<stop offset="0.0001" stop-color="#24BD63"/>
<stop offset="1" stop-color="#1A9B4F"/>
</linearGradient>
</defs>
</svg>
