<svg xmlns="http://www.w3.org/2000/svg" width="277" height="21" viewBox="0 0 277 21" fill="none">
<path d="M170.655 21.0003C168.109 21.0003 165.718 20.5998 163.534 19.6739C159.88 17.9087 156.584 16.0602 153.397 14.2694C145.414 9.78424 137.875 5.549 127.754 4.47898C114.981 2.32292 105.929 7.25015 96.3545 12.4689C92.756 14.4296 89.0359 16.4575 85.0526 18.1426C77.4282 21.3623 67.9551 21.3623 60.334 18.1426C58.6433 17.2872 57.0184 16.4415 55.3672 15.5861C38.5723 6.84649 19.5375 -3.05923 2.4137 10.3673C1.77558 10.8671 0.841438 10.7678 0.328316 10.1495C-0.184806 9.52795 -0.0861289 8.61811 0.551984 8.11834C19.2086 -6.50958 40.0328 4.33161 56.7651 13.0392C58.4065 13.8913 60.0215 14.7339 61.6102 15.5412C68.4091 18.4117 76.9808 18.4085 83.8718 15.4964C87.7202 13.8721 91.3746 11.8794 94.9039 9.95083C104.509 4.71605 114.445 -0.701341 128.168 1.62131C138.815 2.74259 146.617 7.1252 154.88 11.7673C158.028 13.5357 161.281 15.3618 164.784 17.0566C173.155 20.5934 186.187 14.7659 198.795 9.1307C209.567 4.31559 220.717 -0.672508 229.431 0.077149C237.851 1.09271 244.647 5.27028 251.219 9.3133C255.021 11.652 258.613 13.8593 262.484 15.4964C278.401 21.4744 294.617 13.3916 305.406 5.55541C306.063 5.07486 306.994 5.21262 307.481 5.85015C307.971 6.49088 307.836 7.39431 307.179 7.87166C290.844 19.7348 275 23.2973 261.359 18.1714C257.221 16.4222 253.363 14.0515 249.633 11.7577C243.338 7.88447 236.828 3.8831 229.121 2.95083C221.227 2.29088 210.455 7.09957 200.031 11.7609C189.822 16.3229 179.342 21.0035 170.655 21.0035V21.0003Z" fill="#001258" stroke="#001258"/>
</svg>