<svg width="18" height="13" viewBox="0 0 18 13" fill="none" xmlns="http://www.w3.org/2000/svg">
<path d="M16.9844 1.89733C16.7927 1.2165 16.2277 0.679748 15.511 0.497665C14.211 0.166748 8.99935 0.166748 8.99935 0.166748C8.99935 0.166748 3.78768 0.166748 2.48768 0.497665C1.77102 0.679748 1.20602 1.2165 1.01435 1.89733C0.666016 3.13233 0.666016 6.50008 0.666016 6.50008C0.666016 6.50008 0.666016 9.86783 1.01435 11.1028C1.20602 11.7837 1.77102 12.3204 2.48768 12.5025C3.78768 12.8334 8.99935 12.8334 8.99935 12.8334C8.99935 12.8334 14.211 12.8334 15.511 12.5025C16.2285 12.3204 16.7927 11.7837 16.9844 11.1028C17.3327 9.86783 17.3327 6.50008 17.3327 6.50008C17.3327 6.50008 17.3327 3.13233 16.9844 1.89733ZM7.33268 8.55683V4.44333C7.33268 4.13854 7.68018 3.94854 7.95768 4.10054L11.7077 6.15729C11.9852 6.30929 11.9852 6.69087 11.7077 6.84287L7.95768 8.89962C7.68018 9.05241 7.33268 8.86162 7.33268 8.55683Z" fill="black"/>
</svg>
