<svg xmlns="http://www.w3.org/2000/svg" width="14" height="15" viewBox="0 0 14 15" fill="none">
  <g clip-path="url(#clip0_1118_14119)">
    <path d="M7 0.5C3.14005 0.5 0 3.64005 0 7.5C0 11.36 3.14005 14.5 7 14.5C10.86 14.5 14 11.36 14 7.5C14 3.64005 10.86 0.5 7 0.5Z" fill="#F44336"/>
    <path d="M9.57759 9.25293C9.80564 9.48109 9.80564 9.84971 9.57759 10.0778C9.52348 10.1321 9.45918 10.1751 9.38839 10.2044C9.3176 10.2338 9.24171 10.2488 9.16509 10.2487C9.01579 10.2487 8.86647 10.1916 8.75269 10.0778L6.99982 8.32486L5.24695 10.0779C5.19284 10.1321 5.12856 10.1751 5.05778 10.2045C4.987 10.2338 4.91113 10.2488 4.83452 10.2488C4.7579 10.2488 4.68202 10.2338 4.61123 10.2045C4.54045 10.1751 4.47615 10.1321 4.42204 10.0779C4.19399 9.84971 4.19399 9.48109 4.42204 9.25293L6.17502 7.50006L4.42201 5.74719C4.19396 5.51903 4.19396 5.15041 4.42201 4.92228C4.65017 4.69424 5.01879 4.69424 5.24695 4.92228L6.99982 6.67526L8.75269 4.92226C8.98084 4.69421 9.34947 4.69421 9.57759 4.92226C9.80564 5.15041 9.80564 5.51903 9.57759 5.74719L7.82461 7.50006L9.57759 9.25293Z" fill="#FAFAFA"/>
  </g>
  <defs>
    <clipPath id="clip0_1118_14119">
      <rect width="14" height="14" fill="white" transform="translate(0 0.5)"/>
    </clipPath>
  </defs>
</svg>