<svg xmlns="http://www.w3.org/2000/svg" width="26" height="27" viewBox="0 0 26 27" fill="none">
<g clip-path="url(#clip0_1118_13900)">
<path d="M25.5653 16.9657C24.3821 16.9379 23.2168 17.2579 22.2137 17.886C22.0235 17.9909 21.8359 18.0945 21.6387 18.1893L25.792 13.1959C26.012 12.9386 26.0621 12.5768 25.9202 12.2694C25.7784 11.9621 25.4705 11.7655 25.132 11.766H21.373L16.8063 8.44463L16.5854 8.00311C16.1474 7.12023 15.2457 6.56303 14.2602 6.56623H9.80057L9.36728 5.6996H11.6994C11.9387 5.6996 12.1327 5.50557 12.1327 5.2663C12.1327 5.02703 11.9387 4.83301 11.6994 4.83301H6.93295C6.69363 4.83301 6.49966 5.02698 6.49966 5.2663C6.49966 5.50562 6.69363 5.6996 6.93295 5.6996H8.39842L8.83171 6.56623H6.93295C6.21504 6.56623 5.63302 7.14821 5.63302 7.86616C5.63302 8.58412 6.21499 9.1661 6.93295 9.1661H7.53178L6.23185 11.766H5.84969C5.57706 11.7665 5.32043 11.8948 5.15641 12.1126L4.11647 13.4992H3.37114C3.22353 13.4992 3.08602 13.5743 3.00629 13.6985L0.898679 16.9822C0.749187 16.9735 0.598375 16.9657 0.433294 16.9657C0.193974 16.9657 0 17.1597 0 17.399C0 17.6383 0.193974 17.8323 0.433294 17.8323C1.46943 17.8074 2.48972 18.0903 3.3651 18.6452C4.36797 19.2735 5.53324 19.5935 6.71633 19.5656C7.64355 19.5925 8.56376 19.3968 9.39983 18.9949L9.40592 18.9919C9.63686 18.8805 9.85267 18.7622 10.0658 18.6452C10.9406 18.0905 11.9603 17.8076 12.9959 17.8323C14.0324 17.8073 15.0532 18.0902 15.9289 18.6452C16.9325 19.2737 18.0986 19.5937 19.2823 19.5656C20.4655 19.5934 21.6309 19.2734 22.6339 18.6452C23.5093 18.0905 24.5293 17.8077 25.5653 17.8323C25.8046 17.8323 25.9986 17.6383 25.9986 17.399C25.9986 17.1597 25.8047 16.9657 25.5653 16.9657ZM16.325 9.1661L17.5166 10.0327H12.566C12.3267 10.0327 12.1327 9.83876 12.1327 9.59944V9.16615H16.325V9.1661ZM6.93295 8.29951C6.69363 8.29951 6.49966 8.10553 6.49966 7.86621C6.49966 7.6269 6.69363 7.43292 6.93295 7.43292H14.2602C14.8785 7.43186 15.4497 7.76273 15.7565 8.29956H6.93295V8.29951ZM8.50069 9.1661H11.2661V9.59939C11.2661 10.3173 11.8481 10.8993 12.566 10.8993H18.7082L19.8998 11.766H7.20076L8.50069 9.1661ZM5.84969 12.6326H14.7325V13.0659C14.7325 13.3052 14.5386 13.4992 14.2992 13.4992H5.19973L5.84969 12.6326ZM19.2823 18.699C18.2451 18.7244 17.2238 18.4414 16.3475 17.886C15.3444 17.2579 14.1791 16.938 12.9959 16.9657C11.8133 16.938 10.6487 17.258 9.64635 17.886C8.77159 18.4409 7.75191 18.7238 6.71633 18.699C5.68004 18.7239 4.65959 18.4411 3.78412 17.886C3.18534 17.5244 2.53243 17.261 1.85027 17.1061L3.60777 14.3658H14.2992C15.0172 14.3658 15.5992 13.7838 15.5992 13.0659V12.6326H16.8991V13.9325C16.8991 14.1718 17.0931 14.3658 17.3324 14.3658C17.5717 14.3658 17.7657 14.1718 17.7657 13.9325V12.6326H18.6323V13.9325C18.6323 14.1718 18.8263 14.3658 19.0656 14.3658C19.3049 14.3658 19.4989 14.1718 19.4989 13.9325V12.6326H20.3656V13.9325C20.3656 14.1718 20.5595 14.3658 20.7989 14.3658C21.0382 14.3658 21.2321 14.1718 21.2321 13.9325V12.6352H25.128L20.135 18.6435C19.8523 18.6808 19.5675 18.6993 19.2823 18.699Z" fill="#171717"/>
<path d="M25.5652 19.5652C24.382 19.5374 23.2167 19.8574 22.2136 20.4855C21.3383 21.0402 20.3182 21.3231 19.2822 21.2985C18.2457 21.3235 17.225 21.0406 16.3492 20.4855C15.3456 19.8571 14.1796 19.5371 12.9958 19.5652C11.8133 19.5375 10.6486 19.8575 9.6463 20.4855C8.77154 21.0403 7.75186 21.3233 6.71628 21.2985C5.67999 21.3234 4.65954 21.0405 3.78407 20.4855C2.78135 19.8574 1.61623 19.5373 0.433294 19.5652C0.193974 19.5652 0 19.7592 0 19.9985C0 20.2378 0.193974 20.4318 0.433294 20.4318C1.46943 20.4068 2.48972 20.6897 3.3651 21.2447C4.36797 21.873 5.53324 22.193 6.71633 22.165C7.89891 22.1929 9.06362 21.8727 10.0658 21.2443C10.9407 20.6897 11.9603 20.407 12.9959 20.4318C14.0324 20.4068 15.0532 20.6897 15.9289 21.2447C16.9325 21.8732 18.0985 22.1932 19.2823 22.1651C20.4655 22.1929 21.6309 21.8729 22.6339 21.2447C23.5093 20.69 24.5293 20.4072 25.5653 20.4318C25.8046 20.4318 25.9986 20.2378 25.9986 19.9985C25.9986 19.7592 25.8046 19.5652 25.5652 19.5652Z" fill="#171717"/>
</g>
<defs>
<clipPath id="clip0_1118_13900">
<rect width="26" height="26" fill="white" transform="translate(0 0.5)"/>
</clipPath>
</defs>
</svg>