<svg xmlns="http://www.w3.org/2000/svg" width="10" height="11" viewBox="0 0 10 11" fill="none">
<path d="M1.1499 9.1501H8.8499C9.1249 9.1501 9.3499 8.9251 9.3499 8.6501V2.3501C9.3499 2.0751 9.1249 1.8501 8.8499 1.8501H1.1499C0.874902 1.8501 0.649902 2.0751 0.649902 2.3501V8.6501C0.649902 8.9251 0.874902 9.1501 1.1499 9.1501ZM7.5039 2.8391C7.9809 2.8391 8.3679 3.2261 8.3679 3.7031C8.3679 4.1801 7.9809 4.5671 7.5039 4.5671C7.0269 4.5671 6.6399 4.1801 6.6399 3.7031C6.6399 3.2261 7.0269 2.8391 7.5039 2.8391ZM1.5789 7.7451L3.7979 4.6751C3.9589 4.4521 4.2229 4.4521 4.3839 4.6751L5.6959 6.4891C5.8569 6.7121 6.1209 6.7121 6.2819 6.4891L6.6389 5.9951C6.7999 5.7721 7.0639 5.7721 7.2249 5.9951L8.4899 7.7451C8.6509 7.9681 8.5579 8.1501 8.2829 8.1501H1.7859C1.5109 8.1501 1.4179 7.9681 1.5789 7.7451Z" fill="white"/>
</svg>