<svg xmlns="http://www.w3.org/2000/svg" width="12" height="12" viewBox="0 0 12 12" fill="none">
<path d="M6.00062 5.875C6.24155 5.875 6.44743 5.78921 6.61826 5.61764C6.78909 5.44607 6.87451 5.23982 6.87451 4.99889C6.87451 4.75796 6.78872 4.55208 6.61715 4.38125C6.44558 4.21042 6.23933 4.125 5.9984 4.125C5.75747 4.125 5.55159 4.21079 5.38076 4.38236C5.20993 4.55393 5.12451 4.76018 5.12451 5.00111C5.12451 5.24204 5.2103 5.44792 5.38187 5.61875C5.55344 5.78958 5.75969 5.875 6.00062 5.875ZM5.99951 11C4.65784 9.85833 3.65576 8.79792 2.99326 7.81875C2.33076 6.83958 1.99951 5.93333 1.99951 5.1C1.99951 3.85 2.40159 2.85417 3.20576 2.1125C4.00993 1.37083 4.94118 1 5.99951 1C7.05784 1 7.98909 1.37083 8.79326 2.1125C9.59743 2.85417 9.99951 3.85 9.99951 5.1C9.99951 5.93333 9.66826 6.83958 9.00576 7.81875C8.34326 8.79792 7.34118 9.85833 5.99951 11Z" fill="#171717"/>
</svg>