<svg xmlns="http://www.w3.org/2000/svg" width="64" height="64" viewBox="0 0 64 64" fill="none">
<g clip-path="url(#clip0_1118_13837)">
<path d="M48.9123 52.9694L44.0257 47.9592C43.5529 47.499 42.9397 47.2199 42.2896 47.169C41.6395 47.1181 40.9922 47.2985 40.4566 47.6798L37.9544 45.1152C39.434 43.2637 40.1902 40.9147 40.0762 38.5239C39.9622 36.1331 38.9863 33.8709 37.3376 32.1762L37.3174 32.1592V9.24968C37.3166 8.49889 37.0254 7.77907 36.5076 7.24819C35.9899 6.7173 35.2878 6.41872 34.5556 6.41797H2.79499C2.06274 6.41872 1.3607 6.7173 0.84292 7.24819C0.325143 7.77907 0.0339343 8.49889 0.0332031 9.24968V56.4449C0.0339343 57.1957 0.325143 57.9155 0.84292 58.4464C1.3607 58.9772 2.06274 59.2758 2.79499 59.2766H34.5556C35.2878 59.2758 35.9899 58.9772 36.5076 58.4464C37.0254 57.9155 37.3166 57.1957 37.3174 56.4449V47.1314L39.1521 49.0116C38.7658 49.5559 38.5813 50.2235 38.6316 50.8946C38.6819 51.5657 38.9636 52.1966 39.4264 52.674L44.313 57.6852C44.6148 57.9952 44.9733 58.2413 45.3679 58.4092C45.7625 58.5771 46.1856 58.6637 46.6128 58.6639C47.0401 58.6641 47.4632 58.578 47.858 58.4104C48.2527 58.2429 48.6114 57.9972 48.9136 57.6874C49.2157 57.3777 49.4553 57.0099 49.6187 56.6051C49.7821 56.2003 49.8661 55.7665 49.8659 55.3284C49.8657 54.8903 49.7813 54.4566 49.6175 54.052C49.4537 53.6474 49.2138 53.2798 48.9114 52.9704L48.9123 52.9694ZM36.035 44.4809C34.9771 45.5644 33.6298 46.3021 32.1631 46.6007C30.6965 46.8992 29.1764 46.7452 27.7951 46.1582C26.4138 45.5711 25.2333 44.5774 24.4027 43.3025C23.5721 42.0277 23.1288 40.529 23.1288 38.9959C23.1288 37.4627 23.5721 35.964 24.4027 34.6892C25.2333 33.4143 26.4138 32.4206 27.7951 31.8335C29.1764 31.2465 30.6965 31.0925 32.1631 31.3911C33.6298 31.6896 34.9771 32.4273 36.035 33.5108C37.4466 34.9694 38.2387 36.941 38.2387 38.9959C38.2387 41.0507 37.4466 43.0223 36.035 44.4809ZM34.5556 57.3888H2.79499C2.55084 57.3888 2.31668 57.2893 2.14403 57.1123C1.97139 56.9353 1.8744 56.6952 1.8744 56.4449V9.24968C1.8744 8.99934 1.97139 8.75926 2.14403 8.58224C2.31668 8.40522 2.55084 8.30578 2.79499 8.30578H34.5556C34.7997 8.30578 35.0339 8.40522 35.2065 8.58224C35.3792 8.75926 35.4762 8.99934 35.4762 9.24968V30.7084C34.2208 29.9404 32.8077 29.4841 31.3498 29.376C29.8918 29.2678 28.4293 29.5108 27.0792 30.0855C25.7292 30.6602 24.5289 31.5506 23.5743 32.6857C22.6198 33.8209 21.9373 35.1691 21.5816 36.6229H6.28497C6.04082 36.6229 5.80666 36.7223 5.63401 36.8994C5.46137 37.0764 5.36438 37.3165 5.36438 37.5668C5.36438 37.8171 5.46137 38.0572 5.63401 38.2342C5.80666 38.4112 6.04082 38.5107 6.28497 38.5107H21.3054C21.2167 40.2509 21.5904 41.9831 22.3868 43.5226C23.1832 45.062 24.3723 46.3508 25.8272 47.2515C27.2822 48.1521 28.9483 48.6308 30.6479 48.6364C32.3474 48.642 34.0165 48.1744 35.4771 47.2833V56.4449C35.4771 56.6952 35.3801 56.9353 35.2075 57.1123C35.0348 57.2893 34.7997 57.3888 34.5556 57.3888ZM47.6096 56.3401C47.4801 56.4769 47.3252 56.5857 47.1539 56.66C46.9826 56.7343 46.7986 56.7726 46.6126 56.7726C46.4267 56.7726 46.2426 56.7343 46.0713 56.66C45.9001 56.5857 45.7451 56.4769 45.6156 56.3401L40.7291 51.2119C40.5562 51.0288 40.4595 50.784 40.4593 50.5291C40.4592 50.2743 40.5556 50.0294 40.7282 49.846L41.4214 49.1192C41.5061 49.0302 41.6073 48.9595 41.7191 48.9112C41.8309 48.863 41.951 48.8381 42.0722 48.8381C42.1935 48.8381 42.3136 48.863 42.4254 48.9112C42.5372 48.9595 42.6384 49.0302 42.7231 49.1192L47.6106 54.2465C47.8744 54.5279 48.0218 54.903 48.0218 55.2933C48.0218 55.6836 47.8735 56.0588 47.6096 56.3401Z" fill="currentColor"/>
<path d="M16.3387 46.0617H6.28583C6.04167 46.0617 5.80752 46.1612 5.63487 46.3382C5.46223 46.5152 5.36523 46.7553 5.36523 47.0056C5.36523 47.256 5.46223 47.4961 5.63487 47.6731C5.80752 47.8501 6.04167 47.9495 6.28583 47.9495H16.3387C16.5829 47.9495 16.8171 47.8501 16.9897 47.6731C17.1624 47.4961 17.2593 47.256 17.2593 47.0056C17.2593 46.7553 17.1624 46.5152 16.9897 46.3382C16.8171 46.1612 16.5829 46.0617 16.3387 46.0617ZM6.28583 29.0715H20.0211C20.2653 29.0715 20.4994 28.972 20.6721 28.795C20.8447 28.618 20.9417 28.3779 20.9417 28.1276C20.9417 27.8772 20.8447 27.6371 20.6721 27.4601C20.4994 27.2831 20.2653 27.1837 20.0211 27.1837H6.28583C6.04167 27.1837 5.80752 27.2831 5.63487 27.4601C5.46223 27.6371 5.36523 27.8772 5.36523 28.1276C5.36523 28.3779 5.46223 28.618 5.63487 28.795C5.80752 28.972 6.04167 29.0715 6.28583 29.0715ZM6.28583 19.6324H31.0683C31.3125 19.6324 31.5466 19.533 31.7193 19.356C31.8919 19.179 31.9889 18.9389 31.9889 18.6885C31.9889 18.4382 31.8919 18.1981 31.7193 18.0211C31.5466 17.8441 31.3125 17.7446 31.0683 17.7446H6.28583C6.04167 17.7446 5.80752 17.8441 5.63487 18.0211C5.46223 18.1981 5.36523 18.4382 5.36523 18.6885C5.36523 18.9389 5.46223 19.179 5.63487 19.356C5.80752 19.533 6.04167 19.6324 6.28583 19.6324Z" fill="currentColor"/>
<circle cx="51.9693" cy="21.1451" r="10.5191" fill="#FFD220"/>
</g>
<defs>
<clipPath id="clip0_1118_13837">
<rect width="63.1148" height="63.1148" fill="white" transform="translate(0.426758 0.106445)"/>
</clipPath>
</defs>
</svg>

