<svg xmlns="http://www.w3.org/2000/svg" width="32" height="32" viewBox="0 0 32 32" fill="none">
<g clip-path="url(#clip0_3193_39142)">
<path d="M6.72859 4.01343C8.22054 4.01343 9.43465 5.22753 9.43465 6.71949C9.43465 8.21145 8.22049 9.42555 6.72852 9.42555C5.23656 9.42555 4.02246 8.21145 4.02246 6.71949C4.02246 5.22754 5.23662 4.01343 6.72859 4.01343ZM5.47646 6.71949C5.47646 7.41007 6.03794 7.97155 6.72852 7.97155C7.41911 7.97155 7.98058 7.41007 7.98058 6.71949C7.98058 6.02891 7.41911 5.46743 6.72852 5.46743C6.03794 5.46743 5.47646 6.02891 5.47646 6.71949Z" fill="#171717" stroke="#FFD220" stroke-width="0.375"/>
<path d="M20.1375 24.9785L20.0031 25.0182C18.9504 25.3294 18.1339 26.1959 17.894 27.2766L17.8614 27.4235H17.7109H4.77547C3.69687 27.4235 2.81961 26.5463 2.81961 25.4676C2.81961 24.389 3.69687 23.5118 4.77547 23.5118H13.0506C14.8286 23.5118 16.2754 22.065 16.2754 20.287C16.2754 18.5091 14.8286 17.0623 13.0506 17.0623H8.34095H8.01032L8.18003 16.7786L12.1146 10.2005C12.1146 10.2005 12.1146 10.2005 12.1146 10.2005L20.1375 24.9785ZM20.1375 24.9785V24.8384M20.1375 24.9785V24.8384M20.1375 24.8384V11.4256C20.1375 11.1843 20.2572 10.9588 20.4569 10.8236C20.6567 10.6884 20.9105 10.6611 21.1346 10.7506L20.1375 24.8384ZM6.77245 0.271973C10.2653 0.271973 13.1073 3.11397 13.1073 6.60685L21.6957 20.5384L21.5916 20.5901V20.7063V24.8389V24.9789L21.7259 25.0187C22.9856 25.3914 23.9069 26.5586 23.9069 27.9364C23.9069 29.6141 22.5417 30.9793 20.864 30.9793C19.5607 30.9793 18.4455 30.155 18.0131 28.9994L17.9676 28.8776H17.8375H4.77547C2.89543 28.8776 1.36554 27.3477 1.36554 25.4676C1.36554 23.5876 2.89543 22.0577 4.77547 22.0577H13.0507C14.0273 22.0577 14.8214 21.2636 14.8214 20.287C14.8214 19.3104 14.0273 18.5162 13.0507 18.5162L6.7252 18.5162L6.72404 18.5162C6.43806 18.518 6.22252 18.3509 6.10063 18.156L1.40556 10.1821C0.772277 9.10662 0.4375 7.87824 0.4375 6.63012V6.6068C0.4375 3.11392 3.27956 0.271973 6.77245 0.271973ZM2.65847 9.44433L2.6585 9.44436L6.57294 16.0925L6.73325 16.3647L6.89543 16.0936L10.8668 9.45399L10.7058 9.35774L10.8668 9.45398C11.3813 8.59365 11.6533 7.60915 11.6533 6.60674C11.6533 3.91529 9.4639 1.72585 6.77239 1.72585C4.08088 1.72585 1.8915 3.91529 1.8915 6.60674V6.63006V6.6301C1.89172 7.61978 2.15652 8.5914 2.65847 9.44433ZM20.8613 26.3476H20.861C19.9862 26.3493 19.2752 27.0611 19.2752 27.9364C19.2752 28.8126 19.9879 29.5252 20.864 29.5252C21.7402 29.5252 22.4528 28.8126 22.4528 27.9364C22.4528 27.0614 21.7424 26.3497 20.868 26.3477V26.3475L20.8645 26.3476C20.8635 26.3476 20.8624 26.3476 20.8613 26.3476ZM21.5916 18.6643V18.9667L21.8624 18.8322L28.431 15.5718L28.8064 15.3854L28.4172 15.2297L21.8487 12.6023L21.5916 12.4995V12.7764V18.6643Z" fill="#171717" stroke="#FFD220" stroke-width="0.375"/>
</g>
<defs>
<clipPath id="clip0_3193_39142">
<rect width="31.25" height="31.25" fill="white" transform="translate(0.25)"/>
</clipPath>
</defs>
</svg>