<svg xmlns="http://www.w3.org/2000/svg" width="68" height="50" viewBox="0 0 68 50" fill="none">
<path opacity="0.06" fill-rule="evenodd" clip-rule="evenodd" d="M53.6465 13.7148C56.1073 10.165 60.757 6.34846 67.084 3.16525C68.7321 2.33862 67.9906 -0.221275 66.1741 0.0153823C52.8726 1.74864 44.2499 7.74506 39.5419 16.6614C37.8384 19.9243 36.6762 23.4572 36.1032 27.1143C35.7179 29.4908 35.6175 31.2741 35.6175 33.334C35.6175 37.7541 37.3232 41.9932 40.3594 45.1186C43.3956 48.2441 47.5135 50 51.8073 50C56.1011 50 60.2191 48.2441 63.2552 45.1186C66.2914 41.9932 67.9971 37.7541 67.9971 33.334C67.9971 24.1311 60.6307 16.6614 52.17 16.6614C52.6168 15.4014 52.7204 15.0448 53.6465 13.7148ZM18.0289 13.7148C20.4898 10.165 25.1395 6.34846 31.4665 3.16525C33.1146 2.33862 32.3731 -0.221275 30.5566 0.0153823C17.2551 1.74864 8.63239 7.74506 3.9244 16.6614C2.2209 19.9243 1.05868 23.4572 0.485694 27.1143C0.100377 29.4908 0 31.2741 0 33.334C-3.1681e-08 35.5226 0.418761 37.6898 1.23237 39.7118C2.04599 41.7338 3.23852 43.5711 4.74188 45.1186C6.24524 46.6662 8.02999 47.8938 9.99422 48.7314C11.9585 49.5689 14.0637 50 16.1898 50C18.3159 50 20.4211 49.5689 22.3853 48.7314C24.3496 47.8938 26.1343 46.6662 27.6377 45.1186C29.1411 43.5711 30.3336 41.7338 31.1472 39.7118C31.9608 37.6898 32.3796 35.5226 32.3796 33.334C32.3796 24.1311 25.0132 16.6614 16.5524 16.6614C16.9993 15.4014 17.1029 15.0448 18.0289 13.7148Z" fill="#171717"/>
</svg>