<svg xmlns="http://www.w3.org/2000/svg" width="30" height="31" viewBox="0 0 30 31" fill="none">
<circle cx="14.9493" cy="15.4303" r="14.8751" fill="#676767"/>
<path fill-rule="evenodd" clip-rule="evenodd" d="M13.2761 13.4577H15.6931V14.6616C16.0413 13.9692 16.9342 13.3471 18.2754 13.3471C20.8467 13.3471 21.4571 14.7254 21.4571 17.2544V21.9381H18.854V17.8303C18.854 16.3901 18.5058 15.578 17.6194 15.578C16.3901 15.578 15.8792 16.4533 15.8792 17.8297V21.9381H13.2761V13.4577ZM8.81235 21.8275H11.4155V13.3471H8.81235V21.8275ZM11.7884 10.5819C11.7885 10.8001 11.7452 11.0161 11.6611 11.2174C11.577 11.4187 11.4537 11.6013 11.2984 11.7546C10.9836 12.0674 10.5576 12.2424 10.1139 12.2414C9.671 12.2411 9.24598 12.0664 8.9308 11.7552C8.77605 11.6015 8.65316 11.4187 8.56918 11.2173C8.48521 11.016 8.44178 10.8 8.44141 10.5819C8.44141 10.1413 8.61712 9.71958 8.93145 9.4085C9.24635 9.09688 9.67155 8.92217 10.1146 8.92236C10.5584 8.92236 10.984 9.09742 11.2984 9.4085C11.612 9.71958 11.7884 10.1413 11.7884 10.5819Z" fill="white"/>
</svg>