<svg xmlns="http://www.w3.org/2000/svg" width="140" height="164" viewBox="0 0 140 164" fill="none">
<path fill-rule="evenodd" clip-rule="evenodd" d="M140 24.0345C125.16 9.18528 104.652 0 82 0C36.7127 0 0 36.7127 0 82C0 127.287 36.7127 164 82 164C104.652 164 125.16 154.815 140 139.965V138.542C125.288 153.631 104.738 163 82 163C37.2649 163 1 126.735 1 82C1 37.2649 37.2649 1 82 1C104.738 1 125.288 10.3693 140 25.4579V24.0345Z" fill="white"/>
<path d="M73.16 64.882C69.7581 62.8134 67 64.508 67 68.6639V99.3331C67 103.493 69.7581 105.186 73.16 103.119L98.4477 87.7457C101.851 85.6764 101.851 82.3238 98.4477 80.255L73.16 64.882Z" fill="white"/>
</svg>