<svg xmlns="http://www.w3.org/2000/svg" width="80" height="80" viewBox="0 0 80 80" fill="none">
<g clip-path="url(#clip0_1564_20658)">
<path d="M61.1719 72.3438H13.9219C12.617 72.3422 11.366 71.8231 10.4433 70.9004C9.52062 69.9777 9.00156 68.7268 9 67.4219L9 41.8281C9.00156 40.5232 9.52062 39.2723 10.4433 38.3496C11.366 37.4269 12.617 36.9078 13.9219 36.9062H61.1719C62.4768 36.9078 63.7277 37.4269 64.6504 38.3496C65.5731 39.2723 66.0922 40.5232 66.0938 41.8281V67.4219C66.0922 68.7268 65.5731 69.9777 64.6504 70.9004C63.7277 71.8231 62.4768 72.3422 61.1719 72.3438ZM13.9219 38.875C13.1387 38.875 12.3875 39.1861 11.8337 39.7399C11.2799 40.2938 10.9688 41.0449 10.9688 41.8281V67.4219C10.9688 68.2051 11.2799 68.9562 11.8337 69.51C12.3875 70.0639 13.1387 70.375 13.9219 70.375H61.1719C61.9551 70.375 62.7062 70.0639 63.26 69.51C63.8139 68.9562 64.125 68.2051 64.125 67.4219V41.8281C64.125 41.0449 63.8139 40.2938 63.26 39.7399C62.7062 39.1861 61.9551 38.875 61.1719 38.875H13.9219Z" fill="#171717"/>
<path d="M68.0632 66.3135C67.8239 66.3128 67.5931 66.2249 67.4139 66.0664C67.2347 65.9079 67.1193 65.6896 67.0894 65.4522C67.0595 65.2148 67.1171 64.9746 67.2514 64.7766C67.3856 64.5786 67.5874 64.4363 67.819 64.3762C68.4528 64.2121 69.0141 63.8421 69.4146 63.3243C69.8152 62.8065 70.0323 62.1703 70.0319 61.5156V35.9219C70.0319 35.1387 69.7208 34.3875 69.167 33.8337C68.6132 33.2799 67.862 32.9688 67.0788 32.9688H19.8288C19.1749 32.9698 18.5398 33.1878 18.0232 33.5887C17.5066 33.9895 17.1376 34.5505 16.9741 35.1836C16.9088 35.4366 16.7458 35.6533 16.5207 35.786C16.2957 35.9187 16.0271 35.9566 15.7742 35.8914C15.5212 35.8261 15.3045 35.663 15.1718 35.438C15.039 35.2129 15.0011 34.9444 15.0664 34.6914C15.339 33.6354 15.9547 32.6999 16.8167 32.0318C17.6787 31.3636 18.7382 31.0007 19.8288 31H67.0788C68.3837 31.0016 69.6347 31.5206 70.5574 32.4433C71.4801 33.366 71.9991 34.617 72.0007 35.9219V61.5156C72.0008 62.607 71.6381 63.6675 70.9697 64.5304C70.3013 65.3932 69.3651 66.0093 68.3083 66.282C68.2283 66.303 68.1459 66.3136 68.0632 66.3135Z" fill="#171717"/>
<path d="M65.1094 50.6875H9.98438C9.7233 50.6875 9.47292 50.5838 9.28832 50.3992C9.10371 50.2146 9 49.9642 9 49.7031V43.7969C9 43.5358 9.10371 43.2854 9.28832 43.1008C9.47292 42.9162 9.7233 42.8125 9.98438 42.8125H65.1094C65.3704 42.8125 65.6208 42.9162 65.8054 43.1008C65.99 43.2854 66.0938 43.5358 66.0938 43.7969V49.7031C66.0938 49.9642 65.99 50.2146 65.8054 50.3992C65.6208 50.5838 65.3704 50.6875 65.1094 50.6875ZM10.9688 48.7188H64.125V44.7812H10.9688V48.7188ZM40.5 66.4375H15.8906C15.6296 66.4375 15.3792 66.3338 15.1946 66.1492C15.01 65.9646 14.9062 65.7142 14.9062 65.4531C14.9062 65.1921 15.01 64.9417 15.1946 64.7571C15.3792 64.5725 15.6296 64.4688 15.8906 64.4688H40.5C40.7611 64.4688 41.0115 64.5725 41.1961 64.7571C41.3807 64.9417 41.4844 65.1921 41.4844 65.4531C41.4844 65.7142 41.3807 65.9646 41.1961 66.1492C41.0115 66.3338 40.7611 66.4375 40.5 66.4375ZM29.6719 62.5H15.8906C15.6296 62.5 15.3792 62.3963 15.1946 62.2117C15.01 62.0271 14.9062 61.7767 14.9062 61.5156C14.9062 61.2546 15.01 61.0042 15.1946 60.8196C15.3792 60.635 15.6296 60.5312 15.8906 60.5312H29.6719C29.9329 60.5312 30.1833 60.635 30.3679 60.8196C30.5525 61.0042 30.6562 61.2546 30.6562 61.5156C30.6562 61.7767 30.5525 62.0271 30.3679 62.2117C30.1833 62.3963 29.9329 62.5 29.6719 62.5Z" fill="#171717"/>
<circle cx="60" cy="69.25" r="11" fill="#FFD220"/>
</g>
<defs>
<clipPath id="clip0_1564_20658">
<rect width="80" height="80" fill="white"/>
</clipPath>
</defs>
</svg>