<svg xmlns="http://www.w3.org/2000/svg" width="80" height="80" viewBox="0 0 80 80" fill="none">
<path d="M12.33 75.2556C12.4323 75.3298 12.5506 75.3789 12.6754 75.3987C12.8003 75.4185 12.928 75.4085 13.0482 75.3696L26.1087 71.1318L39.1797 76.833C39.2082 76.8454 39.2375 76.856 39.2674 76.8649C39.275 76.8672 39.2827 76.8689 39.2905 76.8709C39.3161 76.8779 39.3421 76.8836 39.3683 76.888C39.3786 76.8897 39.3887 76.8915 39.399 76.8927C39.43 76.8968 39.4612 76.8991 39.4924 76.8995H39.5004C39.5353 76.8992 39.5702 76.8966 39.6047 76.8917C39.6123 76.8908 39.6198 76.8895 39.6273 76.8883C39.6566 76.8835 39.6857 76.8772 39.7143 76.8693C39.7202 76.8676 39.7262 76.8664 39.7322 76.8646C39.7621 76.8556 39.7916 76.8448 39.8203 76.8325L52.8914 71.1313L65.9519 75.3691C66.0721 75.4081 66.1997 75.4181 66.3245 75.3983C66.4493 75.3785 66.5676 75.3295 66.6699 75.2552C66.7721 75.181 66.8553 75.0836 66.9127 74.9711C66.9701 74.8585 67 74.734 67.0001 74.6076V40.3818C67.0001 40.2097 66.9446 40.0421 66.8419 39.9039C66.7392 39.7657 66.5947 39.6643 66.4298 39.6148L56.958 36.7665C57.3723 35.2113 57.5793 33.6082 57.5737 31.9988C57.559 28.4306 56.4883 24.9466 54.4967 21.9858C52.5051 19.0251 49.6816 16.7201 46.3821 15.3614C43.0827 14.0028 39.4548 13.6512 35.9558 14.351C32.4569 15.0508 29.2433 16.7707 26.7203 19.294C23.9249 22.0736 22.1233 25.6968 21.594 29.6033C21.2795 31.9129 21.4109 34.2614 21.9812 36.5215L12.5508 39.6208C12.3906 39.6734 12.2511 39.7754 12.1521 39.912C12.0532 40.0486 12 40.213 12 40.3817V74.6076C12 74.734 12.0299 74.8586 12.0872 74.9712C12.1446 75.0838 12.2278 75.1813 12.33 75.2556ZM52.0486 69.7517L40.301 74.8757V56.8325L52.0486 45.0849V69.7517ZM38.6991 74.8757L26.9515 69.7517V45.0849L38.6991 56.8325V74.8757ZM65.3981 40.9779V73.5057L53.6505 69.6939V43.3183C54.8572 41.8072 55.8112 40.1107 56.4757 38.2946L65.3981 40.9779ZM23.1805 29.8222C23.5999 26.7849 24.8587 23.9248 26.8152 21.564C28.7717 19.2032 31.3482 17.4352 34.2549 16.4592C37.1615 15.4831 40.2829 15.3376 43.2678 16.0391C46.2526 16.7405 48.9824 18.2611 51.15 20.4297C52.6817 21.9424 53.8968 23.7448 54.7246 25.7319C55.5525 27.7191 55.9764 29.8511 55.9718 32.0038C55.9949 35.7806 54.7128 39.4494 52.3423 42.3897C52.2611 42.4564 52.1938 42.5383 52.1441 42.6308C51.8296 43.0063 51.4975 43.3696 51.1476 43.7208L39.6513 55.2172C39.5518 55.1978 39.4494 55.1978 39.3499 55.2172L27.8535 43.7208C26.731 42.5971 25.7732 41.3203 25.0086 39.9282C24.4827 38.9579 24.0574 37.9365 23.7393 36.8797C23.7333 36.8508 23.7258 36.8223 23.7166 36.7943C23.7149 36.7889 23.7125 36.784 23.7106 36.7788C23.0441 34.5235 22.8634 32.1525 23.1805 29.8222ZM13.6019 40.9616L22.4377 38.0577C22.7536 38.9675 23.1432 39.8502 23.6025 40.6967C24.1094 41.618 24.6939 42.4945 25.3495 43.3166V69.6941L13.6019 73.5057V40.9616Z" fill="#171717" stroke="#171717" stroke-width="0.4"/>
<circle cx="39.5" cy="32.0693" r="9.5" fill="#FFD220"/>
</svg>