<svg xmlns="http://www.w3.org/2000/svg" width="80" height="80" viewBox="0 0 80 80" fill="none">
<circle cx="26" cy="55" r="11" fill="#FFD220"/>
<rect x="11" y="33" width="58" height="45" rx="6" stroke="#171717" stroke-width="2"/>
<path d="M62.2677 46.2578H43.7473C43.3999 46.2578 43.0668 46.3632 42.8211 46.5507C42.5755 46.7382 42.4375 46.9926 42.4375 47.2578C42.4375 47.523 42.5755 47.7774 42.8211 47.9649C43.0668 48.1525 43.3999 48.2578 43.7473 48.2578H62.2677C62.6151 48.2578 62.9482 48.1525 63.1939 47.9649C63.4395 47.7774 63.5775 47.523 63.5775 47.2578C63.5775 46.9926 63.4395 46.7382 63.1939 46.5507C62.9482 46.3632 62.6151 46.2578 62.2677 46.2578ZM62.2677 53.5348H43.7473C43.3999 53.5348 43.0668 53.6402 42.8211 53.8277C42.5755 54.0152 42.4375 54.2696 42.4375 54.5348C42.4375 54.8 42.5755 55.0544 42.8211 55.2419C43.0668 55.4295 43.3999 55.5348 43.7473 55.5348H62.2677C62.6151 55.5348 62.9482 55.4295 63.1939 55.2419C63.4395 55.0544 63.5775 54.8 63.5775 54.5348C63.5775 54.2696 63.4395 54.0152 63.1939 53.8277C62.9482 53.6402 62.6151 53.5348 62.2677 53.5348ZM62.2677 60.8128H50.1482C49.8008 60.8128 49.4677 60.9182 49.2221 61.1057C48.9764 61.2932 48.8384 61.5476 48.8384 61.8128C48.8384 62.078 48.9764 62.3324 49.2221 62.5199C49.4677 62.7075 49.8008 62.8128 50.1482 62.8128H62.2677C62.6151 62.8128 62.9482 62.7075 63.1939 62.5199C63.4395 62.3324 63.5775 62.078 63.5775 61.8128C63.5775 61.5476 63.4395 61.2932 63.1939 61.1057C62.9482 60.9182 62.6151 60.8128 62.2677 60.8128Z" fill="#171717"/>
</svg>