<svg xmlns="http://www.w3.org/2000/svg" width="80" height="80" viewBox="0 0 80 80" fill="none">
  <g clip-path="url(#clip0_1564_20645)">
    <path d="M65.8745 19.7188H57.7807C57.6139 19.7186 57.4491 19.6824 57.2976 19.6125C57.1461 19.5427 57.0115 19.4408 56.9031 19.3141L49.9656 11.2203C49.8114 11.0402 49.7162 10.8171 49.693 10.5811C49.6699 10.3451 49.7198 10.1077 49.8361 9.90104C49.9534 9.69467 50.1307 9.52884 50.3444 9.42559C50.5582 9.32233 50.7983 9.28652 51.0328 9.32292L57.9703 10.4792C58.1783 10.5132 58.3727 10.6041 58.5323 10.7416L66.626 17.6791C66.8074 17.8323 66.9373 18.0377 66.9979 18.2673C67.0586 18.4968 67.047 18.7395 66.9649 18.9623C66.8829 19.1851 66.7341 19.3772 66.539 19.5126C66.3439 19.6479 66.1119 19.7199 65.8745 19.7188ZM58.3126 17.4063H62.7526L57.2731 12.7119L53.7928 12.1338L58.3126 17.4063Z" fill="#171717" stroke="white" stroke-width="0.4"/>
    <path d="M50.8441 32.4375C50.6231 32.4373 50.4069 32.3738 50.2209 32.2545C50.0349 32.1352 49.887 31.9652 49.7947 31.7645C49.7024 31.5637 49.6695 31.3408 49.6999 31.1219C49.7304 30.9031 49.8229 30.6976 49.9665 30.5297L55.2679 24.3438H45.0628C44.8113 24.3438 44.5667 24.2619 44.366 24.1104C44.1653 23.9589 44.0194 23.7462 43.9505 23.5043L41.638 15.4106C41.589 15.2385 41.5806 15.0574 41.6134 14.8815C41.6462 14.7056 41.7194 14.5398 41.8273 14.397C41.9351 14.2542 42.0746 14.1384 42.2347 14.0587C42.3949 13.9789 42.5714 13.9375 42.7503 13.9375H47.3753C47.6268 13.9374 47.8714 14.0193 48.0721 14.1708C48.2729 14.3223 48.4187 14.5351 48.4876 14.7769L49.238 17.4062H72.8128C73.7328 17.4062 74.6151 17.7717 75.2656 18.4222C75.9161 19.0727 76.2816 19.955 76.2816 20.875C76.2816 21.795 75.9161 22.6773 75.2656 23.3278C74.6151 23.9783 73.7328 24.3438 72.8128 24.3438H66.3031L58.5331 31.0026C58.3736 31.1402 58.1791 31.231 57.9712 31.2651L51.0337 32.4213C50.971 32.4319 50.9076 32.4373 50.8441 32.4375ZM45.9346 22.0312H57.7816C58.0025 22.0315 58.2188 22.095 58.4047 22.2142C58.5907 22.3335 58.7386 22.5036 58.8309 22.7043C58.9233 22.905 58.9561 23.128 58.9257 23.3468C58.8953 23.5656 58.8028 23.7712 58.6592 23.9391L53.7937 29.6186L57.274 29.0404L65.1238 22.3122C65.3324 22.1313 65.5992 22.0316 65.8753 22.0312H72.8128C73.1195 22.0312 73.4136 21.9094 73.6304 21.6926C73.8472 21.4758 73.9691 21.1817 73.9691 20.875C73.9691 20.5683 73.8472 20.2742 73.6304 20.0574C73.4136 19.8406 73.1195 19.7188 72.8128 19.7188H48.3662C48.1149 19.7186 47.8706 19.6365 47.6701 19.4851C47.4696 19.3336 47.3239 19.121 47.2551 18.8793L46.5035 16.25H44.2835L45.9346 22.0312Z" fill="#171717" stroke="white" stroke-width="0.4"/>
    <path d="M41.5938 79.8438C36.7914 79.8438 32.0969 78.4197 28.1038 75.7516C24.1108 73.0836 20.9986 69.2914 19.1608 64.8545C17.323 60.4177 16.8422 55.5356 17.7791 50.8255C18.716 46.1154 21.0285 41.7889 24.4243 38.3931C27.8201 34.9973 32.1466 32.6847 36.8567 31.7478C41.5668 30.8109 46.449 31.2918 50.8858 33.1296C55.3226 34.9674 59.1148 38.0795 61.7829 42.0726C64.4509 46.0656 65.875 50.7601 65.875 55.5625C65.8677 62 63.3071 68.1718 58.7551 72.7238C54.2031 77.2759 48.0313 79.8364 41.5938 79.8438ZM41.5938 33.5938C37.2488 33.5938 33.0013 34.8822 29.3886 37.2962C25.7758 39.7101 22.96 43.1412 21.2973 47.1554C19.6345 51.1697 19.1995 55.5869 20.0471 59.8484C20.8948 64.1099 22.9871 68.0244 26.0595 71.0968C29.1319 74.1691 33.0463 76.2615 37.3079 77.1091C41.5694 77.9568 45.9866 77.5218 50.0008 75.859C54.0151 74.1962 57.4462 71.3804 59.8601 67.7677C62.2741 64.155 63.5625 59.9075 63.5625 55.5625C63.5561 49.738 61.2395 44.1539 57.1209 40.0354C53.0024 35.9168 47.4183 33.6002 41.5938 33.5938Z" fill="#171717" stroke="white" stroke-width="0.4"/>
    <path d="M41.5924 79.8438C33.9681 79.8438 27.9961 69.1773 27.9961 55.5625C27.9961 41.9477 33.9681 31.2812 41.5924 31.2812C49.2168 31.2812 55.1888 41.9477 55.1888 55.5625C55.1888 69.1773 49.2168 79.8438 41.5924 79.8438ZM41.5924 33.5938C35.4759 33.5938 30.3086 43.6531 30.3086 55.5625C30.3086 67.4719 35.4759 77.5312 41.5924 77.5312C47.709 77.5312 52.8763 67.4719 52.8763 55.5625C52.8763 43.6531 47.709 33.5938 41.5924 33.5938Z" fill="#171717" stroke="white" stroke-width="0.4"/>
    <path d="M18.4674 54.4063H64.7174V56.7188H18.4674V54.4063ZM21.9361 42.8438H61.2486V45.1563H21.9361V42.8438ZM21.9361 65.9688H61.2486V68.2813H21.9361V65.9688ZM16.1549 40.5313C15.9503 40.5311 15.7495 40.4766 15.5729 40.3734C15.3963 40.2702 15.2502 40.122 15.1496 39.9439C15.0489 39.7658 14.9974 39.5642 15.0001 39.3596C15.0028 39.1551 15.0598 38.9549 15.1651 38.7796C25.8188 21.0219 39.9355 21.9758 40.5321 22.0313C40.8387 22.0565 41.1229 22.2024 41.3219 22.437C41.521 22.6716 41.6187 22.9757 41.5935 23.2824C41.5684 23.589 41.4224 23.8731 41.1878 24.0722C40.9532 24.2713 40.6491 24.369 40.3425 24.3438C39.7875 24.2987 27.0155 23.5263 17.1458 39.974C17.0426 40.1444 16.8972 40.2852 16.7236 40.3829C16.5499 40.4805 16.3541 40.5316 16.1549 40.5313Z" fill="#171717"/>
    <path d="M18.4687 27.8125C18.2467 27.8125 18.0293 27.7485 17.8426 27.6283C17.6559 27.508 17.5078 27.3366 17.416 27.1344C17.3242 26.9322 17.2925 26.7078 17.3248 26.4881C17.3571 26.2684 17.452 26.0627 17.5981 25.8954C25.9416 16.3656 38.7401 16.25 39.2812 16.25C39.5879 16.25 39.882 16.3718 40.0988 16.5887C40.3157 16.8055 40.4375 17.0996 40.4375 17.4062C40.4375 17.7129 40.3157 18.007 40.0988 18.2238C39.882 18.4407 39.5879 18.5625 39.2812 18.5625C39.1598 18.5625 26.9753 18.6874 19.3382 27.4171C19.2298 27.5411 19.0962 27.6406 18.9462 27.7088C18.7963 27.777 18.6335 27.8123 18.4687 27.8125Z" fill="#171717" stroke="white" stroke-width="0.4"/>
    <circle cx="14" cy="54" r="11" fill="#FFD220"/>
  </g>
  <defs>
    <clipPath id="clip0_1564_20645">
      <rect width="80" height="80" fill="white"/>
    </clipPath>
  </defs>
</svg>