<svg xmlns="http://www.w3.org/2000/svg" width="80" height="80" viewBox="0 0 80 80" fill="none">
<g clip-path="url(#clip0_1564_20637)">
<path d="M61.7718 18.0433V29.1299C61.7718 29.3886 61.8746 29.6367 62.0576 29.8197C62.2405 30.0027 62.4887 30.1054 62.7474 30.1054C63.0061 30.1054 63.2543 30.0027 63.4372 29.8197C63.6202 29.6367 63.723 29.3886 63.723 29.1299V18.0433C68.6908 17.5044 72.281 13.0405 71.7424 8.07275C71.2035 3.10512 66.7396 -0.485315 61.7718 0.0535268C56.804 0.592369 53.2138 5.05627 53.7526 10.0241C54.2108 14.2486 57.5473 17.5851 61.7718 18.0433ZM62.7474 1.95232C66.6668 1.95264 69.8437 5.13025 69.8434 9.04962C69.8431 12.969 66.6655 16.1459 62.7461 16.1456C58.8271 16.1453 55.6501 12.968 55.6501 9.04897C55.655 5.13139 58.8298 1.95687 62.7474 1.95232ZM62.7474 39.2731C63.5729 39.2731 64.242 38.604 64.242 37.7785C64.242 36.953 63.5729 36.2839 62.7474 36.2839C61.9219 36.2839 61.2528 36.953 61.2528 37.7785V37.7786C61.2532 38.1749 61.4108 38.5548 61.691 38.835C61.9712 39.1152 62.3512 39.2727 62.7474 39.2731ZM62.7474 37.3219C62.8081 37.3208 62.8685 37.3317 62.9249 37.3542C62.9813 37.3766 63.0327 37.4101 63.076 37.4526C63.1194 37.4952 63.1538 37.5459 63.1773 37.6019C63.2008 37.6579 63.2129 37.718 63.2129 37.7787C63.2129 37.8395 63.2008 37.8996 63.1773 37.9556C63.1538 38.0116 63.1194 38.0623 63.076 38.1048C63.0327 38.1474 62.9813 38.1808 62.9249 38.2033C62.8685 38.2257 62.8081 38.2367 62.7474 38.2355C62.6277 38.2333 62.5138 38.1842 62.4299 38.0987C62.3461 38.0133 62.2991 37.8984 62.2991 37.7787C62.2991 37.659 62.3461 37.5441 62.4299 37.4587C62.5138 37.3733 62.6277 37.3242 62.7474 37.3219ZM17.8305 73.2039C17.005 73.2039 16.3359 73.8729 16.3359 74.6984C16.3359 75.5239 17.005 76.193 17.8305 76.193C18.656 76.193 19.3251 75.5239 19.3251 74.6984C19.3247 74.3022 19.1671 73.9221 18.8869 73.6419C18.6067 73.3618 18.2268 73.2042 17.8305 73.2039ZM17.8305 75.155C17.7698 75.1562 17.7095 75.1452 17.653 75.1227C17.5966 75.1003 17.5452 75.0668 17.5019 75.0243C17.4585 74.9818 17.4241 74.931 17.4006 74.875C17.3771 74.819 17.365 74.7589 17.365 74.6982C17.365 74.6375 17.3771 74.5774 17.4006 74.5214C17.4241 74.4654 17.4585 74.4146 17.5019 74.3721C17.5452 74.3296 17.5966 74.2961 17.653 74.2737C17.7095 74.2512 17.7698 74.2402 17.8305 74.2414C17.9502 74.2436 18.0642 74.2928 18.148 74.3782C18.2318 74.4636 18.2788 74.5785 18.2788 74.6982C18.2788 74.8179 18.2318 74.9328 18.148 75.0182C18.0642 75.1036 17.9502 75.1527 17.8305 75.155Z" fill="#171717"/>
<path d="M41.1261 56.5438H53.1815C57.9253 56.5231 61.7876 60.3521 61.8085 65.0958C61.8291 69.8397 58.0001 73.702 53.2564 73.7228H23.1928C23.142 73.7231 23.0914 73.7275 23.0413 73.7358C22.5096 70.857 19.745 68.9544 16.8662 69.486C13.9874 70.0177 12.0847 72.7823 12.6164 75.6611C13.1481 78.5399 15.9127 80.4426 18.7915 79.9109C19.8468 79.716 20.8181 79.2053 21.5769 78.4465C22.3357 77.6877 22.8464 76.7164 23.0413 75.6611C23.0913 75.6692 23.1421 75.6736 23.1928 75.6739H53.1815C59.0029 75.6969 63.7407 70.9962 63.7637 65.1748C63.7866 59.3534 59.086 54.6155 53.2645 54.5926C53.2369 54.5924 53.2092 54.5924 53.1815 54.5926H41.1261C36.6092 54.5926 32.9476 50.931 32.9476 46.414C32.9476 41.8971 36.6092 38.2355 41.1261 38.2355H57.467C57.7197 41.151 60.2879 43.3096 63.2034 43.0569C66.1189 42.8043 68.2775 40.2361 68.0248 37.3206C67.7721 34.4051 65.2039 32.2464 62.2884 32.4991C61.2259 32.5912 60.2159 33.0017 59.3905 33.677C58.5651 34.3524 57.9627 35.2611 57.6621 36.2843H41.1261C35.5317 36.2843 30.9964 40.8196 30.9964 46.414C30.9964 52.0086 35.5317 56.5438 41.1261 56.5438ZM17.8306 78.0472C15.9807 78.0472 14.4811 76.5476 14.4811 74.6977C14.4811 72.8479 15.9807 71.3483 17.8306 71.3483C19.6804 71.3483 21.18 72.8479 21.18 74.6977C21.1782 76.5469 19.6798 78.0454 17.8306 78.0472ZM62.7474 34.4299C64.5973 34.4299 66.0969 35.9295 66.0969 37.7794C66.0969 39.6293 64.5973 41.1289 62.7474 41.1289C60.8976 41.1289 59.398 39.6293 59.398 37.7794C59.3998 35.9304 60.8984 34.4317 62.7474 34.4299ZM17.7228 57.2304C20.2589 57.2306 22.3148 55.1747 22.3149 52.6385C22.3151 50.1024 20.2592 48.0465 17.7231 48.0463C15.1869 48.0462 13.1311 50.102 13.1309 52.6382V52.6384C13.1338 55.1732 15.1879 57.2275 17.7228 57.2304ZM17.7228 49.9977C19.1656 49.982 20.348 51.1391 20.3636 52.5819V52.6384C20.375 54.0969 19.202 55.2885 17.7436 55.2999C16.2851 55.3113 15.0934 54.1383 15.082 52.6798C15.0819 52.666 15.0819 52.6522 15.082 52.6384C15.0664 51.1955 16.2235 50.0133 17.6662 49.9977H17.7228Z" fill="#171717"/>
<path d="M16.8414 67.7385C16.9322 67.86 17.0502 67.9586 17.1858 68.0265C17.3214 68.0945 17.471 68.1298 17.6227 68.1298C17.7744 68.1298 17.924 68.0945 18.0596 68.0265C18.1952 67.9586 18.3131 67.86 18.404 67.7385L25.2079 58.6442C26.6483 56.759 27.3648 54.4197 27.2272 52.0511C27.0726 49.6286 26.0454 47.3442 24.3359 45.6208C20.6468 41.9136 14.6509 41.899 10.9437 45.5881L10.9111 45.6208C9.20183 47.3437 8.17469 49.6275 8.01978 52.0495C7.86905 54.3096 8.5835 56.6482 10.0384 58.6432L16.8414 67.7385ZM9.96588 52.1781C10.09 50.2264 10.917 48.3858 12.2939 46.997C15.2233 44.054 19.9836 44.043 22.9265 46.9721L22.9514 46.997C24.3288 48.3866 25.1559 50.2283 25.2796 52.1809C25.386 54.0843 24.8061 55.9627 23.6454 57.475L17.6227 65.5266L11.6066 57.4846C10.428 55.8677 9.84556 53.9837 9.96588 52.1781Z" fill="#171717"/>
<circle cx="32" cy="19" r="11" fill="#FFD220"/>
</g>
<defs>
<clipPath id="clip0_1564_20637">
<rect width="80" height="80" fill="white"/>
</clipPath>
</defs>
</svg>