<svg xmlns="http://www.w3.org/2000/svg" width="103" height="59" viewBox="0 0 103 59" fill="none">
<path opacity="0.1" d="M101.376 13.1181C99.162 10.4815 94.6728 10.2923 91.5928 10.8007C87.7621 11.4362 84.2507 13.5201 81.1563 15.8847C80.5812 12.855 79.7299 9.87848 78.4645 7.10295C77.156 4.23579 75.048 0.753824 71.7552 0.100586C68.4278 -0.558565 64.7899 2.14898 62.679 4.51364C59.8319 7.70003 58.302 11.986 57.3012 16.1182C55.9294 21.7875 55.5383 27.7051 55.8086 33.5281C56.0818 39.4752 57.0251 45.6559 59.5012 51.0887C60.3812 53.0188 61.6495 55.2298 63.375 56.6663C62.6876 56.6988 61.9831 56.7461 61.2411 56.8319C60.0419 56.9708 56.0818 56.9501 54.874 56.9767C54.2931 56.9885 53.7093 56.9796 53.1283 56.9678C53.0076 56.9678 52.8868 56.9619 52.7631 56.959C52.7602 56.953 51.9176 56.9117 51.8745 56.9087C51.5898 56.891 51.3051 56.8673 51.0175 56.8466C50.4452 56.7875 49.8758 56.7166 49.3035 56.6427C49.2028 56.6309 49.1453 56.622 49.0993 56.6161C48.8778 56.5806 48.6564 56.5451 48.435 56.5067C47.7016 56.3796 46.9712 56.2407 46.2436 56.0811C44.6273 55.7264 42.3382 55.0613 40.5091 54.3874C31.9247 51.2335 24.2204 45.8716 18.0891 38.9461C14.5805 34.9823 11.6328 30.5368 9.30623 25.7424C9.25734 25.6419 9.18832 25.5533 9.1078 25.4675H0C4.56109 34.7282 11.3481 42.7059 19.8059 48.4107C29.279 54.7982 40.2848 58.0231 51.5351 58.8093C54.7992 59.0369 58.0777 59.0635 61.3418 58.8743C67.3925 58.5226 73.3714 57.5886 78.7924 54.5913C80.8831 53.4356 82.8473 52.0405 84.6361 50.4354C89.039 46.4776 92.8754 42.0084 96.1021 36.9864C98.8629 32.6857 101.276 27.9357 102.426 22.89C103.128 19.8071 103.571 15.731 101.382 13.121L101.376 13.1181ZM61.6121 43.1079C61.2526 41.7601 60.9564 40.3974 60.7119 39.0437C58.9663 29.4106 59.2596 18.5716 62.6704 9.3346C63.3117 7.59953 64.0824 5.90288 65.1264 4.38063C65.25 4.19737 66.2019 3.05346 66.2019 3.05346L66.3716 2.91158C69.0519 2.64851 70.9873 4.17668 72.5345 6.33739C74.8007 9.50309 76.0344 13.4343 76.8713 17.2237C77.0151 17.874 77.1474 18.5272 77.2653 19.1834C74.0674 22.1836 71.2203 25.5917 68.7068 29.2007C65.7677 33.4217 63.1248 38.1067 61.6121 43.1079ZM71.5654 54.6918C68.2352 56.2791 65.5031 53.1696 65.2299 49.9418C65.0286 47.5742 65.7734 45.2982 66.4895 43.0843C67.2056 40.8615 68.1719 38.7215 69.2331 36.6494C71.5366 32.1448 74.4729 27.7435 77.9124 23.8359C78.2172 26.907 78.292 30.0018 78.1654 33.0758C78.0331 36.2415 77.6852 39.3984 77.0784 42.5049C76.5492 45.2154 75.974 47.9555 74.8093 50.465C74.0731 52.0493 73.2017 53.9174 71.5711 54.6948L71.5654 54.6918ZM98.2273 18.5065C98.0979 22.4348 96.6945 26.304 95.0696 29.8126C92.8466 34.6099 89.896 39.0555 86.5255 43.0784C83.4397 46.7613 79.937 50.1901 75.9625 52.8563C76.0459 52.7499 76.1437 52.6434 76.2242 52.5341C78.8614 49.0107 80.2217 44.4824 81.0815 40.1876C82.2635 34.2907 82.4993 28.181 82.0018 22.1895C81.9386 21.418 81.858 20.6466 81.766 19.8721C83.9258 17.874 86.2351 16.0798 88.6795 14.5753C90.2296 13.6206 91.8573 12.7811 93.5915 12.252C94.5577 11.9564 95.455 11.8944 95.455 11.8944C97.7183 13.393 98.3165 15.8286 98.2273 18.5065Z" fill="url(#paint0_radial_1050_8592)"/>
<defs>
<radialGradient id="paint0_radial_1050_8592" cx="0" cy="0" r="1" gradientUnits="userSpaceOnUse" gradientTransform="translate(63.6079 62.6608) scale(73.3283 75.3678)">
<stop offset="0.34" stop-color="#FCDA00"/>
<stop offset="0.37" stop-color="#F2D602"/>
<stop offset="0.42" stop-color="#D7CC09"/>
<stop offset="0.49" stop-color="#ACBB15"/>
<stop offset="0.56" stop-color="#70A425"/>
<stop offset="0.65" stop-color="#24883A"/>
<stop offset="0.67" stop-color="#0F8040"/>
</radialGradient>
</defs>
</svg>