<svg xmlns="http://www.w3.org/2000/svg" width="19" height="19" viewBox="0 0 19 19" fill="none">
  <g clip-path="url(#clip0_1847_11391)">
    <path d="M14.6309 18.9482H3.38086C2.48575 18.9482 1.62731 18.5927 0.994374 17.9597C0.361439 17.3268 0.00585938 16.4683 0.00585938 15.5732L0.00585938 4.32324C0.00585938 3.42814 0.361439 2.56969 0.994374 1.93676C1.62731 1.30382 2.48575 0.948242 3.38086 0.948242L14.6309 0.948242C15.526 0.948242 16.3844 1.30382 17.0173 1.93676C17.6503 2.56969 18.0059 3.42814 18.0059 4.32324V15.5732C18.0059 16.4683 17.6503 17.3268 17.0173 17.9597C16.3844 18.5927 15.526 18.9482 14.6309 18.9482Z" fill="#FFF8DE"/>
    <path d="M6.14213 5.03912C5.01416 5.03912 4.09668 6.03948 4.09668 7.26911C4.09668 8.96589 5.8672 10.6164 5.94268 10.6865C5.9981 10.738 6.06889 10.7664 6.14213 10.7664C6.21538 10.7664 6.28617 10.738 6.34159 10.6865C6.41707 10.6171 8.18759 8.96655 8.18759 7.26911C8.1882 6.03948 7.27011 5.03912 6.14213 5.03912ZM6.14213 8.12279C5.9318 8.11204 5.73339 8.01452 5.58807 7.85046C5.44275 7.6864 5.36167 7.4684 5.36167 7.24169C5.36167 7.01499 5.44275 6.79699 5.58807 6.63292C5.73339 6.46886 5.9318 6.37134 6.14213 6.3606C6.35246 6.37134 6.55088 6.46886 6.6962 6.63292C6.84152 6.79699 6.92259 7.01499 6.92259 7.24169C6.92259 7.4684 6.84152 7.6864 6.6962 7.85046C6.55088 8.01452 6.35246 8.11204 6.14213 8.12279Z" fill="#FFD220"/>
    <path d="M7.16514 12.8124C7.02789 12.8077 6.8911 12.8306 6.7629 12.8799C6.6347 12.9291 6.51773 13.0036 6.41896 13.099C6.32019 13.1945 6.24164 13.3088 6.18799 13.4352C6.13434 13.5616 6.10669 13.6975 6.10669 13.8348C6.10669 13.9722 6.13434 14.1081 6.18799 14.2345C6.24164 14.3609 6.32019 14.4752 6.41896 14.5707C6.51773 14.6661 6.6347 14.7406 6.7629 14.7898C6.8911 14.8391 7.02789 14.862 7.16514 14.8573C7.43017 14.8481 7.68127 14.7363 7.86551 14.5456C8.04975 14.3549 8.15273 14.1 8.15273 13.8348C8.15273 13.5697 8.04975 13.3148 7.86551 13.1241C7.68127 12.9334 7.43017 12.8216 7.16514 12.8124ZM12.0746 12.8124C11.9374 12.8077 11.8006 12.8306 11.6724 12.8799C11.5442 12.9291 11.4272 13.0036 11.3285 13.099C11.2297 13.1945 11.1511 13.3088 11.0975 13.4352C11.0438 13.5616 11.0162 13.6975 11.0162 13.8348C11.0162 13.9722 11.0438 14.1081 11.0975 14.2345C11.1511 14.3609 11.2297 14.4752 11.3285 14.5707C11.4272 14.6661 11.5442 14.7406 11.6724 14.7898C11.8006 14.8391 11.9374 14.862 12.0746 14.8573C12.3397 14.8481 12.5908 14.7363 12.775 14.5456C12.9593 14.3549 13.0622 14.1 13.0622 13.8348C13.0622 13.5697 12.9593 13.3148 12.775 13.1241C12.5908 12.9334 12.3397 12.8216 12.0746 12.8124Z" fill="url(#paint0_linear_1847_11391)"/>
    <path d="M10.2334 9.43716V13.733C10.2334 13.9005 10.0941 14.0398 9.92654 14.0398H8.57643C8.58441 13.9742 8.59668 13.9048 8.59668 13.8355C8.59668 13.0456 7.95476 12.4031 7.16495 12.4031C6.37513 12.4031 5.73321 13.0456 5.73321 13.8348C5.73321 13.9042 5.74548 13.9742 5.75346 14.0392H5.2214C5.14021 14.0386 5.06254 14.006 5.00513 13.9486C4.94773 13.8912 4.91519 13.8135 4.91455 13.7324V9.82133C5.27479 10.2429 5.59759 10.5252 5.67552 10.5946C5.80581 10.7051 5.97109 10.7657 6.14193 10.7657C6.31276 10.7657 6.47805 10.7051 6.60833 10.5946C6.72309 10.4921 7.3693 9.92381 7.89278 9.1297H9.92654C10.0941 9.13031 10.2334 9.26901 10.2334 9.43716ZM11.972 10.5823H10.9489C10.8676 10.5823 10.7895 10.6146 10.732 10.6722C10.6744 10.7297 10.6421 10.8078 10.6421 10.8891V13.7324C10.6421 13.7446 10.6476 13.7545 10.6489 13.7667C10.6662 13.3999 10.8238 13.0539 11.0892 12.8C11.3545 12.5462 11.7073 12.4041 12.0745 12.4031C12.454 12.4036 12.8179 12.5546 13.0863 12.823C13.3547 13.0914 13.5057 13.4553 13.5062 13.8348C13.5062 13.9048 13.4951 13.9723 13.4853 14.0392H13.6081C13.6894 14.0392 13.7675 14.0069 13.825 13.9493C13.8826 13.8918 13.9149 13.8137 13.9149 13.7324V12.5259C13.9144 12.0106 13.7096 11.5167 13.3453 11.1523C12.9811 10.7879 12.4872 10.583 11.972 10.5823Z" fill="url(#paint1_linear_1847_11391)"/>
  </g>
  <defs>
    <linearGradient id="paint0_linear_1847_11391" x1="6.10669" y1="13.8348" x2="13.0622" y2="13.8348" gradientUnits="userSpaceOnUse">
      <stop stop-color="#29B662"/>
      <stop offset="0.0001" stop-color="#24BD63"/>
      <stop offset="1" stop-color="#1A9B4F"/>
    </linearGradient>
    <linearGradient id="paint1_linear_1847_11391" x1="4.91455" y1="11.5848" x2="13.9149" y2="11.5848" gradientUnits="userSpaceOnUse">
      <stop stop-color="#29B662"/>
      <stop offset="0.0001" stop-color="#24BD63"/>
      <stop offset="1" stop-color="#1A9B4F"/>
    </linearGradient>
    <clipPath id="clip0_1847_11391">
      <rect width="18" height="18" fill="white" transform="translate(0.00585938 0.948242)"/>
    </clipPath>
  </defs>
</svg>