<svg xmlns="http://www.w3.org/2000/svg" width="10" height="11" viewBox="0 0 10 11" fill="none">
  <g clip-path="url(#clip0_1847_11411)">
    <path d="M2.0098 9.38061C2.79334 9.37103 3.42077 8.72817 3.4112 7.94473C3.40163 7.16129 2.75868 6.53394 1.97513 6.54352C1.19159 6.55309 0.564156 7.19596 0.573728 7.9794C0.5833 8.76284 1.22625 9.39018 2.0098 9.38061Z" fill="#FFD220"/>
    <path d="M8.48441 9.38091C9.26795 9.37134 9.89538 8.72847 9.88581 7.94503C9.87624 7.16159 9.23329 6.53425 8.44974 6.54382C7.6662 6.5534 7.03877 7.19626 7.04834 7.9797C7.05791 8.76314 7.70086 9.39049 8.48441 9.38091Z" fill="#FFD220"/>
    <path d="M5.60545 2.47418C5.6895 2.5576 5.80286 2.60482 5.92128 2.60573L6.69082 5.37649C6.82965 5.87603 6.70539 6.41661 6.34891 6.79322C6.34891 6.79322 5.89098 7.28663 5.20543 7.28739C4.98915 7.28587 4.78225 7.19886 4.62988 7.04535C4.47752 6.89184 4.39207 6.68429 4.39217 6.468C4.39213 6.16862 4.42558 5.87017 4.49189 5.57822C4.57741 5.24322 4.63322 5.13391 4.73581 4.92374C5.07062 4.87791 5.19987 4.38528 4.95231 3.98411C4.69266 3.56224 4.12352 3.51391 3.43739 3.754C2.75127 3.99408 2.11021 3.86465 1.22428 3.71315C0.333544 3.5609 0.194134 4.92758 0.837493 4.92758H1.22638C0.766595 5.20135 0.393076 5.59893 0.148494 6.07489C0.120489 6.1288 0.103382 6.1877 0.098152 6.24822C0.0929221 6.30875 0.0996717 6.36971 0.118015 6.42762C0.136358 6.48554 0.165935 6.53927 0.205056 6.58575C0.244176 6.63223 0.292073 6.67054 0.346008 6.69849C0.397488 6.72436 0.455748 6.73356 0.512693 6.72479C0.569637 6.71603 0.622437 6.68975 0.663757 6.6496C0.877732 6.43204 1.14214 6.27072 1.43349 6.17997C1.61507 6.12564 1.80333 6.09686 1.99285 6.09445C2.48797 6.09501 2.96265 6.29195 3.31274 6.64207C3.66282 6.99219 3.85972 7.46689 3.86023 7.96201C3.86023 8.00036 3.85908 8.03903 3.85678 8.07803C3.85593 8.09112 3.85779 8.10425 3.86223 8.1166C3.86667 8.12895 3.8736 8.14026 3.88259 8.14983C3.89158 8.15939 3.90244 8.16701 3.91449 8.1722C3.92654 8.1774 3.93953 8.18007 3.95266 8.18004H6.11956C6.24267 8.17656 6.36041 8.1289 6.45128 8.04578C6.54216 7.96265 6.60009 7.84961 6.61449 7.72729C6.6595 7.37267 6.80531 7.03841 7.03461 6.76417C7.2639 6.48994 7.56707 6.28725 7.90812 6.18016C8.0897 6.12584 8.27796 6.09705 8.46748 6.09464C8.89878 6.09426 9.31679 6.24387 9.64988 6.51786C9.78565 6.62927 9.97837 6.4726 9.89496 6.31804L9.89265 6.31401C9.61561 5.82266 9.19484 5.42785 8.68686 5.18262C8.61418 5.14734 8.54055 5.1157 8.46653 5.08674C8.4416 3.80424 6.95295 2.60631 6.95295 2.60631C7.35278 2.6297 7.36677 2.23161 7.36677 2.23161C7.39132 1.74894 7.06456 1.36216 6.61373 1.3357C6.50017 1.32981 6.38759 1.35936 6.29157 1.42026L6.03077 1.58403C5.94347 1.64027 5.85131 1.68859 5.7554 1.72842C5.6894 1.75512 5.63057 1.79693 5.58365 1.85048C5.53673 1.90403 5.50301 1.96784 5.48521 2.03678C5.48521 2.03678 5.36498 2.07244 5.32087 2.11348C5.28968 2.14014 5.26686 2.17525 5.25517 2.21458C5.24348 2.25391 5.24342 2.29578 5.255 2.33515C5.26657 2.37451 5.28929 2.40969 5.32041 2.43643C5.35152 2.46318 5.38971 2.48035 5.43037 2.48588C5.43037 2.48588 5.49173 2.49624 5.60545 2.47418Z" fill="url(#paint0_linear_1847_11411)"/>
  </g>
  <defs>
    <linearGradient id="paint0_linear_1847_11411" x1="0.0964356" y1="4.7575" x2="9.9152" y2="4.7575" gradientUnits="userSpaceOnUse">
      <stop stop-color="#29B662"/>
      <stop offset="0.0001" stop-color="#24BD63"/>
      <stop offset="1" stop-color="#1A9B4F"/>
    </linearGradient>
    <clipPath id="clip0_1847_11411">
      <rect width="9.81818" height="9.81818" fill="white" transform="translate(0.0966797 0.448242)"/>
    </clipPath>
  </defs>
</svg>