<svg xmlns="http://www.w3.org/2000/svg" width="19" height="19" viewBox="0 0 19 19" fill="none">
  <g clip-path="url(#clip0_1847_11398)">
    <path d="M14.6309 18.9482H3.38086C2.48575 18.9482 1.62731 18.5927 0.994374 17.9597C0.361439 17.3268 0.00585938 16.4683 0.00585938 15.5732L0.00585938 4.32324C0.00585938 3.42814 0.361439 2.56969 0.994374 1.93676C1.62731 1.30382 2.48575 0.948242 3.38086 0.948242L14.6309 0.948242C15.526 0.948242 16.3844 1.30382 17.0173 1.93676C17.6503 2.56969 18.0059 3.42814 18.0059 4.32324V15.5732C18.0059 16.4683 17.6503 17.3268 17.0173 17.9597C16.3844 18.5927 15.526 18.9482 14.6309 18.9482Z" fill="#FFF8DE"/>
    <path d="M6.88334 14.8574C6.78173 14.8575 6.68153 14.8336 6.59091 14.7877C6.50029 14.7417 6.42181 14.675 6.36187 14.593L5.57714 13.5174C5.55819 13.4918 5.53564 13.4691 5.5102 13.4499L4.35926 12.6017C4.28448 12.5463 4.22249 12.4755 4.1775 12.3941C4.13252 12.3127 4.10559 12.2226 4.09854 12.1298C4.0915 12.0371 4.1045 11.9439 4.13668 11.8566C4.16885 11.7693 4.21944 11.69 4.285 11.624C4.38071 11.5272 4.50358 11.4619 4.6373 11.4365C4.77102 11.4112 4.90928 11.4272 5.03373 11.4822L5.90566 11.8631L7.67932 9.95219C7.71082 9.91788 7.71082 9.87906 7.70801 9.85938C7.7052 9.83969 7.69451 9.802 7.65401 9.77781L4.60283 8.16338C4.51164 8.11104 4.43388 8.0382 4.37569 7.95063C4.3175 7.86305 4.28049 7.76315 4.26757 7.6588C4.24225 7.45067 4.31257 7.24647 4.46051 7.09853C4.60508 6.95284 4.81041 6.89209 5.0118 6.93709L9.47099 7.88156C9.49045 7.88598 9.51072 7.88529 9.52984 7.87958C9.54896 7.87386 9.56628 7.86331 9.58012 7.84893L11.1794 6.15012C11.3504 5.96899 11.6384 5.86268 11.9703 5.85761C12.3095 5.85143 12.629 5.95943 12.8119 6.14281C12.9953 6.32619 13.1016 6.6412 13.0965 6.9849C13.092 7.31679 12.9851 7.6048 12.8046 7.77524H12.804L11.1006 9.38067C11.0859 9.3945 11.075 9.41196 11.0691 9.4313C11.0632 9.45065 11.0624 9.4712 11.0669 9.49093L12.0929 14.0018C12.1408 14.2037 12.0811 14.4141 11.9326 14.562C11.8606 14.6345 11.773 14.6896 11.6765 14.7232C11.5801 14.7569 11.4772 14.7682 11.3757 14.7563C11.2743 14.7443 11.1768 14.7095 11.0908 14.6544C11.0047 14.5994 10.9323 14.5254 10.879 14.4383L9.17285 11.2848C9.15597 11.2584 9.1194 11.2482 9.09915 11.2454C9.08266 11.2432 9.06588 11.2447 9.05002 11.2497C9.03417 11.2548 9.01963 11.2633 9.00746 11.2747L7.10048 13.0472L7.48131 13.9196C7.59326 14.1761 7.53813 14.4703 7.34012 14.6684C7.21888 14.7893 7.05462 14.8573 6.88334 14.8574Z" fill="url(#paint0_linear_1847_11398)"/>
  </g>
  <defs>
    <linearGradient id="paint0_linear_1847_11398" x1="4.09668" y1="10.3574" x2="13.0967" y2="10.3574" gradientUnits="userSpaceOnUse">
      <stop stop-color="#29B662"/>
      <stop offset="0.0001" stop-color="#24BD63"/>
      <stop offset="1" stop-color="#1A9B4F"/>
    </linearGradient>
    <clipPath id="clip0_1847_11398">
      <rect width="18" height="18" fill="white" transform="translate(0.00585938 0.948242)"/>
    </clipPath>
  </defs>
</svg>