<svg xmlns="http://www.w3.org/2000/svg" width="19" height="19" viewBox="0 0 19 19" fill="none">
  <g clip-path="url(#clip0_1847_11385)">
    <path d="M14.6309 18.9482H3.38086C2.48575 18.9482 1.62731 18.5927 0.994374 17.9597C0.361439 17.3268 0.00585938 16.4683 0.00585938 15.5732L0.00585938 4.32324C0.00585938 3.42814 0.361439 2.56969 0.994374 1.93676C1.62731 1.30382 2.48575 0.948242 3.38086 0.948242L14.6309 0.948242C15.526 0.948242 16.3844 1.30382 17.0173 1.93676C17.6503 2.56969 18.0059 3.42814 18.0059 4.32324V15.5732C18.0059 16.4683 17.6503 17.3268 17.0173 17.9597C16.3844 18.5927 15.526 18.9482 14.6309 18.9482Z" fill="#FFF8DE"/>
    <path d="M9.31277 5.34594V5.8571H8.69913V5.34594C8.69913 5.17842 8.83843 5.03912 9.00595 5.03912C9.17347 5.03912 9.31277 5.17842 9.31277 5.34594ZM10.3357 6.2664H7.67682C7.59544 6.2664 7.5174 6.29872 7.45986 6.35626C7.40232 6.4138 7.37 6.49184 7.37 6.57321V7.90296H10.6425V6.57321C10.6425 6.49184 10.6102 6.4138 10.5527 6.35626C10.4951 6.29872 10.4171 6.2664 10.3357 6.2664ZM6.44893 8.31165C6.28141 8.31165 6.14211 8.45094 6.14211 8.61846V10.128L8.69913 9.20326V8.31165H6.44893ZM11.563 8.31165H9.31277V9.19958L11.8698 10.128V8.61846C11.8698 8.45094 11.7305 8.31165 11.563 8.31165ZM12.4712 10.7785L9.10843 9.56347C9.04253 9.53892 8.96999 9.53892 8.90409 9.56347L5.54136 10.7785C5.47011 10.8039 5.41071 10.8547 5.37449 10.9211C5.33828 10.9876 5.32778 11.065 5.345 11.1387L5.78252 13.0489C5.7905 13.0446 5.79909 13.0446 5.80707 13.0446C5.86413 13.0324 5.90954 13.0324 5.93777 13.0324C6.2857 13.0324 6.6005 13.1919 6.77661 13.4662C6.93186 13.6994 7.18591 13.8344 7.47186 13.8344C7.75843 13.8344 8.01186 13.6994 8.17141 13.4619C8.34322 13.1919 8.65802 13.0324 9.00595 13.0324C9.35388 13.0324 9.66868 13.1919 9.84479 13.4662C10 13.6994 10.2541 13.8344 10.54 13.8344C10.8266 13.8344 11.08 13.6994 11.2396 13.4619C11.4114 13.1919 11.7262 13.0324 12.0741 13.0324C12.103 13.0324 12.1478 13.0324 12.2048 13.0446C12.2128 13.0446 12.2214 13.0446 12.2294 13.0489L12.6669 11.1387C12.6844 11.0651 12.6742 10.9876 12.638 10.9211C12.6019 10.8546 12.5425 10.8038 12.4712 10.7785Z" fill="url(#paint0_linear_1847_11385)"/>
    <path d="M13.9149 14.5027C13.9149 14.6963 13.7756 14.8573 13.608 14.8573H4.4035C4.23598 14.8573 4.09668 14.6963 4.09668 14.5027C4.09668 14.309 4.23598 14.148 4.4035 14.148C4.82875 14.148 5.2135 13.9068 5.44238 13.5047C5.49033 13.422 5.55478 13.3539 5.6303 13.3062C5.70581 13.2584 5.79016 13.2323 5.87622 13.2302C5.89647 13.2209 5.91734 13.2209 5.93759 13.2209C6.13395 13.2209 6.32602 13.3153 6.43279 13.5047C6.66168 13.9068 7.04643 14.148 7.47168 14.148C7.89693 14.148 8.28168 13.9068 8.51057 13.5047C8.61672 13.3153 8.80941 13.2209 9.00577 13.2209C9.20213 13.2209 9.3942 13.3153 9.50097 13.5047C9.72986 13.9068 10.1146 14.148 10.5399 14.148C10.9651 14.148 11.3499 13.9068 11.5787 13.5047C11.6849 13.3153 11.8776 13.2209 12.074 13.2209C12.0942 13.2209 12.1151 13.2209 12.1353 13.2302C12.2214 13.2323 12.3058 13.2583 12.3813 13.3061C12.4568 13.3539 12.5212 13.422 12.5692 13.5047C12.798 13.9068 13.1828 14.148 13.608 14.148C13.7756 14.148 13.9149 14.309 13.9149 14.5027Z" fill="#FFD220"/>
  </g>
  <defs>
    <linearGradient id="paint0_linear_1847_11385" x1="5.33691" y1="9.43675" x2="12.6753" y2="9.43675" gradientUnits="userSpaceOnUse">
      <stop stop-color="#29B662"/>
      <stop offset="0.0001" stop-color="#24BD63"/>
      <stop offset="1" stop-color="#1A9B4F"/>
    </linearGradient>
    <clipPath id="clip0_1847_11385">
      <rect width="18" height="18" fill="white" transform="translate(0.00585938 0.948242)"/>
    </clipPath>
  </defs>
</svg>