<svg xmlns="http://www.w3.org/2000/svg" width="11" height="11" viewBox="0 0 11 11" fill="none">
  <path d="M3.40592 11C3.28173 11.0002 3.15927 10.971 3.0485 10.9148C2.93774 10.8587 2.84182 10.7771 2.76857 10.6769L1.80945 9.36232C1.78629 9.33103 1.75873 9.30324 1.72763 9.27981L0.32093 8.24303C0.229535 8.1754 0.153771 8.0889 0.098786 7.98939C0.0438014 7.88987 0.0108848 7.77969 0.00227461 7.66633C-0.00633558 7.55296 0.00956219 7.43907 0.0488868 7.3324C0.0882115 7.22572 0.150042 7.12877 0.230175 7.04811C0.347149 6.92985 0.497317 6.84995 0.660755 6.819C0.824193 6.78806 0.993178 6.80754 1.14529 6.87486L2.21097 7.34031L4.37879 5.00479C4.41729 4.96285 4.41729 4.91541 4.41385 4.89135C4.41041 4.86729 4.39735 4.82122 4.34785 4.79166L0.618634 2.81847C0.50718 2.75449 0.412136 2.66547 0.341016 2.55844C0.269897 2.4514 0.224653 2.32929 0.208861 2.20176C0.177922 1.94738 0.263864 1.6978 0.444687 1.51699C0.621384 1.33892 0.872336 1.26466 1.11848 1.31967L6.5686 2.47402C6.59238 2.47942 6.61716 2.47859 6.64053 2.4716C6.6639 2.46461 6.68506 2.45171 6.70198 2.43414L8.65665 0.35782C8.86567 0.136438 9.21769 0.00649602 9.62333 0.000308304C10.0379 -0.00725446 10.4284 0.12475 10.6519 0.348883C10.876 0.573016 11.006 0.958029 10.9998 1.37811C10.9943 1.78374 10.8637 2.13576 10.643 2.34408H10.6423L8.5604 4.30627C8.54236 4.32318 8.52906 4.34451 8.52182 4.36815C8.51458 4.39179 8.51366 4.41692 8.51915 4.44102L9.77322 9.95428C9.83166 10.2011 9.75878 10.4582 9.57727 10.639C9.48921 10.7276 9.38218 10.795 9.26427 10.8361C9.14636 10.8772 9.02065 10.891 8.89662 10.8764C8.7726 10.8619 8.6535 10.8193 8.54833 10.752C8.44316 10.6847 8.35466 10.5943 8.28951 10.4878L6.2042 6.63354C6.18358 6.60122 6.13889 6.58885 6.11413 6.58541C6.09397 6.58271 6.07346 6.58452 6.05408 6.5907C6.03471 6.59688 6.01694 6.60728 6.00207 6.62116L3.67131 8.78755L4.13677 9.8539C4.27359 10.1674 4.20621 10.527 3.9642 10.769C3.81603 10.9169 3.61526 10.9999 3.40592 11Z" fill="url(#paint0_linear_2913_25940)"/>
  <defs>
    <linearGradient id="paint0_linear_2913_25940" x1="1.92085e-08" y1="5.5" x2="11" y2="5.5" gradientUnits="userSpaceOnUse">
      <stop stop-color="#29B662"/>
      <stop offset="0.0001" stop-color="#24BD63"/>
      <stop offset="1" stop-color="#1A9B4F"/>
    </linearGradient>
  </defs>
</svg>