<svg xmlns="http://www.w3.org/2000/svg" width="12" height="12" viewBox="0 0 12 12" fill="none">
  <path d="M2.5 0C1.12136 0 0 1.22266 0 2.72555C0 4.79938 2.16397 6.81669 2.25623 6.90229C2.32395 6.96532 2.41048 7 2.5 7C2.58952 7 2.67605 6.96532 2.74377 6.90229C2.83603 6.8175 5 4.80019 5 2.72555C5.00075 1.22266 3.87864 0 2.5 0ZM2.5 3.76892C2.24293 3.75579 2.00043 3.6366 1.82281 3.43608C1.64519 3.23556 1.5461 2.96912 1.5461 2.69203C1.5461 2.41495 1.64519 2.1485 1.82281 1.94798C2.00043 1.74746 2.24293 1.62827 2.5 1.61514C2.75707 1.62827 2.99957 1.74746 3.17719 1.94798C3.35481 2.1485 3.45389 2.41495 3.45389 2.69203C3.45389 2.96912 3.35481 3.23556 3.17719 3.43608C2.99957 3.6366 2.75707 3.75579 2.5 3.76892Z" fill="#FFD220"/>
  <path d="M3.7502 9.50075C3.58246 9.49494 3.41526 9.52296 3.25858 9.58314C3.10189 9.64332 2.95893 9.73443 2.83821 9.85104C2.71749 9.96765 2.62148 10.1074 2.55591 10.2619C2.49034 10.4164 2.45654 10.5825 2.45654 10.7504C2.45654 10.9182 2.49034 11.0843 2.55591 11.2388C2.62148 11.3933 2.71749 11.5331 2.83821 11.6497C2.95893 11.7663 3.10189 11.8574 3.25858 11.9176C3.41526 11.9778 3.58246 12.0058 3.7502 12C4.07413 11.9887 4.38103 11.8522 4.60621 11.619C4.8314 11.3859 4.95726 11.0745 4.95726 10.7504C4.95726 10.4262 4.8314 10.1148 4.60621 9.88167C4.38103 9.64855 4.07413 9.51198 3.7502 9.50075ZM9.75071 9.50075C9.58297 9.49494 9.41577 9.52296 9.25909 9.58314C9.1024 9.64332 8.95944 9.73443 8.83872 9.85104C8.718 9.96765 8.62199 10.1074 8.55642 10.2619C8.49085 10.4164 8.45705 10.5825 8.45705 10.7504C8.45705 10.9182 8.49085 11.0843 8.55642 11.2388C8.62199 11.3933 8.718 11.5331 8.83872 11.6497C8.95944 11.7663 9.1024 11.8574 9.25909 11.9176C9.41577 11.9778 9.58297 12.0058 9.75071 12C10.0746 11.9887 10.3815 11.8522 10.6067 11.619C10.8319 11.3859 10.9578 11.0745 10.9578 10.7504C10.9578 10.4262 10.8319 10.1148 10.6067 9.88167C10.3815 9.64855 10.0746 9.51198 9.75071 9.50075Z" fill="url(#paint0_linear_2913_25934)"/>
  <path d="M7.50031 5.37529V10.6257C7.50031 10.8305 7.33005 11.0008 7.12528 11.0008H5.47514C5.48489 10.9205 5.49989 10.8358 5.49989 10.751C5.49989 9.78567 4.71533 9.00035 3.75 9.00035C2.78466 9.00035 2.0001 9.78567 2.0001 10.7503C2.0001 10.835 2.0151 10.9205 2.02485 11H1.37454C1.27532 10.9992 1.18039 10.9595 1.11022 10.8893C1.04006 10.8191 1.0003 10.7242 0.999512 10.625V5.84483C1.4398 6.36013 1.83433 6.70516 1.92959 6.78991C2.08883 6.92496 2.29084 6.99909 2.49964 6.99909C2.70843 6.99909 2.91045 6.92496 3.06969 6.78991C3.20995 6.66465 3.99977 5.97009 4.63957 4.99951H7.12528C7.33005 5.00026 7.50031 5.16978 7.50031 5.37529ZM9.62525 6.77491H8.37489C8.27542 6.77491 8.18003 6.81443 8.1097 6.88476C8.03937 6.95509 7.99986 7.05048 7.99986 7.14995V10.625C7.99986 10.64 8.00661 10.652 8.00811 10.667C8.02928 10.2187 8.22194 9.7957 8.54626 9.48549C8.87057 9.17527 9.30172 9.00158 9.75051 9.00035C10.2144 9.00095 10.6592 9.1855 10.9872 9.51354C11.3153 9.84158 11.4998 10.2863 11.5004 10.7503C11.5004 10.8358 11.4869 10.9183 11.4749 11H11.6249C11.7244 11 11.8198 10.9605 11.8901 10.8902C11.9604 10.8198 11.9999 10.7245 11.9999 10.625V9.15037C11.9994 8.52067 11.749 7.91692 11.3038 7.47159C10.8586 7.02626 10.2549 6.77571 9.62525 6.77491Z" fill="url(#paint1_linear_2913_25934)"/>
  <defs>
    <linearGradient id="paint0_linear_2913_25934" x1="2.45654" y1="10.7504" x2="10.9578" y2="10.7504" gradientUnits="userSpaceOnUse">
      <stop stop-color="#29B662"/>
      <stop offset="0.0001" stop-color="#24BD63"/>
      <stop offset="1" stop-color="#1A9B4F"/>
    </linearGradient>
    <linearGradient id="paint1_linear_2913_25934" x1="0.999512" y1="8.00014" x2="11.9999" y2="8.00014" gradientUnits="userSpaceOnUse">
      <stop stop-color="#29B662"/>
      <stop offset="0.0001" stop-color="#24BD63"/>
      <stop offset="1" stop-color="#1A9B4F"/>
    </linearGradient>
  </defs>
</svg>