<svg xmlns="http://www.w3.org/2000/svg" width="12" height="12" viewBox="0 0 12 12" fill="none">
  <g clip-path="url(#clip0_2909_12734)">
    <path d="M2.33888 10.9176C3.29655 10.9059 4.0634 10.1201 4.05171 9.1626C4.04001 8.20506 3.25418 7.4383 2.29651 7.45001C1.33884 7.46171 0.571984 8.24743 0.583683 9.20497C0.595382 10.1625 1.38121 10.9293 2.33888 10.9176Z" fill="#FFD220"/>
    <path d="M10.251 10.918C11.2087 10.9063 11.9755 10.1206 11.9638 9.16308C11.9521 8.20555 11.1663 7.43879 10.2086 7.45049C9.25095 7.46219 8.48409 8.24792 8.49579 9.20546C8.50749 10.163 9.29332 10.9297 10.251 10.918Z" fill="#FFD220"/>
    <path d="M6.73324 2.47637C6.83597 2.57832 6.97452 2.63603 7.11925 2.63715L8.0598 6.02363C8.22949 6.63418 8.07761 7.29488 7.64191 7.7552C7.64191 7.7552 7.08222 8.35824 6.24433 8.35918C5.97998 8.35732 5.7271 8.25098 5.54088 8.06335C5.35466 7.87572 5.25022 7.62205 5.25035 7.3577C5.25029 6.99179 5.29117 6.62702 5.37222 6.2702C5.47675 5.86074 5.54496 5.72715 5.67035 5.47027C6.07957 5.41426 6.23753 4.81215 5.93496 4.32184C5.61761 3.80621 4.92199 3.74715 4.08339 4.04059C3.2448 4.33402 2.46128 4.17582 1.37847 3.99067C0.289799 3.80457 0.119409 5.47496 0.905737 5.47496H1.38105C0.819084 5.80957 0.362561 6.2955 0.0636273 6.87723C0.0293981 6.94312 0.00848984 7.01511 0.00209784 7.08908C-0.00429417 7.16306 0.00395535 7.23757 0.0263749 7.30835C0.0487944 7.37914 0.0849443 7.44481 0.132758 7.50161C0.180572 7.55842 0.239113 7.60525 0.305034 7.63941C0.367953 7.67103 0.43916 7.68227 0.508759 7.67156C0.578357 7.66085 0.642891 7.62872 0.693393 7.57965C0.954918 7.31375 1.27809 7.11658 1.63417 7.00567C1.85611 6.93927 2.08621 6.90408 2.31785 6.90113C2.92299 6.90182 3.50315 7.14253 3.93104 7.57045C4.35892 7.99838 4.59957 8.57857 4.60019 9.18371C4.60019 9.23059 4.59878 9.27785 4.59597 9.32551C4.59494 9.34152 4.59722 9.35756 4.60264 9.37266C4.60807 9.38776 4.61654 9.40158 4.62753 9.41327C4.63851 9.42495 4.65178 9.43426 4.66651 9.44062C4.68124 9.44697 4.69712 9.45023 4.71316 9.4502H7.3616C7.51206 9.44594 7.65597 9.38769 7.76704 9.28609C7.8781 9.18449 7.94891 9.04633 7.96652 8.89684C8.02153 8.46341 8.19973 8.05487 8.47999 7.71969C8.76024 7.38452 9.13077 7.13679 9.54761 7.0059C9.76955 6.9395 9.99965 6.90432 10.2313 6.90137C10.7584 6.9009 11.2693 7.08377 11.6764 7.41863C11.8424 7.55481 12.0779 7.36332 11.976 7.17442L11.9732 7.16949C11.6346 6.56895 11.1203 6.08641 10.4994 5.78668C10.4106 5.74356 10.3206 5.70488 10.2301 5.66949C10.1996 4.10199 8.38019 2.63785 8.38019 2.63785C8.86886 2.66645 8.88597 2.17988 8.88597 2.17988C8.91597 1.58996 8.5166 1.11723 7.96558 1.08488C7.82679 1.07769 7.68919 1.11381 7.57183 1.18824L7.25308 1.3884C7.14637 1.45714 7.03374 1.5162 6.91652 1.56488C6.83584 1.59752 6.76395 1.64861 6.7066 1.71406C6.64924 1.77951 6.60804 1.8575 6.58628 1.94176C6.58628 1.94176 6.43933 1.98535 6.38542 2.03551C6.3473 2.06809 6.31941 2.111 6.30513 2.15907C6.29084 2.20714 6.29077 2.25832 6.30491 2.30643C6.31906 2.35455 6.34682 2.39754 6.38485 2.43023C6.42288 2.46292 6.46956 2.48391 6.51925 2.49067C6.51925 2.49067 6.59425 2.50332 6.73324 2.47637Z" fill="url(#paint0_linear_2909_12734)"/>
  </g>
  <defs>
    <linearGradient id="paint0_linear_2909_12734" x1="2.0956e-08" y1="5.26709" x2="12.0007" y2="5.26709" gradientUnits="userSpaceOnUse">
      <stop stop-color="#29B662"/>
      <stop offset="0.0001" stop-color="#24BD63"/>
      <stop offset="1" stop-color="#1A9B4F"/>
    </linearGradient>
    <clipPath id="clip0_2909_12734">
      <rect width="12" height="12" fill="white"/>
    </clipPath>
  </defs>
</svg>