<svg xmlns="http://www.w3.org/2000/svg" width="12" height="12" viewBox="0 0 12 12" fill="none">
  <g clip-path="url(#clip0_2913_25947)">
    <path d="M2.33815 10.9173C3.29581 10.9056 4.06267 10.1199 4.05097 9.16235C4.03927 8.20481 3.25345 7.43806 2.29578 7.44976C1.33811 7.46146 0.571252 8.24719 0.582951 9.20472C0.59465 10.1623 1.38048 10.929 2.33815 10.9173Z" fill="#FFD220"/>
    <path d="M10.2515 10.9176C11.2091 10.9059 11.976 10.1201 11.9643 9.1626C11.9526 8.20506 11.1668 7.4383 10.2091 7.45001C9.25144 7.46171 8.48458 8.24743 8.49628 9.20497C8.50798 10.1625 9.29381 10.9293 10.2515 10.9176Z" fill="#FFD220"/>
    <path d="M6.73287 2.47612C6.8356 2.57808 6.97415 2.63579 7.11889 2.63691L8.05943 6.02339C8.22912 6.63394 8.07725 7.29464 7.64154 7.75495C7.64154 7.75495 7.08185 8.358 6.24396 8.35894C5.97962 8.35708 5.72674 8.25073 5.54051 8.06311C5.35429 7.87548 5.24985 7.62181 5.24998 7.35745C5.24993 6.99154 5.29081 6.62677 5.37185 6.26995C5.47639 5.8605 5.54459 5.72691 5.66998 5.47003C6.0792 5.41401 6.23717 4.81191 5.93459 4.32159C5.61725 3.80597 4.92162 3.74691 4.08303 4.04034C3.24443 4.33378 2.46092 4.17558 1.3781 3.99042C0.289433 3.80433 0.119042 5.47472 0.905371 5.47472H1.38068C0.818718 5.80933 0.362194 6.29525 0.0632611 6.87698C0.0290318 6.94287 0.00812363 7.01486 0.00173162 7.08884C-0.00466039 7.16281 0.00358914 7.23732 0.0260087 7.30811C0.0484282 7.37889 0.0845781 7.44456 0.132392 7.50137C0.180206 7.55818 0.238747 7.605 0.304667 7.63917C0.367587 7.67079 0.438794 7.68202 0.508392 7.67131C0.577991 7.6606 0.642525 7.62848 0.693027 7.57941C0.954551 7.3135 1.27772 7.11633 1.63381 7.00542C1.85574 6.93902 2.08584 6.90384 2.31748 6.90089C2.92263 6.90157 3.50279 7.14228 3.93067 7.57021C4.35855 7.99813 4.5992 8.57832 4.59982 9.18347C4.59982 9.23034 4.59842 9.27761 4.5956 9.32526C4.59458 9.34127 4.59685 9.35732 4.60228 9.37242C4.6077 9.38751 4.61617 9.40133 4.62716 9.41302C4.63815 9.42471 4.65141 9.43402 4.66614 9.44037C4.68087 9.44672 4.69675 9.44999 4.71279 9.44995H7.36123C7.51169 9.4457 7.65561 9.38745 7.76667 9.28585C7.87774 9.18425 7.94854 9.04608 7.96615 8.89659C8.02116 8.46317 8.19937 8.05462 8.47962 7.71945C8.75987 7.38427 9.13041 7.13654 9.54725 7.00566C9.76918 6.93926 9.99928 6.90407 10.2309 6.90112C10.7581 6.90066 11.269 7.08352 11.6761 7.41839C11.842 7.55456 12.0776 7.36308 11.9756 7.17417L11.9728 7.16925C11.6342 6.5687 11.1199 6.08616 10.499 5.78644C10.4102 5.74331 10.3202 5.70464 10.2297 5.66925C10.1993 4.10175 8.37982 2.63761 8.37982 2.63761C8.8685 2.6662 8.8856 2.17964 8.8856 2.17964C8.9156 1.58972 8.51623 1.11698 7.96521 1.08464C7.82642 1.07744 7.68883 1.11356 7.57146 1.188L7.25271 1.38816C7.14601 1.45689 7.03337 1.51596 6.91615 1.56464C6.83548 1.59727 6.76358 1.64837 6.70623 1.71382C6.64888 1.77927 6.60767 1.85725 6.58592 1.94152C6.58592 1.94152 6.43896 1.98511 6.38506 2.03527C6.34693 2.06784 6.31904 2.11076 6.30476 2.15883C6.29047 2.2069 6.2904 2.25808 6.30455 2.30619C6.31869 2.3543 6.34646 2.3973 6.38449 2.42999C6.42252 2.46267 6.46919 2.48366 6.51889 2.49042C6.51889 2.49042 6.59389 2.50308 6.73287 2.47612Z" fill="url(#paint0_linear_2913_25947)"/>
  </g>
  <defs>
    <linearGradient id="paint0_linear_2913_25947" x1="-0.00036619" y1="5.26685" x2="12.0003" y2="5.26685" gradientUnits="userSpaceOnUse">
      <stop stop-color="#29B662"/>
      <stop offset="0.0001" stop-color="#24BD63"/>
      <stop offset="1" stop-color="#1A9B4F"/>
    </linearGradient>
    <clipPath id="clip0_2913_25947">
      <rect width="12" height="12" fill="white"/>
    </clipPath>
  </defs>
</svg>