<svg xmlns="http://www.w3.org/2000/svg" width="12" height="12" viewBox="0 0 12 12" fill="none">
  <path d="M6.375 0.375V0.99975H5.625V0.375C5.625 0.17025 5.79525 0 6 0C6.20475 0 6.375 0.17025 6.375 0.375ZM7.62526 1.5H4.3755C4.27605 1.5 4.18067 1.53951 4.11034 1.60983C4.04001 1.68016 4.0005 1.77554 4.0005 1.875V3.50025H8.00026V1.875C8.00026 1.77554 7.96075 1.68016 7.89042 1.60983C7.82009 1.53951 7.72471 1.5 7.62526 1.5ZM2.87475 3.99975C2.67 3.99975 2.49975 4.17 2.49975 4.37475V6.21975L5.625 5.0895V3.99975H2.87475ZM9.12526 3.99975H6.375V5.085L9.50026 6.21975V4.37475C9.50026 4.17 9.33001 3.99975 9.12526 3.99975ZM10.2353 7.01475L6.12525 5.52975C6.04471 5.49975 5.95605 5.49975 5.8755 5.52975L1.7655 7.01475C1.67842 7.04585 1.60582 7.10792 1.56155 7.18911C1.51729 7.27031 1.50446 7.36495 1.5255 7.455L2.06025 9.78975C2.07 9.7845 2.0805 9.7845 2.09025 9.7845C2.16 9.7695 2.2155 9.7695 2.25 9.7695C2.67525 9.7695 3.06 9.9645 3.27525 10.2998C3.465 10.5848 3.7755 10.7498 4.125 10.7498C4.47525 10.7498 4.785 10.5848 4.98 10.2945C5.19 9.9645 5.57475 9.7695 6 9.7695C6.42525 9.7695 6.81001 9.9645 7.02526 10.2998C7.215 10.5848 7.52551 10.7498 7.87501 10.7498C8.22526 10.7498 8.535 10.5848 8.73 10.2945C8.94 9.9645 9.32476 9.7695 9.75 9.7695C9.78526 9.7695 9.84 9.7695 9.90975 9.7845C9.91951 9.7845 9.93001 9.7845 9.93976 9.78975L10.4745 7.455C10.4959 7.36503 10.4834 7.27032 10.4392 7.18905C10.395 7.10779 10.3224 7.04571 10.2353 7.01475Z" fill="url(#paint0_linear_2913_25929)"/>
  <path d="M12 11.5665C12 11.8032 11.8298 12 11.625 12H0.375C0.17025 12 0 11.8032 0 11.5665C0 11.3299 0.17025 11.1331 0.375 11.1331C0.89475 11.1331 1.365 10.8383 1.64475 10.3468C1.70335 10.2458 1.78213 10.1625 1.87442 10.1041C1.96671 10.0458 2.06981 10.0139 2.175 10.0113C2.19975 10 2.22525 10 2.25 10C2.49 10 2.72475 10.1153 2.85525 10.3468C3.135 10.8383 3.60525 11.1331 4.125 11.1331C4.64475 11.1331 5.115 10.8383 5.39475 10.3468C5.5245 10.1153 5.76 10 6 10C6.24 10 6.47475 10.1153 6.60525 10.3468C6.885 10.8383 7.35525 11.1331 7.875 11.1331C8.39475 11.1331 8.865 10.8383 9.14475 10.3468C9.2745 10.1153 9.51 10 9.75 10C9.77475 10 9.80025 10 9.825 10.0113C9.9302 10.0138 10.0333 10.0457 10.1256 10.1041C10.2179 10.1625 10.2967 10.2457 10.3552 10.3468C10.635 10.8383 11.1053 11.1331 11.625 11.1331C11.8298 11.1331 12 11.3299 12 11.5665Z" fill="#FFD220"/>
  <defs>
    <linearGradient id="paint0_linear_2913_25929" x1="1.51563" y1="5.37487" x2="10.4847" y2="5.37487" gradientUnits="userSpaceOnUse">
      <stop stop-color="#29B662"/>
      <stop offset="0.0001" stop-color="#24BD63"/>
      <stop offset="1" stop-color="#1A9B4F"/>
    </linearGradient>
  </defs>
</svg>