<svg xmlns="http://www.w3.org/2000/svg" width="10" height="11" viewBox="0 0 10 11" fill="none">
  <path d="M5.375 0.375V0.99975H4.625V0.375C4.625 0.17025 4.79525 0 5 0C5.20475 0 5.375 0.17025 5.375 0.375ZM6.62526 1.5H3.3755C3.27605 1.5 3.18067 1.53951 3.11034 1.60983C3.04001 1.68016 3.0005 1.77554 3.0005 1.875V3.50025H7.00026V1.875C7.00026 1.77554 6.96075 1.68016 6.89042 1.60983C6.82009 1.53951 6.72471 1.5 6.62526 1.5ZM1.87475 3.99975C1.67 3.99975 1.49975 4.17 1.49975 4.37475V6.21975L4.625 5.0895V3.99975H1.87475ZM8.12526 3.99975H5.375V5.085L8.50026 6.21975V4.37475C8.50026 4.17 8.33001 3.99975 8.12526 3.99975ZM9.23525 7.01475L5.12525 5.52975C5.04471 5.49975 4.95605 5.49975 4.8755 5.52975L0.765504 7.01475C0.678415 7.04585 0.605818 7.10792 0.561555 7.18911C0.517292 7.27031 0.50446 7.36495 0.525505 7.455L1.06025 9.78975C1.07 9.7845 1.0805 9.7845 1.09025 9.7845C1.16 9.7695 1.2155 9.7695 1.25 9.7695C1.67525 9.7695 2.06 9.9645 2.27525 10.2998C2.465 10.5848 2.7755 10.7498 3.125 10.7498C3.47525 10.7498 3.785 10.5848 3.98 10.2945C4.19 9.9645 4.57475 9.7695 5 9.7695C5.42525 9.7695 5.81001 9.9645 6.02526 10.2998C6.215 10.5848 6.52551 10.7498 6.87501 10.7498C7.22526 10.7498 7.535 10.5848 7.73 10.2945C7.94 9.9645 8.32476 9.7695 8.75 9.7695C8.78526 9.7695 8.84 9.7695 8.90975 9.7845C8.91951 9.7845 8.93001 9.7845 8.93976 9.78975L9.4745 7.455C9.49593 7.36503 9.48336 7.27032 9.4392 7.18905C9.39504 7.10779 9.3224 7.04571 9.23525 7.01475Z" fill="url(#paint0_linear_2913_25903)"/>
  <defs>
    <linearGradient id="paint0_linear_2913_25903" x1="0.515625" y1="5.37487" x2="9.48471" y2="5.37487" gradientUnits="userSpaceOnUse">
      <stop stop-color="#29B662"/>
      <stop offset="0.0001" stop-color="#24BD63"/>
      <stop offset="1" stop-color="#1A9B4F"/>
    </linearGradient>
  </defs>
</svg>