<svg xmlns="http://www.w3.org/2000/svg" width="25" height="25" viewBox="0 0 25 25" fill="none">
    <path d="M12.5443 12.4499C13.0244 12.4499 13.4347 12.279 13.7752 11.937C14.1156 11.5951 14.2859 11.1841 14.2859 10.7039C14.2859 10.2237 14.1149 9.81344 13.773 9.47298C13.431 9.13252 13.02 8.96229 12.5398 8.96229C12.0597 8.96229 11.6494 9.13326 11.3089 9.4752C10.9685 9.81712 10.7982 10.2282 10.7982 10.7083C10.7982 11.1885 10.9692 11.5988 11.3111 11.9392C11.6531 12.2797 12.0641 12.4499 12.5443 12.4499ZM12.542 22.6637C9.86819 20.3884 7.87111 18.2751 6.55079 16.3237C5.23047 14.3723 4.57031 12.5662 4.57031 10.9054C4.57031 8.41423 5.37164 6.4296 6.97429 4.95151C8.57694 3.47342 10.4329 2.73438 12.542 2.73438C14.6512 2.73438 16.5071 3.47342 18.1098 4.95151C19.7125 6.4296 20.5138 8.41423 20.5138 10.9054C20.5138 12.5662 19.8536 14.3723 18.5333 16.3237C17.213 18.2751 15.2159 20.3884 12.542 22.6637Z" fill="url(#paint0_linear_1042_6950)"/>
    <circle cx="12.5439" cy="10.7069" r="2.39152" fill="white"/>
    <defs>
      <linearGradient id="paint0_linear_1042_6950" x1="4.57031" y1="12.699" x2="20.5138" y2="12.699" gradientUnits="userSpaceOnUse">
        <stop stop-color="#29B662"/>
        <stop offset="0.0001" stop-color="#24BD63"/>
        <stop offset="1" stop-color="#1A9B4F"/>
      </linearGradient>
    </defs>
  </svg>