<svg xmlns="http://www.w3.org/2000/svg" width="25" height="25" viewBox="0 0 25 25" fill="none">
    <path d="M3.07703 20.4789C2.66591 20.4789 2.31396 20.3325 2.02119 20.0397C1.72842 19.747 1.58203 19.395 1.58203 18.9839V7.52223H3.07703V18.9839H20.5187V20.4789H3.07703ZM6.06703 17.4889C5.65591 17.4889 5.30396 17.3425 5.01119 17.0497C4.71842 16.757 4.57203 16.405 4.57203 15.9939V6.02723C4.57203 5.6161 4.71842 5.26415 5.01119 4.97138C5.30396 4.67861 5.65591 4.53223 6.06703 4.53223H22.0137C22.4248 4.53223 22.7768 4.67861 23.0695 4.97138C23.3623 5.26415 23.5087 5.6161 23.5087 6.02723V15.9939C23.5087 16.405 23.3623 16.757 23.0695 17.0497C22.7768 17.3425 22.4248 17.4889 22.0137 17.4889H6.06703ZM8.5587 15.9939C8.5587 15.2962 8.31784 14.7065 7.83611 14.2248C7.35439 13.7431 6.7647 13.5022 6.06703 13.5022V15.9939H8.5587ZM19.522 15.9939H22.0137V13.5022C21.316 13.5022 20.7263 13.7431 20.2446 14.2248C19.7629 14.7065 19.522 15.2962 19.522 15.9939ZM14.0404 14.0006C14.8709 14.0006 15.5769 13.7099 16.1583 13.1285C16.7397 12.5471 17.0304 11.8411 17.0304 11.0106C17.0304 10.18 16.7397 9.47403 16.1583 8.89264C15.5769 8.31125 14.8709 8.02056 14.0404 8.02056C13.2098 8.02056 12.5038 8.31125 11.9224 8.89264C11.3411 9.47403 11.0504 10.18 11.0504 11.0106C11.0504 11.8411 11.3411 12.5471 11.9224 13.1285C12.5038 13.7099 13.2098 14.0006 14.0404 14.0006ZM6.06703 8.51889C6.7647 8.51889 7.35439 8.27803 7.83611 7.79631C8.31784 7.31459 8.5587 6.72489 8.5587 6.02723H6.06703V8.51889ZM22.0137 8.51889V6.02723H19.522C19.522 6.72489 19.7629 7.31459 20.2446 7.79631C20.7263 8.27803 21.316 8.51889 22.0137 8.51889Z" fill="url(#paint0_linear_1329_76564)"/>
    <defs>
      <linearGradient id="paint0_linear_1329_76564" x1="1.58203" y1="12.5056" x2="23.5087" y2="12.5056" gradientUnits="userSpaceOnUse">
        <stop stop-color="#29B662"/>
        <stop offset="0.0001" stop-color="#24BD63"/>
        <stop offset="1" stop-color="#1A9B4F"/>
      </linearGradient>
    </defs>
  </svg>